<?xml version="1.0" encoding="utf-8"?>
<!-- Generator: Adobe Illustrator 23.0.0, SVG Export Plug-In . SVG Version: 6.00 Build 0)  -->
<svg version="1.1" id="图层_1" xmlns="http://www.w3.org/2000/svg" xmlns:xlink="http://www.w3.org/1999/xlink" x="0px"
     y="0px"
     viewBox="0 0 40 24" style="enable-background:new 0 0 40 24;" xml:space="preserve">
<style type="text/css">
	.st0{opacity:0.5;}
</style>
    <!--光明区所有社区，街道，区的外框-->
    <polyline points="919.34,-971.11 919.34,-971.11 918.97,-954.81 917.45,-889.12 917.08,-872.65 931.62,-839.37 931.24,-823.07
	931.24,-823.07 930.86,-806.6 945.45,-789.79 945.07,-773.33 945.07,-773.33 944.7,-757.03 958.87,-707.45 958.11,-674.52
	973.41,-674.16 987.62,-641.06 986.87,-608.12 1002.17,-607.77 1001.79,-591.47 1001.41,-575.01 1016.38,-574.66 1031.68,-574.31
	1030.92,-541.38 1030.92,-541.38 1030.55,-525.08 1014.87,-508.97 999.52,-492.85 984.22,-493.2 983.84,-476.74 983.84,-476.74
	983.46,-460.44 998.39,-443.62 998.01,-427.15 998.01,-427.15 1012.98,-426.81 1028.28,-426.46 1042.87,-409.81 1058.17,-409.46
	1058.17,-409.46 1072.76,-392.65 1072.38,-376.19 1072,-359.72 1087.3,-359.37 1086.93,-343.07 1086.93,-343.07 1086.93,-343.07
	1071.25,-326.96 1056.28,-327.3 1056.28,-327.3 1040.6,-311.19 1040.6,-311.19 1040.6,-311.19 1025.63,-311.53 1025.63,-311.53
	1025.26,-295.23 1025.26,-295.23 1009.58,-279.12 994.23,-263 994.23,-263 994.23,-263 978.93,-263.35 978.93,-263.35
	963.96,-263.7 963.96,-263.7 949.04,-280.51 948.66,-264.05 933.36,-264.4 932.98,-248.1 932.98,-248.1 932.98,-248.1
	932.6,-231.64 947.9,-231.28 947.52,-214.82 947.52,-214.82 932.22,-215.17 931.84,-198.71 931.84,-198.71 931.47,-182.41
	946.77,-182.05 946.77,-182.05 962.07,-181.7 962.07,-181.7 977.04,-181.36 977.04,-181.36 992.34,-181.01 992.34,-181.01
	992.34,-181.01 992.34,-181.01 1007.68,-196.96 1007.68,-196.96 1022.61,-180.31 1022.61,-180.31 1037.58,-179.96 1037.58,-179.96
	1037.58,-179.96 1037.58,-179.96 1052.5,-163.15 1052.5,-163.15 1052.5,-163.15 1052.12,-146.68 1067.09,-146.34 1067.09,-146.34
	1067.09,-146.34 1067.09,-146.34 1082.39,-145.98 1082.39,-145.98 1112.28,-128.99 1112.28,-128.99 1112.28,-128.99
	1112.28,-128.99 1112.28,-128.99 1112.66,-145.29 1112.66,-145.29 1112.66,-145.29 1112.66,-145.29 1112.66,-145.29
	1112.66,-145.29 1112.66,-145.29 1112.66,-145.29 1112.66,-145.29 1112.66,-145.29 1112.66,-145.29 1112.66,-145.29
	1112.66,-145.29 1112.66,-145.29 1112.66,-145.29 1112.66,-145.29 1113.04,-161.75 1112.66,-145.29 1127.63,-144.94
	1127.63,-144.94 1127.63,-144.94 1127.63,-144.94 1127.63,-144.94 1127.63,-144.94 1127.63,-144.94 1127.63,-144.94
	1127.63,-144.94 1127.63,-144.94 1142.55,-128.29 1142.55,-128.29 1126.87,-112.18 1096.23,-96.41 1096.23,-96.41 1111.53,-96.06
	1111.53,-96.06 1111.15,-79.59 1126.12,-79.25 1141.04,-62.6 1141.04,-62.6 1141.04,-62.6 1141.04,-62.6 1141.04,-62.6
	1141.04,-62.6 1140.66,-46.13 1155.63,-45.79 1155.63,-45.79 1155.63,-45.79 1155.63,-45.79 1155.63,-45.79 1170.93,-45.43
	1170.93,-45.43 1170.93,-45.43 1170.55,-28.97 1155.25,-29.32 1170.55,-28.97 1170.55,-28.97 1170.55,-28.97 1170.55,-28.97
	1185.15,-12.33 1185.15,-12.33 1170.18,-12.67 1170.18,-12.67 1170.18,-12.67 1170.18,-12.67 1170.18,-12.67 1169.8,3.8 1169.8,3.8
	1184.77,4.14 1184.77,4.14 1184.77,4.14 1184.77,4.14 1184.77,4.14 1184.39,20.61 1184.39,20.61 1184.39,20.61 1183.63,53.37
	1168.29,69.49 1167.53,102.25 1167.15,118.72 1167.15,118.72 1151.85,118.37 1136.88,118.02 1137.26,101.56 1137.26,101.56
	1137.26,101.56 1121.96,101.21 1121.96,101.21 1121.96,101.21 1121.96,101.21 1106.99,100.86 1106.99,100.86 1106.99,100.86
	1091.69,100.51 1091.69,100.51 1091.69,100.51 1091.69,100.51 1091.31,116.97 1076.34,116.63 1075.96,133.09 1075.96,133.09
	1075.96,133.09 1075.96,133.09 1075.96,133.09 1075.96,133.09 1075.96,133.09 1060.66,132.74 1060.66,132.74 1060.29,149.04
	1060.29,149.04 1060.29,149.04 1045.32,148.7 1045.32,148.7 1044.94,165.16 1029.64,164.81 1029.64,164.81 1029.64,164.81
	1029.64,164.81 1029.64,164.81 1014.29,180.93 1014.29,180.93 1014.29,180.93 1014.29,180.93 998.99,180.58 998.62,196.88
	998.62,196.88 998.62,196.88 998.62,196.88 998.62,196.88 983.27,213 983.27,213 983.27,213 983.27,213 967.97,212.64
	967.97,212.64 967.97,212.64 967.97,212.64 967.97,212.64 967.59,229.11 967.59,229.11 952.62,228.77 952.62,228.77 952.62,228.77
	952.62,228.77 952.62,228.77 952.62,228.77 952.62,228.77 952.24,245.06 936.94,244.71 936.94,244.71 921.26,260.83 921.26,260.83
	921.26,260.83 921.26,260.83 921.26,260.83 921.26,260.83 921.26,260.83 905.92,276.95 905.92,276.95 905.92,276.95 905.92,276.95
	905.92,276.95 905.92,276.95 905.92,276.95 905.92,276.95 905.92,276.95 905.92,276.95 890.61,276.59 890.24,292.89 890.24,292.89
	890.24,292.89 890.24,292.89 890.24,292.89 890.24,292.89 889.86,309.36 889.86,309.36 874.89,309.01 874.89,309.01 874.89,309.01
	874.89,309.01 859.59,308.66 859.59,308.66 859.59,308.66 844.24,324.78 844.24,324.78 844.24,324.78 844.24,324.78 844.24,324.78
	843.87,341.08 828.19,357.19 828.19,357.19 828.19,357.19 828.19,357.19 828.19,357.19 827.81,373.66 827.81,373.66 827.81,373.66
	812.46,389.78 812.46,389.78 812.46,389.78 812.46,389.78 812.46,389.78 812.46,389.78 812.46,389.78 812.09,406.08 812.09,406.08
	796.78,405.73 796.78,405.73 796.78,405.73 796.78,405.73 796.78,405.73 796.78,405.73 796.78,405.73 781.44,421.85 781.44,421.85
	781.44,421.85 781.44,421.85 781.44,421.85 781.44,421.85 766.14,421.49 765.76,437.96 765.76,437.96 765.76,437.96 750.79,437.62
	750.79,437.62 751.17,421.15 751.17,421.15 751.17,421.15 751.17,421.15 751.17,421.15 735.49,437.26 735.49,437.26 735.49,437.26
	735.49,437.26 735.49,437.26 735.49,437.26 735.11,453.56 735.11,453.56 720.14,453.22 720.14,453.22 720.14,453.22 720.14,453.22
	720.14,453.22 719.76,469.68 719.76,469.68 719.76,469.68 704.46,469.33 704.46,469.33 704.46,469.33 704.46,469.33 704.08,485.8
	704.08,485.8 704.08,485.8 704.08,485.8 704.08,485.8 689.12,485.45 689.12,485.45 689.12,485.45 689.12,485.45 689.12,485.45
	689.12,485.45 673.81,485.1 673.81,485.1 673.44,501.4 673.44,501.4 658.47,501.05 658.47,501.05 642.79,517.17 642.79,517.17
	627.82,516.82 612.52,516.47 612.52,516.47 597.55,516.12 597.55,516.12 597.55,516.12 581.87,532.24 581.87,532.24 581.87,532.24
	566.9,531.89 551.6,531.54 537.01,514.73 537.39,498.27 537.39,498.27 522.09,497.91 522.09,497.91 507.12,497.57 491.82,497.22
	492.2,480.92 477.23,480.57 461.93,480.22 462.31,463.75 462.31,463.75 447.72,446.94 447.72,446.94 447.72,446.94 432.42,446.59
	432.42,446.59 432.04,463.06 432.04,463.06 417.07,462.71 417.07,462.71 401.77,462.36 402.15,445.9 402.15,445.9 402.15,445.9
	402.52,429.6 387.55,429.25 387.55,429.25 387.93,412.79 387.93,412.79 387.93,412.79 373.01,395.97 358.42,379.33 342.36,411.74
	327.77,394.93 312.09,411.04 297.5,394.23 297.12,410.7 281.44,426.81 266.1,442.76 265.72,459.23 265.72,459.23 219.4,490.94
	203.72,507.06 143.18,505.66 127.45,538.08 111.77,554.2 81.51,553.5 96.43,570.32 96.05,586.61 111.02,586.96 111.02,586.96
	110.64,603.42 110.64,603.42 110.64,603.42 110.26,619.89 110.26,619.89 95.29,619.55 94.92,635.84 79.62,635.49 79.24,651.96
	64.27,651.61 64.27,651.61 64.27,651.61 48.97,651.26 48.97,651.26 49.35,634.79 49.35,634.79 49.35,634.79 49.35,634.79
	34.75,618.15 34.75,618.15 35.13,601.69 35.13,601.69 19.83,601.33 20.21,584.87 20.21,584.87 5.24,584.52 5.24,584.52 5.24,584.52
	-9.68,567.87 -9.68,567.87 -9.68,567.87 -24.27,551.06 -24.27,551.06 -24.65,567.53 -39.57,550.71 -54.92,566.83 -54.92,566.83
	-54.92,566.83 -70.22,566.48 -70.6,582.78 -70.6,582.78 -70.6,582.78 -70.6,582.78 -70.6,582.78 -85.94,598.9 -85.94,598.9
	-85.94,598.9 -101.25,598.55 -100.87,582.08 -100.87,582.08 -100.87,582.08 -100.49,565.78 -115.08,548.97 -115.08,548.97
	-115.08,548.97 -130.38,548.62 -130,532.15 -130,532.15 -130,532.15 -144.97,531.81 -144.97,531.81 -160.27,531.46 -160.27,531.46
	-160.27,531.46 -175.24,531.11 -175.24,531.11 -190.54,530.76 -190.54,530.76 -190.54,530.76 -205.51,530.42 -205.51,530.42
	-220.81,530.06 -220.81,530.06 -235.78,529.72 -235.78,529.72 -235.78,529.72 -251.08,529.37 -251.08,529.37 -266.05,529.02
	-266.05,529.02 -266.05,529.02 -266.05,529.02 -265.67,512.72 -265.67,512.72 -280.97,512.37 -280.97,512.37 -281.35,528.67
	-296.32,528.32 -296.32,528.32 -311.62,527.97 -311.62,527.97 -311.62,527.97 -312.38,560.9 -312.38,560.9 -312.75,577.2
	-312.75,577.2 -327.72,576.86 -343.4,592.97 -343.4,592.97 -418.91,591.23 -434.21,590.88 -434.59,607.34 -434.59,607.34
	-434.96,623.64 -435.34,640.11 -420.8,673.23 -467.5,721.41 -467.5,721.41 -467.5,721.41 -467.5,721.41 -482.8,721.05
	-482.8,721.05 -482.8,721.05 -482.8,721.05 -483.18,737.52 -483.18,737.52 -498.15,737.17 -498.15,737.17 -498.15,737.17
	-498.15,737.17 -498.15,737.17 -498.15,737.17 -498.53,753.64 -498.53,753.64 -498.53,753.64 -498.53,753.64 -514.21,769.59
	-514.21,769.59 -498.9,769.94 -498.9,769.94 -498.53,753.64 -483.56,753.98 -483.56,753.98 -468.26,754.34 -468.63,770.64
	-468.63,770.64 -468.63,770.64 -469.01,787.1 -469.01,787.1 -469.01,787.1 -469.39,803.57 -454.42,803.91 -454.42,803.91
	-454.8,820.21 -454.8,820.21 -454.8,820.21 -454.8,820.21 -455.18,836.68 -455.18,836.68 -455.18,836.68 -455.18,836.68
	-455.18,836.68 -455.18,836.68 -470.15,836.33 -485.45,835.98 -485.07,819.51 -500.04,819.17 -530.31,818.47 -530.31,818.47
	-529.93,802.17 -529.93,802.17 -544.85,785.35 -575.12,784.66 -560.2,801.48 -560.58,817.77 -560.96,834.24 -607.28,865.95
	-622.25,865.61 -637.93,881.72 -652.9,881.38 -668.2,881.03 -682.79,864.22 -788.52,845.47 -789.28,878.24 -804.25,877.89
	-804.25,877.89 -804.25,877.89 -819.55,877.54 -819.93,894.01 -819.93,894.01 -834.89,893.66 -835.27,909.96 -850.57,909.61
	-850.57,909.61 -850.57,909.61 -850.2,893.31 -850.2,893.31 -849.82,876.84 -864.78,876.5 -864.41,860.03 -879.33,843.38
	-879.33,843.38 -894.3,843.04 -894.3,843.04 -909.22,826.22 -909.22,826.22 -924.19,825.88 -923.81,809.41 -923.81,809.41
	-923.81,809.41 -923.81,809.41 -908.47,793.46 -908.47,793.46 -908.47,793.46 -908.09,776.99 -908.09,776.99 -892.79,777.34
	-892.79,777.34 -877.44,761.22 -877.44,761.22 -862.14,761.58 -862.14,761.58 -861.76,745.28 -846.79,745.62 -846.79,745.62
	-846.79,745.62 -846.79,745.62 -846.79,745.62 -846.42,729.16 -846.42,729.16 -846.42,729.16 -846.42,729.16 -846.04,712.69
	-846.04,712.69 -860.63,696.05 -860.63,696.05 -860.63,696.05 -860.63,696.05 -875.55,679.23 -874.8,646.47 -874.8,646.47
	-859.87,663.12 -859.87,663.12 -859.87,663.12 -859.87,663.12 -844.9,663.46 -844.9,663.46 -829.6,663.81 -829.6,663.81
	-829.23,647.51 -829.23,647.51 -814.26,647.86 -829.23,647.51 -828.85,631.05 -828.85,631.05 -859.12,630.35 -859.12,630.35
	-859.12,630.35 -874.42,630 -874.42,630 -874.42,630 -889.39,629.66 -889.01,613.19 -888.63,596.89 -888.63,596.89 -888.63,596.89
	-903.93,596.54 -918.14,563.26 -917.77,546.96 -917.77,546.96 -917.39,530.5 -917.39,530.5 -902.04,514.38 -886.37,498.43
	-886.37,498.43 -885.99,481.97 -885.99,481.97 -885.99,481.97 -901.29,481.61 -901.29,481.61 -901.29,481.61 -900.91,465.15
	-915.88,464.8 -900.53,448.85 -900.53,448.85 -900.53,448.85 -884.85,432.74 -869.88,433.08 -854.2,416.97 -854.58,433.43
	-839.61,433.78 -793.66,418.36 -793.29,402.06 -792.91,385.6 -792.53,369.13 -792.53,369.13 -792.53,369.13 -807.46,352.48
	-822.43,352.14 -837.35,335.32 -836.97,318.85 -851.56,302.04 -851.56,302.04 -851.18,285.75 -851.18,285.75 -851.18,285.75
	-850.8,269.28 -850.8,269.28 -850.42,252.81 -850.05,236.52 -850.05,236.52 -865.35,236.16 -864.97,219.7 -864.97,219.7
	-864.59,203.23 -864.59,203.23 -864.59,203.23 -864.22,186.93 -863.84,170.47 -863.84,170.47 -863.84,170.47 -848.16,154.36
	-848.16,154.36 -848.16,154.36 -833.19,154.7 -833.19,154.7 -817.51,138.75 -817.51,138.75 -817.51,138.75 -817.51,138.75
	-802.54,139.1 -802.54,139.1 -802.54,139.1 -802.17,122.63 -786.48,106.52 -786.48,106.52 -786.48,106.52 -786.48,106.52
	-786.48,106.52 -786.48,106.52 -786.48,106.52 -786.48,106.52 -786.11,90.22 -786.11,90.22 -786.11,90.22 -786.11,90.22
	-801.03,73.4 -801.03,73.4 -785.73,73.76 -785.35,57.29 -785.35,57.29 -785.35,57.29 -785.35,57.29 -784.97,40.83 -784.97,40.83
	-784.97,40.83 -769.63,24.87 -769.63,24.87 -753.57,-7.71 -753.57,-7.71 -768.87,-8.06 -768.5,-24.36 -768.12,-40.82
	-783.08,-41.17 -783.08,-41.17 -783.08,-41.17 -783.08,-41.17 -783.08,-41.17 -783.08,-41.17 -798.39,-41.52 -798.01,-57.99
	-798.01,-57.99 -798.01,-57.99 -797.63,-74.29 -797.63,-74.29 -797.63,-74.29 -797.63,-74.29 -797.63,-74.29 -797.63,-74.29
	-797.63,-74.29 -797.63,-74.29 -797.25,-90.75 -797.25,-90.75 -797.25,-90.75 -797.25,-90.75 -797.25,-90.75 -811.84,-107.56
	-811.84,-107.56 -811.84,-107.56 -811.84,-107.56 -811.84,-107.56 -811.47,-123.86 -811.47,-123.86 -826.77,-124.21
	-826.77,-124.21 -826.77,-124.21 -826.39,-140.68 -826.39,-140.68 -826.39,-140.68 -826.01,-157.14 -826.01,-157.14
	-826.01,-157.14 -826.01,-157.14 -826.01,-157.14 -840.6,-173.95 -840.6,-173.95 -855.52,-190.6 -855.52,-190.6 -855.14,-207.07
	-854.77,-223.53 -854.77,-223.53 -838.71,-255.95 -838.71,-255.95 -838.71,-255.95 -838.33,-272.41 -838.33,-272.41
	-838.33,-272.41 -853.63,-272.76 -853.63,-272.76 -853.25,-289.23 -853.25,-289.23 -868.22,-289.57 -867.85,-305.87
	-867.85,-305.87 -867.85,-305.87 -883.15,-306.22 -882.77,-322.69 -882.77,-322.69 -882.77,-322.69 -897.36,-339.5 -912.66,-339.85
	-927.63,-340.2 -927.63,-340.2 -927.25,-356.5 -912.28,-356.15 -912.28,-356.15 -896.6,-372.26 -911.9,-372.62 -911.9,-372.62
	-926.49,-389.43 -926.49,-389.43 -941.79,-389.78 -971.69,-406.77 -971.69,-406.77 -971.31,-423.24 -971.31,-423.24
	-986.28,-423.58 -986.28,-423.58 -985.9,-440.05 -985.14,-472.81 -1015.41,-473.51 -1015.41,-473.51 -1030.34,-490.33
	-1030.34,-490.33 -1030.34,-490.33 -1030.34,-490.33 -1030.34,-490.33 -1029.96,-506.79 -1029.96,-506.79 -1029.96,-506.79
	-1044.93,-507.14 -1044.93,-507.14 -1044.93,-507.14 -1044.93,-507.14 -1044.93,-507.14 -1044.93,-507.14 -1044.93,-507.14
	-1044.93,-507.14 -1060.23,-507.49 -1060.23,-507.49 -1059.85,-523.79 -1059.85,-523.79 -1059.85,-523.79 -1059.85,-523.79
	-1074.82,-524.13 -1074.44,-540.6 -1059.47,-540.26 -1059.47,-540.26 -1059.47,-540.26 -1059.47,-540.26 -1059.47,-540.26
	-1059.09,-556.72 -1074.06,-557.07 -1089.36,-557.42 -1104.66,-557.77 -1104.66,-557.77 -1104.66,-557.77 -1104.66,-557.77
	-1104.28,-574.24 -1119.25,-574.58 -1119.25,-574.58 -1103.91,-590.53 -1103.53,-607 -1103.15,-623.46 -1103.15,-623.46
	-1087.47,-639.58 -1087.47,-639.58 -1071.79,-655.52 -1071.79,-655.52 -1087.1,-655.88 -1087.1,-655.88 -1087.1,-655.88
	-1087.47,-639.58 -1102.4,-656.23 -1102.4,-656.23 -1102.4,-656.23 -1102.4,-656.23 -1102.4,-656.23 -1102.4,-656.23
	-1102.02,-672.69 -1116.61,-689.5 -1116.23,-705.8 -1131.15,-722.62 -1130.77,-739.09 -1130.4,-755.55 -1130.02,-771.85
	-1129.26,-804.78 -1144.23,-805.13 -1144.23,-805.13 -1128.89,-821.08 -1113.59,-820.73 -1113.59,-820.73 -1098.62,-820.38
	-1098.62,-820.38 -1083.32,-820.03 -1067.64,-836.14 -1052.67,-835.8 -1052.29,-852.26 -1052.29,-852.26 -1052.29,-852.26
	-1022.02,-851.57 -976.07,-866.98 -914.78,-898.35 -884.13,-914.12 -884.13,-914.12 -884.13,-914.12 -838.51,-929.55
	-838.51,-929.55 -822.83,-945.49 -807.49,-961.61 -792.19,-961.26 -777.22,-960.92 -777.22,-960.92 -761.54,-977.03
	-761.54,-977.03 -776.84,-977.38 -776.84,-977.38 -776.46,-993.85 -776.08,-1010.15 -760.78,-1009.79 -760.78,-1009.79
	-760.78,-1009.79 -760.78,-1009.79 -760.4,-1026.26 -760.4,-1026.26 -744.68,-1058.84 -744.3,-1075.14 -743.54,-1108.07
	-743.54,-1108.07 -743.54,-1108.07 -727.11,-1156.95 -711.76,-1173.07 -726.35,-1189.72 -711.39,-1189.37 -711.01,-1205.84
	-711.01,-1205.84 -711.01,-1205.84 -711.01,-1205.84 -695.33,-1221.95 -695.33,-1221.95 -680.36,-1221.6 -679.98,-1238.07
	-679.98,-1238.07 -679.98,-1238.07 -648.58,-1286.6 -663.17,-1303.41 -662.41,-1336.18 -647.44,-1335.83 -647.44,-1335.83
	-647.44,-1335.83 -647.44,-1335.83 -647.44,-1335.83 -647.44,-1335.83 -647.44,-1335.83 -647.44,-1335.83 -647.44,-1335.83
	-647.44,-1335.83 -647.06,-1352.3 -647.06,-1352.3 -647.06,-1352.3 -647.06,-1352.3 -646.68,-1368.76 -646.68,-1368.76
	-646.68,-1368.76 -646.68,-1368.76 -646.31,-1385.06 -632.14,-1335.48 -632.14,-1335.48 -617.17,-1335.14 -616.79,-1351.6
	-616.79,-1351.6 -616.79,-1351.6 -616.79,-1351.6 -631.76,-1351.95 -631.76,-1351.95 -631.76,-1351.95 -631.76,-1351.95
	-631.76,-1351.95 -616.79,-1351.6 -616.41,-1368.07 -616.41,-1368.07 -616.41,-1368.07 -616.41,-1368.07 -631.38,-1368.41
	-631.38,-1368.41 -616.41,-1368.07 -616.41,-1368.07 -616.41,-1368.07 -616.41,-1368.07 -586.15,-1367.37 -586.15,-1367.37
	-586.15,-1367.37 -586.15,-1367.37 -616.79,-1351.6 -616.79,-1351.6 -587.28,-1317.97 -586.9,-1334.44 -586.9,-1334.44
	-571.6,-1334.09 -571.6,-1334.09 -571.6,-1334.09 -571.6,-1334.09 -571.6,-1334.09 -571.22,-1350.55 -571.22,-1350.55
	-571.22,-1350.55 -571.22,-1350.55 -571.6,-1334.09 -571.6,-1334.09 -571.6,-1334.09 -571.6,-1334.09 -571.6,-1334.09
	-571.6,-1334.09 -557.01,-1317.28 -557.01,-1317.28 -557.01,-1317.28 -556.63,-1333.74 -556.63,-1333.74 -541.33,-1333.39
	-556.25,-1350.21 -556.25,-1350.21 -555.88,-1366.67 -555.88,-1366.67 -540.57,-1366.32 -540.2,-1382.62 -540.2,-1382.62
	-540.2,-1382.62 -540.2,-1382.62 -539.82,-1399.08 -539.82,-1399.08 -524.47,-1415.2 -524.47,-1415.2 -524.09,-1431.67
	-524.09,-1431.67 -508.79,-1431.32 -508.42,-1447.62 -523.72,-1447.97 -508.04,-1464.08 -493.07,-1463.74 -493.07,-1463.74
	-492.69,-1480.2 -477.39,-1479.85 -477.39,-1479.85 -477.39,-1479.85 -477.39,-1479.85 -462.42,-1479.51 -462.42,-1479.51
	-462.42,-1479.51 -447.12,-1479.15 -447.12,-1479.15 -447.12,-1479.15 -447.12,-1479.15 -432.15,-1478.81 -432.15,-1478.81
	-432.15,-1478.81 -416.85,-1478.46 -416.85,-1478.46 -416.85,-1478.46 -401.88,-1478.11 -401.88,-1478.11 -401.88,-1478.11
	-401.88,-1478.11 -386.58,-1477.76 -386.58,-1477.76 -386.58,-1477.76 -386.2,-1494.22 -370.9,-1493.87 -355.93,-1493.53
	-355.93,-1493.53 -340.63,-1493.18 -340.63,-1493.18 -325.66,-1492.83 -325.66,-1492.83 -325.66,-1492.83 -310.36,-1492.48
	-310.36,-1492.48 -279.71,-1508.25 -264.74,-1507.9 -249.44,-1507.55 -249.82,-1491.08 -249.82,-1491.08 -235.23,-1474.27
	-234.85,-1490.74 -219.55,-1490.39 -219.17,-1506.85 -188.9,-1506.16 -158.26,-1521.76 -127.99,-1521.06 -128.37,-1504.76
	-98.1,-1504.07 -83.13,-1503.72 -52.48,-1519.32 -37.18,-1518.97 -22.21,-1518.63 8.06,-1517.93 68.97,-1533 99.24,-1532.3
	114.55,-1531.95 114.55,-1531.95 114.17,-1515.49 114.17,-1515.49 98.86,-1515.84 98.86,-1515.84 113.79,-1499.19 128.76,-1498.84
	128.76,-1498.84 143.68,-1482.02 143.68,-1482.02 158.27,-1465.21 173.57,-1464.86 188.54,-1464.52 203.84,-1464.17 203.46,-1447.7
	203.46,-1447.7 248.7,-1446.66 264,-1446.31 263.62,-1429.84 262.87,-1397.08 292.76,-1379.91 307.68,-1363.1 307.68,-1363.1
	337.57,-1346.1 367.46,-1328.94 382.43,-1328.59 382.05,-1312.13 366.71,-1296.01 381.3,-1279.36 365.19,-1230.31 395.09,-1213.32
	395.09,-1213.32 410.06,-1212.97 410.43,-1229.27 425.73,-1228.92 425.73,-1228.92 425.36,-1212.62 425.36,-1212.62
	439.95,-1195.81 455.25,-1195.46 470.22,-1195.11 501.24,-1227.18 516.92,-1243.29 516.92,-1243.29 531.51,-1226.48
	531.51,-1226.48 516.17,-1210.53 530.76,-1193.72 545.68,-1176.9 560.65,-1176.56 575.95,-1176.2 575.95,-1176.2 591.29,-1192.33
	591.29,-1192.33 606.6,-1191.97 621.18,-1175.16 636.49,-1174.81 636.49,-1174.81 636.49,-1174.81 636.49,-1174.81 651.45,-1174.47
	651.08,-1158 666.38,-1157.65 666.38,-1157.65 696.27,-1140.65 696.27,-1140.65 711.24,-1140.31 710.86,-1123.84 710.48,-1107.38
	710.1,-1090.91 725.03,-1074.26 694.38,-1058.49 694.38,-1058.49 679.08,-1058.84 664.11,-1059.19 648.81,-1059.54 648.43,-1043.08
	632.71,-1010.66 632.71,-1010.66 646.92,-977.38 676.43,-943.92 676.43,-943.92 676.43,-943.92 676.43,-943.92 691.73,-943.57
	692.11,-960.03 677.57,-993.15 677.57,-993.15 677.57,-993.15 692.87,-992.8 692.87,-992.8 692.49,-976.33 692.49,-976.33
	707.46,-975.99 707.46,-975.99 707.46,-975.99 723.14,-992.1 722.76,-975.64 707.46,-975.99 707.08,-959.69 707.08,-959.69
	707.08,-959.69 722.38,-959.34 737.73,-975.29 737.73,-975.29 723.14,-992.1 738.1,-991.76 738.1,-991.76 737.73,-975.29
	753.41,-991.4 784.05,-1007.17 799.4,-1023.29 814.7,-1022.94 814.7,-1022.94 815.08,-1039.24 829.67,-1022.6 829.67,-1022.6
	829.29,-1006.13 813.57,-973.54 813.57,-973.54 798.64,-990.36 783.67,-990.71 768.37,-991.06 767.99,-974.59 767.99,-974.59
	767.62,-958.3 767.62,-958.3 767.62,-958.3 798.26,-973.9 828.53,-973.2 919.34,-971.11 "/>
    <path d="M44.5-1460.5c-27-5-44,5-44,5l-18-7l-13-15l-28-4l-5.34-32.04l-19.29,9.82l-14.97-0.34l-30.27-0.7l0.38-16.3l-30.27-0.7
	l-30.64,15.6l-30.27-0.7l-0.38,16.47l-15.3-0.35l-0.38,16.47l-14.59-16.81l0.38-16.47l-15.3-0.35l-14.97-0.34l-30.65,15.77
	l-15.3-0.35l-14.97-0.34l-15.3-0.35l-14.97-0.34l-15.3-0.35l-0.38,16.47l-15.3-0.35l-14.97-0.34l-15.3-0.35l-14.97-0.34l-15.3-0.35
	l-14.97-0.34l-15.3-0.35l-0.38,16.47l-14.97-0.34l-15.68,16.11l15.3,0.35l-0.38,16.3l-15.3-0.35l-0.38,16.47l-15.35,16.12
	l-0.38,16.47l-0.38,16.3l-15.3-0.35l-0.38,16.47l14.92,16.82l-15.3-0.35l-0.38,16.47l-14.59-16.81l-15.3-0.35l-0.38,16.47
	l-29.51-33.63l-0.38,16.47l-14.97-0.34l-14.17-49.58l-0.38,16.3l-0.38,16.47l-0.38,16.47l-14.97-0.34l-0.75,32.76l14.59,16.81
	l-31.4,48.53l-0.38,16.47l-14.97-0.34l-15.68,16.11l-0.38,16.47l-14.97-0.34l14.59,16.64l-15.35,16.12l-16.43,48.88l-0.76,32.93
	l-0.38,16.3l-15.73,32.59l-0.38,16.47l-15.3-0.35l-0.38,16.3l-0.38,16.47l15.3,0.35l-15.68,16.11l-14.97-0.34l-15.3-0.35
	l-15.35,16.12l-15.68,15.95l-45.62,15.42l-30.65,15.77l-27.32,13.98l132.6,54.87l-5,17l29,13l-8,20l15,13l14,14l34,9l-5,16l23,8
	l-5,16l46,30l3-14l-9-6l3-15l8,2l5,10c0,0,15,8,25,9s17,25,17,25l-17,13l9,9l17-15l11,11l-3,20l-18-6l-7,15c0,0,38,15,75,33
	s69,91,69,91c29-26,104-119,104-119l62,2v17l8,1l18,44l11,3c6-10,21-93,21-93l-54-31v-25h38l-24-65c0,0,13-3,30-5s30,0,30,0l33-24
	l14-17c0,0-4-20-4-22s-16-7-16-7l16-30c0,0,16-23,22-31s21-14,21-14s5-21,6-26s-3-5-3-14s18-37,18-42s11-13,12-16s9,10,9,10l12-12
	v-6l12-10c0,0,1-19,1-23s14-5,17-7s6-19,5-25s10-14,10-14s20,3,20-9s6-46,5-48s6-17,6-17l-5-24h-10l12-51c0,0-15-8-20-12
	s-16-39-16-39l-16-4c0,0-13-57-13-66s18-8,26-8s24-4,24-4s10-14,20-20s25-26,25-26C20.5-1463.5,44.5-1460.5,44.5-1460.5z"/>
    <path d="M1072-359.72l0.38-16.47l0.38-16.47l-14.59-16.81l-15.3-0.35l-14.59-16.64l-15.3-0.35l-14.97-0.34l0.38-16.47l-14.92-16.82
	l0.38-16.3l0.38-16.47l15.3,0.35l15.35-16.12l15.68-16.11l0.38-16.3l0.76-32.93l-15.3-0.35l-14.97-0.34l0.38-16.47l0.38-16.3
	l-15.3-0.35l0.76-32.93l-14.21-33.11l-15.3-0.35l0.76-32.93l-14.17-49.58l0.38-16.3l0.38-16.47l-14.59-16.81l0.38-16.47l0.38-16.3
	l-14.54-33.28l0.38-16.47l1.51-65.69l0.38-16.3l-90.81-2.09l-14.97-0.34l-15.3-0.35l-30.65,15.6l0.38-16.3l0.38-16.47l15.3,0.35
	l14.97,0.34l14.92,16.82l15.73-32.59l0.38-16.47l-14.59-16.64l-0.38,16.3l-15.3-0.35l-15.35,16.12l-30.65,15.77l-15.68,16.11
	l-15.34,15.95l-15.3-0.35l0.38-16.3l-14.97-0.34l0.38-16.47l-15.3-0.35l14.55,33.12l-0.38,16.47l-15.3-0.35l-29.52-33.46
	l-14.21-33.28l15.72-32.42l0.38-16.47l15.3,0.35l14.97,0.34l15.3,0.35l30.65-15.77l-14.93-16.65l0.38-16.47l0.38-16.47l0.38-16.47
	l-14.97-0.34l-29.89-17l-15.3-0.35l0.38-16.47l-14.97-0.34l-15.3-0.35l-14.59-16.81l-15.3-0.35l-15.35,16.12l-15.3-0.35l-14.97-0.34
	l-14.92-16.82l-14.59-16.81l15.34-15.95l-14.59-16.81l-15.68,16.11l-31.02,32.07l-14.97-0.34l-15.3-0.35l-14.59-16.81l0.38-16.3
	l-15.3-0.35l-0.38,16.3l-14.97-0.34l-29.89-17l16.11-49.05l-14.59-16.64l15.35-16.12l0.38-16.47l-14.97-0.34l-29.89-17.16l-29.89-17
	l-14.92-16.82l-29.89-17.16l0.75-32.76l0.38-16.47l-15.3-0.35l-45.24-1.04l0.38-16.47l-15.3-0.35l-14.97-0.34l-15.3-0.35
	l-14.59-16.81l-14.92-16.82l-14.97-0.34l-14.93-16.65l15.3,0.35l0.38-16.47l-15.3-0.35l-30.27-0.7l-60.92,15.07l-30.27-0.7
	l-14.97-0.34l-15.3-0.35l-23.08,11.75v0l11.72-5.97l5.34,32.04l28,4l13,15l18,7c0,0,17-10,44-5c0,0-24-3-41,40c0,0-15,20-25,26
	s-20,20-20,20s-16,4-24,4s-26-1-26,8s13,66,13,66l16,4c0,0,11,35,16,39s20,12,20,12l-12,51h10l5,24c0,0-7,15-6,17s-5,36-5,48
	s-20,9-20,9s-11,8-10,14s-2,23-5,25s-17,3-17,7s-1,23-1,23l-12,10v6l-12,12c0,0-8-13-9-10s-12,11-12,16s-18,33-18,42s4,9,3,14
	s-6,26-6,26s-15,6-21,14s-22,31-22,31l-16,30c0,0,16,5,16,7s4,22,4,22l-14,17l-33,24c0,0-13-2-30,0s-30,5-30,5l24,65h-38v25l54,31
	c0,0-15,83-21,93l-5,17v13.9c7.23,2.7,20.35,7.39,26,8.1c8,1,43-3,54-1s37,31,41,37s7,8,7,8l88,7l1,91c0,0,41-8,42-8s24-3,24-3
	l13,13c0,0,3-3,7-4s19,0,19,0s17-11,22-9s15,2,15,2l4-13l-11-10l-48-1c0,0-4-15-2-22s10-21,10-21l50,13l6-20c0,0,12-2,16,0
	s11,15,11,15l9,5c0,0,23-18,26-18s2,6,2,6s15-4,22-3s16,8,16,8s9-4,9-2s4,8,8,10s4-14,4-14l23-5l12-23c0,0,7,8,9,9s15,9,15,9l13-11
	c0,0-13-10-13-12s6-7,8-7s15,4,15,4l7-18l11-8c0,0,9-5,11-7s10-7,10-7s7-1,20,0s33-3,33-3c8,10,19,14,31,20s53,3,62,3s16,6,16,6
	l20,9c0,0,48,16,50,18s-7,12-7,12l7,11l5,1l25,5l12,13l1-3l-6-26l30-21l27,2l2,6c0,0,6,14,6,26s8,21,8,21l-5,14l8,4l4-6l6-8l5,6
	l-1,8l7,7v13l16-12l-1-7l3-1l7-8h5l12,16c0,0,12,11,17,9s14-2,14-2l19-2l8,11c0,0,6,2,10,1s5-9,5-9l5-8l6,3l8-3l8,10l-3,22l-9-3h-4
	l-2,13l-12-3c0,0-2,10-3,11s-9-1-9-1v7l8,8l6-1l10,2c0,0,8-10,9-11s8,4,8,4l12,8c0,0-1-3,6-8s13,0,13,0l-10,13l5,7l6-4l6,7l-10,9
	l12,7l12-1l6-10l2,6v8l24,19l12-1l4,6l0.09,0.1l15.07,0.35l0.38-16.47l14.92,16.82l14.97,0.34l15.3,0.35l15.35-16.12l15.68-16.11
	l0.38-16.3l14.97,0.34l15.68-16.11l14.97,0.34l15.68-16.11l0.38-16.3L1072-359.72z"/>
    <path d="M-453.5-1151.5c0,0-1-14-1-15s-7-14-7-14s-1-5-1-9s-2-12-2-12s2-6,4-6s23-5,23-5s0-6,0-9s8-15,8-15c-7-7-10-32-10-32l18-16
	l5-26c0,0-1-6-5-16s-19-51-19-51s-7-31-11-40c-2.6-5.86-3.51-39.24-3.83-61.84l-7.09-0.16l-14.97-0.34l-15.3-0.35l-0.38,16.47
	l-14.97-0.34l-15.68,16.11l15.3,0.35l-0.38,16.3l-15.3-0.35l-0.38,16.47l-15.35,16.12l-0.38,16.47l-0.38,16.3l-15.3-0.35
	l-0.38,16.47l14.92,16.82l-15.3-0.35l-0.38,16.47l-14.59-16.81l-15.3-0.35l-0.38,16.47l-29.51-33.63l-0.38,16.47l-14.97-0.34
	l-14.17-49.58l-0.38,16.3l-0.38,16.47l-0.38,16.47l-14.97-0.34l-0.75,32.76l14.59,16.81l-31.4,48.53l-0.38,16.47l-14.97-0.34
	l-15.68,16.11l-0.38,16.47l-14.97-0.34l14.59,16.64l-15.35,16.12l-16.43,48.88l-0.76,32.93l-0.38,16.3l-15.73,32.59l-0.38,16.47
	l-15.3-0.35l-0.38,16.3l-0.38,16.47l15.3,0.35l-15.68,16.11l-0.77-0.02l0.49,0.43c0,0,97-8,123-7s149,51,149,51l5-13l-99-34l4-9
	l29,7l10-9h18c0,0,12-14,14-16s2-16,2-16s-4-18-9-32s0-29,0-29s9-31,10-33s8-1,8-1l4,6l30-6l3-8l-3-15l4-25L-453.5-1151.5z"/>
    <path d="M0.5-1455.5l-18-7l-13-15l-28-4l-5.34-32.04l-19.29,9.82l-14.97-0.34l-30.27-0.7l0.38-16.3l-30.27-0.7l-30.64,15.6
	l-30.27-0.7l-0.38,16.47l-15.3-0.35l-0.38,16.47l-14.59-16.81l0.38-16.47l-15.3-0.35l-14.97-0.34l-30.65,15.77l-15.3-0.35
	l-14.97-0.34l-15.3-0.35l-14.97-0.34l-15.3-0.35l-0.38,16.47l-15.3-0.35l-14.97-0.34l-15.3-0.35l-14.97-0.34l-8.21-0.19
	c0.32,22.6,1.23,55.98,3.83,61.84c4,9,11,40,11,40s15,41,19,51s5,16,5,16l-5,26l-18,16c0,0,3,25,10,32c0,0-8,12-8,15s0,9,0,9
	s-21,5-23,5s-4,6-4,6s2,8,2,12s1,9,1,9s7,13,7,14s1,15,1,15l-22,2l-4,25l3,15l-3,8l-30,6l-4-6c0,0-7-1-8,1s-10,33-10,33s-5,15,0,29
	s9,32,9,32s0,14-2,16c-0.32,0.32-0.88,0.93-1.61,1.75L-521-985l-2,9l3,2l2,6l8,2l16-1l10-5l4,30l-2,10l12-2l19-12l16-28l12-4l6-5
	l7,2l6,3l13-18v-11l-22-21l7-9l15,17l24-26l4,6l7-36l10,5l9-11l3,4v10l45-4l41-13c0,0,3-2,10-9s43-49,43-49l-19-26l11-6l3-11l12-11
	l10-12c0,0,35,5,38,7s6,14,6,14s5,5,8,10s6,10,6,10l-3,9l4,4h9v-5l7-5c0,0,4-10,5-10s9-5,9-5v-5c0,0,5-13,7-13s13-2,13-2l12,7l4-3
	l3,4l5,1v-5l-8-7c0,0-2-5-2-7s5-8,5-8l-1-10c0,0-6,1-10-2s-11-18-11-18l-1-15l-5-14l-8-4v-4l8-2l5-4h4l2.61-2.47l-12.11-3.03
	c0,0-13-57-13-66s18-8,26-8s24-4,24-4s10-14,20-20s25-26,25-26c17-43,41-40,41-40C17.5-1465.5,0.5-1455.5,0.5-1455.5z"/>
    <path d="M-28.5-1190.5h-10l12-51c0,0-15-8-20-12s-16-39-16-39l-3.89-0.97L-69-1291h-4l-5,4l-8,2v4l8,4l5,14l1,15c0,0,7,15,11,18
	s10,2,10,2l1,10c0,0-5,6-5,8s2,7,2,7l8,7v5l-5-1l-3-4l-4,3l-12-7c0,0-11,2-13,2s-7,13-7,13v5c0,0-8,5-9,5s-5,10-5,10l-7,5v5h-9l-4-4
	l3-9c0,0-3-5-6-10s-8-10-8-10s-3-12-6-14s-38-7-38-7l-10,12l-12,11l-3,11l-11,6l19,26c0,0-36,42-43,49s-10,9-10,9l-41,13l-45,4v-10
	l-3-4l-9,11l-10-5l-7,36l-4-6l-24,26l-15-17l-7,9l22,21v11l-13,18l-6-3l-7-2l-6,5l-12,4l-16,28l-19,12l-12,2l-8,26l-21-8l-7,8h-13
	l-8,8l-13,3l-43,17l-8-6l-10-3l-5-8l-13-3l9,24l-10,2l-43,25c0,0-4,51-5,57s-7,24-7,24l3,4l-3,9l10,7l-2,4l58,4v-15h24v18l39,5v21
	l15,1l7-13l14,10c0,0,15,12,22,19s24,22,24,22l8-3l10-19l23,9v58l55,14l0.33,0.72c0.11-0.13,0.17-0.22,0.17-0.22l62,2v17l8,1l18,44
	l11,3c2.65-4.41,7.05-23.05,11.14-42.5h0c5.18-24.61,9.86-50.5,9.86-50.5l-54-31v-25h38l-24-65c0,0,13-3,30-5s30,0,30,0l33-24l14-17
	c0,0-4-20-4-22s-16-7-16-7l16-30c0,0,16-23,22-31s21-14,21-14s5-21,6-26s-3-5-3-14s18-37,18-42s11-13,12-16s9,10,9,10l12-12v-6
	l12-10c0,0,1-19,1-23s14-5,17-7s6-19,5-25s10-14,10-14s20,3,20-9s6-46,5-48s6-17,6-17L-28.5-1190.5z"/>
    <path d="M-494-967l-16,1l-8-2l-2-6l-3-2l2-9l-5.11-3.75c-3.88,4.33-12.39,14.25-12.39,14.25h-18l-10,9l-29-7l-4,9l99,34l-5,13
	c0,0-123-50-149-51s-123,7-123,7l-0.49-0.43l0.77,0.02l-14.97-0.34l-15.3-0.35l-15.35,16.12l-15.68,15.95l-45.62,15.42l-30.65,15.77
	l-27.32,13.98l132.6,54.87l-5,17l29,13l-8,20l15,13l14,14l24.5,6.49l3-20.99l11,2l-1,4l10,2l1-4l11,3v5l11,4l4-12l6,1l-3-4
	c0,0,6-18,7-24s5-57,5-57l43-25l10-2l-9-24l13,3l5,8l10,3l8,6l43-17l13-3l8-8h13l7-8l21,8l8-26l2-10l-4-30L-494-967z"/>
    <path d="M-380-611l-55-14v-58l-23-9l-10,19l-8,3c0,0-17-15-24-22s-22-19-22-19l-14-10l-7,13l-15-1v-21l-39-5v-18h-24v15l-58-4l2-4
	l-10-7l3-9l-6-1l-4,12l-11-4v-5l-11-3l-1,4l-10-2l1-4l-11-2l-3,20.99l9.5,2.51l-5,16l23,8l-5,16l46,30l3-14l-9-6l3-15l8,2l5,10
	c0,0,15,8,25,9s17,25,17,25l-17,13l9,9l17-15l11,11l-3,20l-18-6l-7,15c0,0,38,15,75,33s69,91,69,91
	c28.21-25.29,99.94-113.97,103.83-118.78L-380-611z"/>
    <path d="M1170.18-12.67l14.97,0.34l-14.59-16.64l0.38-16.47l-15.3-0.35l-14.97-0.34l0.38-16.47l-14.93-16.65l-14.97-0.34l0.38-16.47
	l-15.3-0.35l30.65-15.77l15.68-16.11l-14.93-16.65l-14.97-0.34l-0.38,16.3l-29.89-17l-15.3-0.35l-14.97-0.34l0.38-16.47
	l-14.92-16.82l-14.97-0.34l-14.93-16.65l-15.34,15.95l-15.3-0.35l-14.97-0.34l-15.3-0.35l-15.3-0.35l0.38-16.3l0.38-16.47l15.3,0.35
	l0.38-16.47l-15.3-0.35l0.38-16.47l0.38-16.3l0.23,0.01l-0.09-0.1l-4-6l-12,1l-24-19v-8l-2-6l-6,10l-12,1l-12-7l10-9l-6-7l-6,4l-5-7
	l10-13c0,0-6-5-13,0s-6,8-6,8l-12-8c0,0-7-5-8-4s-9,11-9,11l-10-2l-6,1l-8-8v-7c0,0,8,2,9,1s3-11,3-11l12,3l2-13h4l9,3l3-22l-8-10
	l-8,3l-6-3l-5,8c0,0-1,8-5,9s-10-1-10-1l-8-11l-19,2c0,0-9,0-14,2s-17-9-17-9l-12-16h-5l-7,8l-3,1l1,7l-16,12v-13l-7-7l1-8l-5-6
	l-6,8l-4,6l-8-4l5-14c0,0-8-9-8-21s-6-26-6-26l-2-6l-27-2l-30,21l6,26l-1,3l-12-13l-25-5l-5-1l-7-11c0,0,9-10,7-12s-50-18-50-18
	l-20-9c0,0-7-6-16-6s-50,3-62-3s-23-10-31-20c0,0-20,4-33,3s-20,0-20,0s-8,5-10,7s-11,7-11,7l-11,8l-7,18c0,0-13-4-15-4s-8,5-8,7
	s13,12,13,12l-13,11c0,0-13-8-15-9s-9-9-9-9l-12,23l-23,5c0,0,0,16-4,14s-8-8-8-10s-9,2-9,2s-9-7-16-8s-22,3-22,3s1-6-2-6
	s-26,18-26,18l-9-5c0,0-7-13-11-15s-16,0-16,0l-6,20l-50-13c0,0-8,14-10,21s2,22,2,22l48,1l11,10l-4,13c0,0-10,0-15-2s-22,9-22,9
	s-15-1-19,0s-7,4-7,4l-13-13c0,0-23,3-24,3s-42,8-42,8l-1-91l-88-7c0,0-3-2-7-8s-30-35-41-37s-46,2-54,1
	c-5.53-0.69-18.18-5.19-25.5-7.91v2.41l-6.82,15.59l21.32,2.91l-0.09,0.42L-270-491l-4.94,22.73l26.44,10.77v0.3l0.5,0.2v9.59
	l15.5,2.91v0.41l0.5,0.09v30l-3.18,5.38c-0.1-0.28-0.21-0.56-0.31-0.83l-10.02,16.95l12.01,58.44l24.96-3.12
	c1.34,3.51,2.54,6.63,3.54,9.18c9,23,53,68,57,72s21,32,39,58s42,23,60,24s35,19,35,19S47-80,94-20s142,70,179,78s62,26,62,26
	s168,97,203,99s65-5,65-5l8,15c0,0,41,91,42,94s36,33,36,33l48.48,115.22l13.69-14.07l-0.38,16.47l14.97,0.34l0.38-16.47l15.3,0.35
	l15.35-16.12l15.3,0.35l0.38-16.3l15.35-16.12l0.38-16.47l15.68-16.11l0.38-16.3l15.35-16.12l15.3,0.35l14.97,0.34l0.38-16.47
	l0.38-16.3l15.3,0.35l15.35-16.12l15.68-16.11l15.3,0.35l0.38-16.3l14.97,0.34l0.38-16.47l15.3,0.35l15.35-16.12l0.38-16.3
	l15.3,0.35l15.35-16.12l15.3,0.35l0.38-16.47l14.97,0.34l0.38-16.3l15.3,0.35l0.38-16.47l14.97,0.34l0.38-16.47l15.3,0.35
	l14.97,0.34l15.3,0.35l-0.38,16.47l14.97,0.34l15.3,0.35l0.38-16.47l0.75-32.76l15.35-16.12l0.75-32.76l0.38-16.47L1169.8,3.8
	L1170.18-12.67z"/>
    <path d="M737.48,435.22L689,320c0,0-35-30-36-33s-42-94-42-94l-8-15c0,0-30,7-65,5S335,84,335,84s-25-18-62-26S141,40,94-20
	S-14-155-14-155s-17-18-35-19s-42,2-60-24s-35-54-39-58s-48-49-57-72c-0.24-0.62-0.5-1.28-0.77-1.97c-0.03-0.08-0.06-0.16-0.09-0.24
	c-0.24-0.62-0.49-1.27-0.75-1.94c-0.03-0.08-0.06-0.16-0.09-0.23c-0.28-0.72-0.56-1.46-0.86-2.23c0-0.01-0.01-0.02-0.01-0.02
	c-0.31-0.82-0.64-1.67-0.97-2.54l-24.96,3.12l2.99,14.56h-23v12l-18,4l-13-4l2-17l-53,11l6,26l-28,9l4,11l-27,9l2,12
	c0,0-39,13-40,13s-10-12-10-12l-17,3l5,15c0,0,2,8-2,8s-16-9-16-9l-12,7c0,0,0,8,0,9s-29,20-29,20s-12,0-19,6s-10,11-9,13
	s-17,23-17,23l-18,13c0,0-6,17-6,21s-3,8-3,8s-5-7-6-5s-7,16-7,16l9,12l42,7l-10,17c0,0,1,13-1,14s-18-9-18-9s-18,7-26,20
	s-24,33-24,33l14,8c0,0,0,11-6,14s-17,2-17,2v10c0,0-4,10-4,11s-9,10-9,10s-6,1-5,7s3,11,3,11l-17,12l37,3l95-13v8l13-1
	c0,0-1,4,2,10s23,8,23,8s7,7,9,7s13-21,13-21l14,4l3-6c0,0,17-4,24,0s22,0,22,0v7c0,0,2-1,9,0s10,4,15,7s15-1,16,2s-4,18-4,18l4,3
	l-2,9c0,0,7,2,10,0s20-15,20-15l-2-7l12-8c0,0,9,6,15,10s29,13,29,13l-12,18c0,0,13,7,15,9s19-2,19-2s9,12,17,23s7,42,7,42l18,16
	l2,7l14,2c0,0,4-9,6-9s21-16,22-18s6,4,6,4l5-6l15,10l-3,11l23-3l33,52l66-8c0,0,9,11,9,14s-6,16-6,16l3,54c0,0,0,0,8,7s32,65,32,65
	l15,7c0,0,24,24,32,30s14,49,14,49l-2,44l0.01,0.01l-0.01-0.01l30.27,0.7l15.68-16.11l15.72-32.42l60.54,1.39l15.68-16.11
	l46.32-31.72l0.38-16.47l15.34-15.95l15.68-16.11l0.38-16.47l14.59,16.81l15.68-16.11l14.59,16.81l16.06-32.41l14.59,16.64
	l14.92,16.82l-0.38,16.47l14.97,0.34l-0.38,16.3l-0.38,16.47l15.3,0.35l14.97,0.34l0.38-16.47l15.3,0.35l14.59,16.81l-0.38,16.47
	l15.3,0.35l14.97,0.34l-0.38,16.3l15.3,0.35l14.97,0.34l15.3,0.35l-0.38,16.47l14.59,16.81l15.3,0.35l14.97,0.34l15.68-16.11
	l14.97,0.34l15.3,0.35l14.97,0.34l15.68-16.11l14.97,0.34l0.38-16.3l15.3,0.35l14.97,0.34l0.38-16.47l15.3,0.35l0.38-16.47
	l14.97,0.34l0.38-16.3L737.48,435.22z"/>
    <path d="M-55.5-10.5c-3-2-11-11-11-11v-9l-5-9l-10-2l-5,13l-6,11l-8,1v-6l9-15v-6c0,0-4-10-5-13s-10-13-16-14s-18-5-21-3s-5,4-5,4
	l-2,10l-9,2c0,0-2-3-3-3s-18,0-18,0s2-5,0-5s-10,1-10,1l-2,7l4,8h-6c0,0-22-13-25-15s-4-4-9-4s-22,5-22,5l-33,3c0,0-5-6-9-8
	s-15-3-15-4s-6-14-6-14l9-10c0,0-1-5-1-6s3-8,3-8l-5-5l-8,2c0,0,6-27,6-30s-2-42-2-42s7-21,4-27s-11-43-11-43s1-24,3-27
	c1.64-2.46,16.08-19.07,21.2-24.94l-0.2-0.06l2-17l-53,11l6,26l-28,9l4,11l-27,9l2,12c0,0-39,13-40,13s-10-12-10-12l-17,3l5,15
	c0,0,2,8-2,8s-16-9-16-9l-12,7c0,0,0,8,0,9s-29,20-29,20s-12,0-19,6s-10,11-9,13s-17,23-17,23l-18,13c0,0-6,17-6,21s-3,8-3,8
	s-5-7-6-5s-7,16-7,16l9,12l42,7l-10,17c0,0,1,13-1,14s-18-9-18-9s-18,7-26,20s-24,33-24,33l14,8c0,0,0,11-6,14s-17,2-17,2v10
	c0,0-4,10-4,11s-9,10-9,10s-6,1-5,7s3,11,3,11l-17,12l37,3l95-13v8l13-1c0,0-1,4,2,10s23,8,23,8s7,7,9,7s13-21,13-21l14,4l3-6
	c0,0,17-4,24,0s22,0,22,0v7c0,0,2-1,9,0s10,4,15,7s15-1,16,2s-4,18-4,18l4,3l-2,9c0,0,7,2,10,0s20-15,20-15l-2-7l12-8c0,0,9,6,15,10
	c0.16,0.11,0.34,0.22,0.52,0.33l3.48-13.33l8-12l9,5l10-16h9l8,7l-5,8l4,5l4-9h4l2,2h9l15,5l7,5l3,8l8,9l2,6l20-1l9-8l13,6l1,11l5,5
	l5-3c0,0,17,18,18,19s22,11,22,11l3-6l14,4l1,8l7-1l1-7h8l5-7l-4-1l-1-4l2-2l-3-10l5-11l-2-21l3-13l4-1v-3l-4-3l7-12v-2l-3-5v-9
	l-2-5l19-17l12-19c0,0-8-8-8-10S-52.5-8.5-55.5-10.5z"/>
    <path d="M67.5,260.5l-3-6l-5,7c0,0-5-3-9-5s-54-46-54-46l-3,6l-31-10l-24-27l-3-6l-15-13l2-6h-8l-1,7l-7,1l-1-8l-14-4l-3,6
	c0,0-21-10-22-11s-18-19-18-19l-5,3l-5-5l-1-11l-13-6l-9,8l-20,1l-2-6l-8-9l-3-8l-7-5l-15-5h-9l-2-2h-4l-4,9l-4-5l5-8l-8-7h-9
	l-10,16l-9-5l-8,12l-3.48,13.33l0.09,0.06c6.56,4.02,26.87,12.01,28.3,12.58l0.01,0l0.08,0.04l-12,18c0,0,13,7,15,9s19-2,19-2
	s9,12,17,23s7,42,7,42l18,16l2,7l10.5,1.5l3.5,0.5c0,0,4-9,6-9s21-16,22-18s6,4,6,4l5-6l15,10l-3,11l23-3l33,52l66-8c0,0,9,11,9,14
	s-6,16-6,16l0.01,0.27l48.99-3.27l29-16l21,9l3-18L67.5,260.5z"/>
    <path d="M237.5,167.5l2-10c0,0-19-18-26-25s-20-29-20-29s-15-13-41-8l-15-63l-8-13l3.2-5.49C118.13,4.92,104.8-6.22,94-20
	c-0.36-0.46-0.73-0.93-1.1-1.4L66.5,3.5l-9,20l-1,8c0,0-7,0-9,0s-4,12-4,12l-11,10l-7-18l-23-8c0,0-10,3-12,5s-7,17-7,17s-7-5-9-7
	s-9-7-16-8c-2.6-0.37-8.94-0.61-15.87-0.75L-70.5,45.5l2,5v9l3,5v2l-7,12l4,3v3l-4,1l-3,13l2,21l-5,11l3,10l-2,2l1,4l4,1l-5,7l-2,6
	l15,13l3,6l24,27l31,10l3-6c0,0,50,44,54,46s9,5,9,5l5-7l3,6l14,9l-3,18l30,12l43-3l6,3v-12l-20-23h4l27,6l18-18c0,0-3-8-3-9
	s10-11,10-11s1-25,4-25s7,1,7,1s18,20,18,21s9-8,9-8l14-32L237.5,167.5z"/>
    <path d="M737.48,435.22L689,320c0,0-35-30-36-33s-42-94-42-94l-8-15c0,0-30,7-65,5S335,84,335,84s-25-18-62-26
	c-28.5-6.16-91.41-13.52-140.3-43.99l0,0l-3.2,5.49l8,13l15,63c26-5,41,8,41,8s13,22,20,29s26,25,26,25l-2,10l8,22l-14,32
	c0,0-9,9-9,8s-18-21-18-21s-4-1-7-1s-4,25-4,25s-10,10-10,11s3,9,3,9l-18,18l-27-6h-4l20,23v12l-6-3l-43,3l-30-12l-21-9l-29,16
	l-48.99,3.27l2.99,53.73c0,0,0,0,8,7s32,65,32,65l15,7c0,0,24,24,32,30s14,49,14,49l-2,44l0.01,0.01l-0.01-0.01l30.27,0.7
	l15.68-16.11l15.72-32.42l60.54,1.39l15.68-16.11l46.32-31.72l0.38-16.47l15.34-15.95l15.68-16.11l0.38-16.47l14.59,16.81
	l15.68-16.11l14.59,16.81l16.06-32.41l14.59,16.64l14.92,16.82l-0.38,16.47l14.97,0.34l-0.38,16.3l-0.38,16.47l15.3,0.35l14.97,0.34
	l0.38-16.47l15.3,0.35l14.59,16.81l-0.38,16.47l15.3,0.35l14.97,0.34l-0.38,16.3l15.3,0.35l14.97,0.34l15.3,0.35l-0.38,16.47
	l14.59,16.81l15.3,0.35l14.97,0.34l15.68-16.11l14.97,0.34l15.3,0.35l14.97,0.34l15.68-16.11l14.97,0.34l0.38-16.3l15.3,0.35
	l14.97,0.34l0.38-16.47l15.3,0.35l0.38-16.47l14.97,0.34l0.38-16.3L737.48,435.22z"/>
    <path d="M96.05,586.61l0.38-16.3l-14.92-16.81l-0.01-0.01l2-44c0,0-6-43-14-49s-32-30-32-30l-15-7c0,0-24-58-32-65s-8-7-8-7l-3-54
	c0,0,6-13,6-16s-9-14-9-14l-66,8l-33-52l-23,3l3-11l-15-10l-5,6c0,0-5-6-6-4s-20,18-22,18s-6,9-6,9l-14-2l-2-7l-18-16c0,0,1-31-7-42
	s-17-23-17-23s-17,4-19,2s-15-9-15-9l12-18c0,0-23-9-29-13s-15-10-15-10l-12,8l2,7c0,0-17,13-20,15s-10,0-10,0l2-9l-4-3
	c0,0,5-15,4-18s-11,1-16-2s-8-6-15-7s-9,0-9,0v-7c0,0-15,4-22,0s-24,0-24,0l-3,6l-14-4c0,0-11,21-13,21s-9-7-9-7s-20-2-23-8
	s-2-10-2-10l-13,1v-8l-95,13l-35.92-2.91L-653,82c0,0-34-1-45-6s-19-8-20-5s-16,15-25,16s-15,5-17,8s-2,11-11,12
	c-8.87,0.99-14.82,0.03-14.98,0v0h-0.97l-15.21,15.63l-0.38,16.47l-14.97-0.34l-15.68,15.95l-14.97-0.34l-15.68,16.11l-0.38,16.47
	l-0.38,16.3l-0.38,16.47l-0.38,16.47l15.3,0.35l-0.38,16.3l-0.38,16.47l-0.38,16.47l-0.38,16.3l14.59,16.81l-0.38,16.47l14.92,16.82
	l14.97,0.34l14.93,16.65l-0.38,16.47l-0.38,16.47l-0.38,16.3l-45.95,15.42l-14.97-0.34l0.38-16.47l-15.68,16.11l-14.97-0.34
	l-15.68,16.11l-15.34,15.95l14.97,0.34l-0.38,16.47l15.3,0.35l-0.38,16.47l-15.68,15.95l-15.35,16.12l-0.38,16.47l-0.38,16.3
	l14.21,33.28l15.3,0.35l-0.38,16.3l-0.38,16.47l14.97,0.34l15.3,0.35l30.27,0.7l-0.38,16.47l-0.38,16.3l-15.3-0.35l-14.97-0.34
	l-14.93-16.65l-0.75,32.76l14.92,16.82l14.59,16.64l-0.38,16.47l-0.38,16.47l-14.97-0.34l-0.38,16.3l-15.3-0.35l-15.35,16.12
	l-15.3-0.35l-0.38,16.47l-15.34,15.95l-0.38,16.47l14.97,0.34l14.92,16.82l14.97,0.34l14.93,16.65l-0.38,16.47l14.97,0.34
	l-0.38,16.47l-0.38,16.3l15.3,0.35l0.38-16.3l14.97,0.34l0.38-16.47l15.3,0.35l14.97,0.34l0.75-32.76l105.73,18.74l14.59,16.81
	l15.3,0.35l14.97,0.34l15.68-16.11l14.97,0.34l46.33-31.72l0.38-16.47l0.38-16.3l-14.92-16.82l30.27,0.7l14.92,16.82l-0.38,16.3
	l30.27,0.7l14.97,0.34l-0.38,16.47l15.3,0.35l14.97,0.34l0.38-16.47l0.38-16.3l-14.97-0.34l0.38-16.47l0.38-16.47l0.38-16.3
	l-15.3-0.35l-14.97-0.34l-0.38,16.3l-15.3-0.35l15.68-15.95l0.38-16.47l14.97,0.34l0.38-16.47l15.3,0.35l46.7-48.18l-14.55-33.12
	l0.38-16.47l0.38-16.3l0.38-16.47l15.3,0.35l75.51,1.74l15.68-16.11l14.97,0.34l0.38-16.3l0.76-32.93l15.3,0.35l14.97,0.34
	l0.38-16.3l15.3,0.35l-0.38,16.3l14.97,0.34l15.3,0.35l14.97,0.34l15.3,0.35l14.97,0.34l15.3,0.35l14.97,0.34l15.3,0.35l14.97,0.34
	l-0.38,16.47l15.3,0.35l14.59,16.81l-0.38,16.3l-0.38,16.47l15.3,0.35l15.35-16.12l0.38-16.3l15.3,0.35l15.35-16.12l14.92,16.82
	l0.38-16.47l14.59,16.81l14.93,16.65l14.97,0.34l-0.38,16.47l15.3,0.35l-0.38,16.47l14.59,16.64l-0.38,16.47l15.3,0.35l14.97,0.34
	l0.38-16.47l15.3,0.35l0.38-16.3l14.97,0.34l0.38-16.47l0.38-16.47L96.05,586.61z"/>
    <path d="M96.05,586.61l0.38-16.3l-14.92-16.81l-0.01-0.01l2-44c0,0-6-43-14-49s-32-30-32-30l-15-7c0,0-24-58-32-65s-8-7-8-7l-3-54
	c0,0,6-13,6-16s-9-14-9-14l-66,8l-33-52l-23,3l3-11l-15-10l-5,6c0,0-5-6-6-4s-20,18-22,18s-6,9-6,9l-3.5-0.5v8l3,7l-7,2l-10-5l-3,5
	l-5-2l-10,23l-6-6l-15,3l-8-7l4-9l2-12l-6-1l-8,3l-4,6h-11v17l-2,6l-6,11l2,4l-2,7v8l-5,22l-65,9l13,43l-6-3l-5,19l-3.49,1.94
	l2.99,5.56l-17,25l-7,8l-29-3v8v5l5,8l15,7l11,21l10-3l10-2l4,1l6-4l13,18l7,16l21,23l0.75,0.49l14.43,0.33l14.97,0.34l0.38-16.3
	l15.3,0.35l-0.38,16.3l14.97,0.34l15.3,0.35l14.97,0.34l15.3,0.35l14.97,0.34l15.3,0.35l14.97,0.34l15.3,0.35l14.97,0.34
	l-0.38,16.47l15.3,0.35l14.59,16.81l-0.38,16.3l-0.38,16.47l15.3,0.35l15.35-16.12l0.38-16.3l15.3,0.35l15.35-16.12l14.92,16.82
	l0.38-16.47l14.59,16.81l14.93,16.65l14.97,0.34l-0.38,16.47l15.3,0.35l-0.38,16.47l14.59,16.64l-0.38,16.47l15.3,0.35l14.97,0.34
	l0.38-16.47l15.3,0.35l0.38-16.3l14.97,0.34l0.38-16.47l0.38-16.47L96.05,586.61z"/>
    <path d="M-332.5,504.5l-7-16l-13-18l-6,4l-4-1l-10,2l-10,3l-11-21l-15-7l-5-8v-5v-8l29,3l7-8l17-25l-2.99-5.56L-369,397
	c0,0-26,4-33,4s-6-2-6-2v-9l-9-9l-25-5l-26,3v-8l3-11l-40-17l10-34l-8-8l-16,7l-13,2l-4-6l-18,13l2,5l-18,8v7h-14l-21,9l-11-44h-11
	l-3-5l2-14l-20,5l-17-6l-9,1l-5-14l-17-15h-16l-4-6l-18-7l-4-9l-23,4c0,0-1,13-8,20s-17,17-29,20c-8.47,2.12-36.85-2.74-52.83-5.78
	l-0.36,15.52l-0.38,16.3l14.59,16.81l-0.38,16.47l14.92,16.82l14.97,0.34l14.93,16.65l-0.38,16.47l-0.38,16.47l-0.38,16.3
	l-45.95,15.42l-14.97-0.34l0.38-16.47l-15.68,16.11l-14.97-0.34l-15.68,16.11l-15.34,15.95l14.97,0.34l-0.38,16.47l15.3,0.35
	l-0.38,16.47l-15.68,15.95l-15.35,16.12l-0.38,16.47l-0.38,16.3l14.21,33.28l15.3,0.35l-0.38,16.3l-0.38,16.47l14.97,0.34l15.3,0.35
	l30.27,0.7l-0.38,16.47l-0.38,16.3l-15.3-0.35l-14.97-0.34l-14.93-16.65l-0.75,32.76l14.92,16.82l14.59,16.64l-0.38,16.47
	l-0.38,16.47l-14.97-0.34l-0.38,16.3l-15.3-0.35l-15.35,16.12l-15.3-0.35l-0.38,16.47l-15.34,15.95l-0.38,16.47l14.97,0.34
	l14.92,16.82l14.97,0.34l14.93,16.65l-0.38,16.47l14.97,0.34l-0.38,16.47l-0.38,16.3l15.3,0.35l0.38-16.3l14.97,0.34l0.38-16.47
	l15.3,0.35l14.97,0.34l0.75-32.76l105.73,18.74l14.59,16.81l15.3,0.35l14.97,0.34l15.68-16.11l14.97,0.34l46.33-31.72l0.38-16.47
	l0.38-16.3l-14.92-16.82l9.07,0.21L-594,747l6-15h23l12-16l3-22l2-9l-2-8c0,0,3-18,4-22s6-13,6-13l-6-16h25l-3-9c0,0-1-22,0-25
	s7-14,7-14h16c0,0,11-16,12-18s18-15,18-15s-12-8-15-10s-12-14-12-14l2-4h7l6-3c0,0,0-2,1-4s3-6,3-6l1-7l17,7l15,11l12,16h4l4-54
	l8,1l5-24l10,2l-3,16l-1,7l-2,5l1,5l-10,6c-1,12,22,36,22,36l7,5l3-23l11,11l2,15l-9,7c0,0,31,34,37,39
	c1.24,1.03,3.16,2.45,5.42,4.04l11.86-12.18l14.97,0.34l0.38-16.3l0.76-32.93l0.87,0.02l-0.75-0.49L-332.5,504.5z"/>
    <path d="M-339.58,589.04c-2.26-1.59-4.19-3.01-5.42-4.04c-6-5-37-39-37-39l9-7l-2-15l-11-11l-3,23l-7-5c0,0-23-24-22-36l10-6l-1-5
	l2-5l1-7l3-16l-10-2l-5,24l-8-1l-4,54h-4l-12-16l-15-11l-17-7l-1,7c0,0-2,4-3,6s-1,4-1,4l-6,3h-7l-2,4c0,0,9,12,12,14s15,10,15,10
	s-17,13-18,15s-12,18-12,18h-16c0,0-6,11-7,14s0,25,0,25l3,9h-25l6,16c0,0-5,9-6,13s-4,22-4,22l2,8l-2,9l-3,22l-12,16h-23l-6,15
	l27.95,37.87l-3.47-0.08l0,0l24.66,0.57l14.92,16.82l-0.38,16.3l30.27,0.7l14.97,0.34l-0.38,16.47l15.3,0.35l14.97,0.34l0.38-16.47
	l0.38-16.3l-14.97-0.34l0.38-16.47l0.38-16.47l0.38-16.3l-15.3-0.35l-14.97-0.34l-0.38,16.3l-15.3-0.35l15.68-15.95l0.38-16.47
	l14.97,0.34l0.38-16.47l15.3,0.35l46.7-48.18l-14.55-33.12l0.38-16.47l0.38-16.3l0.38-16.47l15.3,0.35l75.51,1.74l11.77-12.09v0
	L-339.58,589.04z"/>
    <path d="M-200,242v-8l-10.5-1.5l-2-7l-18-16c0,0,1-31-7-42s-17-23-17-23s-17,4-19,2s-15-9-15-9l12-18c0,0-23-9-29-13s-15-10-15-10
	l-12,8l2,7c0,0-17,13-20,15s-10,0-10,0l2-9l-4-3c0,0,5-15,4-18s-11,1-16-2s-8-6-15-7s-9,0-9,0v-7c0,0-15,4-22,0s-24,0-24,0l-3,6
	l-14-4c0,0-11,21-13,21s-9-7-9-7s-20-2-23-8s-2-10-2-10l-13,1v-8l-95,13l-35.92-2.91L-653,82c0,0-34-1-45-6s-19-8-20-5s-16,15-25,16
	s-15,5-17,8s-2,11-11,12c-8.87,0.99-14.82,0.03-14.98,0v0h-0.97l-15.21,15.63l-0.38,16.47l-14.97-0.34l-15.68,15.95l-14.97-0.34
	l-15.68,16.11l-0.38,16.47l-0.38,16.3l-0.38,16.47l-0.38,16.47l15.3,0.35l-0.38,16.3l-0.38,16.47l-0.02,0.94
	c15.98,3.04,44.36,7.89,52.83,5.78c12-3,22-13,29-20s8-20,8-20l23-4l4,9l18,7l4,6h16l17,15l5,14l9-1l17,6l20-5l-2,14l3,5h11l11,44
	l21-9h14v-7l18-8l-2-5l18-13l4,6l13-2l16-7l8,8l-10,34l40,17l-3,11v8l26-3l25,5l9,9v9c0,0-1,2,6,2s33-4,33-4l9-5l5-19l6,3l-13-43
	l65-9l5-22v-8l2-7l-2-4l6-11l2-6v-17h11l4-6l8-3l6,1l-2,12l-4,9l8,7l15-3l6,6l10-23l5,2l3-5l10,5l7-2L-200,242z"/>
    <path d="M-66.5-30.5v9c0,0,8,9,11,11s8,8,8,10s8,10,8,10l-12,19l-5.87,5.25c6.93,0.15,13.26,0.38,15.87,0.75c7,1,14,6,16,8s9,7,9,7
	s5-15,7-17s12-5,12-5l23,8l7,18l11-10c0,0,2-12,4-12s9,0,9,0l1-8l9-20l26.4-24.9L-14-155c0,0-17-18-35-19s-42,2-60-24s-35-54-39-58
	s-48-49-57-72c-0.24-0.62-0.5-1.28-0.77-1.97c-0.03-0.08-0.06-0.16-0.09-0.24c-0.24-0.62-0.49-1.27-0.75-1.94
	c-0.03-0.08-0.06-0.16-0.09-0.23c-0.28-0.72-0.56-1.46-0.86-2.23c0-0.01-0.01-0.02-0.01-0.02c-0.31-0.82-0.64-1.67-0.97-2.54
	l-24.96,3.12l2.99,14.56h-23v12l-18,4l-13-4l0.2,0.06c-5.12,5.87-19.56,22.48-21.2,24.94c-2,3-3,27-3,27s8,37,11,43s-4,27-4,27
	s2,39,2,42s-6,30-6,30l8-2l5,5c0,0-3,7-3,8s1,6,1,6l-9,10c0,0,6,13,6,14s11,2,15,4s9,8,9,8l33-3c0,0,17-5,22-5s6,2,9,4s25,15,25,15
	h6l-4-8l2-7c0,0,8-1,10-1s0,5,0,5s17,0,18,0s3,3,3,3l9-2l2-10c0,0,2-2,5-4s15,2,21,3s15,11,16,14s5,13,5,13v6l-9,15v6l8-1l6-11l5-13
	l10,2L-66.5-30.5z"/>
    <path d="M-245.5-392.5l10.02-16.95c0.1,0.27,0.2,0.55,0.31,0.83v0L-232-414v-30l-0.5-0.09v-0.41l-15.5-2.91V-457l-0.5-0.2v-0.3
	l-26.44-10.77L-270-491l-0.59-0.08l0.09-0.42l-21.32-2.91L-285-510v-2.41c-0.16-0.06-0.34-0.13-0.5-0.19v-13.9l5-17l-11-3l-18-44
	l-8-1v-17l-62-2c0,0-0.07,0.08-0.17,0.22v0c-3.88,4.81-75.62,93.49-103.83,118.78c0,0-32-73-69-91s-75-33-75-33l7-15l18,6l3-20
	l-11-11l-17,15l-9-9l17-13c0,0-7-24-17-25s-25-9-25-9l-5-10l-8-2l-3,15l9,6l-3,14l-46-30l5-16l-23-8l5-16l-9.5-2.51l-24.5-6.49
	l-14-14l-15-13l8-20l-29-13l5-17l-132.6-54.87l-33.97,17.39l-45.95,15.42l-30.27-0.7l-0.38,16.47l-14.97-0.34l-15.68,16.11
	l-15.3-0.35l-14.97-0.34l-15.3-0.35l-15.34,15.95l14.97,0.34l-0.76,32.93l-0.38,16.3l-0.38,16.47l-0.38,16.47l14.92,16.82
	l-0.38,16.3l14.59,16.81l-0.38,16.47l14.93,16.65l0.38-16.3l15.3,0.35l-15.68,15.95l-15.68,16.11l-0.38,16.47l-0.38,16.47
	l-15.34,15.95l14.97,0.34l-0.38,16.47l15.3,0.35l15.3,0.35l14.97,0.34l-0.38,16.47l-14.97-0.34l-0.38,16.47l14.97,0.34l-0.38,16.3
	l15.3,0.35l14.97,0.34l-0.38,16.47l14.92,16.82l30.27,0.7l-0.75,32.76l-0.38,16.47l14.97,0.34l-0.38,16.47l29.89,17l15.3,0.35
	l14.59,16.81l15.3,0.35l-15.68,16.11l-14.97-0.34l-0.38,16.3l14.97,0.34l15.3,0.35l14.59,16.81l-0.38,16.47l15.3,0.35l-0.38,16.3
	l14.97,0.34l-0.38,16.47l15.3,0.35l-0.38,16.47l-16.06,32.41l-0.38,16.47l-0.38,16.47l14.93,16.65l14.59,16.81l-0.38,16.47
	l-0.38,16.47l15.3,0.35l-0.38,16.3l14.59,16.81l-0.38,16.47l-0.38,16.3l-0.38,16.47l15.3,0.35l14.97,0.34l-0.38,16.47l-0.38,16.3
	l15.3,0.35l-16.06,32.58l-15.34,15.95l-0.38,16.47l-0.38,16.47l-15.3-0.35l14.92,16.82l-0.38,16.3l-0.47,0.48h0.97v0
	c0.16,0.03,6.11,0.98,14.98,0c9-1,9-9,11-12s8-7,17-8s24-13,25-16s9,0,20,5s45,6,45,6l0.58-0.41l-1.08-0.09l17-12c0,0-2-5-3-11
	s5-7,5-7s9-9,9-10s4-11,4-11v-10c0,0,11,1,17-2s6-14,6-14l-14-8c0,0,16-20,24-33s26-20,26-20s16,10,18,9s1-14,1-14l10-17l-42-7
	l-9-12c0,0,6-14,7-16s6,5,6,5s3-4,3-8s6-21,6-21l18-13c0,0,18-21,17-23s2-7,9-13s19-6,19-6s29-19,29-20s0-9,0-9l12-7c0,0,12,9,16,9
	s2-8,2-8l-5-15l17-3c0,0,9,12,10,12s40-13,40-13l-2-12l27-9l-4-11l28-9l-6-26l53-11l-2,17l13,4l18-4v-12h23l-2.99-14.56
	L-245.5-392.5z"/>
    <g>
	<path class="st0" d="M-483.41-491.58c-0.03,0.03-0.06,0.05-0.09,0.08c0,0-32-73-69-91s-75-33-75-33l7-15l18,6l3-20l-11-11l-17,15
		l-9-9l17-13c0,0-7-24-17-25s-25-9-25-9l-5-10l-8-2l-3,15l9,6l-3,14l-46-30l5-16l-23-8l5-16l-9.5-2.51l-24.5-6.49l-14-14l-15-13
		l8-20l-29-13l5-17l-132.6-54.87l-33.97,17.39l-45.95,15.42l-30.27-0.7l-0.38,16.47l-1.39-0.03L-1037-821l2-4l7,8c0,0-1,6,0,11
		s2,8,2,8l10,1l-4,14l129,52l-2,6c0,0,20-4,25-3v13l57,27l-1,12l6-1l8,7c0,0,4-6,8-3s5,8,5,8h5l11,16l-4,3l8,12c0,0-6,3-6,8h4l-3,12
		l21,8l-3,12l7,3l-4,11c0,0,11,3,12,9s-6,35-6,35h10c0,0-1,21,1,25s5,12,4,17s-2,15-2,15s-5,4-4,13s2,23,2,28s-1,15-1,15l-2,6l3,13
		l4,4l11,29l46-30h14v-13l12-9l25-44l32-17l13,7h10l-9-12l14-8l6,22l8-8l9,17l26-13l9,21l23-9L-483.41-491.58z"/>
        <path class="st0" d="M-335.5-313.5L-335.5-313.5L-424-295l-40-134l-3.56-9.01L-517-423l16,56l-32,9c0,0-13,35-15,44s-11,39-11,39
		l-8,6v9l23,4c0,0,14-5,16-5s28,9,28,9l41.31,23.61l0.19-0.11c0,0,12,9,16,9s2-8,2-8l-5-15l17-3c0,0,9,12,10,12s40-13,40-13l-2-12
		l27-9l-4-11l28-9L-335.5-313.5z"/>
        <path class="st0" d="M-479-467l-23,9l-9-21l-26,13l-9-17l-8,8l-6-22l-14,8l9,12h-10l-13-7l-32,17l-25,44l-12,9v13h-14l-46,30l-5,31
		l3,19l-14,6l-10,18l-13,13l7,10l-16,13c0,0-15,5-20,5s-16,1-16,1s17,28,23,47c0,0,2-1,5,0s53,17,53,17l5-18l12,7l7-9c0,0,9,0,11,1
		s6,11,5,20c0,0,14,0,17-2s6-7,6-9s3-5,6-5s8,0,8,0s8-7,13-8s34-20,34-20v-16l18-11l11,1v-9l8-6c0,0,9-30,11-39s15-44,15-44l32-9
		l-16-56l49.44-15.01L-479-467z"/>
        <path class="st0" d="M-500-252c0,0-26-9-28-9s-16,5-16,5l-23-4l-11-1l-18,11v16c0,0-29,19-34,20s-13,8-13,8s-5,0-8,0s-6,3-6,5
		s-3,7-6,9s-17,2-17,2c1-9-3-19-5-20s-11-1-11-1l-7,9l-12-7l-5,18c0,0-50-16-53-17s-5,0-5,0c-6-19-23-47-23-47s-24,4-26,4
		c-1.3,0-8.14-1.7-12.73-2.88l-15.03,30.35l-0.38,16.47l-0.38,16.47l14.93,16.65l14.59,16.81l-0.38,16.47l-0.38,16.47l15.3,0.35
		l-0.38,16.3l14.59,16.81l-0.38,16.47l-0.38,16.3l-0.38,16.47l15.3,0.35l14.97,0.34l-0.38,16.47l-0.38,16.3l15.3,0.35l-16.06,32.58
		l-15.34,15.95l-0.38,16.47l-0.38,16.47l-15.3-0.35l14.92,16.82l-0.38,16.3l-0.47,0.48h0.97v0c0.16,0.03,6.11,0.98,14.98,0
		c9-1,9-9,11-12s8-7,17-8s24-13,25-16s9,0,20,5s45,6,45,6l0.58-0.41l-1.08-0.09l17-12c0,0-2-5-3-11s5-7,5-7s9-9,9-10s4-11,4-11v-10
		c0,0,11,1,17-2s6-14,6-14l-14-8c0,0,16-20,24-33s26-20,26-20s16,10,18,9s1-14,1-14l10-17l-42-7l-9-12c0,0,6-14,7-16s6,5,6,5
		s3-4,3-8s6-21,6-21l18-13c0,0,18-21,17-23s2-7,9-13s19-6,19-6s29-19,29-20s0-9,0-9l11.81-6.89L-500-252z"/>
        <path class="st0" d="M-728-400l-4-4l-3-13l2-6c0,0,1-10,1-15s-1-19-2-28s4-13,4-13s1-10,2-15s-2-13-4-17s-1-25-1-25h-10
		c0,0,7-29,6-35s-12-9-12-9l4-11l-7-3l3-12l-21-8l3-12h-4c0-5,6-8,6-8l-8-12l4-3l-11-16h-5c0,0-1-5-5-8s-8,3-8,3l-8-7l-6,1l1-12
		l-19.74-9.35L-840-678l6,8l-9,17l-7-3c-1,12-6,21-6,21c-5,0-8,3-8,5s-6,22-6,22v9l-5,9l7,5l3,8l-2,6v7l16,9l-5,10l-2,48l-8,7l-36,1
		v21l-3,5l-3-2l-14,13l5,45l-23,13l-2-8l-6-4l-7.8,8.26l14,7.96l15.3,0.35l14.59,16.81l15.3,0.35l-15.68,16.11l-14.97-0.34
		l-0.38,16.3l14.97,0.34l15.3,0.35l14.59,16.81l-0.38,16.47l15.3,0.35l-0.38,16.3l14.97,0.34l-0.38,16.47l15.3,0.35l-0.38,16.47
		l-1.02,2.06c4.6,1.18,11.43,2.88,12.73,2.88c2,0,26-4,26-4s11-1,16-1s20-5,20-5l16-13l-7-10l13-13l10-18l14-6l-3-19l5-31L-728-400z
		"/>
        <polygon class="st0" points="-948,-406 -942,-402 -940,-394 -917,-407 -922,-452 -908,-465 -905,-463 -902,-468 -902,-489
		-866,-490 -858,-497 -856,-545 -851,-555 -867,-564 -867,-571 -865,-577 -868,-585 -875,-590 -888,-578 -900,-577 -896,-563
		-908,-559 -908,-563 -915,-560 -915,-554 -937,-551 -946,-543 -956,-543 -961,-547 -965,-547 -963,-517 -970,-517 -970,-510
		-980,-502 -982,-502 -998,-489 -1014.91,-473.5 -985.15,-472.81 -985.9,-440.05 -986.28,-423.58 -971.31,-423.24 -971.69,-406.77
		-941.79,-389.78 -955.8,-397.74 	"/>
        <path class="st0" d="M-868-715v-13c-5-1-25,3-25,3l2-6l-129-52l4-14l-10-1c0,0-1-3-2-8s0-11,0-11l-7-8l-2,4l-17.06-14.83
		l-13.58-0.31l-15.68,16.11l-15.3-0.35l-14.97-0.34l-15.3-0.35l-15.34,15.95l14.97,0.34l-0.76,32.93l-0.38,16.3l-0.38,16.47
		l-0.38,16.47l14.92,16.82l-0.38,16.3l14.59,16.81l-0.38,16.47l14.93,16.65l0.38-16.3l15.3,0.35l-15.68,15.95l-15.68,16.11
		l-0.38,16.47l-0.38,16.47l-15.34,15.95l14.97,0.34l-0.38,16.47l15.3,0.35l15.3,0.35l14.97,0.34l-0.38,16.47l-14.97-0.34
		l-0.38,16.47l14.97,0.34l-0.38,16.3l15.3,0.35l14.97,0.34l-0.38,16.47l14.92,16.82l0.5,0.01L-998-489l16-13h2l10-8v-7h7l-2-30h4
		l5,4h10l9-8l22-3v-6l7-3v4l12-4l-4-14l12-1l13-12l5-9v-9c0,0,6-20,6-22s3-5,8-5c0,0,5-9,6-21l7,3l9-17l-6-8l9.26-19.35L-868-715z"
        />
        <path class="st0" d="M-245.5-392.5l10.02-16.95c0.1,0.27,0.2,0.55,0.31,0.83v0L-232-414v-30l-0.5-0.09v-0.41l-15.5-2.91V-457
		l-0.5-0.2v-0.3l-26.44-10.77L-270-491l-0.59-0.08l0.09-0.42l-21.32-2.91L-285-510v-2.41c-0.16-0.06-0.34-0.13-0.5-0.19v-13.9l5-17
		l-11-3l-18-44l-8-1v-17l-62-2c0,0-0.07,0.08-0.17,0.22v0c-3.88,4.81-75.62,93.49-103.83,118.78c0.03-0.03,0.06-0.05,0.09-0.08
		L-479-467l15,38l40,134l88.5-18.5v0l53-11l-2,17l13,4l18-4v-12h23l-2.99-14.56L-245.5-392.5z"/>
</g>
    <path d="M-270.59-491.08L-270-491l-4.94,22.73l26.44,10.77v0.3l0.5,0.2v9.59l15.5,2.91v0.41l0.5,0.09v30l-3.18,5.38
	c-0.1-0.28-0.21-0.56-0.31-0.83l-10.02,16.95l12.01,58.44l24.96-3.12c0.33,0.87,0.66,1.72,0.97,2.55c0,0.01,0,0.01,0.01,0.02
	c0.29,0.77,0.58,1.51,0.86,2.23c0.03,0.08,0.06,0.16,0.09,0.23c0.02,0.05,0.04,0.09,0.05,0.14c0.26,0.67,0.51,1.32,0.75,1.95
	c0.01,0.03,0.03,0.07,0.04,0.1c0.01,0.02,0.01,0.03,0.02,0.05c0.26,0.67,0.51,1.31,0.75,1.92c9,23,53,68,57,72s21,32,39,58
	s42,23,60,24s35,19,35,19l25.08,31.35L168-363c0,0-26-12-28-15s-42-38-46-42l-18.52-5.76L26.5-438.5c0,0-8,14-10,21s2,22,2,22l48,1
	l11,10l-4,13c0,0-10,0-15-2s-22,9-22,9s-15-1-19,0s-7,4-7,4l-13-13c0,0-23,3-24,3s-42,8-42,8l-1-91l-88-7c0,0-3-2-7-8s-30-35-41-37
	s-46,2-54,1c-5.53-0.69-18.18-5.19-25.5-7.91v2.41l-6.82,15.59l21.32,2.91L-270.59-491.08z"/>
    <path d="M180-323l-28.79-14.39L11.08-123.65l52.16,65.18C73.95-45.27,84.74-31.82,94-20c36.46,46.54,101.8,63,146.54,71.77
	C245.29-12.14,255-143.71,255-149c0-7,14-62,14-62L180-323z"/>
    <path d="M671-188l-94-83l-108,10l-79-47l-12,20l-39-8l-20,17l-25,11l-9-4c0,0-1-2-3-5s-31-35-31-35l-26.51,44.99L269-211
	c0,0-14,55-14,62c0,5.29-9.71,136.85-14.46,200.77C253.48,54.31,264.7,56.21,273,58c37,8,62,26,62,26s66.8,38.57,124.93,67.57
	L526,125l-5-35l13-20l12-4l11-25l-3-25l9-11l15-2l53-21l-2-14l18-33l1-45l12-26l-9-19L671-188z"/>
    <path d="M287.5-474.5c0,0-13-4-15-4s-8,5-8,7s13,12,13,12l-13,11c0,0-13-8-15-9s-9-9-9-9l-12,23l-23,5c0,0,0,16-4,14s-8-8-8-10
	s-9,2-9,2s-9-7-16-8s-22,3-22,3s1-6-2-6s-26,18-26,18l-9-5c0,0-7-13-11-15s-16,0-16,0l-6,20l-1.02-0.26L94-420c4,4,44,39,46,42
	s28,15,28,15l-16.79,25.61L180-323l44.49,55.99L251-312c0,0,24.58,27.12,30.03,33.76C283.94-301.68,292-367.88,292-381
	c0-12.29-0.59-63.5-3.13-97.03L287.5-474.5z"/>
    <path d="M941-259l-0.93-5.25l-6.49-0.15l-0.09-0.1l-4-6l-12,1l-24-19v-8l-2-6l-6,10l-12,1l-12-7l10-9l-6-7l-6,4l-5-7l10-13
	c0,0-6-5-13,0s-6,8-6,8l-12-8c0,0-7-5-8-4s-9,11-9,11l-10-2l-6,1l-8-8v-7c0,0,8,2,9,1s3-11,3-11l12,3l2-13h4l9,3l3-22l-8-10l-8,3
	l-6-3l-5,8c0,0-1,8-5,9s-10-1-10-1l-8-11l-19,2c0,0-9,0-14,2s-17-9-17-9l-12-16h-5l-7,8l-3,1l1,7l-16,12v-13l-7-7l1-8l-5-6l-6,8
	l-4,6l-8-4l5-14c0,0-8-9-8-21s-6-26-6-26l-2-6l-27-2l-30,21l6,26l-1,3l-12-13l-25-5l-5-1l-7-11c0,0,9-10,7-12s-50-18-50-18l-20-9
	c0,0-7-6-16-6s-50,3-62-3s-23-10-31-20c0,0-20,4-33,3s-20,0-20,0s-8,5-10,7s-11,7-11,7l-11,8l-5.63,14.47
	C291.41-444.5,292-393.29,292-381c0,13.12-8.06,79.32-10.97,102.75c0.47,0.58,0.81,1.01,0.97,1.25c2,3,3,5,3,5l9,4l25-11l20-17l39,8
	l12-20l79,47l108-10l94,83l37,4l50-11l29-21l40,14l120,10L941-259z"/>
    <path d="M1170.18-12.67l14.97,0.34l-14.59-16.64l0.38-16.47l-15.3-0.35l-14.97-0.34l0.38-16.47l-14.93-16.65l-14.97-0.34l0.38-16.47
	l-15.3-0.35l30.65-15.77l15.68-16.11l-14.93-16.65l-14.97-0.34l-0.38,16.3l-29.89-17l-15.3-0.35l-14.97-0.34l0.38-16.47
	l-14.92-16.82l-14.97-0.34l-14.93-16.65l-15.34,15.95l-15.3-0.35l-14.97-0.34l-15.3-0.35l-15.3-0.35l0.25-10.87L827-202l-40-14
	l-29,21l-50,11l-37-4l-20,33l9,19l-12,26l-1,45l-18,33l2,14L578,3l-15,2l-9,11l3,25l-11,25l-12,4l-13,20l5,35l-66.07,26.56
	c34.06,16.99,65.14,30.7,78.07,31.44c35,2,65-5,65-5l8,15c0,0,41,91,42,94s36,33,36,33l48.48,115.22l13.69-14.07l-0.38,16.47
	l14.97,0.34l0.38-16.47l15.3,0.35l15.35-16.12l15.3,0.35l0.38-16.3l15.35-16.12l0.38-16.47l15.68-16.11l0.38-16.3l15.35-16.12
	l15.3,0.35l14.97,0.34l0.38-16.47l0.38-16.3l15.3,0.35l15.35-16.12l15.68-16.11l15.3,0.35l0.38-16.3l14.97,0.34l0.38-16.47
	l15.3,0.35l15.35-16.12l0.38-16.3l15.3,0.35l15.35-16.12l15.3,0.35l0.38-16.47l14.97,0.34l0.38-16.3l15.3,0.35l0.38-16.47
	l14.97,0.34l0.38-16.47l15.3,0.35l14.97,0.34l15.3,0.35l-0.38,16.47l14.97,0.34l15.3,0.35l0.38-16.47l0.75-32.76l15.35-16.12
	l0.75-32.76l0.38-16.47L1169.8,3.8L1170.18-12.67z"/>
    <path d="M632.73-1010.7l15.7-32.38l0.38-16.47l15.3,0.35l14.97,0.34l15.3,0.35l30.65-15.77l-14.93-16.65l0.38-16.47l0.38-16.47
	l0.38-16.47l-14.97-0.34l-29.89-17l-15.3-0.35l0.38-16.47l-14.97-0.34l-15.3-0.35l-14.59-16.81l-15.3-0.35l-15.35,16.12l-15.3-0.35
	l-14.97-0.34l-14.92-16.82l-14.59-16.81l15.34-15.95l-14.59-16.81l-15.68,16.11l-31.02,32.07l-14.97-0.34l-15.3-0.35l-14.59-16.81
	l0.38-16.3l-15.3-0.35l-0.38,16.3l-14.97-0.34l-29.89-17l16.11-49.05l-14.59-16.64l15.35-16.12l0.38-16.47l-14.97-0.34l-29.89-17.16
	l-29.89-17l-14.92-16.82l-29.89-17.16l0.75-32.76l0.38-16.47l-15.3-0.35l-45.24-1.04l0.38-16.47l-15.3-0.35l-14.97-0.34l-15.3-0.35
	l-14.59-16.81l-14.92-16.82l-14.97-0.34l-14.93-16.65l15.3,0.35l0.38-16.47l-15.3-0.35l-30.27-0.7l-60.92,15.07l-30.27-0.7
	l-14.97-0.34l-15.3-0.35l-22.75,11.58v0l11.39-5.8l5.34,32.04l28,4l13,15l18,7c0,0,17-10,44-5c0,0-24-3-41,40c0,0-15,20-25,26
	s-20,20-20,20s-16,4-24,4s-26-1-26,8s13,66,13,66l16,4c0,0,11,35,16,39s20,12,20,12l-12,51h10l5,24c0,0-7,15-6,17s-5,36-5,48
	c0,0.5-0.05,0.96-0.11,1.4l1.61,2.1l10,30l32,44l36,17l16,45l45-31l51-2l-15,53l37,42l36-32l31-18l-8,38l28,14l100-26l138-74l27,50
	v12l51-19L632.73-1010.7z"/>
    <path d="M815.08-1039.24l-0.38,16.3l-15.3-0.35l-15.35,16.12l-30.65,15.77l-15.68,16.11l-15.34,15.95l-15.3-0.35l0.38-16.3
	l-14.97-0.34l0.38-16.47l-15.3-0.35l14.55,33.12l-0.38,16.47l-15.3-0.35l-29.52-33.46l-14.21-33.28l0.53-1.09l0,0l-0.51,1.04
	L582-955l-51,19v-12l-27-50l-138,74l-100,26l9,5l-52,27l-72-10l-21,48l38,70l37,16l-7,46h52c0,0,31-15,54-22s60-23,79-30
	s114-56,114-56l56,14l30,1l81-39l-7-17l1-30l41-38h26l21,22c0,0,4-39,6-44s16-23,16-23l0.59-0.79l-0.97,0.5l0.38-16.3l0.38-16.47
	l15.3,0.35l14.97,0.34L813.16-974h0.62l15.51-32.13l0.38-16.47L815.08-1039.24z"/>
    <path d="M1072-359.72l0.38-16.47l0.38-16.47l-14.59-16.81l-15.3-0.35l-14.59-16.64l-15.3-0.35l-14.97-0.34l0.38-16.47l-14.92-16.82
	l0.38-16.3l0.38-16.47l15.3,0.35l15.35-16.12l15.68-16.11l0.38-16.3l0.76-32.93l-15.3-0.35l-14.97-0.34l0.38-16.47l0.38-16.3
	l-15.3-0.35l0.76-32.93l-14.21-33.11l-15.3-0.35l0.76-32.93l-14.17-49.58l0.38-16.3l0.38-16.47l-14.59-16.81l0.38-16.47l0.38-16.3
	l-14.54-33.28l0.38-16.47l1.51-65.69l0.38-16.3l-90.81-2.09l-14.97-0.34l-15.3-0.35l-29.67,15.11L768-958c0,0-14,18-16,23
	s-6,44-6,44l-21-22h-26l-41,38l-1,30l7,17l-81,39l-30-1l-56-14c0,0-95,49-114,56s-56,23-79,30s-54,22-54,22h-52l7-46l-37-16l-38-70
	l21-48l72,10l52-27l-9-5l-28-14l8-38l-31,18l-36,32l-37-42l15-53l-51,2l-45,31l-16-45l-36-17l-32-44l-10-30l-1.61-2.09
	c-1.52,10.34-19.89,7.59-19.89,7.59s-11,8-10,14s-2,23-5,25s-17,3-17,7s-1,23-1,23l-12,10v6l-12,12c0,0-8-13-9-10s-12,11-12,16
	s-18,33-18,42s4,9,3,14s-6,26-6,26s-15,6-21,14s-22,31-22,31l-16,30c0,0,16,5,16,7s4,22,4,22l-14,17l-33,24c0,0-13-2-30,0
	s-30,5-30,5l24,65h-38v25l54,31c0,0-15,83-21,93l-5,17v13.9c7.23,2.7,20.35,7.39,26,8.1c8,1,43-3,54-1s37,31,41,37s7,8,7,8l88,7
	l1,91c0,0,41-8,42-8s24-3,24-3l13,13c0,0,3-3,7-4s19,0,19,0s17-11,22-9s15,2,15,2l4-13l-11-10l-48-1c0,0-4-15-2-22s10-21,10-21
	l50,13l6-20c0,0,12-2,16,0s11,15,11,15l9,5c0,0,23-18,26-18s2,6,2,6s15-4,22-3s16,8,16,8s9-4,9-2s4,8,8,10s4-14,4-14l23-5l12-23
	c0,0,7,8,9,9s15,9,15,9l13-11c0,0-13-10-13-12s6-7,8-7s15,4,15,4l7-18l11-8c0,0,9-5,11-7s10-7,10-7s7-1,20,0s33-3,33-3
	c8,10,19,14,31,20s53,3,62,3s16,6,16,6l20,9c0,0,48,16,50,18s-7,12-7,12l7,11l5,1l25,5l12,13l1-3l-6-26l30-21l27,2l2,6
	c0,0,6,14,6,26s8,21,8,21l-5,14l8,4l4-6l6-8l5,6l-1,8l7,7v13l16-12l-1-7l3-1l7-8h5l12,16c0,0,12,11,17,9s14-2,14-2l19-2l8,11
	c0,0,6,2,10,1s5-9,5-9l5-8l6,3l8-3l8,10l-3,22l-9-3h-4l-2,13l-12-3c0,0-2,10-3,11s-9-1-9-1v7l8,8l6-1l10,2c0,0,8-10,9-11s8,4,8,4
	l12,8c0,0-1-3,6-8s13,0,13,0l-10,13l5,7l6-4l6,7l-10,9l12,7l12-1l6-10l2,6v8l24,19l12-1l4,6l0.09,0.1l15.07,0.35l0.38-16.47
	l14.92,16.82l14.97,0.34l15.3,0.35l15.35-16.12l15.68-16.11l0.38-16.3l14.97,0.34l15.68-16.11l14.97,0.34l15.68-16.11l0.38-16.3
	L1072-359.72z"/>
    <MetaInfo xmlns="http://www.prognoz.ru">
		<Geo>
			<GeoItem
                    X="-1144.2301025390625" Y="-1533.0093994140625"
                    Latitude="22.8330078125" Longitude="113.8583984375"
            />
            <GeoItem
                    X="1185.1500244140625" Y="910.0496826171875"
                    Latitude="22.6865234375" Longitude="114.009765625"
            />
		</Geo>
	</MetaInfo>
</svg>
