<?xml version="1.0" encoding="utf-8"?>
<!-- Generator: Adobe Illustrator 23.0.0, SVG Export Plug-In . SVG Version: 6.00 Build 0)  -->
<svg version="1.1" id="图层_1" xmlns="http://www.w3.org/2000/svg" xmlns:xlink="http://www.w3.org/1999/xlink" x="0px" y="0px"
	 viewBox="0 0 40 24" style="enable-background:new 0 0 40 24;" xml:space="preserve">
<path d="M589.18,39.33l14.97,0.34l-14.59-16.64l0.38-16.47l-15.3-0.35l-14.97-0.34l0.38-16.47l-14.93-16.65l-14.97-0.34l0.38-16.47
	l-15.3-0.35l30.65-15.77l15.68-16.11l-14.93-16.65l-14.97-0.34l-0.38,16.3l-29.89-17l-15.3-0.35l-14.97-0.34l0.38-16.47
	l-14.92-16.82l-14.97-0.34l-14.93-16.65l-15.34,15.95l-15.3-0.35l-14.97-0.34l-15.3-0.35l-15.3-0.35l0.38-16.3l0.38-16.47l15.3,0.35
	l0.38-16.47l-15.3-0.35l0.38-16.47l0.38-16.3l0.23,0.01l-0.09-0.1l-4-6l-12,1l-24-19v-8l-2-6l-6,10l-12,1l-12-7l10-9l-6-7l-6,4l-5-7
	l10-13c0,0-6-5-13,0s-6,8-6,8l-12-8c0,0-7-5-8-4s-9,11-9,11l-10-2l-6,1l-8-8v-7c0,0,8,2,9,1s3-11,3-11l12,3l2-13h4l9,3l3-22l-8-10
	l-8,3l-6-3l-5,8c0,0-1,8-5,9s-10-1-10-1l-8-11l-19,2c0,0-9,0-14,2s-17-9-17-9l-12-16h-5l-7,8l-3,1l1,7l-16,12v-13l-7-7l1-8l-5-6
	l-6,8l-4,6l-8-4l5-14c0,0-8-9-8-21s-6-26-6-26l-2-6l-27-2l-30,21l6,26l-1,3l-12-13l-25-5l-5-1l-7-11c0,0,9-10,7-12s-50-18-50-18
	l-20-9c0,0-7-6-16-6s-50,3-62-3s-23-10-31-20c0,0-20,4-33,3s-20,0-20,0s-8,5-10,7s-11,7-11,7l-11,8l-7,18c0,0-13-4-15-4s-8,5-8,7
	s13,12,13,12l-13,11c0,0-13-8-15-9s-9-9-9-9l-12,23l-23,5c0,0,0,16-4,14s-8-8-8-10s-9,2-9,2s-9-7-16-8s-22,3-22,3s1-6-2-6
	s-26,18-26,18l-9-5c0,0-7-13-11-15s-16,0-16,0l-6,20l-50-13c0,0-8,14-10,21s2,22,2,22l48,1l11,10l-4,13c0,0-10,0-15-2s-22,9-22,9
	s-15-1-19,0s-7,4-7,4l-13-13c0,0-23,3-24,3s-42,8-42,8l-1-91l-88-7c0,0-3-2-7-8s-30-35-41-37s-46,2-54,1
	c-5.53-0.69-18.18-5.19-25.5-7.91v2.41l-6.82,15.59l21.32,2.91l-0.09,0.42L-851-439l-4.94,22.73l26.44,10.77v0.3l0.5,0.2v9.59
	l15.5,2.91v0.41l0.5,0.09v30l-3.18,5.38c-0.1-0.28-0.21-0.56-0.31-0.83l-10.02,16.95l12.01,58.44l24.96-3.12
	c1.34,3.51,2.54,6.63,3.54,9.18c9,23,53,68,57,72s21,32,39,58s42,23,60,24s35,19,35,19s61,75,108,135s142,70,179,78s62,26,62,26
	s168,97,203,99s65-5,65-5l8,15c0,0,41,91,42,94s36,33,36,33l48.48,115.22l13.69-14.07l-0.38,16.47l14.97,0.34l0.38-16.47l15.3,0.35
	l15.35-16.12l15.3,0.35l0.38-16.3l15.35-16.12l0.38-16.47l15.68-16.11l0.38-16.3l15.35-16.12l15.3,0.35l14.97,0.34l0.38-16.47
	l0.38-16.3l15.3,0.35l15.35-16.12l15.68-16.11l15.3,0.35l0.38-16.3l14.97,0.34l0.38-16.47l15.3,0.35l15.35-16.12l0.38-16.3
	l15.3,0.35l15.35-16.12l15.3,0.35l0.38-16.47l14.97,0.34l0.38-16.3l15.3,0.35l0.38-16.47l14.97,0.34l0.38-16.47l15.3,0.35
	l14.97,0.34l15.3,0.35l-0.38,16.47l14.97,0.34l15.3,0.35l0.38-16.47l0.75-32.76l15.35-16.12l0.75-32.76l0.38-16.47L588.8,55.8
	L589.18,39.33z"/>
<path d="M-851.59-439.08L-851-439l-4.94,22.73l26.44,10.77v0.3l0.5,0.2v9.59l15.5,2.91v0.41l0.5,0.09v30l-3.18,5.38
	c-0.1-0.28-0.21-0.56-0.31-0.83l-10.02,16.95l12.01,58.44l24.96-3.12c0.33,0.87,0.66,1.72,0.97,2.55c0,0.01,0,0.01,0.01,0.02
	c0.29,0.77,0.58,1.51,0.86,2.23c0.03,0.08,0.06,0.16,0.09,0.23c0.02,0.05,0.04,0.09,0.05,0.14c0.26,0.67,0.51,1.32,0.75,1.95
	c0.01,0.03,0.03,0.07,0.04,0.1c0.01,0.02,0.01,0.03,0.02,0.05c0.26,0.67,0.51,1.31,0.75,1.92c9,23,53,68,57,72s21,32,39,58
	s42,23,60,24s35,19,35,19l25.08,31.35L-413-311c0,0-26-12-28-15s-42-38-46-42l-18.52-5.76l-48.98-12.74c0,0-8,14-10,21s2,22,2,22
	l48,1l11,10l-4,13c0,0-10,0-15-2s-22,9-22,9s-15-1-19,0s-7,4-7,4l-13-13c0,0-23,3-24,3s-42,8-42,8l-1-91l-88-7c0,0-3-2-7-8
	s-30-35-41-37s-46,2-54,1c-5.53-0.69-18.18-5.19-25.5-7.91v2.41l-6.82,15.59l21.32,2.91L-851.59-439.08z"/>
<path d="M-401-271l-28.79-14.39L-569.92-71.65l52.16,65.18C-507.05,6.73-496.26,20.18-487,32c36.46,46.54,101.8,63,146.54,71.77
	C-335.71,39.86-326-91.71-326-97c0-7,14-62,14-62L-401-271z"/>
<path d="M90-136l-94-83l-108,10l-79-47l-12,20l-39-8l-20,17l-25,11l-9-4c0,0-1-2-3-5s-31-35-31-35l-26.51,44.99L-312-159
	c0,0-14,55-14,62c0,5.29-9.71,136.85-14.46,200.77c12.94,2.54,24.16,4.44,32.46,6.23c37,8,62,26,62,26s66.8,38.57,124.93,67.57
	L-55,177l-5-35l13-20l12-4l11-25l-3-25l9-11l15-2l53-21l-2-14l18-33l1-45l12-26l-9-19L90-136z"/>
<path d="M-293.5-422.5c0,0-13-4-15-4s-8,5-8,7s13,12,13,12l-13,11c0,0-13-8-15-9s-9-9-9-9l-12,23l-23,5c0,0,0,16-4,14s-8-8-8-10
	s-9,2-9,2s-9-7-16-8s-22,3-22,3s1-6-2-6s-26,18-26,18l-9-5c0,0-7-13-11-15s-16,0-16,0l-6,20l-1.02-0.26L-487-368c4,4,44,39,46,42
	s28,15,28,15l-16.79,25.61L-401-271l44.49,55.99L-330-260c0,0,24.58,27.12,30.03,33.76C-297.06-249.68-289-315.88-289-329
	c0-12.29-0.59-63.5-3.13-97.03L-293.5-422.5z"/>
<path d="M360-207l-0.93-5.25l-6.49-0.15l-0.09-0.1l-4-6l-12,1l-24-19v-8l-2-6l-6,10l-12,1l-12-7l10-9l-6-7l-6,4l-5-7l10-13
	c0,0-6-5-13,0s-6,8-6,8l-12-8c0,0-7-5-8-4s-9,11-9,11l-10-2l-6,1l-8-8v-7c0,0,8,2,9,1s3-11,3-11l12,3l2-13h4l9,3l3-22l-8-10l-8,3
	l-6-3l-5,8c0,0-1,8-5,9s-10-1-10-1l-8-11l-19,2c0,0-9,0-14,2s-17-9-17-9l-12-16h-5l-7,8l-3,1l1,7l-16,12v-13l-7-7l1-8l-5-6l-6,8
	l-4,6l-8-4l5-14c0,0-8-9-8-21s-6-26-6-26l-2-6l-27-2l-30,21l6,26l-1,3l-12-13l-25-5l-5-1l-7-11c0,0,9-10,7-12s-50-18-50-18l-20-9
	c0,0-7-6-16-6s-50,3-62-3s-23-10-31-20c0,0-20,4-33,3s-20,0-20,0s-8,5-10,7s-11,7-11,7l-11,8l-5.63,14.47
	c2.54,33.52,3.13,84.74,3.13,97.03c0,13.12-8.06,79.32-10.97,102.75c0.47,0.58,0.81,1.01,0.97,1.25c2,3,3,5,3,5l9,4l25-11l20-17
	l39,8l12-20l79,47l108-10l94,83l37,4l50-11l29-21l40,14l120,10L360-207z"/>
<path d="M589.18,39.33l14.97,0.34l-14.59-16.64l0.38-16.47l-15.3-0.35l-14.97-0.34l0.38-16.47l-14.93-16.65l-14.97-0.34l0.38-16.47
	l-15.3-0.35l30.65-15.77l15.68-16.11l-14.93-16.65l-14.97-0.34l-0.38,16.3l-29.89-17l-15.3-0.35l-14.97-0.34l0.38-16.47
	l-14.92-16.82l-14.97-0.34l-14.93-16.65l-15.34,15.95l-15.3-0.35l-14.97-0.34l-15.3-0.35l-15.3-0.35l0.25-10.87L246-150l-40-14
	l-29,21l-50,11l-37-4l-20,33l9,19L67-58l-1,45L48,20l2,14L-3,55l-15,2l-9,11l3,25l-11,25l-12,4l-13,20l5,35l-66.07,26.56
	C-87.01,220.55-55.93,234.26-43,235c35,2,65-5,65-5l8,15c0,0,41,91,42,94s36,33,36,33l48.48,115.22l13.69-14.07l-0.38,16.47
	l14.97,0.34l0.38-16.47l15.3,0.35l15.35-16.12l15.3,0.35l0.38-16.3l15.35-16.12l0.38-16.47l15.68-16.11l0.38-16.3l15.35-16.12
	l15.3,0.35l14.97,0.34l0.38-16.47l0.38-16.3l15.3,0.35l15.35-16.12l15.68-16.11l15.3,0.35l0.38-16.3l14.97,0.34l0.38-16.47
	l15.3,0.35l15.35-16.12l0.38-16.3l15.3,0.35l15.35-16.12l15.3,0.35l0.38-16.47l14.97,0.34l0.38-16.3l15.3,0.35l0.38-16.47
	l14.97,0.34l0.38-16.47l15.3,0.35l14.97,0.34l15.3,0.35l-0.38,16.47l14.97,0.34l15.3,0.35l0.38-16.47l0.75-32.76l15.35-16.12
	l0.75-32.76l0.38-16.47L588.8,55.8L589.18,39.33z"/>
</svg>
