<?xml version="1.0" encoding="utf-8"?>
<!-- Generator: Adobe Illustrator 23.0.0, SVG Export Plug-In . SVG Version: 6.00 Build 0)  -->
<svg version="1.1" id="图层_1" xmlns="http://www.w3.org/2000/svg" xmlns:xlink="http://www.w3.org/1999/xlink" x="0px" y="0px"
	 viewBox="0 0 40 24" style="enable-background:new 0 0 40 24;" xml:space="preserve">
<path d="M606.5-290.5c-27-5-44,5-44,5l-18-7l-13-15l-28-4l-5.34-32.04l-19.29,9.82l-14.97-0.34l-30.27-0.7l0.38-16.3l-30.27-0.7
	l-30.64,15.6l-30.27-0.7l-0.38,16.47l-15.3-0.35l-0.38,16.47l-14.59-16.81l0.38-16.47l-15.3-0.35l-14.97-0.34l-30.65,15.77
	l-15.3-0.35l-14.97-0.34l-15.3-0.35l-14.97-0.34l-15.3-0.35l-0.38,16.47l-15.3-0.35l-14.97-0.34l-15.3-0.35l-14.97-0.34l-15.3-0.35
	l-14.97-0.34l-15.3-0.35l-0.38,16.47l-14.97-0.34l-15.68,16.11l15.3,0.35l-0.38,16.3l-15.3-0.35l-0.38,16.47l-15.35,16.12
	l-0.38,16.47l-0.38,16.3l-15.3-0.35l-0.38,16.47l14.92,16.82l-15.3-0.35l-0.38,16.47L-9.6-164.09l-15.3-0.35l-0.38,16.47
	l-29.51-33.63l-0.38,16.47l-14.97-0.34l-14.17-49.58l-0.38,16.3l-0.38,16.47l-0.38,16.47l-14.97-0.34l-0.75,32.76l14.59,16.81
	l-31.4,48.53l-0.38,16.47l-14.97-0.34l-15.68,16.11l-0.38,16.47l-14.97-0.34l14.59,16.64l-15.35,16.12l-16.43,48.88l-0.76,32.93
	l-0.38,16.3l-15.73,32.59l-0.38,16.47l-15.3-0.35l-0.38,16.3l-0.38,16.47l15.3,0.35l-15.68,16.11l-14.97-0.34l-15.3-0.35
	l-15.35,16.12l-15.68,15.95l-45.62,15.42l-30.65,15.77l-27.32,13.98l132.6,54.87l-5,17l29,13l-8,20l15,13l14,14l34,9l-5,16l23,8
	l-5,16l46,30l3-14l-9-6l3-15l8,2l5,10c0,0,15,8,25,9s17,25,17,25l-17,13l9,9l17-15l11,11l-3,20l-18-6l-7,15c0,0,38,15,75,33
	s69,91,69,91c29-26,104-119,104-119l62,2v17l8,1l18,44l11,3c6-10,21-93,21-93l-54-31v-25h38l-24-65c0,0,13-3,30-5s30,0,30,0l33-24
	l14-17c0,0-4-20-4-22s-16-7-16-7l16-30c0,0,16-23,22-31s21-14,21-14s5-21,6-26s-3-5-3-14s18-37,18-42s11-13,12-16s9,10,9,10l12-12
	v-6l12-10c0,0,1-19,1-23s14-5,17-7s6-19,5-25s10-14,10-14s20,3,20-9s6-46,5-48s6-17,6-17l-5-24h-10l12-51c0,0-15-8-20-12
	s-16-39-16-39l-16-4c0,0-13-57-13-66s18-8,26-8s24-4,24-4s10-14,20-20s25-26,25-26C582.5-293.5,606.5-290.5,606.5-290.5z"/>
<path d="M108.5,18.5c0,0-1-14-1-15s-7-14-7-14s-1-5-1-9s-2-12-2-12s2-6,4-6s23-5,23-5s0-6,0-9s8-15,8-15c-7-7-10-32-10-32l18-16
	l5-26c0,0-1-6-5-16s-19-51-19-51s-7-31-11-40c-2.6-5.86-3.51-39.24-3.83-61.84l-7.09-0.16l-14.97-0.34l-15.3-0.35l-0.38,16.47
	l-14.97-0.34l-15.68,16.11l15.3,0.35l-0.38,16.3l-15.3-0.35l-0.38,16.47l-15.35,16.12l-0.38,16.47l-0.38,16.3l-15.3-0.35
	l-0.38,16.47l14.92,16.82l-15.3-0.35l-0.38,16.47L-9.6-164.09l-15.3-0.35l-0.38,16.47l-29.51-33.63l-0.38,16.47l-14.97-0.34
	l-14.17-49.58l-0.38,16.3l-0.38,16.47l-0.38,16.47l-14.97-0.34l-0.75,32.76l14.59,16.81l-31.4,48.53l-0.38,16.47l-14.97-0.34
	l-15.68,16.11l-0.38,16.47l-14.97-0.34l14.59,16.64l-15.35,16.12l-16.43,48.88l-0.76,32.93l-0.38,16.3l-15.73,32.59l-0.38,16.47
	l-15.3-0.35l-0.38,16.3l-0.38,16.47l15.3,0.35l-15.68,16.11l-0.77-0.02l0.49,0.43c0,0,97-8,123-7s149,51,149,51l5-13l-99-34l4-9
	l29,7l10-9h18c0,0,12-14,14-16s2-16,2-16s-4-18-9-32s0-29,0-29s9-31,10-33s8-1,8-1l4,6l30-6l3-8l-3-15l4-25L108.5,18.5z"/>
<path d="M562.5-285.5l-18-7l-13-15l-28-4l-5.34-32.04l-19.29,9.82l-14.97-0.34l-30.27-0.7l0.38-16.3l-30.27-0.7l-30.64,15.6
	l-30.27-0.7l-0.38,16.47l-15.3-0.35l-0.38,16.47l-14.59-16.81l0.38-16.47l-15.3-0.35l-14.97-0.34l-30.65,15.77l-15.3-0.35
	l-14.97-0.34l-15.3-0.35l-14.97-0.34l-15.3-0.35l-0.38,16.47l-15.3-0.35l-14.97-0.34l-15.3-0.35l-14.97-0.34l-8.21-0.19
	c0.32,22.6,1.23,55.98,3.83,61.84c4,9,11,40,11,40s15,41,19,51s5,16,5,16l-5,26l-18,16c0,0,3,25,10,32c0,0-8,12-8,15s0,9,0,9
	s-21,5-23,5s-4,6-4,6s2,8,2,12s1,9,1,9s7,13,7,14s1,15,1,15l-22,2l-4,25l3,15l-3,8l-30,6l-4-6c0,0-7-1-8,1s-10,33-10,33s-5,15,0,29
	s9,32,9,32s0,14-2,16c-0.32,0.32-0.88,0.93-1.61,1.75L41,185l-2,9l3,2l2,6l8,2l16-1l10-5l4,30l-2,10l12-2l19-12l16-28l12-4l6-5l7,2
	l6,3l13-18v-11l-22-21l7-9l15,17l24-26l4,6l7-36l10,5l9-11l3,4v10l45-4l41-13c0,0,3-2,10-9s43-49,43-49L348,1l11-6l3-11l12-11l10-12
	c0,0,35,5,38,7s6,14,6,14s5,5,8,10s6,10,6,10l-3,9l4,4h9v-5l7-5c0,0,4-10,5-10s9-5,9-5v-5c0,0,5-13,7-13s13-2,13-2l12,7l4-3l3,4l5,1
	v-5l-8-7c0,0-2-5-2-7s5-8,5-8l-1-10c0,0-6,1-10-2s-11-18-11-18l-1-15l-5-14l-8-4v-4l8-2l5-4h4l2.61-2.47l-12.11-3.03
	c0,0-13-57-13-66s18-8,26-8s24-4,24-4s10-14,20-20s25-26,25-26c17-43,41-40,41-40C579.5-295.5,562.5-285.5,562.5-285.5z"/>
<path d="M533.5-20.5h-10l12-51c0,0-15-8-20-12s-16-39-16-39l-3.89-0.97L493-121h-4l-5,4l-8,2v4l8,4l5,14l1,15c0,0,7,15,11,18
	s10,2,10,2l1,10c0,0-5,6-5,8s2,7,2,7l8,7v5l-5-1l-3-4l-4,3l-12-7c0,0-11,2-13,2s-7,13-7,13v5c0,0-8,5-9,5s-5,10-5,10l-7,5v5h-9l-4-4
	l3-9c0,0-3-5-6-10s-8-10-8-10s-3-12-6-14s-38-7-38-7l-10,12l-12,11l-3,11l-11,6l19,26c0,0-36,42-43,49s-10,9-10,9l-41,13l-45,4V92
	l-3-4l-9,11l-10-5l-7,36l-4-6l-24,26l-15-17l-7,9l22,21v11l-13,18l-6-3l-7-2l-6,5l-12,4l-16,28l-19,12l-12,2l-8,26l-21-8l-7,8H31
	l-8,8l-13,3l-43,17l-8-6l-10-3l-5-8l-13-3l9,24l-10,2l-43,25c0,0-4,51-5,57s-7,24-7,24l3,4l-3,9l10,7l-2,4l58,4v-15h24v18l39,5v21
	l15,1l7-13l14,10c0,0,15,12,22,19s24,22,24,22l8-3l10-19l23,9v58l55,14l0.33,0.72c0.11-0.13,0.17-0.22,0.17-0.22l62,2v17l8,1l18,44
	l11,3c2.65-4.41,7.05-23.05,11.14-42.5h0c5.18-24.61,9.86-50.5,9.86-50.5l-54-31v-25h38l-24-65c0,0,13-3,30-5s30,0,30,0l33-24l14-17
	c0,0-4-20-4-22s-16-7-16-7l16-30c0,0,16-23,22-31s21-14,21-14s5-21,6-26s-3-5-3-14s18-37,18-42s11-13,12-16s9,10,9,10l12-12v-6
	l12-10c0,0,1-19,1-23s14-5,17-7s6-19,5-25s10-14,10-14s20,3,20-9s6-46,5-48s6-17,6-17L533.5-20.5z"/>
<path d="M68,203l-16,1l-8-2l-2-6l-3-2l2-9l-5.11-3.75C32,185.58,23.5,195.5,23.5,195.5h-18l-10,9l-29-7l-4,9l99,34l-5,13
	c0,0-123-50-149-51s-123,7-123,7l-0.49-0.43l0.77,0.02l-14.97-0.34l-15.3-0.35l-15.35,16.12l-15.68,15.95l-45.62,15.42l-30.65,15.77
	l-27.32,13.98l132.6,54.87l-5,17l29,13l-8,20l15,13l14,14l24.5,6.49l3-20.99l11,2l-1,4l10,2l1-4l11,3v5l11,4l4-12l6,1l-3-4
	c0,0,6-18,7-24s5-57,5-57l43-25l10-2l-9-24l13,3l5,8l10,3l8,6l43-17l13-3l8-8h13l7-8l21,8l8-26l2-10l-4-30L68,203z"/>
<path d="M182,559l-55-14v-58l-23-9l-10,19l-8,3c0,0-17-15-24-22s-22-19-22-19l-14-10l-7,13l-15-1v-21l-39-5v-18h-24v15l-58-4l2-4
	l-10-7l3-9l-6-1l-4,12l-11-4v-5l-11-3l-1,4l-10-2l1-4l-11-2l-3,20.99l9.5,2.51l-5,16l23,8l-5,16l46,30l3-14l-9-6l3-15l8,2l5,10
	c0,0,15,8,25,9s17,25,17,25l-17,13l9,9l17-15l11,11l-3,20l-18-6l-7,15c0,0,38,15,75,33s69,91,69,91
	c28.21-25.29,99.94-113.97,103.83-118.78L182,559z"/>
</svg>
