<?xml version="1.0" encoding="utf-8"?>
<!-- Generator: Adobe Illustrator 23.0.0, SVG Export Plug-In . SVG Version: 6.00 Build 0)  -->
<svg version="1.1" id="图层_1" xmlns="http://www.w3.org/2000/svg" xmlns:xlink="http://www.w3.org/1999/xlink" x="0px" y="0px"
	 viewBox="0 0 40 24" style="enable-background:new 0 0 40 24;" xml:space="preserve">
<path d="M716.48,15.22L668-100c0,0-35-30-36-33s-42-94-42-94l-8-15c0,0-30,7-65,5s-203-99-203-99s-25-18-62-26s-132-18-179-78
	S-35-575-35-575s-17-18-35-19s-42,2-60-24s-35-54-39-58s-48-49-57-72c-0.24-0.62-0.5-1.28-0.77-1.97c-0.03-0.08-0.06-0.16-0.09-0.24
	c-0.24-0.62-0.49-1.27-0.75-1.94c-0.03-0.08-0.06-0.16-0.09-0.23c-0.28-0.72-0.56-1.46-0.86-2.23c0-0.01-0.01-0.02-0.01-0.02
	c-0.31-0.82-0.64-1.67-0.97-2.54l-24.96,3.12l2.99,14.56h-23v12l-18,4l-13-4l2-17l-53,11l6,26l-28,9l4,11l-27,9l2,12
	c0,0-39,13-40,13s-10-12-10-12l-17,3l5,15c0,0,2,8-2,8s-16-9-16-9l-12,7c0,0,0,8,0,9s-29,20-29,20s-12,0-19,6s-10,11-9,13
	s-17,23-17,23l-18,13c0,0-6,17-6,21s-3,8-3,8s-5-7-6-5s-7,16-7,16l9,12l42,7l-10,17c0,0,1,13-1,14s-18-9-18-9s-18,7-26,20
	s-24,33-24,33l14,8c0,0,0,11-6,14s-17,2-17,2v10c0,0-4,10-4,11s-9,10-9,10s-6,1-5,7s3,11,3,11l-17,12l37,3l95-13v8l13-1
	c0,0-1,4,2,10s23,8,23,8s7,7,9,7s13-21,13-21l14,4l3-6c0,0,17-4,24,0s22,0,22,0v7c0,0,2-1,9,0s10,4,15,7s15-1,16,2s-4,18-4,18l4,3
	l-2,9c0,0,7,2,10,0s20-15,20-15l-2-7l12-8c0,0,9,6,15,10s29,13,29,13l-12,18c0,0,13,7,15,9s19-2,19-2s9,12,17,23s7,42,7,42l18,16
	l2,7l14,2c0,0,4-9,6-9s21-16,22-18s6,4,6,4l5-6l15,10l-3,11l23-3l33,52l66-8c0,0,9,11,9,14s-6,16-6,16l3,54c0,0,0,0,8,7s32,65,32,65
	l15,7c0,0,24,24,32,30s14,49,14,49l-2,44l0.01,0.01l-0.01-0.01l30.27,0.7l15.68-16.11l15.72-32.42l60.54,1.39l15.68-16.11
	l46.32-31.72l0.38-16.47l15.34-15.95L276.13-9.3l0.38-16.47l14.59,16.81l15.68-16.11l14.59,16.81l16.06-32.41l14.59,16.64
	l14.92,16.82l-0.38,16.47l14.97,0.34l-0.38,16.3l-0.38,16.47l15.3,0.35l14.97,0.34l0.38-16.47l15.3,0.35l14.59,16.81l-0.38,16.47
	l15.3,0.35l14.97,0.34l-0.38,16.3l15.3,0.35l14.97,0.34l15.3,0.35l-0.38,16.47l14.59,16.81l15.3,0.35l14.97,0.34l15.68-16.11
	l14.97,0.34l15.3,0.35l14.97,0.34l15.68-16.11l14.97,0.34l0.38-16.3l15.3,0.35l14.97,0.34l0.38-16.47l15.3,0.35l0.38-16.47
	l14.97,0.34l0.38-16.3L716.48,15.22z"/>
<path d="M-76.5-430.5c-3-2-11-11-11-11v-9l-5-9l-10-2l-5,13l-6,11l-8,1v-6l9-15v-6c0,0-4-10-5-13s-10-13-16-14s-18-5-21-3s-5,4-5,4
	l-2,10l-9,2c0,0-2-3-3-3s-18,0-18,0s2-5,0-5s-10,1-10,1l-2,7l4,8h-6c0,0-22-13-25-15s-4-4-9-4s-22,5-22,5l-33,3c0,0-5-6-9-8
	s-15-3-15-4s-6-14-6-14l9-10c0,0-1-5-1-6s3-8,3-8l-5-5l-8,2c0,0,6-27,6-30s-2-42-2-42s7-21,4-27s-11-43-11-43s1-24,3-27
	c1.64-2.46,16.08-19.07,21.2-24.94l-0.2-0.06l2-17l-53,11l6,26l-28,9l4,11l-27,9l2,12c0,0-39,13-40,13s-10-12-10-12l-17,3l5,15
	c0,0,2,8-2,8s-16-9-16-9l-12,7c0,0,0,8,0,9s-29,20-29,20s-12,0-19,6s-10,11-9,13s-17,23-17,23l-18,13c0,0-6,17-6,21s-3,8-3,8
	s-5-7-6-5s-7,16-7,16l9,12l42,7l-10,17c0,0,1,13-1,14s-18-9-18-9s-18,7-26,20s-24,33-24,33l14,8c0,0,0,11-6,14s-17,2-17,2v10
	c0,0-4,10-4,11s-9,10-9,10s-6,1-5,7s3,11,3,11l-17,12l37,3l95-13v8l13-1c0,0-1,4,2,10s23,8,23,8s7,7,9,7s13-21,13-21l14,4l3-6
	c0,0,17-4,24,0s22,0,22,0v7c0,0,2-1,9,0s10,4,15,7s15-1,16,2s-4,18-4,18l4,3l-2,9c0,0,7,2,10,0s20-15,20-15l-2-7l12-8c0,0,9,6,15,10
	c0.16,0.11,0.34,0.22,0.52,0.33l3.48-13.33l8-12l9,5l10-16h9l8,7l-5,8l4,5l4-9h4l2,2h9l15,5l7,5l3,8l8,9l2,6l20-1l9-8l13,6l1,11l5,5
	l5-3c0,0,17,18,18,19s22,11,22,11l3-6l14,4l1,8l7-1l1-7h8l5-7l-4-1l-1-4l2-2l-3-10l5-11l-2-21l3-13l4-1v-3l-4-3l7-12v-2l-3-5v-9
	l-2-5l19-17l12-19c0,0-8-8-8-10S-73.5-428.5-76.5-430.5z"/>
<path d="M46.5-159.5l-3-6l-5,7c0,0-5-3-9-5s-54-46-54-46l-3,6l-31-10l-24-27l-3-6l-15-13l2-6h-8l-1,7l-7,1l-1-8l-14-4l-3,6
	c0,0-21-10-22-11s-18-19-18-19l-5,3l-5-5l-1-11l-13-6l-9,8l-20,1l-2-6l-8-9l-3-8l-7-5l-15-5h-9l-2-2h-4l-4,9l-4-5l5-8l-8-7h-9
	l-10,16l-9-5l-8,12l-3.48,13.33l0.09,0.06c6.56,4.02,26.87,12.01,28.3,12.58l0.01,0l0.08,0.04l-12,18c0,0,13,7,15,9s19-2,19-2
	s9,12,17,23s7,42,7,42l18,16l2,7l10.5,1.5l3.5,0.5c0,0,4-9,6-9s21-16,22-18s6,4,6,4l5-6l15,10l-3,11l23-3l33,52l66-8c0,0,9,11,9,14
	s-6,16-6,16l0.01,0.27L7.5-125.5l29-16l21,9l3-18L46.5-159.5z"/>
<path d="M216.5-252.5l2-10c0,0-19-18-26-25s-20-29-20-29s-15-13-41-8l-15-63l-8-13l3.2-5.49C97.13-415.08,83.8-426.22,73-440
	c-0.36-0.46-0.73-0.93-1.1-1.4l-26.4,24.9l-9,20l-1,8c0,0-7,0-9,0s-4,12-4,12l-11,10l-7-18l-23-8c0,0-10,3-12,5s-7,17-7,17s-7-5-9-7
	s-9-7-16-8c-2.6-0.37-8.94-0.61-15.87-0.75L-91.5-374.5l2,5v9l3,5v2l-7,12l4,3v3l-4,1l-3,13l2,21l-5,11l3,10l-2,2l1,4l4,1l-5,7l-2,6
	l15,13l3,6l24,27l31,10l3-6c0,0,50,44,54,46s9,5,9,5l5-7l3,6l14,9l-3,18l30,12l43-3l6,3v-12l-20-23h4l27,6l18-18c0,0-3-8-3-9
	s10-11,10-11s1-25,4-25s7,1,7,1s18,20,18,21s9-8,9-8l14-32L216.5-252.5z"/>
<path d="M716.48,15.22L668-100c0,0-35-30-36-33s-42-94-42-94l-8-15c0,0-30,7-65,5s-203-99-203-99s-25-18-62-26
	c-28.5-6.16-91.41-13.52-140.3-43.99l0,0l-3.2,5.49l8,13l15,63c26-5,41,8,41,8s13,22,20,29s26,25,26,25l-2,10l8,22l-14,32
	c0,0-9,9-9,8s-18-21-18-21s-4-1-7-1s-4,25-4,25s-10,10-10,11s3,9,3,9l-18,18l-27-6h-4l20,23v12l-6-3l-43,3l-30-12l-21-9l-29,16
	l-48.99,3.27l2.99,53.73c0,0,0,0,8,7s32,65,32,65l15,7c0,0,24,24,32,30s14,49,14,49l-2,44l0.01,0.01l-0.01-0.01l30.27,0.7
	l15.68-16.11l15.72-32.42l60.54,1.39l15.68-16.11l46.32-31.72l0.38-16.47l15.34-15.95L276.13-9.3l0.38-16.47l14.59,16.81
	l15.68-16.11l14.59,16.81l16.06-32.41l14.59,16.64l14.92,16.82l-0.38,16.47l14.97,0.34l-0.38,16.3l-0.38,16.47l15.3,0.35l14.97,0.34
	l0.38-16.47l15.3,0.35l14.59,16.81l-0.38,16.47l15.3,0.35l14.97,0.34l-0.38,16.3l15.3,0.35l14.97,0.34l15.3,0.35l-0.38,16.47
	l14.59,16.81l15.3,0.35l14.97,0.34l15.68-16.11l14.97,0.34l15.3,0.35l14.97,0.34l15.68-16.11l14.97,0.34l0.38-16.3l15.3,0.35
	l14.97,0.34l0.38-16.47l15.3,0.35l0.38-16.47l14.97,0.34l0.38-16.3L716.48,15.22z"/>
<path d="M-87.5-450.5v9c0,0,8,9,11,11s8,8,8,10s8,10,8,10l-12,19l-5.87,5.25c6.93,0.15,13.26,0.38,15.87,0.75c7,1,14,6,16,8s9,7,9,7
	s5-15,7-17s12-5,12-5l23,8l7,18l11-10c0,0,2-12,4-12s9,0,9,0l1-8l9-20l26.4-24.9L-35-575c0,0-17-18-35-19s-42,2-60-24s-35-54-39-58
	s-48-49-57-72c-0.24-0.62-0.5-1.28-0.77-1.97c-0.03-0.08-0.06-0.16-0.09-0.24c-0.24-0.62-0.49-1.27-0.75-1.94
	c-0.03-0.08-0.06-0.16-0.09-0.23c-0.28-0.72-0.56-1.46-0.86-2.23c0-0.01-0.01-0.02-0.01-0.02c-0.31-0.82-0.64-1.67-0.97-2.54
	l-24.96,3.12l2.99,14.56h-23v12l-18,4l-13-4l0.2,0.06c-5.12,5.87-19.56,22.48-21.2,24.94c-2,3-3,27-3,27s8,37,11,43s-4,27-4,27
	s2,39,2,42s-6,30-6,30l8-2l5,5c0,0-3,7-3,8s1,6,1,6l-9,10c0,0,6,13,6,14s11,2,15,4s9,8,9,8l33-3c0,0,17-5,22-5s6,2,9,4s25,15,25,15
	h6l-4-8l2-7c0,0,8-1,10-1s0,5,0,5s17,0,18,0s3,3,3,3l9-2l2-10c0,0,2-2,5-4s15,2,21,3s15,11,16,14s5,13,5,13v6l-9,15v6l8-1l6-11l5-13
	l10,2L-87.5-450.5z"/>
</svg>
