<?xml version="1.0" encoding="utf-8"?>
<!-- Generator: Adobe Illustrator 23.0.0, SVG Export Plug-In . SVG Version: 6.00 Build 0)  -->
<svg version="1.1" id="图层_1" xmlns="http://www.w3.org/2000/svg" xmlns:xlink="http://www.w3.org/1999/xlink" x="0px" y="0px"
	 viewBox="0 0 40 24" style="enable-background:new 0 0 40 24;" xml:space="preserve">
<path d="M799,702.28l0.38-16.47l0.38-16.47l-14.59-16.81l-15.3-0.35l-14.59-16.64l-15.3-0.35l-14.97-0.34l0.38-16.47l-14.92-16.82
	l0.38-16.3l0.38-16.47l15.3,0.35l15.35-16.12l15.68-16.11l0.38-16.3l0.76-32.93l-15.3-0.35l-14.97-0.34l0.38-16.47l0.38-16.3
	l-15.3-0.35l0.76-32.93l-14.21-33.11l-15.3-0.35l0.76-32.93l-14.17-49.58l0.38-16.3l0.38-16.47l-14.59-16.81l0.38-16.47l0.38-16.3
	l-14.54-33.28l0.38-16.47l1.51-65.69l0.38-16.3l-90.81-2.09l-14.97-0.34l-15.3-0.35l-30.65,15.6l0.38-16.3l0.38-16.47l15.3,0.35
	l14.97,0.34l14.92,16.82l15.73-32.59l0.38-16.47l-14.59-16.64l-0.38,16.3l-15.3-0.35l-15.35,16.12L480.41,70.6l-15.68,16.11
	l-15.34,15.95l-15.3-0.35l0.38-16.3l-14.97-0.34l0.38-16.47l-15.3-0.35l14.55,33.12l-0.38,16.47l-15.3-0.35l-29.52-33.46
	l-14.21-33.28l15.72-32.42l0.38-16.47l15.3,0.35l14.97,0.34l15.3,0.35l30.65-15.77L437.1-28.91l0.38-16.47l0.38-16.47l0.38-16.47
	l-14.97-0.34l-29.89-17L378.08-96l0.38-16.47l-14.97-0.34l-15.3-0.35l-14.59-16.81l-15.3-0.35l-15.35,16.12l-15.3-0.35l-14.97-0.34
	l-14.92-16.82l-14.59-16.81l15.34-15.95l-14.59-16.81l-15.68,16.11l-31.02,32.07l-14.97-0.34l-15.3-0.35l-14.59-16.81l0.38-16.3
	l-15.3-0.35l-0.38,16.3l-14.97-0.34l-29.89-17l16.11-49.05l-14.59-16.64l15.35-16.12l0.38-16.47l-14.97-0.34L64.57-284.1l-29.89-17
	l-14.92-16.82l-29.89-17.16l0.75-32.76L-9-384.31l-15.3-0.35l-45.24-1.04l0.38-16.47l-15.3-0.35l-14.97-0.34l-15.3-0.35
	l-14.59-16.81l-14.92-16.82l-14.97-0.34l-14.93-16.65l15.3,0.35l0.38-16.47l-15.3-0.35l-30.27-0.7l-60.92,15.07l-30.27-0.7
	l-14.97-0.34l-15.3-0.35l-23.08,11.75v0l11.72-5.97l5.34,32.04l28,4l13,15l18,7c0,0,17-10,44-5c0,0-24-3-41,40c0,0-15,20-25,26
	s-20,20-20,20s-16,4-24,4s-26-1-26,8s13,66,13,66l16,4c0,0,11,35,16,39s20,12,20,12l-12,51h10l5,24c0,0-7,15-6,17s-5,36-5,48
	s-20,9-20,9s-11,8-10,14s-2,23-5,25s-17,3-17,7s-1,23-1,23l-12,10v6l-12,12c0,0-8-13-9-10s-12,11-12,16s-18,33-18,42s4,9,3,14
	s-6,26-6,26s-15,6-21,14s-22,31-22,31l-16,30c0,0,16,5,16,7s4,22,4,22l-14,17l-33,24c0,0-13-2-30,0s-30,5-30,5l24,65h-38v25l54,31
	c0,0-15,83-21,93l-5,17v13.9c7.23,2.7,20.35,7.39,26,8.1c8,1,43-3,54-1s37,31,41,37s7,8,7,8l88,7l1,91c0,0,41-8,42-8s24-3,24-3
	l13,13c0,0,3-3,7-4s19,0,19,0s17-11,22-9s15,2,15,2l4-13l-11-10l-48-1c0,0-4-15-2-22s10-21,10-21l50,13l6-20c0,0,12-2,16,0
	s11,15,11,15l9,5c0,0,23-18,26-18s2,6,2,6s15-4,22-3s16,8,16,8s9-4,9-2s4,8,8,10s4-14,4-14l23-5l12-23c0,0,7,8,9,9s15,9,15,9l13-11
	c0,0-13-10-13-12s6-7,8-7s15,4,15,4l7-18l11-8c0,0,9-5,11-7s10-7,10-7s7-1,20,0s33-3,33-3c8,10,19,14,31,20s53,3,62,3s16,6,16,6
	l20,9c0,0,48,16,50,18s-7,12-7,12l7,11l5,1l25,5l12,13l1-3l-6-26l30-21l27,2l2,6c0,0,6,14,6,26s8,21,8,21l-5,14l8,4l4-6l6-8l5,6
	l-1,8l7,7v13l16-12l-1-7l3-1l7-8h5l12,16c0,0,12,11,17,9s14-2,14-2l19-2l8,11c0,0,6,2,10,1s5-9,5-9l5-8l6,3l8-3l8,10l-3,22l-9-3h-4
	l-2,13l-12-3c0,0-2,10-3,11s-9-1-9-1v7l8,8l6-1l10,2c0,0,8-10,9-11s8,4,8,4l12,8c0,0-1-3,6-8s13,0,13,0l-10,13l5,7l6-4l6,7l-10,9
	l12,7l12-1l6-10l2,6v8l24,19l12-1l4,6l0.09,0.1l15.07,0.35l0.38-16.47l14.92,16.82l14.97,0.34l15.3,0.35l15.35-16.12l15.68-16.11
	l0.38-16.3l14.97,0.34l15.68-16.11l14.97,0.34l15.68-16.11l0.38-16.3L799,702.28z"/>
<path d="M359.73,51.3l15.7-32.38l0.38-16.47l15.3,0.35l14.97,0.34l15.3,0.35l30.65-15.77L437.1-28.91l0.38-16.47l0.38-16.47
	l0.38-16.47l-14.97-0.34l-29.89-17L378.08-96l0.38-16.47l-14.97-0.34l-15.3-0.35l-14.59-16.81l-15.3-0.35l-15.35,16.12l-15.3-0.35
	l-14.97-0.34l-14.92-16.82l-14.59-16.81l15.34-15.95l-14.59-16.81l-15.68,16.11l-31.02,32.07l-14.97-0.34l-15.3-0.35l-14.59-16.81
	l0.38-16.3l-15.3-0.35l-0.38,16.3l-14.97-0.34l-29.89-17l16.11-49.05l-14.59-16.64l15.35-16.12l0.38-16.47l-14.97-0.34L64.57-284.1
	l-29.89-17l-14.92-16.82l-29.89-17.16l0.75-32.76L-9-384.31l-15.3-0.35l-45.24-1.04l0.38-16.47l-15.3-0.35l-14.97-0.34l-15.3-0.35
	l-14.59-16.81l-14.92-16.82l-14.97-0.34l-14.93-16.65l15.3,0.35l0.38-16.47l-15.3-0.35l-30.27-0.7l-60.92,15.07l-30.27-0.7
	l-14.97-0.34l-15.3-0.35l-22.75,11.58v0l11.39-5.8l5.34,32.04l28,4l13,15l18,7c0,0,17-10,44-5c0,0-24-3-41,40c0,0-15,20-25,26
	s-20,20-20,20s-16,4-24,4s-26-1-26,8s13,66,13,66l16,4c0,0,11,35,16,39s20,12,20,12l-12,51h10l5,24c0,0-7,15-6,17s-5,36-5,48
	c0,0.5-0.05,0.96-0.11,1.4L-306-36l10,30l32,44l36,17l16,45l45-31l51-2l-15,53l37,42l36-32l31-18l-8,38l28,14l100-26l138-74l27,50
	v12l51-19L359.73,51.3z"/>
<path d="M542.08,22.76l-0.38,16.3l-15.3-0.35l-15.35,16.12L480.41,70.6l-15.68,16.11l-15.34,15.95l-15.3-0.35l0.38-16.3l-14.97-0.34
	l0.38-16.47l-15.3-0.35l14.55,33.12l-0.38,16.47l-15.3-0.35l-29.52-33.46l-14.21-33.28l0.53-1.09l0,0l-0.51,1.04L309,107l-51,19v-12
	l-27-50L93,138L-7,164l9,5l-52,27l-72-10l-21,48l38,70l37,16l-7,46h52c0,0,31-15,54-22s60-23,79-30s114-56,114-56l56,14l30,1l81-39
	l-7-17l1-30l41-38h26l21,22c0,0,4-39,6-44s16-23,16-23l0.59-0.79l-0.97,0.5l0.38-16.3l0.38-16.47l15.3,0.35l14.97,0.34L540.16,88
	h0.62l15.51-32.13l0.38-16.47L542.08,22.76z"/>
<path d="M799,702.28l0.38-16.47l0.38-16.47l-14.59-16.81l-15.3-0.35l-14.59-16.64l-15.3-0.35l-14.97-0.34l0.38-16.47l-14.92-16.82
	l0.38-16.3l0.38-16.47l15.3,0.35l15.35-16.12l15.68-16.11l0.38-16.3l0.76-32.93l-15.3-0.35l-14.97-0.34l0.38-16.47l0.38-16.3
	l-15.3-0.35l0.76-32.93l-14.21-33.11l-15.3-0.35l0.76-32.93l-14.17-49.58l0.38-16.3l0.38-16.47l-14.59-16.81l0.38-16.47l0.38-16.3
	l-14.54-33.28l0.38-16.47l1.51-65.69l0.38-16.3l-90.81-2.09l-14.97-0.34l-15.3-0.35l-29.67,15.11L495,104c0,0-14,18-16,23
	s-6,44-6,44l-21-22h-26l-41,38l-1,30l7,17l-81,39l-30-1l-56-14c0,0-95,49-114,56s-56,23-79,30s-54,22-54,22h-52l7-46l-37-16l-38-70
	l21-48l72,10l52-27l-9-5l-28-14l8-38l-31,18l-36,32l-37-42l15-53l-51,2l-45,31l-16-45l-36-17l-32-44l-10-30l-1.61-2.09
	c-1.52,10.34-19.89,7.59-19.89,7.59s-11,8-10,14s-2,23-5,25s-17,3-17,7s-1,23-1,23l-12,10v6l-12,12c0,0-8-13-9-10s-12,11-12,16
	s-18,33-18,42s4,9,3,14s-6,26-6,26s-15,6-21,14s-22,31-22,31l-16,30c0,0,16,5,16,7s4,22,4,22l-14,17l-33,24c0,0-13-2-30,0
	s-30,5-30,5l24,65h-38v25l54,31c0,0-15,83-21,93l-5,17v13.9c7.23,2.7,20.35,7.39,26,8.1c8,1,43-3,54-1s37,31,41,37s7,8,7,8l88,7
	l1,91c0,0,41-8,42-8s24-3,24-3l13,13c0,0,3-3,7-4s19,0,19,0s17-11,22-9s15,2,15,2l4-13l-11-10l-48-1c0,0-4-15-2-22s10-21,10-21
	l50,13l6-20c0,0,12-2,16,0s11,15,11,15l9,5c0,0,23-18,26-18s2,6,2,6s15-4,22-3s16,8,16,8s9-4,9-2s4,8,8,10s4-14,4-14l23-5l12-23
	c0,0,7,8,9,9s15,9,15,9l13-11c0,0-13-10-13-12s6-7,8-7s15,4,15,4l7-18l11-8c0,0,9-5,11-7s10-7,10-7s7-1,20,0s33-3,33-3
	c8,10,19,14,31,20s53,3,62,3s16,6,16,6l20,9c0,0,48,16,50,18s-7,12-7,12l7,11l5,1l25,5l12,13l1-3l-6-26l30-21l27,2l2,6
	c0,0,6,14,6,26s8,21,8,21l-5,14l8,4l4-6l6-8l5,6l-1,8l7,7v13l16-12l-1-7l3-1l7-8h5l12,16c0,0,12,11,17,9s14-2,14-2l19-2l8,11
	c0,0,6,2,10,1s5-9,5-9l5-8l6,3l8-3l8,10l-3,22l-9-3h-4l-2,13l-12-3c0,0-2,10-3,11s-9-1-9-1v7l8,8l6-1l10,2c0,0,8-10,9-11s8,4,8,4
	l12,8c0,0-1-3,6-8s13,0,13,0l-10,13l5,7l6-4l6,7l-10,9l12,7l12-1l6-10l2,6v8l24,19l12-1l4,6l0.09,0.1l15.07,0.35l0.38-16.47
	l14.92,16.82l14.97,0.34l15.3,0.35l15.35-16.12l15.68-16.11l0.38-16.3l14.97,0.34l15.68-16.11l14.97,0.34l15.68-16.11l0.38-16.3
	L799,702.28z"/>
</svg>
