<svg id="图层_1" data-name="图层 1" xmlns="http://www.w3.org/2000/svg" viewBox="0 0 370.17515 554.31693">
    <defs>
        <style>.cls-1,.cls-2{fill:#040000;}.cls-1{fill-rule:evenodd;}</style>
    </defs>
    <title>画板 2</title>
    <path class="cls-1"
          d="M277.08277.56224a3.1314,3.1314,0,0,0-1.6913,1.36085c-.31173.57329.52,1.30317,1.14431,1.82466a1.66444,1.66444,0,0,1,.5202,2.50145c-.7811,1.40731-1.87282.93745-2.80963.83322-.936-.10415-.83177-3.43955-1.716-3.69965-.88422-.26067-1.92494,1.51082-2.65361,2.39729-.72737.88575-1.24838.93746-2.601,1.14569A3.30046,3.30046,0,0,0,264.623,8.4373a9.52517,9.52517,0,0,1-2.55017,2.24054c-.88486.62508-.98748,3.02294-1.09172,4.32538-.10391,1.30324-1.45669,1.30324-2.18519,1.35487-.729.05164-.98829-1.61481-2.185-1.82393-1.19611-.20838-1.30018.5215-.936,1.04234a5.2057,5.2057,0,0,1,.936,3.02214c-.10423,1.199-1.35262,2.29394-2.54921,3.02229a7.53068,7.53068,0,0,1-3.8489,1.35552c-1.821.15676-2.13341.62508-3.64189,1.51075-1.50784.88647-3.53766,1.56326-5.51471,2.50145-1.97737.93818-2.39334.15667-4.57789-1.09414-2.18488-1.25064-2.28927-.15667-3.22528.625-.93665.78159-1.1974,2.24062-2.65344,2.24062s-1.71663-1.82328-3.538-2.29233c-1.8207-.469-3.27755.88647-4.63017,1.25064-1.35181.36418-2.02853.15668-2.65264-.78159-.62346-.9381-1.30018-.67744-1.92526-.15659-.62411.52084.20831,2.03231.46825,3.12717.26091,1.09486,0,2.39641-1.50832,2.34478-1.5093-.05252-1.56093-2.13655-1.30083-3.90869.26075-1.77237-.5202-1.25072-2.13276-1.09405a6.66963,6.66963,0,0,0-3.27771,1.25065c-1.09236.62491.20846,2.13638.4684,3.80372.2593,1.66669.25994,2.34558-1.14431,2.189s-3.17364-2.29314-4.16209-2.76228c-.98828-.469-1.76907-.05171-1.56092,1.4074.2083,1.459.36433,1.14577-.10391,2.293-.46857,1.14657.41564,1.30244,1.509,1.25073,1.09268-.05252,1.71614.15659,1.61288.93826-.10359.78151-1.50865.52077-3.69433.26a29.9321,29.9321,0,0,1-6.50251-1.30244c-2.29008-.78151-2.1852-1.82473-2.75751-4.22122a6.60312,6.60312,0,0,0-2.9647-4.48116c-1.30082-.7816-1.405-2.18891-2.44513-4.117-1.04073-1.92809-1.45669-2.34478-1.87331-1.87565-.416.469-.052,3.12637.57248,6.35681.62492,3.23133-.2601,6.201.41662,7.34824.67671,1.14657.98844,1.61489.5202,2.60479-.46857.99006-.10424,1.61579.05227,3.12726.15587,1.51138-.15651,2.24062-1.56157,2.34477-1.40441.10407-1.82038-.67744-2.44529-1.09421-.62428-.41661-1.3.36433-1.82022.93826a4.55039,4.55039,0,0,1-3.01762,1.35407c-1.35342.05244-2.02852-.67743-2.3935-2.084-.365-1.40643-.98764-.93818-1.40441,0a10.0185,10.0185,0,0,0-.46825,3.59558c0,1.14649.83258,2.34543-.36417,2.55309-1.19675.20822-1.19611-.2601-2.54873-1.19756s-3.12185,1.19756-3.95442,2.39657a4.31253,4.31253,0,0,1-3.01681,2.13638c-1.352.209-2.34123-.10423-2.13276-1.51066.2075-1.40659-1.14431-3.283-2.02933-4.06544s-1.82087-1.66733-1.8725-.05163c-.0526,1.6149.88486,2.24062,1.56093,4.27286.6751,2.03231-.36434,3.28368-1.5093,3.54378-1.14511.26075-1.87265-.2601-2.96469-1.71985-1.09252-1.45887-1.249-1.928-2.55-2.60544-1.30018-.67752-1.56012-.15595-1.82022,1.66725a6.59883,6.59883,0,0,1-.78014,2.86635c-.46825.93673-.31238.41661.5202,1.3548.83322.93834-1.14512,1.82409-2.3927,1.77165-1.2487-.0518-.78094-1.35415-.67671-2.96986.10407-1.61635-2.13276-2.658-3.17364-2.44965s-.57248,1.71977-.05244,2.24054a1.4707,1.4707,0,0,1-.31157,2.29306c-.98861.52085-3.01778.62589-4.89028.72923a8.67092,8.67092,0,0,0-3.90215,1.09486c-1.19675.574-1.30018.3649-1.24854-.57336.05244-.93811-1.196-.5215-3.01665.15659a15.84839,15.84839,0,0,1-4.62985,1.30252c-3.017.52084-3.17445.72979-4.57854.52084-1.40506-.20846-2.08113,1.5122-3.06941,2.03288-.98845.52085-.83193.78168-.88437,2.13647-.05164,1.35423-1.92494,1.09494-2.54937.36506a1.48905,1.48905,0,0,0-2.601.98982c-.25913,1.82482,1.04008,2.13655,2.13276,2.24062,1.09268.10488,1.7176.72988,1.50913,1.3548-.2083.62508-2.39334.105-3.85019,0-1.45653-.1048-1.716-.41734-2.08-1.30236-.36433-.88574-1.40522-1.30316-1.97705.36417-.57264,1.66742-.885,2.70968-.52069,3.49143.364.78151,3.53685,2.24054,4.63018,2.86627,1.09268.62572.15586,1.30308-.36434,2.24135-.51988.93754,1.24855,2.03159,2.237,2.60487a2.25845,2.25845,0,0,1,1.09268,3.0753c-.5728,1.66734-1.76939,2.344-4.16225,3.64794a7.525,7.525,0,0,1-5.61765.78159c-1.76874-.26082-1.50945.57256-2.602.469-1.09235-.10415-.98844-1.35552-1.92493-2.44965-.93617-1.094-.7277-1.56391,1.30147-2.1372,2.02852-.57256.571-1.61489-1.09333-2.60479-1.66419-.98982-1.82038-3.64786-1.92429-4.79435-.10423-1.14738-1.09349-2.18818-1.92526-3.12645-.83258-.93818-.52-4.53441.20831-6.72259a5.696,5.696,0,0,1,3.90134-3.90868c1.40425-.20823,1.509-1.459.36482-1.9798s-1.82183-2.658-2.23748-3.33467c-.416-.67672-1.09187,1.25072-1.821,1.35415-.72835.10415-1.35246-.99-1.97689-3.33476-.62492-2.34469-1.61256-1.66733-2.601-.88574s.15668,1.6157.88422,2.29225c.7285.6768.7285,1.56407-1.04008,2.39722A17.96014,17.96014,0,0,1,87.4314,60.184c-2.60181.15659-2.49693-.209-3.27755-.99055-.781-.78167.729-2.03239.41661-2.86642-.31173-.834-1.19691.2083-2.6536.05171s-2.18439-1.82312-2.4971-2.65651c-.313-.834-.57151-2.60625-1.24822-2.55453-.67671.05244-.41661,1.82465-.20782,3.02358.20863,1.19829-.98893,2.13575-1.8207.83339-.83258-1.30244-2.44514-1.87637-2.75768-2.81383-.31319-.93754-.572-1.09486-1.71663-2.2407-1.14528-1.14568-1.041-.05317-1.09268,1.56326-.0526,1.61563.46825,1.87557.83258,3.12629.365,1.25.2601,1.87564-1.04024,2.24054-1.301.36434-1.1974-.15578-1.24935-.78143-.05228-.62572.05195-1.92752-.98748-1.92752-1.04008,0-2.08177,2.60488-3.12185,3.17816-1.04105.57248-1.56028.05252-3.48538-.15594C59.59922,57.00449,53.70856,54.33,48.14,53.7096c-5.5686-.62057-9.9,1.23862-12.78784-3.7191-2.88821-4.95861-9.281-.62056-9.9001-5.57917-.619-4.95772-1.23709-6.404.2062-11.56946,1.44314-5.16538,5.56909-9.092-.2062-10.95124-5.77626-1.85918-8.86875-.206-15.46984-1.44548A75.22855,75.22855,0,0,1-.12462,17.96549L.08143-.00959,277.08277.56224Z"/>
    <path class="cls-1"
          d="M338.12373,1.13174a25.45234,25.45234,0,0,1-.81193,6.30509c-.81176,2.54259-1.62482,9.25405-.30512,11.18577,1.32035,1.93268,3.65383,5.49228,4.06076,8.136a7.47006,7.47006,0,0,0,2.64005,5.08446c1.42152,1.32188,1.92881,1.11874,3.9596,3.35565,2.03013,2.23691,2.33444,1.8299,2.94355,4.27059a6.74239,6.74239,0,0,0,3.75661,4.67915c1.52268.61,2.53888-.50818,2.84239-1.93268a47.94815,47.94815,0,0,0,.81241-5.49139,19.5795,19.5795,0,0,1,1.62369-7.22013c1.3197-2.74565,2.53791-5.69518,4.77119-9.55957,2.23393-3.86464,3.65544-5.89913,4.46785-8.237.81241-2.3388,1.42071-10.779,1.42071-10.779l-32.18176.20314Z"/>
    <path class="cls-1"
          d="M85.90259,101.4622a11.36,11.36,0,0,0-3.57816,1.85314,15.87932,15.87932,0,0,1-4.13272,3.83236c-2.96227,2.03974-4.56967,4.03-4.98337,6.35754-.4121,2.32839-1.08332,7.60382-.15329,9.31165.9281,1.70711,1.49622,3.98372.66994,5.58732-.82516,1.60295.10326,2.22489,1.08493,2.948a8.28462,8.28462,0,0,0,4.80266,1.91308c2.22037.0526,4.33651-.15361,4.751,1.03644.4137,1.18853,1.08509,1.70623,2.78914,1.70623s2.529-1.80965,2.99438-.62032c.46534,1.18989.67155,2.17156,3.09942,2.12057,2.42722-.05082,3.09781-.82806,4.751-1.86281,1.65322-1.03347,1.29034-2.17165,3.40809-2.06838,2.11792.10278,3.71757-.31173,4.64825-1.70776.92923-1.39537,3.20059-5.48163,5.0613-5.2755,1.85911.206,4.49238-.15514,5.2672-1.65539a12.8387,12.8387,0,0,0,1.60094-5.89744c0-2.38-.051-4.96684.51616-6.00183.56877-1.03411,1.96334-1.81046,3.0991-4.39637,1.1356-2.58681,2.11646-5.38047,2.94307-4.811.82645.56885,1.7063,2.0691,2.221.36127.51552-1.70711,1.0838-2.4303,1.13608-5.12053.05164-2.69015-.82644-3.82776-1.80828-4.55159-.98086-.72464-4.23469-2.53517-5.42241-2.37995-1.18772.15506-.77481,3.05295-2.37462,2.74122-1.60094-.31028-2.06612-1.50026-3.97767-2.32759-1.91041-.828-4.59435-2.22417-4.95707-1.39756-.36127.82806-1.34278,3.31225-2.7885,3.31225-1.4462,0-2.84-.31037-3.92506.3611-1.08445.67212-2.68652.41436-3.047-.3611-.36111-.77724-2.68555-1.44927-3.51232-.20767-.825,1.24089-3.304,4.39726-3.92442,3.98283a5.373,5.373,0,0,0-4.13127-1.24161c-2.065.36192-3.51232,2.94945-2.01432,2.63925s2.19955,1.52042-.11327,1.82021Z"/>
    <path class="cls-1"
          d="M194.38281,40.64665a4.17123,4.17123,0,0,1,1.57722-1.032c1.06267-.41959,1.57674-.93584,1.73857-.194a1.86811,1.86811,0,0,1-1.3205,1.90412c-.8684.353-2.2854.67518-2.44659.25711-.16023-.41887.4513-.9352.4513-.9352Z"/>
    <path class="cls-1"
          d="M170.25592,51.639s-.67816-.024-1.3105,1.17206c-.63234,1.19522-1.19288,1.99255-.51488,2.813.67817.81992,1.70776.02324,1.89509-.63322.18814-.65558-.09213-1.47622.44517-2.36648.5373-.89091,1.3331-1.29034.7014-1.33681a2.18289,2.18289,0,0,0-1.21628.35143Z"/>
    <path class="cls-1"
          d="M190.522,45.28433c.25461,0,.46146.15078.46146.3365,0,.18588-.20685.33569-.46146.33569-.25413,0-.46083-.14981-.46083-.33569,0-.18572.2067-.3365.46083-.3365Z"/>
    <path class="cls-1"
          d="M146.10758,484.34373s-1.01087,1.5235-1.87927,1.441-1.21338-.52455-1.17594-.94568-.01194-.89922-.51552-.39491-1.81409.71043-2.12808-.36192a6.25183,6.25183,0,0,1-.26365-1.9184c.00064-.00678.33271.10488.56021.825.2309.6947.49342,1.02668.98555.84161.48244-.17983,1.59238-.46615,1.93106.13562.3382.60838-.021,1.08735.39725,1.16819a1.74729,1.74729,0,0,0,1.37279-.52819c.21879-.305.5315-.44517.7156-.26236Z"/>
    <path class="cls-1"
          d="M152.84227,485.60866s-1.011,1.52276-1.87943,1.44031c-.86856-.08237-1.21321-.52464-1.17562-.945.03728-.42113-.01226-.89922-.51568-.39564-.50358.50431-1.81425.71036-2.12824-.36126a6.25712,6.25712,0,0,1-.26365-1.919c.00065-.00678.33271.10488.56119.8258.22992.694.49244,1.02661.98457.84154.48277-.18056,1.59239-.46615,1.93139.13553.33771.6079-.0213,1.08663.39693,1.16836a1.748,1.748,0,0,0,1.37278-.52827c.2188-.30577.53134-.446.71576-.26236Z"/>
    <path class="cls-1"
          d="M141.13034,479.25177s1.36827-1.214,2.18665-.91269,1.03782.816.89421,1.21394c-.14425.39725-.21895.87227.39693.51342.616-.359,1.93639-.22412,1.96414.89244a6.24185,6.24185,0,0,1-.23751,1.92211c-.00242.00605-.29463-.1866-.3298-.94117-.045-.72987-.21347-1.118-.73593-1.06492-.51326.051-1.65983.04421-1.833-.62347-.17007-.67445.29979-1.04532-.0831-1.23112a1.75074,1.75074,0,0,0-1.46347.16111c-.29011.239-.628.29447-.75916.07035Z"/>
    <path class="cls-1"
          d="M147.86568,481.14928s1.36778-1.214,2.18584-.91358c.81838.30132,1.038.81685.89422,1.21482-.14393.39709-.219.87219.39692.51326.61605-.359,1.93639-.224,1.964.89245a6.22781,6.22781,0,0,1-.23735,1.92211c-.0021.006-.29447-.18645-.32981-.94117-.04485-.72988-.21347-1.118-.73577-1.06477-.51342.05083-1.65983.04413-1.8328-.62346-.17039-.67446.29947-1.04541-.08342-1.23129a1.75074,1.75074,0,0,0-1.46347.16112c-.29.239-.628.29446-.75835.07051Z"/>
    <path class="cls-1"
          d="M154.8161,473.45849s1.83135.0284,2.22925.80257c.3987.77408.21056,1.30082-.16555,1.49646s-.753.49463-.056.646c.69736.15127,1.57787,1.14125.84065,1.98206a6.26079,6.26079,0,0,1-1.47928,1.25524c-.006.003-.09068-.33577.39563-.91575.46228-.56732.60169-.96667.18072-1.27985-.41307-.30883-1.25226-1.08663-.92633-1.69517.3319-.61226.92988-.568.774-.963a1.74528,1.74528,0,0,0-1.18626-.86848c-.376-.01952-.66316-.20677-.60685-.46009Z"/>
    <path class="cls-1"
          d="M155.51072,480.15325s-1.76907.47066-2.3643-.16563c-.5949-.63613-.55908-1.19441-.25025-1.48517.308-.29.58893-.68042-.123-.63621-.71253.04421-1.8307-.66921-1.35181-1.67855a6.23822,6.23822,0,0,1,1.07977-1.60974c.00452-.00444.17911.29826-.13037.98845-.28914.67147-.314,1.09405.17684,1.28065.482.18515,1.50171.70519,1.35488,1.37957-.15135.67832-.73883.79885-.48035,1.13616a1.74978,1.74978,0,0,0,1.37892.51326c.36724-.084.69382.018.70963.27721Z"/>
    <path class="cls-1"
          d="M265.1288,90.79793s-1.8449,1.50857-2.792,1.13229c-.94779-.37619-1.13689-1.01757-.90132-1.51219.23525-.49455.3979-1.085-.40435-.6392-.8024.44517-2.38414.2743-2.24925-1.1143a8.526,8.526,0,0,1,.57909-2.39117c.00371-.0075.32981.23227.25865,1.17126-.05647.90817.08907,1.39143.73206,1.32632.63089-.063,2.02029-.05171,2.12969.77941.10488.83928-.5223,1.3001-.08471,1.53156a2.15907,2.15907,0,0,0,1.8-.19709c.38805-.29737.80708-.36555.93213-.08689Z"/>
    <path class="cls-1"
          d="M261.75073,83.80717s1.93784-1.38707,2.85949-.95029c.922.43614,1.06879,1.08809.80192,1.56617-.26688.47882-.4676,1.05735.36191.66469.82951-.39337,2.39722-.12133,2.17294,1.25605a8.53879,8.53879,0,0,1-.73271,2.34914c-.00451.0075-.314-.25317-.182-1.18611.11472-.90228.00064-1.39384-.64525-1.37-.63315.0217-2.01949-.07858-2.075-.91487-.05-.84379.60475-1.26347.18362-1.52285a2.15875,2.15875,0,0,0-1.80893.08108c-.40693.27188-.82951.31319-.936.02695Z"/>
    <path class="cls-1"
          d="M239.0794,81.3626s-2.12662-1.07743-2.16212-2.09363c-.03518-1.01685.47825-1.447,1.02749-1.43063.5486.01573,1.15625-.07261.425-.62565-.73125-.55376-1.2103-2.06668.11908-2.50145a8.56863,8.56863,0,0,1,2.42965-.43162c.00807,0-.08165.39419-.973.70592-.85646.314-1.24144.64081-.9231,1.20119.31012.55094.85888,1.824.13941,2.25789-.7285.43323-1.4036.04566-1.441.538a2.14567,2.14567,0,0,0,.90422,1.56391c.42952.23541.66042.5899.45437.816Z"/>
    <path class="cls-1"
          d="M244.96635,75.12648s2.08032,1.55649,2.07354,2.91726-.5373,1.9071-1.08429,1.85547c-.54779-.05107-1.15851.03372-.45049.8137.70817.77934,1.124,2.82819-.22235,3.33693a6.55264,6.55264,0,0,1-2.4453.44364c-.00823-.00072.0973-.52221,1.0012-.891.8684-.37167,1.2671-.78828.972-1.555-.28785-.75311-.7832-2.48483-.04647-3.02512.74545-.53956,1.40409.01565,1.46186-.64073a3.2514,3.2514,0,0,0-.839-2.14018c-.4192-.33723-.63573-.82427-.42065-1.115Z"/>
    <path class="cls-2"
          d="M285.84011,213.27614a.54075.54075,0,1,1,.60937-.53662A.57718.57718,0,0,1,285.84011,213.27614Zm0-.648c-.10547,0-.1836.05908-.1836.11133,0,.05273.07813.11182.1836.11182s.18359-.05909.18359-.11182C286.0237,212.68727,285.94557,212.62819,285.84011,212.62819Z"/>
    <path class="cls-1" d="M285.83985,212.41572a.33051.33051,0,1,1-.39708.32448.36725.36725,0,0,1,.39708-.32448Z"/>
    <path class="cls-1"
          d="M283.69758,209.54562s1.93768-1.3863,2.85949-.95016c.92164.43613,1.06847,1.0888.80176,1.56689s-.46776,1.05738.36191.664c.82968-.39265,2.39738-.12065,2.17342,1.25669a8.56806,8.56806,0,0,1-.73286,2.34849c-.00484.00754-.31432-.25329-.18233-1.18546.11472-.903.001-1.39461-.64525-1.37061-.63331.02247-2.01965-.07793-2.075-.91422-.05019-.84456.60474-1.2642.18345-1.52349a2.1589,2.1589,0,0,0-1.80876.08168c-.40693.27132-.82967.3125-.93584.02622Z"/>
    <path class="cls-1"
          d="M285.68931,218.26527s-1.25451,2.02256-2.27362,1.97238-1.40586-.5958-1.34358-1.1398c.06131-.54331.02388-1.1548-.59055-.47437s-2.16648,1.02963-2.49031-.32747a8.52514,8.52514,0,0,1-.22848-2.44969c.001-.00823.38725.11391.62508,1.02515.24122.87752.5365,1.28739,1.12334,1.01765.57635-.26228,1.89508-.70067,2.26829.05018.3724.75985-.07132,1.39832.41726,1.47626a2.15533,2.15533,0,0,0,1.639-.76736c.27139-.40689.64508-.60624.85355-.38293Z"/>
    <path class="cls-1"
          d="M286.31342,214.82342s-.41274.6632-.74787.6467c-.3348-.01645-.46227-.19556-.4421-.37316.02017-.17838.00823-.37918-.19411-.15587-.20137.22331-.71253.33723-.819-.10791a2.77,2.77,0,0,1-.07487-.80256c0-.003.12747.0367.20524.33569.07938.28777.17684.42266.3695.33424.18959-.08616.62346-.23009.74625.01646.12215.24881-.02323.45788.137.4841a.71348.71348,0,0,0,.53989-.25175c.08842-.1334.212-.19935.2801-.12594Z"/>
    <path class="cls-1"
          d="M132.11622,167.88238s1.68452-3.09341,3.01245-3.23056,1.81941.54928,1.72647,1.3249c-.09358.77482-.05841,1.62458.75836.54558.81692-1.0799,2.85061-1.88622,3.24028-.048a12.43248,12.43248,0,0,1,.24138,3.38941c-.00161.012-.50277-.08023-.79127-1.31066-.29463-1.18171-.66994-1.6965-1.44185-1.199-.75771.48635-2.48789,1.36984-2.95694.392-.46776-.99.12585-1.97612-.51036-1.98588a3.37349,3.37349,0,0,0-2.156,1.41106c-.36256.62577-.855.98167-1.12253.71121Z"/>
    <path class="cls-1"
          d="M154.96793,171.797s2.40351-2.74711,3.75693-2.38822c1.35327.35889,1.68,1.30171,1.4049,2.11622-.27575.81455-.4413,1.761.62573.88946,1.06734-.8707,3.27949-.97566,3.23431,1.19155a15.16756,15.16756,0,0,1-.55828,3.81195c-.00452.01279-.48035-.28176-.47793-1.74221-.01517-1.40957-.26688-2.11924-1.15189-1.86894-.86856.242-2.79737.54779-3.03327-.70515-.23235-1.26569.59023-2.12-.04-2.37475a2.90723,2.90723,0,0,0-2.4766.72088c-.5081.547-1.08186.74932-1.28388.34921Z"/>
    <path class="cls-1"
          d="M162.4087,178.30535s1.752-2.00239,2.73816-1.74084c.98635.26156,1.22434.94876,1.02362,1.54225-.20089.59418-.32158,1.28364.4563.64888.77724-.63472,2.389-.71116,2.35688.8678a11.058,11.058,0,0,1-.40693,2.77788c-.00307.00976-.35-.20455-.34852-1.2694-.0113-1.02745-.194-1.54451-.83936-1.36161-.63315.17611-2.0382.39947-2.21053-.51407-.16942-.92249.43017-1.54515-.029-1.731a2.11978,2.11978,0,0,0-1.80457.526c-.3703.3987-.78853.54557-.936.25413Z"/>
    <path class="cls-1"
          d="M198.38274,201.0156s-1.37957-.80334-1.33535-1.41107c.0434-.60846.42258-.8258.79579-.77409.37337.051.79353.04421.33141-.34094-.46179-.38519-.68816-1.32264.24865-1.48077a6.68783,6.68783,0,0,1,1.686-.07269c.00613.00077-.08164.22856-.71027.347-.6054.12138-.89035.287-.71028.64517.17523.35146.46438,1.15181-.05566,1.3556-.526.2031-.9607-.07943-1.01911.21133a1.263,1.263,0,0,0,.51327,1.00043c.27736.17232.4108.40165.25558.52Z"/>
    <path class="cls-1"
          d="M201.89958,203.33113s-1.37892-.8033-1.33535-1.4118c.0434-.60773.42258-.825.79579-.77409.37337.05172.7945.04494.3319-.34021-.46228-.38519-.68865-1.3226.248-1.4815a6.6886,6.6886,0,0,1,1.68613-.07269c.006.00077-.08164.22856-.71043.34695-.60524.12219-.89019.28777-.71044.646.17539.35142.4647,1.15177-.05534,1.35483-.52521.20311-.9607-.07865-1.01846.21134a1.26108,1.26108,0,0,0,.51262,1.00038c.2772.17309.41145.40169.25558.52081Z"/>
    <path class="cls-1"
          d="M206.43246,196.2129s1.10752-1.14726,1.69049-.96142c.58232.18584.70527.604.56731.954-.13779.34916-.23073.75831.25333.40164.48486-.35743,1.45217-.35521,1.38569.589a6.64083,6.64083,0,0,1-.32609,1.65084c-.0021.006-.20379-.13263-.17087-.76961.02388-.616-.07052-.93068-.46244-.84081-.38337.087-1.23177.1791-1.30825-.3724-.07357-.55756.30335-.91273.03437-1.03714a1.26834,1.26834,0,0,0-1.09607.26156c-.23331.22706-.48793.30346-.56747.12436Z"/>
    <path class="cls-1"
          d="M211.149,194.31927s.85259-.88276,1.301-.73964c.44807.14316.54247.46461.43613.73362-.10584.269-.17764.58378.19556.30875.37241-.27426,1.11656-.27276,1.06558.45336a5.08286,5.08286,0,0,1-.25107,1.27017c-.00145.00452-.15667-.10266-.132-.59273.01872-.47284-.05389-.71564-.35513-.64593-.29512.06668-.94795.13711-1.00636-.287-.057-.42863.2338-.7014.02614-.79732a.97627.97627,0,0,0-.8429.20084c-.17975.17535-.37547.233-.43695.09593Z"/>
    <path class="cls-1"
          d="M192.01093,208.34443s-.49858-1.11958-.19718-1.47928a.54652.54652,0,0,1,.84614-.12666c.20976.19935.476.3837.36046-.06365-.11472-.44812.167-1.13455.82322-.81383a5.20822,5.20822,0,0,1,1.08526.7104c.0029.00375-.15426.10641-.60023-.10193-.43227-.19484-.68479-.21953-.73432.08471-.04889.29821-.22928.92769-.64589.82128-.41968-.1094-.56345-.47958-.73061-.32448a.96565.96565,0,0,0-.131.85428c.095.23158.07471.43464-.07583.43916Z"/>
    <path class="cls-1"
          d="M197.14629,210.34145s.18508,1.211-.20088,1.47852a.546.546,0,0,1-.849-.09964c-.15005-.24731-.35739-.49459-.365-.033-.00742.46163-.46082,1.05061-1.00877.56877a5.12621,5.12621,0,0,1-.85937-.97041c-.00225-.00375.1762-.06148.55151.25554.36659.30274.60346.39188.73157.11166.12585-.275.466-.8348.83936-.62274.37595.21508.41725.61071.61959.50507a.97075.97075,0,0,0,.35239-.78982c-.031-.24881.04179-.43912.18862-.40395Z"/>
    <path class="cls-1"
          d="M206.46618,211.47979s-.56635,1.08732-1.03718,1.07679c-.4705-.01045-.65186-.293-.62637-.58075.02485-.28773.00372-.60922-.2751-.2413-.27946.36873-.99345.57776-1.15093-.13336a5.11486,5.11486,0,0,1-.12069-1.28892c.00064-.00448.17975.054.29447.53056.11682.45934.25558.67143.52455.52.26462-.14763.87-.39938,1.04686-.009.176.39495-.02485.73887.20153.77264a.9779.9779,0,0,0,.75158-.43094c.12247-.21879.29382-.33045.39128-.21577Z"/>
    <path class="cls-1"
          d="M208.8784,207.69773s1.19449.28624,1.29792.74412c.10262.45784-.12828.7014-.41452.74633s-.59426.14312-.16861.32448c.42662.18137.80192.82206.14683,1.14581a5.11908,5.11908,0,0,1-1.22579.42637c-.00436.00077.00968-.18656.44662-.4129.41887-.22331.592-.40842.37918-.63246-.20766-.22033-.59878-.74561-.26091-1.01091.34255-.26527.72544-.15361.70382-.38067a.975.975,0,0,0-.60055-.62347c-.24235-.06591-.39241-.2046-.304-.3267Z"/>
    <path class="cls-1"
          d="M153.52867,175.05829s1.75116-2.00231,2.7375-1.74075c.986.26155,1.22435.94867,1.02346,1.54216-.20007.59427-.3206,1.28364.45647.64816.778-.63468,2.38963-.71036,2.35768.86852a11.07316,11.07316,0,0,1-.4079,2.778c-.0029.009-.35-.20463-.34836-1.2694-.01048-1.02745-.1941-1.5445-.83919-1.36242-.63266.17685-2.03837.39943-2.21085-.51334-.16862-.92241.43016-1.54515-.0284-1.731a2.12076,2.12076,0,0,0-1.80521.52536c-.37015.39939-.78837.54626-.9352.25474Z"/>
    <path class="cls-1"
          d="M143.51561,175.16994s1.05154,2.79741.26543,3.63a1.33324,1.33324,0,0,1-2.07822.1858c-.4818-.51479-1.10172-1.00188-.88647.10339.21427,1.10607-.57184,2.73666-2.12147,1.86071a12.48524,12.48524,0,0,1-2.53872-1.8854c-.00742-.00754.39015-.2361,1.4454.33416,1.02523.53884,1.63643.634,1.8-.09967.16328-.71863.69317-2.22332,1.69129-1.90562,1.00555.326,1.30309,1.25,1.73325.89632a2.36507,2.36507,0,0,0,.44275-2.06084c-.19765-.57849-.12053-1.06936.24671-1.05884Z"/>
    <path class="cls-1"
          d="M140.635,186.64873s1.40054-2.04656,2.57713-1.91836c1.17626.12888,1.63579.73516,1.57673,1.30542-.0584.57026-.00064,1.21994.69156.54549.69317-.67437,2.47515-.9285,2.88063.53133a8.46349,8.46349,0,0,1,.32,2.60855c-.00064.009-.44888-.14913-.74416-1.1308-.29979-.94645-.649-1.40207-1.3197-1.16-.65864.23452-2.16938.601-2.61746-.22186-.44743-.831.04953-1.474-.51617-1.59243a2.374,2.374,0,0,0-1.87282.69095c-.30269.40992-.72915.5935-.9757.34171Z"/>
    <path class="cls-1"
          d="M148.95981,191.58632s-.06228,2.47664-1.12108,3.005c-1.05815.5283-1.77294.26679-2.03465-.24429-.26075-.51105-.66316-1.02512-.87825-.08391-.21427.94045-1.57367,2.11844-2.70814,1.11055a8.454,8.454,0,0,1-1.68839-2.01731c-.00436-.00746.45792-.11762,1.24032.547.76658.63323,1.3084.82733,1.74.26155.42565-.55453,1.49574-1.67859,2.31928-1.22971.82806.45639.76062,1.26493,1.30018,1.05884a2.36462,2.36462,0,0,0,1.1974-1.59312c.03082-.50809.28995-.89324.63331-.81458Z"/>
    <path class="cls-1"
          d="M145.73889,180.00858s1.71776-1.7902,2.85739-1.471c1.1398.31847,1.49267.99144,1.34132,1.54443-.152.553-.20152,1.20345.592.65118.79434-.5515,2.59438-.51177,2.7538.99446a8.45475,8.45475,0,0,1-.11133,2.625c-.00242.00908-.4192-.22025-.54925-1.23641-.1394-.98243-.41015-1.489-1.11139-1.36016-.688.12449-2.23829.23909-2.54582-.64589-.30415-.89256.29172-1.44552-.2472-1.65455a2.372,2.372,0,0,0-1.96107.37539c-.36563.35517-.81677.46687-1.01846.17756Z"/>
    <path class="cls-1"
          d="M159.94776,183.67375s-.12812,2.47442-1.19966,2.975c-1.07235.50059-1.78069.22032-2.02788-.2975-.24735-.51782-.63541-1.04233-.87534-.10714-.23977.9352-1.62982,2.07649-2.73734,1.03936a8.50015,8.50015,0,0,1-1.6345-2.06072c-.00372-.00831.46163-.10645,1.22627.57922.74916.65275,1.28566.861,1.73229.30657.43984-.54255,1.5393-1.63813,2.35074-1.16836.81532.47813.72593,1.28445,1.27178,1.0926a2.35961,2.35961,0,0,0,1.23871-1.56092c.04485-.50737.314-.885.65493-.79809Z"/>
    <path class="cls-1"
          d="M98.04469,399.44874s-1.69953-.68043-1.79392-1.5452c-.09391-.86481.2714-1.29041.6922-1.33838.4221-.04872.88147-.19261.28495-.583s-1.06331-1.62914-.07341-2.15144a6.31229,6.31229,0,0,1,1.8328-.64371c.00613-.00077-.03663.34622-.69833.71414-.63606.365-.90971.68793-.62863,1.1308.2743.43541.77868,1.46125.25558,1.91312-.52988.45263-1.07235.19862-1.06848.62274a1.74029,1.74029,0,0,0,.79563,1.23495c.344.15212.54473.4294.40161.646Z"/>
    <path class="cls-2"
          d="M170.68157,358.99866c.32077-.17087.65348-.17236.74351-.00375.09052.16861-.095.44364-.41516.61447-.32.17011-.65283.1716-.74351.003-.08971-.16862.09617-.4436.41516-.61371ZM173.81778,388.52c.20976,0,.37983.23307.37983.52,0,.28628-.17007.51932-.37983.51932-.20992,0-.38-.233-.38-.51932,0-.287.17006-.52.38-.52Zm33.32656-59.98834c.27495,0,.49842.12815.49842.28551,0,.15664-.22347.284-.49842.284s-.49745-.12738-.49745-.284c0-.15736.22251-.28551.49745-.28551Zm2.0637-.49906c.07874,0,.14248.19108.14248.42786,0,.23606-.06374.42791-.14248.42791-.07793,0-.14231-.19185-.14231-.42791,0-.23678.06438-.42786.14231-.42786Zm-2.954,3.70711c.138,0,.25042.19181.25042.42787,0,.23682-.11246.42867-.25042.42867-.13634,0-.24864-.19185-.24864-.42867,0-.23606.1123-.42787.24864-.42787Zm-1.45911,8.91295a.50575.50575,0,1,1-.42629.49911.46716.46716,0,0,1,.42629-.49911Zm21.99558-4.706a.57026.57026,0,1,1-.56958.571.56991.56991,0,0,1,.56958-.571Zm16.97687,15.11623c.29463,0,.53359.17611.53359.39265s-.239.39193-.53359.39193c-.29528,0-.53343-.17535-.53343-.39193s.23815-.39265.53343-.39265Z"/>
    <path class="cls-1"
          d="M170.68238,358.99789c.31932-.1701.65348-.1701.74335-.003.08923.16785-.09665.44364-.41516.6137-.3198.17164-.65348.17164-.74335.00452-.08987-.16785.09665-.44513.41516-.61524Z"/>
    <path class="cls-1"
          d="M173.81843,388.52069c.2083,0,.37853.23308.37853.51931,0,.28552-.17023.51859-.37853.51859-.21057,0-.38063-.23307-.38063-.51859,0-.28623.17006-.51931.38063-.51931Z"/>
    <path class="cls-1"
          d="M207.14515,328.53163c.27349,0,.49826.12815.49826.28551,0,.15587-.22477.284-.49826.284-.2743,0-.49922-.12815-.49922-.284,0-.15736.22492-.28551.49922-.28551Z"/>
    <path class="cls-1"
          d="M209.208,328.0318c.07874,0,.14248.19334.14248.42863s-.06374.42791-.14248.42791c-.07793,0-.14183-.19262-.14183-.42791s.0639-.42863.14183-.42863Z"/>
    <path class="cls-1"
          d="M206.25481,331.74041c.138,0,.24961.19185.24961.42714s-.11166.42867-.24961.42867c-.13715,0-.24945-.19334-.24945-.42867s.1123-.42714.24945-.42714Z"/>
    <path class="cls-1" d="M204.79586,340.65263a.50557.50557,0,1,1-.42726.49983.46834.46834,0,0,1,.42726-.49983Z"/>
    <path class="cls-1" d="M226.79047,335.94663a.57064.57064,0,1,1-.56958.571.57158.57158,0,0,1,.56958-.571Z"/>
    <path class="cls-1"
          d="M243.76734,351.06362c.29382,0,.53359.17535.53359.39116,0,.21731-.23977.39266-.53359.39266-.29366,0-.53343-.17535-.53343-.39266,0-.21581.23977-.39116.53343-.39116Z"/>
    <path class="cls-1"
          d="M110.21164,384.16091s-.17249,1.81795-.97812,2.15365c-.80483.335-1.31744.10645-1.4838-.28249-.16555-.38894-.43533-.7876-.64154-.10641-.20524.68115-1.26468,1.47847-2.04788.68042a6.23718,6.23718,0,0,1-1.13915-1.56915c-.00291-.006.34336-.06374.88453.46534.53118.50358.92.67365,1.2663.2795.34094-.38591,1.18465-1.15851,1.76778-.78683.586.37768.49535.96892.90212.84456a1.74,1.74,0,0,0,.9615-1.11132c.04937-.37244.25945-.64222.50826-.56727Z"/>
    <path class="cls-1"
          d="M105.73475,379.6797s1.09849-1.46129,1.96027-1.32866c.86276.13264,1.1803.59427,1.11882,1.01241-.06212.41815-.0405.89849.49164.42416.532-.47438,1.85249-.60326,2.1034.48482a6.23872,6.23872,0,0,1,.1507,1.93111c-.00065.006-.32593-.12441-.511-.85727-.18958-.70592-.43242-1.05286-.93439-.897-.49245.15212-1.61723.37244-1.91993-.248-.302-.62649.08471-1.08356-.32755-1.18925a1.74971,1.74971,0,0,0-1.40215.44812c-.2359.29152-.55683.4129-.7298.2196Z"/>
    <path class="cls-1"
          d="M118.17955,377.37611s1.09768-1.46125,1.96043-1.32862c.86163.13264,1.18014.59427,1.11785,1.01241-.06212.41815-.04033.89849.49165.42416s1.85313-.60326,2.10323.48482a6.23274,6.23274,0,0,1,.1507,1.93111c-.00065.006-.32577-.12441-.51084-.85727-.18975-.70592-.43243-1.05286-.93375-.897-.49309.15212-1.61788.37244-1.92074-.248-.30189-.62649.08471-1.08356-.32738-1.18925a1.74885,1.74885,0,0,0-1.40184.44812c-.23622.29152-.557.4129-.72931.21956Z"/>
    <path class="cls-1"
          d="M147.437,388.95086s-.68784,1.69283-1.5556,1.78347-1.2934-.27426-1.34068-.69463c-.04711-.42044-.19007-.879-.58377-.28551-.39338.5935-1.63724,1.05432-2.15793.06591a6.23988,6.23988,0,0,1-.63928-1.82921c-.001-.00674.34675.03747.71334.69841.36418.63549.687.909,1.13221.63025.43759-.272,1.469-.77038,1.92058-.248.452.5298.19508,1.06932.62137,1.06706a1.74547,1.74547,0,0,0,1.24016-.78909c.15425-.34243.43307-.54174.6496-.39862Z"/>
    <path class="cls-1"
          d="M123.66263,380.29264s-.12892,1.82171-.92632,2.17616c-.7966.35373-1.31486.13792-1.48977-.24727-.17523-.38519-.454-.77708-.64364-.09141-.19023.68567-1.22966,1.50772-2.03223.72835a6.24143,6.24143,0,0,1-1.17562-1.5414c-.00322-.006.34159-.072.89535.44359.54327.49161.93536.65272,1.27259.2503.33174-.39418,1.1569-1.18626,1.7489-.82882.59426.36421.51778.957.92164.82281a1.74031,1.74031,0,0,0,.93536-1.133c.03954-.37321.24268-.64824.49374-.5793Z"/>
    <path class="cls-1"
          d="M197.769,395.60524s-1.01087,1.52345-1.87943,1.441c-.8684-.08245-1.2124-.5246-1.175-.94573.03679-.42113-.01275-.89922-.51552-.39491-.50358.50431-1.81473.71039-2.12905-.362a6.21946,6.21946,0,0,1-.263-1.91837c0-.00673.33206.10488.56054.825.23008.69466.49309,1.02665.98489.84153.48325-.17982,1.59223-.4661,1.93091.13566.33868.60846-.02082,1.08732.39741,1.16823a1.7476,1.7476,0,0,0,1.37263-.52826c.2196-.305.532-.44513.71559-.26228Z"/>
    <path class="cls-1"
          d="M193.27432,407.46921s-1.01007,1.52272-1.87863,1.44027-1.21321-.52456-1.17578-.94573c.03663-.42036-.01274-.89921-.51536-.39487-.50374.50431-1.81521.7104-2.1284-.36118a6.20693,6.20693,0,0,1-.26381-1.91913c0-.00674.33271.10488.56054.82576.23009.69394.49309,1.02665.98457.84081.48342-.17987,1.59255-.46534,1.93139.13638.33852.60774-.02113,1.08659.39693,1.16828a1.74684,1.74684,0,0,0,1.37311-.52908c.21928-.305.53182-.44509.71544-.26151Z"/>
    <path class="cls-1"
          d="M142.83809,383.01736s1.1001-1.46052,1.96205-1.32636c.86162.13336,1.17933.595,1.1172,1.01313s-.0413.8985.49084.42489c.53279-.47357,1.85394-.60177,2.10339.48708a6.25837,6.25837,0,0,1,.14909,1.93115c-.00145.00673-.32593-.12441-.51084-.85731-.189-.70664-.43114-1.05436-.93294-.89849-.49342.15139-1.61724.37095-1.9201-.24953-.30124-.62722.08616-1.08361-.32657-1.19a1.74713,1.74713,0,0,0-1.40216.44667c-.23686.29148-.55666.4129-.73.21879Z"/>
    <path class="cls-1"
          d="M194.44025,389.342s1.36843-1.21475,2.18665-.91346c.81838.30124,1.038.81677.89406,1.21393-.14442.39794-.21961.87228.39644.51335.61669-.359,1.93623-.22331,1.965.89248a6.22715,6.22715,0,0,1-.23783,1.92288c-.0021.006-.29431-.18657-.33029-.94121-.044-.72988-.21283-1.118-.73593-1.06485-.5131.051-1.659.04421-1.83216-.62423-.17087-.67369.29979-1.0446-.0839-1.23043a1.74886,1.74886,0,0,0-1.46266.16034c-.29012.23981-.62815.29527-.75933.0712Z"/>
    <path class="cls-1"
          d="M189.1395,402.58781s1.36811-1.21394,2.18649-.91273c.81821.30124,1.03782.81608.89324,1.214-.14376.39716-.219.87231.39709.51334s1.93656-.22408,1.96479.89248a6.26438,6.26438,0,0,1-.23735,1.92215c-.00242.006-.29463-.1866-.33061-.94121-.044-.72992-.21282-1.118-.73577-1.06488-.51326.051-1.65919.04425-1.83232-.62347-.17087-.67441.29964-1.04536-.0839-1.2312a1.74918,1.74918,0,0,0-1.46266.16111c-.29011.239-.62879.29451-.759.07043Z"/>
    <path class="cls-1"
          d="M226.95682,366.57174s1.68533-.71564,2.3643-.1701c.67962.54553.72318,1.10308.45921,1.4343-.26365.33122-.487.75759.21218.613.6985-.14461,1.90735.40318,1.57658,1.47024a6.25362,6.25362,0,0,1-.84,1.74681c-.00387.00447-.21943-.27055-.01194-.99741.19137-.70591.15587-1.127-.35739-1.24322-.50278-.11464-1.58658-.48559-1.537-1.17351.05406-.69317.61847-.89551.314-1.193a1.74851,1.74851,0,0,0-1.438-.3125c-.35142.13493-.68946.07946-.7419-.17459Z"/>
    <path class="cls-1"
          d="M233.87578,347.44638s1.8015-.76582,2.52775-.18208c.72593.583.7724,1.17948.49051,1.53321-.28236.35372-.52068.8093.22654.655.74706-.15441,2.03821.43162,1.68533,1.57218a6.6951,6.6951,0,0,1-.89777,1.86665c-.00451.00524-.23444-.28927-.01274-1.06562.20459-.7546.16635-1.2057-.38225-1.32861-.53714-.12287-1.696-.51932-1.64257-1.25521.057-.74036.66106-.95694.33578-1.27541a1.86876,1.86876,0,0,0-1.537-.33343c-.37595.14384-.73738.08467-.79353-.18665Z"/>
    <path class="cls-1"
          d="M234.45149,351.89915s-1.91429.41141-2.51646-.29826c-.60184-.70963-.5344-1.30389-.18975-1.5984.344-.29374.66478-.69616-.0981-.68567s-1.91977-.80858-1.35633-1.86217a6.70728,6.70728,0,0,1,1.23661-1.66286c.00581-.00447.17587.32823-.18975,1.04839-.344.70289-.39274,1.15178.12214,1.37658.50423.22255,1.56625.83028,1.37424,1.54293-.197.71641-.83032.81455-.57183,1.18849a1.86681,1.86681,0,0,0,1.44572.61826c.39628-.0697.74028.05619.74351.33271Z"/>
    <path class="cls-1"
          d="M246.866,351.816s-1.53156,1.21547-2.38737.84678c-.85581-.36946-1.05976-.93221-.88276-1.3481.17765-.41593.28543-.91874-.39354-.57179-.67816.34771-2.07951.12593-2.04337-1.06707a6.6862,6.6862,0,0,1,.36627-2.03756c.00307-.00674.30367.21585.29689,1.02366.00452.78159.162,1.20575.72318,1.17949.5507-.02473,1.77391.05022,1.91913.7726.14231.72987-.38144,1.09856.01646,1.31889a1.871,1.871,0,0,0,1.57061-.08616c.32367-.23832.688-.278.8145-.03074Z"/>
    <path class="cls-1"
          d="M264.40143,355.88351s-1.0304,1.65987-1.96125,1.59993c-.93-.05922-1.31292-.52081-1.28678-.97195.02549-.45037-.0426-.95992-.56425-.40467-.52069.55457-1.91461.81757-2.28556-.31694a6.67364,6.67364,0,0,1-.34465-2.04131c.00065-.00746.35885.10117.62637.86328.26914.73439.56054,1.08062,1.0801.867.51019-.20831,1.68581-.55,2.06724.08168.38144.6392.01356,1.16226.46325,1.23568a1.86845,1.86845,0,0,0,1.4491-.61c.22412-.33348.55312-.49237.75643-.30278Z"/>
    <path class="cls-1"
          d="M259.17748,340.95166s-1.42249,1.34209-2.3067,1.04686c-.88421-.296-1.13528-.83928-.99442-1.26868s.206-.939-.44065-.53581c-.6467.40391-2.06225.302-2.12808-.89022a6.68756,6.68756,0,0,1,.191-2.0608c.00226-.00673.32142.18963.38354.99442.07131.77861.264,1.18775.82128,1.11357.54666-.07043,1.771-.10044,1.9777.60774.20459.71487-.28624,1.12628.12989,1.31212a1.86915,1.86915,0,0,0,1.5577-.2188c.30205-.2653.6609-.335.8087-.1004Z"/>
    <path class="cls-1"
          d="M232.22418,343.15553s-1.943-.24428-2.27507-1.1128c-.33207-.86929-.07035-1.40732.35223-1.57142.42258-.16337.85888-.43766.13554-.67969-.72319-.242-1.542-1.39683-.6609-2.20388a6.70286,6.70286,0,0,1,1.71985-1.16077c.00662-.003.057.36716-.52762.92621-.55828.54928-.75384.9577-.34239,1.33914.40144.37615,1.20191,1.30087.78369,1.90937-.42387.61148-1.05428.49458-.935.933a1.86222,1.86222,0,0,0,1.15851,1.06109c.39693.06446.67962.29673.5912.55977Z"/>
    <path class="cls-1"
          d="M235.75683,336.08975s1.86346.59877,2.02852,1.51372c.16539.915-.192,1.39534-.63782,1.47852-.44517.08318-.92471.27127-.2593.64295.66542.37095,1.256,1.65761.23977,2.28782a6.71787,6.71787,0,0,1-1.90557.82354c-.00678.00149.01275-.37168.69091-.81306.65041-.4369.91794-.80184.58523-1.25294-.32529-.44364-.93956-1.50026-.416-2.02106.53053-.5223,1.12866-.29148,1.09187-.74412a1.85826,1.85826,0,0,0-.941-1.25669c-.3787-.13639-.61314-.41738-.47664-.65868Z"/>
    <path class="cls-1"
          d="M226.042,328.29259s.703-1.86443,1.81264-2.039c1.10994-.17462,1.69888.17612,1.806.61972.10633.44287.34174.9187.78449.251.44211-.66695,1.99787-1.27017,2.77785-.26377a6.13194,6.13194,0,0,1,1.02588,1.89065c.00161.00674-.45179-.00823-.99716-.67966-.53989-.64371-.987-.90676-1.53124-.56953-.53488.329-1.81037.95246-2.4503.43686-.64218-.523-.36949-1.12176-.91874-1.08054a2.24875,2.24875,0,0,0-1.51526.9517c-.16087.37841-.49906.6152-.79418.48257Z"/>
    <path class="cls-1"
          d="M212.19436,327.79727s.1933,1.98282-.72625,2.6265c-.91874.64448-1.60288.58825-1.89428.23755-.29237-.35142-.7135-.67518-.81612.11843-.102.79358-1.23177,2.018-2.377,1.4575a6.13269,6.13269,0,0,1-1.75648-1.24693,1.49636,1.49636,0,0,1,1.1961.17236c.76885.34094,1.28582.38068,1.62612-.16115.33513-.5298,1.20417-1.65084,2.00674-1.46875.80708.1881.82677.84529,1.30244.56651a2.24264,2.24264,0,0,0,.93891-1.5197c-.02243-.41064.176-.77183.49987-.78232Z"/>
    <path class="cls-1"
          d="M193.45729,329.43613s-.51794,1.92437-1.6053,2.20537-1.70775-.01122-1.85765-.44138c-.14909-.43085-.43016-.882-.80563-.17459s-1.86443,1.4575-2.739.5313a6.12769,6.12769,0,0,1-1.205-1.782c-.00226-.00678.4505-.03521,1.059.58.59942.58825,1.07025.80709,1.57883.41891.50068-.37917,1.70937-1.12406,2.39657-.67219.69011.4586.47647,1.08062,1.01991.98619a2.24825,2.24825,0,0,0,1.41474-1.0941c.12359-.39265.43694-.66094.74351-.55751Z"/>
    <path class="cls-1"
          d="M235.26277,330.52494s-.30722,1.96785-1.35859,2.36353c-1.05057.3964-1.69969.17233-1.89428-.23981-.19491-.4129-.52246-.83105-.82-.08769-.29657.74339-1.69646,1.64861-2.66539.82132a6.13443,6.13443,0,0,1-1.39005-1.64261c-.00322-.00678.44437-.08318,1.11495.46312.65929.52077,1.15109.68793,1.615.24728.45711-.43013,1.57883-1.30014,2.3104-.924.73513.3822.59039,1.02289,1.12011.87155a2.24861,2.24861,0,0,0,1.28905-1.23947c.08019-.40318.36288-.70366.67881-.63323Z"/>
    <path class="cls-1"
          d="M256.894,333.76s1.60062-1.12479,2.4332-.70592,1.00361.99216.80192,1.39755c-.20169.40468-.33884.9.35885.59277.69866-.30649,2.084-.00375,1.97834,1.1855a6.65553,6.65553,0,0,1-.48647,2.01279c-.00291.006-.28979-.2338-.2359-1.03935.0413-.78083-.09068-1.21321-.65267-1.22-.5507-.0075-1.767-.1536-1.86976-.88348-.09955-.73662.44518-1.07384.06083-1.31741a1.87228,1.87228,0,0,0-1.57383-.006c-.33723.2196-.70285.23756-.81451-.01645Z"/>
    <path class="cls-1"
          d="M257.14734,330.37508s-1.86685.58825-2.53291-.0622-.65493-1.24919-.34014-1.57367c.31545-.32521.59669-.75537-.16167-.67369-.75852.08169-1.98657-.62568-1.52511-1.72728a6.73624,6.73624,0,0,1,1.07429-1.77153c.00549-.00447.20653.31028-.09052,1.06186-.2764.73137-.28237,1.184.25187,1.35936.5223.17386,1.63741.68042,1.51317,1.40732-.12909.73213-.75029.88873-.45792,1.23721a1.86986,1.86986,0,0,0,1.49767.48034c.38757-.10718.74206-.01351.77127.26228Z"/>
    <path class="cls-1"
          d="M267.63251,324.27s-1.86749.58825-2.53356-.06221c-.66622-.65045-.65428-1.24919-.33948-1.57367.31447-.32524.59652-.75533-.16216-.67368-.758.08168-1.98706-.62573-1.52478-1.72728a6.72452,6.72452,0,0,1,1.0746-1.77149c.00517-.00452.20605.3102-.09068,1.06186-.27639.73137-.28236,1.184.25107,1.35931.5231.1739,1.63837.68047,1.51381,1.40732-.12892.73214-.75.88877-.45792,1.23721a1.86916,1.86916,0,0,0,1.49735.48035c.388-.10718.74255-.01348.77175.26228Z"/>
    <path class="cls-1"
          d="M256.78623,322.95932s2.06289-.65045,2.79882.06821.72318,1.37961.37547,1.73853c-.34852.35893-.6588.8348.1791.74489.8379-.09068,2.19488.69091,1.68452,1.90787a7.37336,7.37336,0,0,1-1.18772,1.9566c-.00532.006-.227-.34247.10037-1.17275.3056-.80858.31254-1.30764-.27721-1.50175-.57764-.19257-1.80973-.75158-1.67258-1.55491.14312-.80858.82952-.98171.50665-1.36686a2.06618,2.06618,0,0,0-1.65483-.53057c-.42856.11767-.81967.015-.85259-.28926Z"/>
    <path class="cls-1"
          d="M269.13293,347.21186s-1.95237.15885-2.45611-.62274c-.50407-.78232-.35949-1.36307.02065-1.60962.37918-.24731.75-.604-.00774-.69317-.75755-.08846-1.79779-1.0506-1.10156-2.02178a6.72434,6.72434,0,0,1,1.4433-1.48824c.00581-.00375.13134.34768-.32529,1.01539-.43307.65118-.53924,1.09107-.0584,1.38033.4705.28548,1.44475,1.02661,1.16173,1.7078-.28946.6849-.931.69991-.72334,1.10454a1.86976,1.86976,0,0,0,1.35262.80111c.40241-.01875.72689.15135.69414.42638Z"/>
    <path class="cls-1"
          d="M258.419,348.75854s1.44426-1.81719,2.53372-1.61937c1.08977.19786,1.47766.79434,1.38472,1.32265-.09294.529-.08261,1.139.60927.55525.69188-.583,2.37253-.70289,2.6528.68716a7.92765,7.92765,0,0,1,.125,2.4557c-.00146.00823-.40887-.16861-.6196-1.10457-.21589-.903-.51181-1.35186-1.15431-1.1705-.63089.17535-2.065.41738-2.42852-.37994-.36191-.80632.14473-1.37287-.37531-1.52119a2.21941,2.21941,0,0,0-1.79408.5208c-.31028.36268-.72092.5058-.93374.254Z"/>
    <path class="cls-1"
          d="M269.261,339.69347s2.30057-.34021,2.95921.547c.65848.888.532,1.58718.10181,1.90941-.431.32222-.8421.774.06277.82051.9047.04647,2.21246,1.10607,1.463,2.31106a7.94577,7.94577,0,0,1-1.594,1.87568c-.00678.00524-.18281-.40165.30657-1.22822.46163-.80559.55376-1.33462-.03905-1.64111-.5799-.302-1.7923-1.10458-1.50994-1.93337.29012-.8348,1.04815-.90224.7703-1.36533a2.21863,2.21863,0,0,0-1.6658-.84455c-.47438.0532-.87227-.12287-.85485-.45111Z"/>
    <path class="cls-1"
          d="M251.65683,361.77578s-1.85636.62125-2.53388-.01722c-.67736-.6392-.67639-1.23722-.36691-1.56767.30866-.33045.583-.76585-.17394-.6707-.75691.09443-1.99787-.59123-1.55576-1.69952a6.69206,6.69206,0,0,1,1.04395-1.79025c.00452-.00524.21056.30649-.072,1.06335-.26365.73585-.26172,1.18776.27494,1.35411.52633.16487,1.64951.65195,1.53785,1.38033-.11617.73436-.73464.90221-.43646,1.24544a1.87248,1.87248,0,0,0,1.50639.45413c.386-.11391.74125-.02626.77578.248Z"/>
    <path class="cls-1"
          d="M253.31505,353.09441s1.96705.0689,2.4424,1.175c.47486,1.1068.30624,1.8539-.08487,2.12666-.39112.27205-.77772.69168-.02034.91725a2.05762,2.05762,0,0,1,1.02524,2.83182,6.91914,6.91914,0,0,1-1.50929,1.7633,1.86917,1.86917,0,0,1,.36788-1.29642c.46082-.80031.58539-1.3661.11408-1.81873-.46163-.44509-1.41039-1.56391-1.09865-2.42493.3177-.86477.9623-.7928.77046-1.35709a2.17508,2.17508,0,0,0-1.32745-1.25371c-.40435-.033-.72383-.30347-.67946-.66316Z"/>
    <path class="cls-1"
          d="M245.28405,345.22077s2.273-.9659,3.18962-.23005c.91551.73589.97392,1.48823.61863,1.9349-.35563.44658-.65639,1.02136.28559.82653.94294-.19484,2.5718.544,2.12663,1.98282a8.41693,8.41693,0,0,1-1.133,2.35526c-.00516.00674-.29592-.36417-.01549-1.34435.25768-.95246.2096-1.52046-.482-1.67633-.67817-.15514-2.14-.655-2.07354-1.58267.07261-.9352.834-1.208.424-1.60965a2.35611,2.35611,0,0,0-1.93913-.42113c-.47454.18132-.93.10714-1.00136-.23533Z"/>
    <path class="cls-1"
          d="M148.61064,368.76214s-.85517,1.6149-1.72808,1.61865c-.87228.003-1.2592-.40318-1.26275-.8258-.00452-.42266-.10117-.894-.55215-.34247-.4513.55078-1.73551.885-2.15373-.15135a6.23512,6.23512,0,0,1-.45195-1.88319c0-.00673.34094.07193.63928.76586.29818.66845.59184.97344,1.06347.74114.46292-.22707,1.539-.61976,1.93527-.05474.3966.57179.08648,1.0836.51052,1.12406a1.75,1.75,0,0,0,1.31437-.66094c.18733-.32521.48487-.49531.68575-.33122Z"/>
    <path class="cls-1"
          d="M143.17693,363.25881s1.0738-1.47851,1.93849-1.36012c.864.11916,1.18933.57478,1.13463.99442-.0555.41891-.0263.89849.49826.41588.52391-.48184,1.843-.63323,2.111.45114a6.22962,6.22962,0,0,1,.18216,1.92813c-.00064.00673-.32754-.11916-.52536-.84827-.201-.70294-.44888-1.04613-.94779-.882-.49083.15962-1.61126.39866-1.92429-.21657-.31189-.622.06729-1.0851-.34723-1.18473a1.7503,1.7503,0,0,0-1.39457.47058c-.23154.296-.54924.42266-.72528.23158Z"/>
    <path class="cls-1"
          d="M156.99517,359.59514s1.80456-.31472,2.3409.37095c.53666.6849.45195,1.2387.11924,1.501s-.6467.62645.06664.64444c.7135.018,1.76406.82581,1.19917,1.79025a6.27565,6.27565,0,0,1-1.21692,1.50921c-.00549.00452-.152-.3125.21589-.9734.34755-.64371.409-1.06186-.0639-1.29118-.46308-.2263-1.43345-.83327-1.22821-1.492.21056-.66243.80627-.73137.57844-1.09034a1.74558,1.74558,0,0,0-1.32857-.631c-.37321.051-.69011-.07942-.68268-.33795Z"/>
    <path class="cls-1"
          d="M174.49966,375.46376s-.34175-2.30282.8684-2.92706c1.2103-.62346,2.13276-.47284,2.54033-.03223.40726.44066.9878.86631,1.09268-.033a2.21058,2.21058,0,0,1,3.13911-1.3736,9.94289,9.94289,0,0,1,2.41529,1.65536,2.40787,2.40787,0,0,1-1.61724-.34921c-1.04733-.48934-1.746-.60023-2.18068-.021-.42935.56727-1.55269,1.74454-2.64069,1.43353-1.094-.31847-1.14786-1.0761-1.77585-.816a2.142,2.142,0,0,0-1.20046,1.62761c.04711.4751-.20556.86477-.64089.83556Z"/>
    <path class="cls-1"
          d="M183.68772,375.09806s.96069,2.12218-.03227,3.05218-1.9222,1.03637-2.43449.72387c-.51278-.3125-1.188-.56353-1.04266.32972a2.20555,2.20555,0,0,1-2.64166,2.17689,9.95337,9.95337,0,0,1-2.77769-.93294,2.40327,2.40327,0,0,1,1.6508-.10492c1.143.18511,1.8449.10117,2.10436-.57474.25623-.66247,1.01394-2.102,2.14615-2.099,1.13979.0075,1.39909.72165,1.93187.30124a2.14191,2.14191,0,0,0,.70834-1.89363c-.17636-.44437-.04-.888.38725-.97868Z"/>
    <path class="cls-1"
          d="M220.064,375.83991s-.19765,2.31481-1.24306,2.61456c-1.046.29975-1.71808-.0787-1.94091-.607-.2225-.52907-.58006-1.08663-.83855-.24283a1.55407,1.55407,0,0,1-2.66247.54029,9.7028,9.7028,0,0,1-1.50913-2.2084c-.00388-.00822.44662-.02545,1.16077.74416.70059.73738,1.21014,1.01987,1.65676.56877.43921-.44138,1.529-1.29865,2.29444-.72387.77029.58224.66041,1.32935,1.19013,1.23568a1.859,1.859,0,0,0,1.2379-1.27392c.05873-.47135.32835-.78534.65412-.64747Z"/>
    <path class="cls-1"
          d="M211.6385,373.51837s.29334-2.30879,1.482-2.58006c1.18933-.272,1.93639.1244,2.171.65872.23525.53428.62121,1.10155.93875.26449a1.85455,1.85455,0,0,1,3.02181-.46909,9.66346,9.66346,0,0,1,1.63563,2.24813c.00371.009-.50487.0142-1.28743-.7749-.768-.75533-1.33455-1.05133-1.85169-.61221-.50955.42863-1.76551,1.25669-2.61229.66167-.85049-.60245-.70431-1.34657-1.30454-1.26719a1.99974,1.99974,0,0,0-1.43587,1.24024c-.08036.46986-.39435.77635-.75739.6302Z"/>
    <path class="cls-1"
          d="M205.429,383.57338s1.52059-1.76625,2.66264-1.33983c1.1427.42561,1.548,1.166,1.44863,1.74152-.09907.57474-.08939,1.2604.63734.73585a1.85247,1.85247,0,0,1,2.78107,1.26641,9.59867,9.59867,0,0,1,.12457,2.77571c-.00162.009-.42888-.266-.6467-1.35411-.22428-1.05214-.53376-1.61042-1.20821-1.528-.66171.0787-2.16713.08092-2.54631-.88054-.37692-.97042.15571-1.51071-.38869-1.77448a2.00833,2.00833,0,0,0-1.88412.24728c-.32593.34848-.75755.43166-.98022.11016Z"/>
    <path class="cls-1"
          d="M212.1,357.31709s.98764-2.10872,2.20311-2.00457c1.21563.10339,1.80521.70814,1.86508,1.28889.05921.58.25348,1.238.81241.53807a1.85363,1.85363,0,0,1,3.01987.47433,9.56583,9.56583,0,0,1,.86856,2.63929c.00145.00895-.48486-.1409-.98844-1.1308-.49907-.95319-.94795-1.40809-1.57513-1.1473-.616.25328-2.06579.65872-2.68958-.16563-.62557-.83326-.25768-1.49719-.8542-1.60437a2.005,2.005,0,0,0-1.74745.74335c-.22041.42267-.61282.619-.91423.36874Z"/>
    <path class="cls-1"
          d="M220.00269,361.76981s-1.00619,2.09972-2.22037,1.98508c-1.21483-.11541-1.79924-.7254-1.85314-1.30615-.05486-.58075-.24283-1.24019-.80789-.54553a1.85377,1.85377,0,0,1-3.01616-.50136,9.59273,9.59273,0,0,1-.84452-2.64675c-.00081-.009.48325.14538.97812,1.139.49116.95771.93584,1.417,1.56447,1.1623.61895-.24808,2.07209-.64073,2.68878.18955.61734.83855.24429,1.49876.83936,1.61191a2.00575,2.00575,0,0,0,1.75422-.72766c.224-.42113.61814-.6137.91713-.36042Z"/>
    <path class="cls-1"
          d="M192.79187,354.18394s1.17788-1.39828,2.03143-1.21769,1.145.65869,1.0596,1.07308c-.08471.41367-.09051.89474.46777.45114.55731-.44436,1.88362-.49983,2.07257.601a6.25574,6.25574,0,0,1,.0426,1.93635c-.00146.006-.31835-.14239-.46325-.88425-.14893-.71568-.37224-1.0761-.88163-.94795-.50084.1244-1.63547.28176-1.90347-.35445-.26607-.64222.14537-1.07687-.26091-1.20575a1.74985,1.74985,0,0,0-1.42458.36946c-.25171.278-.57845.38144-.74013.17906Z"/>
    <path class="cls-1"
          d="M199.29922,359.452s-.34029,1.79473-1.17271,2.054c-.83338.25925-1.32277-.01577-1.45153-.41815-.12892-.40241-.36046-.82431-.62879-.16486-.26833.65868-1.39683,1.35484-2.10274.48785a6.23491,6.23491,0,0,1-.98845-1.66734c-.0021-.006.34772-.0315.8379.54477.4818.55078.85291.7561,1.23419.39564.37547-.35292,1.28808-1.0446,1.83377-.62044.54763.43012.40306,1.01014.81967.924a1.74308,1.74308,0,0,0,1.06041-1.01769c.08391-.36566.31771-.61592.55828-.51778Z"/>
    <path class="cls-1"
          d="M205.69588,361.542s.77772,1.11208.48325,1.68759-.69462.69167-.97634.55077c-.28108-.14086-.62573-.23755-.41435.24655.21121.4841-.00452,1.4433-.83258,1.36613a4.67972,4.67972,0,0,1-1.40135-.34324c-.00436-.00225.16409-.20084.72528-.16034.54408.03146.84516-.05845.8521-.44812.00742-.38147.11311-1.223.622-1.292.51407-.06667.74706.31174.91793.04647a1.28964,1.28964,0,0,0,.00968-1.08957c-.15215-.23453-.16329-.48781.01436-.56429Z"/>
    <path class="cls-1"
          d="M247.12993,334.41043s1.3076.3747,1.44168,1.00712c.13505.63174-.10278.97344-.41064,1.04016-.30722.0674-.636.20907-.16571.45259.4697.2428.90825,1.1233.21589,1.5834a4.68806,4.68806,0,0,1-1.30518.613c-.00452.00072.00048-.25853.46211-.58.44211-.317.61976-.57627.37918-.88276-.23525-.30052-.68559-1.0214-.33352-1.3938.35756-.3747.77789-.22706.74271-.54033a1.29217,1.29217,0,0,0-.68123-.85275c-.26591-.0862-.43436-.27652-.34529-.44662Z"/>
    <path class="cls-1"
          d="M243.7383,341.18469s-1.245.547-1.75423.14764c-.50971-.39866-.547-.81305-.354-1.06109.19266-.24808.35466-.56655-.16329-.4534-.517.11391-1.41925-.28249-1.184-1.0776a4.65884,4.65884,0,0,1,.60862-1.30461c.00291-.00375.16474.19931.0171.74036-.13553.526-.10488.83855.27656.91947.37466.08092,1.18256.34695,1.15254.858-.03372.51557-.451.67067-.2225.88873a1.29517,1.29517,0,0,0,1.07009.2196c.25994-.10342.51181-.06522.55312.12287Z"/>
    <path class="cls-1"
          d="M240.44251,326.34349s-.951.97041-1.57222.78982c-.622-.18132-.8116-.55151-.72544-.85352s.11714-.65795-.32045-.35969c-.43791.29749-1.42329.26526-1.50187-.56054a4.62067,4.62067,0,0,1,.07648-1.4358c.00129-.0052.22751.12291.29286.6797.07115.5388.21589.81753.601.75086.37756-.06443,1.22676-.11767,1.38924.368.16184.49079-.1678.78982.12586.90745a1.2996,1.2996,0,0,0,1.07525-.19407c.2033-.19262.4505-.25107.55925-.09217Z"/>
    <path class="cls-1"
          d="M211.1183,338.409s.09213,1.35262-.45712,1.69432c-.55.34247-.95327.23606-1.12188-.02921s-.41371-.52455-.48261-.00076-.74948,1.235-1.41941.74339a4.64514,4.64514,0,0,1-1.02346-1.01313c-.00307-.00452.24348-.0877.7043.23452.44969.30577.75545.3837.9615.05321.20379-.32295.72915-.99066,1.20127-.78833.47438.20681.47873.65118.76288.51109a1.28991,1.28991,0,0,0,.57021-.92923c-.009-.27878.11263-.50133.30432-.47587Z"/>
    <path class="cls-1"
          d="M217.42428,324.40939s1.09768-.80111,1.68145-.52084c.583.28027.709.67671.57393.96069-.13473.284-.224.62948.25688.40766.48147-.22182,1.448-.02848,1.38956.79805a4.65978,4.65978,0,0,1-.31238,1.40437c-.00242.00448-.20459-.15813-.17748-.71866.01936-.54255-.0781-.84158-.46857-.83932-.38289.00153-1.22967-.08467-1.30986-.59051-.07874-.51032.29592-.75158.02549-.91572a1.29886,1.29886,0,0,0-1.09268.01574c-.23154.15586-.48534.17313-.56634-.00146Z"/>
    <path class="cls-1"
          d="M222.39313,326.44691s1.0454.86776.91374,1.50022c-.132.63246-.48793.84976-.79676.78833-.30867-.0622-.66623-.06442-.334.34695.33174.4114.3774,1.39307-.44146,1.53619a4.66261,4.66261,0,0,1-1.44266.03752c-.00451-.00077.10488-.2361.65719-.34473.53279-.11315.80031-.2795.70286-.65646-.09359-.37019-.21428-1.20946.25864-1.41031.47809-.19858.80338.10492.89761-.19632a1.288,1.288,0,0,0-.27946-1.05359c-.20831-.18588-.28624-.42719-.1357-.5478Z"/>
    <path class="cls-1"
          d="M185.16312,326.42969s.89632-1.56322,1.75649-1.53773c.85952.02545,1.22676.43835,1.21724.85505-.00919.41665.06971.88425.53263.35594.46308-.52831,1.73922-.81531,2.11694.21956a6.147,6.147,0,0,1,.38289,1.8704c0,.00678-.33335-.08169-.60475-.77635-.27107-.66767-.55085-.97792-1.02265-.76437-.46405.20835-1.537.55982-1.9088-.00972-.37176-.577-.04954-1.07081-.46615-1.12479a1.72306,1.72306,0,0,0-1.31663.60846c-.1954.314-.49455.47212-.68721.30355Z"/>
    <path class="cls-1"
          d="M195.6775,333.42876s1.07993-1.4433,1.92962-1.31438c.85049.12961,1.16529.58373,1.10478.99587-.06019.4129-.0384.88578.48535.41742.52391-.46837,1.82554-.598,2.075.47438a6.15335,6.15335,0,0,1,.15216,1.90335c-.00081.00678-.32142-.12214-.50584-.84379-.18814-.69616-.42791-1.03786-.92246-.88276-.48551.15062-1.59368.37018-1.89363-.24054-.299-.61745.08164-1.0686-.32529-1.172a1.721,1.721,0,0,0-1.381.44364c-.23235.28853-.5478.40919-.71867.21883Z"/>
    <path class="cls-1"
          d="M173.23917,342.73816s.54957-1.71458,1.39538-1.86895,1.29211.17313,1.36988.583c.07793.40915.25333.8498.59491.23678.34255-.613,1.53107-1.15924,2.11694-.2263a6.15848,6.15848,0,0,1,.76594,1.74979c.00146.00674-.34319-.01049-.75383-.63323-.40565-.59648-.74416-.84153-1.16077-.535-.40984.30052-1.3857.86775-1.86879.38817-.48406-.48635-.272-1.03713-.69107-1.00264a1.72041,1.72041,0,0,0-1.16.86852c-.126.34844-.38434.565-.60862.43989Z"/>
    <path class="cls-1"
          d="M179.12112,346.81618s-.79063,1.61942-1.65032,1.65011c-.85936.03147-1.25338-.35594-1.27162-.77259-.01791-.41589-.12811-.87675-.55521-.31924-.42629.55755-1.68162.92774-2.12695-.07943a6.18419,6.18419,0,0,1-.50632-1.84119c0-.00674.33868.05918.65509.7344.31528.649.61507.93967,1.07138.69539.44888-.23828,1.49654-.66018,1.90589-.11618.40887.55082.11973,1.06489.53925,1.09111a1.72376,1.72376,0,0,0,1.27339-.6939c.17458-.32674.46147-.50358.66542-.34848Z"/>
    <path class="cls-1"
          d="M158.65435,366.861s-1.72566.61076-2.37027.024c-.64379-.586-.65267-1.14577-.36869-1.45972s.53279-.72616-.17393-.625c-.70592.10117-1.87783-.5208-1.48122-1.56467a6.24064,6.24064,0,0,1,.94617-1.69134c.00452-.00524.203.28325-.04937.99591-.23526.69244-.22557,1.11506.27865,1.26266.49471.14542,1.55351.58228,1.46137,1.26646-.09649.68865-.67284.855-.38821,1.17126a1.7496,1.7496,0,0,0,1.41635.40092c.35885-.11243.69317-.03671.72915.21956Z"/>
    <path class="cls-1"
          d="M176.5761,360.98822s-.57522,1.73329-1.43555,1.88016c-.85969.14687-1.30857-.18959-1.38279-.60624-.07422-.41589-.24719-.86477-.601-.24655-.35368.6175-1.56544,1.15855-2.14905.20532a6.25752,6.25752,0,0,1-.75836-1.78274c-.00081-.00674.34917.01424.75836.65049.40467.60995.7448.86174,1.17125.55525.41888-.29975,1.41474-.86476,1.89961-.37244.48567.49834.26462,1.05436.6893,1.02439a1.746,1.746,0,0,0,1.18707-.86852c.13118-.35143.39563-.568.6212-.43912Z"/>
    <path class="cls-1"
          d="M170.28142,357.95778s.65816-1.704,1.5243-1.81046c.86549-.10569,1.29792.25252,1.35181.67143.05486.41887.20621.87525.58926.275.38272-.60027,1.61836-1.08283,2.15663-.10342a6.257,6.257,0,0,1,.67123,1.81723c.00081.00674-.34691-.03074-.72544-.68571-.37531-.62871-.70285-.897-1.14351-.61072-.4329.28027-1.45427.7966-1.91541.28176-.46147-.5208-.21428-1.06561-.63993-1.05585a1.74619,1.74619,0,0,0-1.2266.81084c-.14747.34542-.42355.54928-.64234.40988Z"/>
    <path class="cls-1"
          d="M101.64624,388.76575s2.24361.01726,2.73815.96069c.49535.94419.27059,1.59166-.1883,1.83518-.4584.2428-.91777.61225-.06276.79136.85581.17837,1.94381,1.38259,1.04911,2.41972a7.674,7.674,0,0,1-1.79989,1.55116c-.00677.00375-.11391-.41064.47583-1.12551.56119-.69918.72835-1.19.209-1.57-.50793-.37394-1.54349-1.3189-1.15028-2.06677.40032-.75234,1.13318-.70438.93827-1.187a2.13827,2.13827,0,0,0-1.46121-1.0521c-.461-.02021-.81386-.24654-.74787-.55678Z"/>
    <path class="cls-2"
          d="M205.5789,302.2206a.53574.53574,0,1,1-.56941.535.55294.55294,0,0,1,.56941-.535Zm1.53027,8.41389a.643.643,0,1,1-.60475.64149.62425.62425,0,0,1,.60475-.64149Zm-2.34929,1.56842a.54069.54069,0,1,1-.46292.53505.5023.5023,0,0,1,.46292-.53505Zm-2.84691,2.78091a.50832.50832,0,1,1-.60475.49911.559.559,0,0,1,.60475-.49911Zm6.19287,5.41867a.60624.60624,0,1,1-.60555.607.60584.60584,0,0,1,.60555-.607Z"/>
    <path class="cls-1" d="M205.5789,302.22136a.53574.53574,0,1,1-.56941.53428.55405.55405,0,0,1,.56941-.53428Z"/>
    <path class="cls-1" d="M207.10917,310.63376a.64336.64336,0,1,1-.60475.64222.62537.62537,0,0,1,.60475-.64222Z"/>
    <path class="cls-1" d="M204.75988,312.20291a.54069.54069,0,1,1-.46292.53432.50343.50343,0,0,1,.46292-.53432Z"/>
    <path class="cls-1" d="M201.91233,314.98382a.50821.50821,0,1,1-.60411.49911.56078.56078,0,0,1,.60411-.49911Z"/>
    <path class="cls-1" d="M208.105,320.40325a.60586.60586,0,1,1-.60475.60624.60644.60644,0,0,1,.60475-.60624Z"/>
    <path class="cls-1"
          d="M267.04115,317.36982s1.86653-.589,2.53292.06144.65509,1.24919.33948,1.57367c-.3148.32521-.59571.7561.16264.67445s1.98658.625,1.52414,1.72652a6.65565,6.65565,0,0,1-1.07461,1.77153c-.00435.0052-.20524-.31024.09068-1.06186.27656-.73137.28269-1.184-.2509-1.35936-.52294-.17386-1.63741-.68042-1.51381-1.40732.12957-.73213.75093-.88877.4584-1.23721a1.86938,1.86938,0,0,0-1.49767-.48034c-.38757.10713-.7419.01351-.77127-.26152Z"/>
    <path class="cls-1"
          d="M274.394,316.39638s1.58964-1.13979,2.42577-.72911c.8371.41064,1.01314.9824.81532,1.38929-.19718.40693-.32981.903.36482.58978s2.08338-.024,1.98963,1.166a6.67126,6.67126,0,0,1-.46679,2.01731c-.0029.00673-.29237-.23082-.24655-1.03714.03453-.78086-.102-1.21171-.66412-1.21325-.5507-.00226-1.76843-.13638-1.87782-.86549-.10714-.73589.43468-1.07836.04743-1.31813a1.87075,1.87075,0,0,0-1.57286.00972c-.33513.22182-.70092.24356-.81483-.009Z"/>
    <path class="cls-1"
          d="M278.16028,305.98394s1.94849-.19858,2.46853.57325c.52.7711.3866,1.35487.01194,1.60965-.3745.25405-.73738.619.02179.6924.759.07346,1.81876,1.0139,1.14205,1.99932A6.73092,6.73092,0,0,1,280.392,312.376c-.006.00376-.13861-.34549.30447-1.02212.41935-.66022.51762-1.1016.03066-1.3811-.477-.27652-1.46525-.9974-1.19595-1.68384.27559-.69091.91552-.71939.70059-1.11881a1.86841,1.86841,0,0,0-1.36923-.77409c-.40177.027-.729-.13639-.70221-.41214Z"/>
    <path class="cls-1"
          d="M277.84484,321.8338s-1.24468.547-1.75423.14837c-.50939-.39939-.54634-.81306-.35368-1.0611.1933-.2488.35416-.56727-.16265-.45336-.51778.11315-1.42006-.28253-1.184-1.07759a4.64016,4.64016,0,0,1,.60781-1.30466c.00291-.00375.16555.19859.01807.74037-.13585.526-.10584.83855.2764.91947.37385.081,1.18255.347,1.1519.858-.03389.51556-.45131.6707-.22267.88877a1.30192,1.30192,0,0,0,1.07074.21952c.25945-.10339.51116-.06591.55231.12218Z"/>
    <path class="cls-1"
          d="M275.88585,312.27411s-1.24451.54707-1.75422.14764c-.50939-.39866-.547-.81306-.35352-1.0611.19249-.248.35449-.56651-.16345-.4534-.517.11392-1.41926-.28249-1.184-1.07755a4.63584,4.63584,0,0,1,.60782-1.30393c.0029-.00448.16554.19858.01791.73964-.13554.526-.10488.83855.27655.92019.37466.081,1.18272.34626,1.15174.858-.03292.51484-.45034.67-.22186.88877a1.29781,1.29781,0,0,0,1.07025.2188c.2601-.10262.51181-.06519.55279.12291Z"/>
    <path class="cls-1"
          d="M223.53679,311.77654s1.336.254,1.52785.8715c.19185.61673-.01339.97869-.314,1.07385-.29963.09443-.61443.2653-.1236.46461.49.20008,1.00717,1.03637.36047,1.55794a4.67859,4.67859,0,0,1-1.244.72915c-.00452.00145-.02324-.257.40693-.61975.41145-.356.56506-.63021.29673-.91346-.2622-.27805-.77546-.95472-.45937-1.35786.32173-.4054.75319-.29673.68962-.60548a1.291,1.291,0,0,0-.75642-.78687c-.27253-.06221-.4576-.236-.38419-.41363Z"/>
    <path class="cls-1"
          d="M225.23939,317.01086s.86017,1.05064.60991,1.64636c-.24961.59575-.64073.7419-.93149.622-.29172-.11912-.64218-.18959-.395.27728.24751.4676.105,1.43951-.72689,1.42531a4.687,4.687,0,0,1-1.423-.23682c-.00452-.00226.14844-.21206.71108-.21432.54489-.00972.83855-.12214.81531-.51108-.021-.38067.02033-1.22822.52311-1.33536.50729-.10492.7682.25478.91874-.02247a1.28775,1.28775,0,0,0-.07342-1.08731c-.16861-.22182-.19927-.47438-.02839-.56356Z"/>
    <path class="cls-1"
          d="M213.80175,309.703s.53585-1.719,1.381-1.87944c.84452-.16034,1.2934.16337,1.3744.57256s.25945.84827.59652.23231c.33787-.61524,1.52188-1.16977,2.11468-.2413a6.14889,6.14889,0,0,1,.77934,1.74377c.00145.00674-.344-.0075-.75836-.62725-.41-.59423-.75013-.837-1.16448-.52678-.40774.3035-1.37957.87824-1.86588.40165-.48793-.48261-.28043-1.03488-.69866-.9974a1.71927,1.71927,0,0,0-1.154.87751c-.12263.34921-.38063.56728-.60459.44437Z"/>
    <path class="cls-1"
          d="M203.61121,307.49239s-1.78585.26829-2.29847-.42037c-.51326-.68792-.41581-1.2312-.08245-1.48226.33432-.25026.65251-.60249-.05018-.63694-.703-.03449-1.71986-.855-1.13963-1.79174a6.17107,6.17107,0,0,1,1.235-1.45976c.005-.00379.14215.31246-.23622.95468-.3574.62646-.42791,1.03714.03291,1.27392.45115.2338,1.39312.85505,1.1753,1.49945-.22364.64824-.81177.70217-.596,1.06114a1.723,1.723,0,0,0,1.295.65271c.3687-.042.67817.09439.66478.34917Z"/>
    <path class="cls-1"
          d="M207.69665,310.01477s.32222,1.77149-.35207,2.30355c-.67542.53129-1.22305.45114-1.4838.1259-.26171-.32521-.62443-.6317-.63782.069-.01372.7014-.80564,1.73926-1.76246,1.19a6.17906,6.17906,0,0,1-1.50025-1.187c-.00452-.00525.30867-.15139.9636.20605.63927.33795,1.05363.39567,1.27694-.07043.22041-.45635.81548-1.41406,1.468-1.21624.65671.2031.72851.78837,1.08236.562a1.71436,1.71436,0,0,0,.61507-1.30986c-.05244-.36647.07423-.6782.33045-.673Z"/>
    <path class="cls-1"
          d="M219.58543,314.756s-.13344,1.35113-.84694,1.60744c-.71253.25627-1.1719.0914-1.32406-.1956-.15135-.28777-.39563-.58152-.572-.07346a1.21525,1.21525,0,0,1-1.81619.52383,4.79262,4.79262,0,0,1-1.0312-1.15476c-.0021-.00451.305-.05022.79289.33719.47873.36946.82644.49233,1.13.19633.29979-.29,1.04234-.87151,1.56544-.60024.52537.275.45114.71492.81225.61827a1.38271,1.38271,0,0,0,.84387-.83335c.0397-.27724.22332-.47958.446-.42565Z"/>
    <path class="cls-1"
          d="M203.7461,323.11672s.19088-1.34439.91422-1.56992c.723-.22557,1.17481-.04123,1.31422.25175.14021.29378.371.59729.56877.09818a1.21475,1.21475,0,0,1,1.83667-.44662,4.78423,4.78423,0,0,1,.98119,1.19748c.00209.00524-.30673.03747-.778-.37019-.46179-.38966-.804-.52681-1.12027-.24429-.31173.27652-1.079.82581-1.58948.53356-.51326-.2975-.42032-.73363-.7853-.65344a1.387,1.387,0,0,0-.879.79732c-.051.275-.24348.4691-.46292.40617Z"/>
    <path class="cls-1"
          d="M57.29494,478.16369a16.09441,16.09441,0,0,1,2.22408,1.98286c.48777.67147.76143,1.13,1.432,2.01513A3.23977,3.23977,0,0,1,61.317,485.701c-.67091,1.55633-1.3715,1.37287-2.07242,2.71565-.70027,1.34285-1.49251,1.22079-3.22866,1.09856-1.73712-.12141-2.77365.18435-2.68136-.88429.09133-1.06864,1.82764-1.37279,2.71105-1.55649.88357-.18353,1.18868.09149,1.70646-.48849.51794-.58.88341-.9757-.335-1.03717-1.21918-.0614-4.47754-.82427-5.23977-1.83144-.76287-1.00716-.94488-2.075.121-2.99075,1.06621-.91559,1.91945-.97634,2.43755-1.77.51778-.79289,1.46105-1.98278,2.559-.79289Z"/>
    <path class="cls-1"
          d="M288.47231,497.7087c.09149-.00519-4.61756-7.48914-5.851-8.49549-1.23273-1.00647.73156-1.55652,2.10272-1.92291,1.37054-.36719,2.10211-1.0993,3.65613-1.0993,1.55346,0,3.19909-.64075,3.42761-1.2807.22778-.64154-3.24549-.59571-4.89112-.87006a2.37166,2.37166,0,0,1-1.96411-2.93c.22876-1.23645-.82354-1.7865-1.69195-1.83216-.86939-.045-1.59931-.64013-.68433-1.28076.91278-.64215,2.46759.68646,4.15827.64063,1.68982-.0448,1.00586-1.18988.09161-1.73914-.91357-.55.502-2.10724,1.00537-3.388.503-1.282-.54938-1.42,1.37073-1.6485a7.353,7.353,0,0,1,5.21039,1.83222c1.37054,1.097,2.83337,1.05212,5.941,1.46423,3.10748.41058,6.12384-1.87793,7.22088-2.88428,1.09619-1.00787,1.73633-.73211,3.15344-.45794s3.51813-.22846,3.56525-1.78577c.045-1.55713-.73126-1.7384-2.835-1.92285-2.10175-.18353-3.198-1.50983-6.21527-2.1507-3.016-.64215-3.47168-2.42645-3.38165-4.07574.09069-1.6471.13781-2.60852,2.69622-3.15863,2.5597-.55,6.9007-.13636,8.8208.04571,1.9198.18366,3.51893.45868,4.98255-.73138,1.46185-1.19068,3.51752-.82422,4.2489-1.78644.73077-.96069,1.87415-1.2821,3.7019-1.37292,1.8277-.09217,2.1941-1.60206,1.8277-2.88422a8.86168,8.86168,0,0,1-.31933-2.79218c-.092-1.51074-1.2342-2.15216-3.06183-2.01428a4.58477,4.58477,0,0,0-3.382,1.41852,3.31271,3.31271,0,0,1-2.46771,1.05365c-.6391-.09216-.22931-.9165.045-2.19788.27515-1.28222-1.37048-1.60284-3.06183-2.38079-1.68982-.77778-.95825-1.51069-2.65118-1.23566-1.69062.27576-2.46772-.275-2.3299-.73291.13812-.45716-.68561-2.10571-1.27984-3.11212-.5943-1.00788-1.64551-1.28217-2.97132-1.23645a9.83075,9.83075,0,0,1-2.83258-.04572c-1.37115-.22858-1.32464,2.51782-1.87341,3.4328-.54779.91577-2.28558.04572-3.06268-.73205-.77643-.77857-2.01056.32-2.46772-.18293-.4563-.5036-.18261-2.37988-.91418-2.92993-.73065-.55-.04572-1.46582,1.37134-1.878,1.4165-.41211,2.01056.96228,2.65051.91577.63928-.04571.3656-1.41858.04565-2.47064a4.38344,4.38344,0,0,0-1.462-2.47369c-.95972-.87-1.3255.09143-2.28571.77935-.95971.68641-1.324-.04571-2.696-.31994-1.37134-.275-1.235,1.55487-2.05548,3.20349-.82288,1.64789-2.42347.595-3.70252.22931-1.28-.36646-.31994-.68787.54779-1.64856.86774-.96143.18347-2.15222.04547-3.7536a2.69287,2.69287,0,0,1,1.6-3.06714c1.32507-.77942,2.01141-1.60364,2.01141-2.70148,0-1.09857-1.6914-2.47143-2.87982-3.38714a5.03749,5.03749,0,0,1-2.0556-3.11292c-.59491-1.74-1.6-.32141-1.78345.365-.18213.6872.63995,1.78577-.54779,2.33429-1.18854.54926-2.65131-1.92212-3.74756-2.56287-1.09723-.64068-1.18774-5.67645-1.82941-7.41644-.63977-1.73852-3.06024-1.96863-4.24957-1.64715-1.18835.32-1.50751,3.34069-1.599,5.08075-.09051,1.74-.82269,2.42645-1.78277,3.84643-.95923,1.41937-1.87348,1.4643-2.83338.96069s-.68408-1.785-.31915-2.93a14.65622,14.65622,0,0,0,.31915-4.395c-.09161-.96-.09161-1.37286.45777-1.69281.54864-.32153.54779-2.1065-.41126-2.33581a8.25572,8.25572,0,0,1-2.1944-.73212c-.82324-.41217-1.09686.45789-1.27972,1.60211-.18213,1.14429-.54779,3.93646-.73138,5.49439-.182,1.55639-1.91816,1.92212-2.924,2.79138-1.00573.87-1.05139,3.06793-1.32568,4.67s-2.37671,2.70075-3.65692,3.48c-1.27838.77863-1.09619,1.235-1.142,2.51715-.04553,1.28144-.3656,1.05359-1.2334,1.23572a3.186,3.186,0,0,0-2.42267,1.14429,9.68541,9.68541,0,0,0-1.50769,4.21222c-.32013,1.78491-2.23907,3.205-3.01684,4.53284-.77655,1.32641-1.27948,1.41857-1.782,3.24932-.50373,1.8321-.6402,1.87793-1.8736,2.70215-1.23419.82367-2.19342-.22845-3.65692-.64215-1.46277-.41217-2.60407,1.46582-3.42774,2.10645a5.54585,5.54585,0,0,1-2.60394,1.32794c-1.50928.41211-2.42346,2.47211-2.10193,2.83777.32.36651,1.3241-.182,2.6496-.54932,1.326-.36487,1.73645.27509,1.9201,1.41937a2.59653,2.59653,0,0,0,1.50763,1.96857c.5943.32.4115.32.18366,1.05286a17.17139,17.17139,0,0,1-2.10278,3.70862c-1.23414,1.83148-2.42188,2.7937-3.93036,2.83941-1.50782.04492-.59363-.96222-1.55335-1.19153-.96-.23016-1.64581,1.37354-3.017,1.92218-1.37005.55-1.326.45856-1.4165-.73065-.09149-1.19153.96-3.52575.41064-3.938-.54766-.41211-3.10736.73218-5.1181,2.42652-2.01062,1.69348-2.74267.87-4.06756,2.6557a18.12851,18.12851,0,0,1-4.25049,4.48572c-1.69049,1.145-3.70111,1.41937-6.16883,1.74005-2.46838.31994-5.896-.22858-6.90155-.13794-1.00476.09149-1.32483-.275-1.41717,1.9237-.09229,2.19788.91522,1.83,1.09723,3.662.183,1.83081-1.23352,2.83869-3.19928,5.12714-1.96546,2.28863-2.74176,3.84509-4.15875,4.853-1.41633,1.00634-4.204,2.83776-5.98743,4.34857-1.78217,1.51-1.68988,1.55645-2.60407,3.70862-.91357,2.15142-2.28491,2.6557-4.02111,4.71423-1.73774,2.06-2.78748,3.25226-3.51972,5.0365-.73224,1.785-1.55511,1.785-3.38275,2.10644-1.82764.32074-1.55267.2743-4.204,1.37287a17.70953,17.70953,0,0,1-6.76294,1.23578,27.91017,27.91017,0,0,0-7.08435,1.73993c-2.60425.87011-6.21527.77862-8.63733,1.09857a22.91119,22.91119,0,0,0-6.99255,2.83868,4.65287,4.65287,0,0,0-2.1933,3.20422,2.74729,2.74729,0,0,0,1.91931,2.93085c1.50769.64142-.41144,1.09924-1.37152,1.23572-.95972.13788-1.462-.04584-1.05133.86993.413.91571,4.98108,1.46424,6.21606,1.87793,1.23419.41217,1.0506,1.55487.13635,2.33423a5.10477,5.10477,0,0,1-3.10681,1.46436c-1.59851.22857-2.60553-2.74646-3.56573-3.84577a7.64533,7.64533,0,0,0-4.15808-2.38073c-1.50769-.22858-1.6,2.15216-1.78278,2.93-.1828.77862,1.6908,1.83215,1.64563,2.24286-.04486.41211-.59411.27575-1.37054.45855-.777.18366-1.37134.0915-1.37134.82508,0,.73218,1.782.63995,2.971.77716,1.188.13708.68445.68713.27368,1.37353-.41113.68793-1.1427,1.51075-1.87335,2.74646-.73157,1.23572-1.55475,1.96857-2.05707,3.06787a2.03,2.03,0,0,0,.91424,2.92926c1.32483.68714,1.64484.87006,1.37134,1.64863-.27429.77783-1.55414.36572-3.15411.275-1.59967-.09216-1.599-.04572-2.28479,1.00641-.6864,1.05359.7771,1.46576,2.19342,2.61011,1.41785,1.14428,2.60492.91491,3.74762.91491s4.47912,2.79212,3.70251,3.25153c-.77771.45709-2.01123-.96222-2.92547-1.6944-.91327-.73358-2.83332-.41278-4.84442-.73358-2.01081-.32-4.84412-2.42566-5.84967-2.88281-1.00574-.45783-1.14209.27423-1.6,1.0072-.457.73212-.63928,1.69354-1.36987,1.60138-.73145-.09149-.18366-1.46423-.18366-3.06641,0-1.6037-3.47326-.41223-5.07293-.27429-1.60029.13641-3.24476-1.37433-4.66132-2.748-1.41632-1.37354-2.28552-1.37354-5.16534-1.37354-2.87885,0-3.28968-.54926-4.88868-1.14423-1.60028-.59423-2.2857-1.05218-3.70208-1.64715-1.41553-.5957-1.50928-1.19141-2.1034-2.2901a4.88019,4.88019,0,0,0-1.73565-2.28852c-1.00409-.68579-3.244.18287-4.70746.595-1.46344.41137-1.37116.41217-2.33124,1.78576-.96,1.37287-.4563,3.8-.77643,4.94434-.31915,1.14422-2.377,2.51709-4.38684,3.4328-2.01123.91571-1.692,1.14429-2.14825,2.19794-.45563,1.05279-.64008,1.18994-1.37146,3.06713a14.30933,14.30933,0,0,0-1.09626,5.49427,3.869,3.869,0,0,0,1.75653,3.26849l294.88111.29639.04333-56.16168Z"/>
    <path class="cls-1"
          d="M352.55074,446.93386s.70657-.05917.53,1.08958c-.17636,1.14879-.23558,1.70852-1.50042,1.97386-1.2642.26527-1.64644.03-2.94049,1.20789-1.29421,1.1788-2.61827.94278-3.82325,1.827-1.20579.88426-2.14776.82508-2.17632-.05917-.02921-.88353,1.35342-1.29643,2.11791-1.73781.76417-.44215,2.05918-.29523,3.17639-1.62087,1.11656-1.32559,1.352-1.9731,2.79366-2.41524,1.44087-.44215,1.82247-.26527,1.82247-.26527Z"/>
    <path class="cls-1"
          d="M332.5966,313.2985s-.439.48409.308,1.23346c.748.74863.79272,2.59878,1.23273,3.9207.439,1.32188,1.671,2.38,1.1427,4.71424s-2.02239,3.08369-4.398,4.36136-5.05824,1.49868-5.45452,2.5553a11.46616,11.46616,0,0,1-2.11114,4.141c-1.31954,1.498-1.62675,1.76253-3.51829,1.8944-1.89121.13191-3.21091.22109-4.4422,1.58646a6.103,6.103,0,0,0-1.6274,4.71351c.0881,1.89513.26365,2.59878-.92422,3.65613-1.18691,1.05815-2.94566,3.48082-5.14521,5.72741-2.19924,2.24736-3.78179,4.05334-5.27785,4.53743-1.49557.48483-2.94791.75013-3.51942,2.4242-.572,1.67408-1.75906,4.71352-3.43068,6.0354-1.67129,1.32188-4.79314,4.1852-7.30055,4.22945-2.50807.04421-2.9037-.30875-2.99132.43985-.08777.74936-.57183,3.34891-1.31906,4.00989-.7477.66017-2.15437.13114-3.69432.74787-1.53995.61746-3.51975,2.81984-4.26681,2.55534-.748-.26381.22008-2.02554,1.09913-3.34746.88-1.32188,2.24377-3.12859,3.34323-4.75845,1.1001-1.62986,2.63908-1.98209,3.12249-3.304.48406-1.32188,1.14351-2.55534,3.69433-4.0533,2.55163-1.498,4.04656-2.467,4.83864-4.09682a7.072,7.072,0,0,1,4.17774-3.26049,7.32782,7.32782,0,0,0,3.65092-3.2605,14.11451,14.11451,0,0,1,2.68346-3.43584c1.49509-1.40957,3.91473-4.36132,5.19007-5.50712,1.27565-1.145,2.682-1.54217,3.38646-3.4358.70382-1.89444.74787-2.996,1.31987-3.92147.57151-.92471,1.05492-1.27691,1.71517-.66018.65929.616.21944.83706,1.27533.70439,1.05493-.13263.30883-1.01241.35224-1.67408a2.20048,2.20048,0,0,1,1.09865-1.93788,9.17795,9.17795,0,0,0,2.59568-3.30466c.92406-1.71833,1.09929-2.90757,2.37478-2.42275,1.27614.4841,1.40651.87977,2.85869-1.10228,1.45168-1.98133,2.46417-2.5104,2.156-4.71279-.30786-2.20314-1.67194-3.3047-1.49574-4.31783.17539-1.0139.83645-1.01317,1.75955.13263.92342,1.145,2.33138,2.73142,3.25464,2.46688.9231-.2645-.6154-2.95251-1.3631-3.78953-.74868-.83629-2.24442-3.04016-2.19956-3.70037.04421-.66094.74738-.3522,1.84748-.61673,1.09914-.26378,1.36311-.43989.96715-1.67335a6.87257,6.87257,0,0,1-.08842-4.23018c.48438-1.58638,1.36472-1.63063,1.8036-.35219a6.00058,6.00058,0,0,0,1.09945,2.24663,4.3992,4.3992,0,0,1,.1762,3.3047c-.48341.7486-.21879,1.01313,0,1.498a3.08186,3.08186,0,0,1,.08842,1.98133c-.2204.44142.08681,1.05811-.045,1.05811Z"/>
    <path class="cls-1"
          d="M272.98748,383.94582a1.44073,1.44073,0,0,1,1.04476,1.43055c-.06971,1.11656.34852,2.58156-.48793,2.93077a1.33749,1.33749,0,0,1-1.81135-.69765c-.2083-.59349-.90519-1.43055-.41742-2.54711.48713-1.11656,1.07994-1.25593,1.67194-1.11656Z"/>
    <path class="cls-1"
          d="M275.629,401.05536s.68059-.021,2.06144,0c1.38118.021,2.2541.42565,1.97689,1.40506-.27656.97869-1.48735,1.76778-1.99786,1.6606a1.74957,1.74957,0,0,0-1.35988.57478c-.404.31924-2.04144,1.0214-2.31735.31924a4.77492,4.77492,0,0,1-.10552-2.70375,1.582,1.582,0,0,1,1.74228-1.25593Z"/>
    <path class="cls-1"
          d="M339.39389,298.228a1.93953,1.93953,0,0,1-.95294,1.13007c-.67075.248-.7411.95541-.1762,1.16751.56441.21133.775.56578,1.19885,1.20123.42436.63621,1.48251.70591,1.37682-.248-.10569-.95319-.248-2.933-.60023-3.35715s-.56425-.353-.8463.10638Z"/>
    <path class="cls-1"
          d="M339.28772,320.05852a1.99713,1.99713,0,0,1,2.06951-1.08356c1.6003.09366,2.44691.565,1.6003,1.88464-.84694,1.31962-1.97706,1.27319-2.72944,1.555-.75158.28253-2.02175,1.22447-2.25765.04647-.23541-1.17727,1.17723-2.30807,1.31728-2.4025Z"/>
    <path class="cls-2" d="M344.77468,287.62444a.44175.44175,0,1,1-.44146.44138.44146.44146,0,0,1,.44146-.44138Z"/>
    <path class="cls-1"
          d="M348.87078,281.09446s.96811,2.81912,1.89121,3.34742c.9231.529,2.332,1.98282.70446,1.98282-1.62853,0-4.53-.26377-5.67428.04422s-2.287,1.18924-2.77107-.08843c-.48341-1.27767-2.33138-4.80269-1.62772-5.023a2.90508,2.90508,0,0,1,3.07925.79361c1.3631,1.18925,1.84781,1.58565,2.595,1.45375.74787-.13191.61524-.75013.52746-1.7625-.08745-1.0124.48422-2.02481,1.27566-.74787Z"/>
    <path class="cls-1"
          d="M342.40506,288.67206s1.53994,1.6291,2.19939,2.15817a2.30168,2.30168,0,0,1,.22057,2.643c-.44017.79357-1.32051,2.1589-1.84813,1.18925-.52762-.969-.35207-1.18852,0-1.58493.35207-.39717,0-1.05887-.57183-1.14653a2.04724,2.04724,0,0,1-1.89041-1.80525c-.132-1.36682.74706-2.51113,1.89041-1.45375Z"/>
    <path class="cls-1"
          d="M370.38552,251.02089c.126.11615-3.8321.24726-4.09644-.45788a2.47107,2.47107,0,0,0-2.50836-2.06977c-1.89038,0-2.77045.7052-3.65015.8805-.87964.17614-4.26678.92547-6.0697.045a3.81472,3.81472,0,0,0-4.26636.52826c-.6159.70447-1.27466,2.07055.308,1.98285,1.58252-.08918,2.37475-.17609,2.77038,1.18847a6.05277,6.05277,0,0,0,2.94727,3.5243,12.29354,12.29354,0,0,1,4.267,2.90832c1.45074,1.62988,2.11016,2.15814,1.89056,3.39313-.2204,1.23266-.70349,2.51111.70288,3.87646a5.92239,5.92239,0,0,1,2.15521,3.74311,10.34846,10.34846,0,0,0,2.28778,4.53888,39.735,39.735,0,0,0,3.26423,3.582l.02246-29.16687Z"/>
    <path class="cls-1"
          d="M340.20644,205.67067a8.61808,8.61808,0,0,1,1.49493,4.75769c.08924,2.07056-.08758,3.39319,1.01251,4.75849,1.09943,1.36609,1.23212,1.27844,1.40729,2.11474a.87716.87716,0,0,0,1.53931.4848c.57172-.52825,1.14337-1.58636,1.89044-.4848a18.5675,18.5675,0,0,1,1.18787,2.11475c.26367.44061.66089,1.40954,1.27612,2.64221A14.37036,14.37036,0,0,1,351.334,225.364c.175.92548.00061,2.60028.92371,2.73145.92346.13183,1.18933-.13117,1.58337-1.18927.395-1.05732,1.27631-.882,1.23126-2.51191-.044-1.62908-.4826-2.95245-.65942-4.49389s.13135-2.46539,1.62756-2.33429a22.29857,22.29857,0,0,1,4.79456,1.27771c1.71454.57251,1.80231,1.54211,1.84558,2.90826a11.07048,11.07048,0,0,1-.79028,4.58014c-.61609,1.32263-3.25464,3.48151-3.25464,3.48151s-3.52,2.59881-2.99133,4.802c.52807,2.20239,1.32019,6.25494,1.89184,6.34338.57184.08838.61591-.57177,1.27551-1.585.65943-1.01458,1.80292-2.11541,2.59455-1.058.79107,1.058,2.15564,3.61267,3.60638,3.92065,1.45166.30878,1.45166,0,2.59522,1.62989,1.1427,1.63061,1.09991,1.89514,1.97894,2.11547a3.36375,3.36375,0,0,0,.82611.14783l.09271-120.15509a18.08639,18.08639,0,0,0-1.75506-.793,3.71931,3.71931,0,0,0-3.60675.30878c-1.05524.88049-2.2428,1.36529-3.25348.35223-1.0127-1.014-2.1554-1.58581-3.34229-1.14587-1.18786.44073-.66028.88122-2.77124,2.33435-2.11163,1.45374-1.80377,3.34882-1.97992,4.36206a8.98571,8.98571,0,0,1-1.84717,4.14093c-1.27532,1.63068-1.05432,2.11548-1.14367,4.0976-.08814,1.98291-.30786,5.24182-1.89124,7.53332s-1.93493,2.64307-1.1001,4.62586c.83631,1.98291,1.45173,2.29083,1.53913,3.48083.08783,1.18927,1.1001,2.07056,1.32056,3.43506.22021,1.36609.17681,1.93872-.57184,5.06726a14.38227,14.38227,0,0,1-2.72687,5.9469,9.98638,9.98638,0,0,0-.92407,7.18207c.52826,1.80517.96765,4.62506,1.75952,5.55053.79132.92548,1.62677,2.1139.39569,3.39161-1.23114,1.27844-3.38635,2.07128-4.17682,1.36682-.79224-.70508-2.24377-2.335-4.4433-2.5553-2.20007-.22034-2.06659-.4848-2.24347-1.71826-.17682-1.23426-.08923-1.71833-1.14428-1.93866-1.05512-.21955-1.71375,1.10156-1.97821,2.29156a26.91187,26.91187,0,0,0-.177,4.141c-.04339,1.01313.2204,2.46546,1.49573,2.55463,1.27551.08765,2.1994-.26453,2.46307,1.2334a7.462,7.462,0,0,1,.2204,2.60034,14.73732,14.73732,0,0,0,.08777,3.92072,12.28111,12.28111,0,0,1,.2204,3.43505A7.851,7.851,0,0,0,340.20644,205.67067Z"/>
    <path class="cls-1"
          d="M343.83932,240.22846a3.24349,3.24349,0,0,1,2.32912,1.66137c.70511,1.44854.17684,2.08475-.38821,2.04954-.5657-.03449-1.33987-1.20127-1.76407-1.62543a8.1504,8.1504,0,0,1-1.44765-1.59085c-.10569-.353.70559-.77712,1.27081-.49463Z"/>
    <path class="cls-1"
          d="M343.83932,240.22846a3.24349,3.24349,0,0,1,2.32912,1.66137c.70511,1.44854.176,2.08475-.38821,2.04954-.56506-.03449-1.34068-1.20127-1.76407-1.62543a8.16946,8.16946,0,0,1-1.44765-1.59013c-.10569-.35372.70656-.77784,1.27081-.49535Z"/>
    <path class="cls-1"
          d="M35.40069,73.4201s1.15093.38515,1.24,1.15262a2.01736,2.01736,0,0,1-.50117,1.89283c-.53117.47284-1.27016-.14837-1.77229-.71044-.50116-.56045-1.18175-1.41845-.85565-2.0098.32448-.59112.94407-.76885,1.88911-.32521Z"/>
    <path class="cls-1"
          d="M45.73355,65.109s.06083-.76892,1.30082-.59127c1.23887.17676,1.65338.65113,1.3573,1.36012-.29528.70962-.9736.44355-1.417,1.30082-.44372.85807-1.15173,1.12487-1.21047-.0292-.0597-1.15335-.03065-2.04047-.03065-2.04047Z"/>
    <path class="cls-1"
          d="M89.51271,268.57479a4.2572,4.2572,0,0,0,.20734-3.90717c-.72772-1.25073-1.09125-1.773-1.09125-1.773s-1.30145-1.25073-1.24981-1.61487c.05242-.36426.26074-3.90948-.67591-5.36847-.936-1.45758-2.18439-2.13574-1.76922-2.65655.41656-.52155.93743-.31323,1.50927.46911.57184.78162.729,1.56171,1.76923,1.145,1.03992-.41516.10406-2.23986-1.04022-2.86407-1.14594-.62647-1.40576-.73059-1.61322-2.39868-.2085-1.66736-1.09174-5.47119-.781-5.73194.31268-.26007.83319-.05249,1.45667.83332.62512.88647,1.14367.78228,1.61291.26153.46887-.5216-.26044-1.92889-.72772-2.5014a7.34252,7.34252,0,0,1-1.35278-3.69965c-.10389-1.61566.05243-2.39874-.93744-4.01361-.98767-1.61413-3.22547-5.05371-3.48426-7.97253a14.86366,14.86366,0,0,1,.05146-4.1687c.10443-1.87568-.31092-2.81385-1.09186-3.43885-.78162-.62573-3.07086-3.597-3.17432-5.78436-.10241-2.1889-.36413-5.31525-1.1961-6.98334-.83258-1.66736-1.66516-1.30316-3.01758-1.66736s-2.49762-.93823-3.17285-3.33544a13.64031,13.64031,0,0,0-2.49842-5.41944c-1.40423-1.87488-3.69336-3.59546-3.48516-5.10693.20971-1.51068,1.66656-2.2406.98907-2.86554-.6767-.62573-.72754-.26154-2.236.26074-1.50928.52008-2.34107.67743-2.2901-.62494.05182-1.304.46826-1.40814-.62342-2.18884-1.09417-.78241-2.13421-2.60712-3.53863-2.7113-1.40509-.10267-4.36945.72918-4.26538-.4159.10345-1.14654,1.71612-1.25067,1.14416-2.29309a6.83277,6.83277,0,0,0-2.28912-2.13715c-.78015-.57257-1.97675-1.04156-2.39349-.52081-.41517.52081-.10248.52081-1.76764-.26-1.66577-.78235-2.70459-1.25-2.65357-1.66736.05164-.41735.72669-.41735,1.40424-.20825.6767.20825,1.30163.26,1.71661-.26007.41681-.52234-.31238-1.304-2.60064-2.34637-2.28864-1.04157-5.98249-2.55378-6.81556-3.54291a7.64374,7.64374,0,0,1-1.61285-3.023,16.32562,16.32562,0,0,0-3.84894-5.41944,42.05254,42.05254,0,0,0-4.16162-3.07385,6.80315,6.80315,0,0,1-2.44525-3.12713,12.283,12.283,0,0,0-1.87348-3.492c-1.24841-1.77075-3.43359-3.54376-3.486-5.41864a21.28548,21.28548,0,0,1,.15729-4.37707,2.77242,2.77242,0,0,0-1.35242-2.97119,45.584,45.584,0,0,1-7.80481-5.88776,18.45783,18.45783,0,0,1-4.62933-7.08771A23.64248,23.64248,0,0,0,4.09,120.47585c-.676-.78229-2.5487-2.34394-1.19622-3.38642,1.35339-1.04388,2.13275-1.408,2.60034-3.38781.46838-1.98053.88519-4.48194,1.25-6.6709.36334-2.18884,1.19513-3.43884,2.0285-5.88782.83258-2.44964,2.081-6.0451,4.57794-7.504a51.35712,51.35712,0,0,1,6.65784-3.43969c1.77106-.67658,2.082-.72913,2.96619-2.13636.885-1.40728,1.24872-.9375,1.30017-3.96045.05243-3.02215.15729-4.22186,1.25-5.57684a5.77265,5.77265,0,0,1,2.96435-2.23981c1.19611-.41668.62348-.62573.41675-1.98053-.20825-1.35485-.72833-2.96978-.15661-3.69891.57177-.73.98919,0,1.50927,1.09338.51923,1.09406,2.02771,1.6164,2.5484.88648.521-.72925.98877-2.13721,2.86176-1.6673a11.34953,11.34953,0,0,0,5.15069.57239,3.72676,3.72676,0,0,0,3.22443-2.918c.46845-1.35492-.05225-4.84619,1.35248-5.0545,1.40442-.20838,2.49872.574,3.84955-1.04242,1.35278-1.6156,2.49872-3.43952,4.16211-3.43952,1.66516,0,1.71759.36414,3.2785-.67669a6.57764,6.57764,0,0,1,4.83722-1.14661c.07446.00806.13385.01886.20422.02777-.07019-.00891-.12933-.01971-.20361-.02777C59.5992,57.00447,53.70857,54.33,48.14,53.70961c-5.5686-.6206-9.9,1.23859-12.78784-3.71911-2.88825-4.95862-9.281-.62055-9.90009-5.57917-.619-4.9577-1.23712-6.404.20618-11.56945,1.44312-5.16541,5.56909-9.09205-.20618-10.95124-5.7763-1.85919-8.86877-.206-15.46984-1.44549A80.08294,80.08294,0,0,1,.11678,18.04671V353.5873a10.11734,10.11734,0,0,1,4.33813-1.96845c2.64582-.42938,5.22-.78759,5.43433-2.79284.21442-2.00611-.50195-3.00946-1.57367-4.44147-1.07172-1.43286-2.35834-3.86682-.14246-3.00726a9.80355,9.80355,0,0,1,4.50446,3.5805c1.35858,1.64783,2.86029,2.362,4.00317,1.71826,1.14429-.64441,3.64722-1.43206,3.57526-3.72436-.07117-2.29157-1.001-1.64636-1.78717-2.577-.78674-.93146-4.00379-2.43542-4.00379-3.51007,0-1.07379.78742-.85876,1.93073-.50128,1.143.35815,1.85944.14233,2.57361,1.21692.71478,1.07538,1.71515,2.07654,2.57324,1.93414.8587-.14313,1.074-2.00531-.07056-2.57855-1.1441-.57251-3.14648-1.64636-.85949-1.57446,2.28961.07049,2.64685-.86029,3.36163-1.86286.715-1.002-.64282-2.00537-2.6452-2.22046-2.00147-.21429-4.50513-1.07379-4.5763-1.5744-.072-.50281,1.21527-1.71979,2.43189-1.5047a5.10946,5.10946,0,0,0,3.43133-.14319c1.07233-.57324,1.35828-2.1499,2.28833-1.86285.92841.287.85675,1.14575,1.71448,1.07532a1.84624,1.84624,0,0,0,1.78876-1.14655c.42871-.86029.072-2.2196.715-2.36346.643-.14319,1.00037.42938,1.71534,1.50317.71576,1.07459,1.28582,3.15186,4.00463,1.79181,2.71735-1.3609,5.97535-4.07507,8.05713-3.91773,2.08179.15589,2.86109.10419,4.00544-1.09484a7.23061,7.23061,0,0,1,3.69366-2.293c1.14594-.15589,1.76941,0,2.70508-.83405a10.22911,10.22911,0,0,0,2.44531-2.76141,3.4536,3.4536,0,0,1,3.486-1.82324c1.87348.05175,2.49689.5725,4.47364-1.09479,1.97772-1.66809,3.85034-5.10694,5.82708-5.00281,1.97608.10419,2.28864-.41742,3.901-1.459,1.61352-1.04242,2.23864-2.03229,3.12219-1.71985a2.447,2.447,0,0,0,2.96435-1.40576c.62513-1.40809-.7785-4.84772-.20684-5.88929.57183-1.04236,1.45538,0,2.18475.57251.72882.57324,1.40472.88648,1.87164-.83258.46906-1.72052,1.0943-4.63855.05261-5.21258-1.04022-.57245-1.24853-.31171-.572-1.45826.67682-1.14654.88434-1.14654,1.5094-.88653.62415.26,1.61243.83411,1.50836-.52081a4.51,4.51,0,0,0-.72918-2.553c-.46839-.72992-.155-3.12714-.10242-4.1178a3.17039,3.17039,0,0,0-.46857-2.23981c-.52087-.93823-1.30182-2.449.051-2.50146,1.3526-.0517,2.2362,1.14581,2.7569.72912.52081-.41589-.78-2.13562-1.30018-2.86627-.51989-.72839-1.35247-2.55237-.57318-3.5423.781-.99066,1.87494-2.08471,2.60248-.88647.72772,1.199,1.24841,2.24139,1.76764,2.13721.521-.10566.31189-2.138-.1557-2.76294A1.85918,1.85918,0,0,1,89.51271,268.57479Z"/>
    <path class="cls-2"
          d="M100.763,56.40407l-.83985-.13672a8.42955,8.42955,0,0,1,3.84571-5.58545l1.57812-.90185.42188.73828-1.582.90332A7.69566,7.69566,0,0,0,100.763,56.40407Zm6.499-6.70557-.38281-.75879c.27832-.14013.541-.26269.81152-.375l.32617.78516C107.76589,49.45436,107.52077,49.56813,107.262,49.6985Zm2.33789-.86816-.21875-.82129.2959-.07715c.19531-.0498.38086-.09375.55664-.13427l.18945.8291c-.16992.03857-.34765.08056-.53515.1289Zm2.54785-.61719-.28125-.80273c.45117-.15772.749-.33643.77246-1.34082.06543-2.83252.31934-4.21631.877-4.77539a2.28941,2.28941,0,0,1,1.72656-.59375l.06348.42578-.00879.4248h-.00293a1.49266,1.49266,0,0,0-1.17676.34424c-.36133.36182-.57324,1.773-.62891,4.19385C113.4612,47.28932,113.08522,47.88454,112.14772,48.21315Zm7.43653-6.0542-.02539-.84961a2.48726,2.48726,0,0,0,.72363-.11718l.27539.80371A3.29944,3.29944,0,0,1,119.58425,42.159Zm-1.81348-.20117-.37109-.08252c-.16407-.03857-.32129-.07324-.47266-.105l.17578-.832c.15527.03271.31836.06934.49024.10889l.35351.07861Zm4.209-1.47851-.82226-.22071.01172-.03662a1.59174,1.59174,0,0,0,.0664-.48828,6.55607,6.55607,0,0,0-.207-1.335,7.85627,7.85627,0,0,1-.24414-1.68164A2.79726,2.79726,0,0,1,121.68,34.5818a8.44124,8.44124,0,0,1,2.22363-1.66845l.36524.76758a7.69952,7.69952,0,0,0-2.00293,1.51709,1.93918,1.93918,0,0,0-.63184,1.519,7.17413,7.17413,0,0,0,.22559,1.49853,7.32244,7.32244,0,0,1,.22558,1.51807A2.44562,2.44562,0,0,1,121.97975,40.47927Zm3.88086-7.36426-.27929-.80322L126.01,32.176c.12793-.04052.25488-.08252.3789-.12646l.28321.80176q-.20069.0703-.4043.13476Zm2.457-.97022-.40039-.75a6.462,6.462,0,0,0,.69141-.42236l.49023.69434A7.43967,7.43967,0,0,1,128.31764,32.14479Zm2.09864-1.83447-.72852-.43848a2.55822,2.55822,0,0,0,.21875-.456c.58887-1.62207.94531-1.78125,2.92774-2.66358.68359-.30419,1.32519-.54345,1.92578-.76757a17.98719,17.98719,0,0,0,1.78613-.7334l.38672.75683a18.53221,18.53221,0,0,1-1.876.773c-.585.21827-1.21.45118-1.83008.727-1.98046.88184-2.05566.915-2.52148,2.19873A3.51406,3.51406,0,0,1,130.41628,30.31032Zm7.93554-5.69727-.79687-.29589a3.25985,3.25985,0,0,0,.16211-.74219l.84375.09668A3.99991,3.99991,0,0,1,138.35182,24.61305Zm-.60156-2.70019c-.01074-.28076-.02539-.5669-.042-.85449l.84961-.04883c.0166.29346.03125.58545.042.87109Zm-.14551-2.55615a13.63406,13.63406,0,0,0-.35742-1.75879,10.41092,10.41092,0,0,1-.41113-2.53662,5.23517,5.23517,0,0,1,.09961-1.03418,8.5545,8.5545,0,0,1,1.1543-3.06543l.71875.45508a7.73739,7.73739,0,0,0-1.03907,2.77685,4.36544,4.36544,0,0,0-.084.86768,9.59,9.59,0,0,0,.38672,2.33105,14.51068,14.51068,0,0,1,.37793,1.86865Zm2.22266-9.23145-.62109-.58105q.28857-.30762.6289-.62891l.584.61816C140.20534,9.73561,140.00807,9.9319,139.82741,10.12526Zm1.87207-1.67383-.50977-.68066c.18555-.13867.35645-.26025.51758-.375l.18848-.13477.49609.69043-.19238.13721C142.04421,8.19948,141.87819,8.31716,141.69948,8.45143Zm2.04395-1.72607-.65235-.54492a11.99218,11.99218,0,0,0,.94824-1.35205l.72266.44824A12.6748,12.6748,0,0,1,143.74343,6.72536Z"/>
    <path class="cls-1"
          d="M115.21193,79.51631a2.25848,2.25848,0,0,1,1.09271,3.07532c-.50116,1.4588-1.47992,2.1593-3.31951,3.185,1.839-1.0249,2.81835-1.72546,3.32012-3.18573A2.2576,2.2576,0,0,0,115.21193,79.51631Z"/>
    <path class="cls-1"
          d="M107.17574,87.11562a11.23857,11.23857,0,0,0,1.27295.116A11.22477,11.22477,0,0,1,107.17574,87.11562Z"/>
    <path class="cls-1"
          d="M101.99782,85.04055c.702.82067.81879,1.72949,1.29474,2.17639C102.8174,86.76961,102.7,85.86092,101.99782,85.04055Z"/>
    <path class="cls-1"
          d="M101.99782,85.04055a1.709,1.709,0,0,1-.53467-1.00574A1.70789,1.70789,0,0,0,101.99782,85.04055Z"/>
    <path class="cls-1"
          d="M103.29927,82.90334c-1.14142.32208-1.68982.61566-1.79937,1.00238C101.60945,83.51918,102.15785,83.22585,103.29927,82.90334Z"/>
    <path class="cls-1"
          d="M104.70522,87.34487a2.19342,2.19342,0,0,1,1.81952-.32373A2.19016,2.19016,0,0,0,104.70522,87.34487Z"/>
    <path class="cls-2"
          d="M94.39382,92.74587l-.10743-.84278c.04981-.00683,5.10743-.65771,8.36231-1.13623l.123.84082C99.51,92.08766,94.4446,92.73952,94.39382,92.74587Zm10.09863-1.40381-.14063-.83838c.25684-.04346.47461-.082.64258-.11523.04-.00782.09375-.022.16309-.04151l.23047.81836c-.10059.02832-.17774.04736-.23145.05762C104.98464,91.25661,104.75905,91.29714,104.49245,91.34206Zm2.56543-.73682-.291-.79883c.24805-.09033.5166-.19091.80371-.30029l.30274.794C107.58229,90.41139,107.30983,90.513,107.05788,90.60524Zm2.43164-.94824-.32422-.78613c1.61621-.66651,3.18652-1.38379,4.668-2.13184,1.042-.52539,1.99414-1.02051,2.88769-1.49463l.39844.751c-.89746.47705-1.85547.97412-2.90332,1.50244C112.71608,88.25563,111.12526,88.9822,109.48952,89.657Zm9.15332-4.48437-.4082-.74512.75586-.41553.41015.74414Zm2.26953-1.25977-.418-.74023.752-.42481.418.74023Zm2.25586-1.27734-.41992-.73926c1.52734-.86768,3.08887-1.752,4.9082-2.73242l.4043.748C126.24733,80.88942,124.68971,81.77077,123.16823,82.63552Z"/>
    <path class="cls-2"
          d="M352.95632,73.2405l-1.041-.4502c.29981-.69092,5.01758-9.835,5.21777-10.22363l1.00782.51953C356.77858,65.72634,353.19167,72.69655,352.95632,73.2405Z"/>
    <polygon class="cls-2" points="355.13 74.761 348.955 71.883 349.196 71.369 355.37 74.247 355.13 74.761"/>
    <path class="cls-1"
          d="M350.10641,76.49629a1.14972,1.14972,0,1,1-.99232,1.29114,1.15091,1.15091,0,0,1,.99232-1.29114Z"/>
    <polygon class="cls-2" points="369.198 46.098 363.918 43.789 364.145 43.27 369.424 45.578 369.198 46.098"/>
    <polygon class="cls-2" points="359.831 64.051 354.552 61.742 354.779 61.222 360.058 63.531 359.831 64.051"/>
    <path class="cls-1"
          d="M360.04218,58.53621a1.15012,1.15012,0,1,1-.99216,1.29115,1.15226,1.15226,0,0,1,.99216-1.29115Z"/>
    <path class="cls-2"
          d="M362.32057,55.28835l-1.03906-.45215c.29981-.69043,5.0166-9.8335,5.2168-10.22217l1.00781.51953C366.14382,47.7737,362.55788,54.74343,362.32057,55.28835Z"/>
    <polygon class="cls-2" points="364.495 56.809 358.321 53.93 358.561 53.417 364.736 56.295 364.495 56.809"/>
    <path class="cls-2"
          d="M331.31569,129.31716l-4.70215-2.293.248-.50977,4.70215,2.293Zm7.20606-10.90332-5.27539-3.0962.2871-.48925,5.2754,3.09619Z"/>
    <path class="cls-2"
          d="M329.81862,127.96413h-1.13476c0-2.10352,5.30371-9.999,6.36621-11.56006l.9375.6377C333.60182,120.54567,329.81862,126.60866,329.81862,127.96413Z"/>
    <path class="cls-2"
          d="M320.32057,149.00514h-1.13476c0-2.12255,4.97949-11.09716,5.54687-12.11328l.99024.55274C323.63405,141.18434,320.32057,147.62966,320.32057,149.00514Z"/>
    <path class="cls-2"
          d="M322.09889,150.26882l-5.39062-2.17823.21289-.52539,5.39063,2.17823Zm5.7168-11.81787-5.16113-2.52247.248-.50976,5.16113,2.52246Z"/>
    <path class="cls-1"
          d="M318.84645,152.82677a1.14992,1.14992,0,1,1-1.15318,1.15028,1.15156,1.15156,0,0,1,1.15318-1.15028Z"/>
    <path class="cls-1"
          d="M327.11948,131.4983a1.14993,1.14993,0,1,1-1.154,1.15029,1.15144,1.15144,0,0,1,1.154-1.15029Z"/>
    <path class="cls-2"
          d="M318.43288,221.282l-1.13281-.03711.38281-11.83691,1.13281.03711ZM317.428,197.99343c-.001-.03321-.12793-3.36524,0-6.03174.124-2.60938.002-4.88281,0-4.90576l1.13281-.0625c.001.023.127,2.35205,0,5.022-.125,2.61865-.001,5.90137,0,5.93408Z"/>
    <path class="cls-2"
          d="M320.78151,221.66042l-6.0791-.34375.03125-.56641,6.0791.34375Zm.01563-11.80957h-5.27539v-.56739h5.27539Zm-5.499-11.35156-.01172-.56641,5.39063-.11475.01172.56641Zm5.7168-11.35157-5.3916-.22949.02344-.56641,5.3916.2295Z"/>
    <path class="cls-1"
          d="M317.55838,203.0254a1.14991,1.14991,0,1,1-1.15335,1.14952,1.15135,1.15135,0,0,1,1.15335-1.14952Z"/>
    <path class="cls-1"
          d="M317.16726,224.54649a1.1499,1.1499,0,1,1-1.15335,1.15028,1.15148,1.15148,0,0,1,1.15335-1.15028Z"/>
    <path class="cls-2"
          d="M100.00124,216.45388l-1.12891-.11329a24.10442,24.10442,0,0,0-.34179-3.76416c-.05176-.38379-.10157-.75048-.14258-1.07861-.18848-1.51025-.95606-4.68066-.96387-4.7124l1.10156-.26758c.03223.13281.791,3.26611.98731,4.83936.041.3247.08984.688.14062,1.06787A23.52427,23.52427,0,0,1,100.00124,216.45388Zm-8.57715-18.66163a70.52969,70.52969,0,0,0-3.57422-6.37207,14.071,14.071,0,0,0-2.56738-3.34423l.61426-.95264c.14843.09277.98632.70557,2.90625,3.68213a71.51932,71.51932,0,0,1,3.64062,6.4917Z"/>
    <path class="cls-2"
          d="M97.19557,217.53981l-.19531-.53222,5.06934-1.85157.19531.53223ZM95.136,207.79909l-.17187-.54,5.84863-1.85254.17188.54ZM89.64479,199.053l-.29492-.48438,4.97168-3.02148.29492.48437Zm-5.74121-9.6543-.3164-.46973,4.1914-2.82617.31641.46973Z"/>
    <path class="cls-1"
          d="M94.8015,200.578a1.14993,1.14993,0,1,1-1.15335,1.15028A1.15162,1.15162,0,0,1,94.8015,200.578Z"/>
    <path class="cls-2"
          d="M142.54323,497.04909v-1.13477c.80176,0,7.457-1.21093,11.73438-2.02539l.21289,1.11328C153.38991,495.21218,143.70925,497.04909,142.54323,497.04909Zm22.18164-7.02246-.31055-1.08984c5.21-1.48829,12.50293-6.05372,12.57618-6.09961l.60351.959C177.2903,483.98757,170.09011,488.49538,164.72487,490.02663Z"/>
    <path class="cls-2"
          d="M143.00124,500.16823l-1.89453-6.82129.54687-.15234,1.89453,6.82129Zm12.30469-3.05176-2.65332-5.001.5-.26563,2.65332,5.001Zm9.30371-5.20019-1.44043-4.5459.541-.17188,1.44043,4.5459Zm13.61523-6.20313-3.03223-3.94043.44922-.3457,3.03223,3.94043Z"/>
    <path class="cls-1"
          d="M160.1133,491.19751a1.14952,1.14952,0,1,1-1.15318,1.14947,1.15138,1.15138,0,0,1,1.15318-1.14947Z"/>
    <path class="cls-1"
          d="M137.932,496.67607a1.14956,1.14956,0,1,1-1.154,1.14956,1.15155,1.15155,0,0,1,1.154-1.14956Z"/>
    <path class="cls-2"
          d="M60.22,430.95534c-1.54785-1.71191-2.2666-9.75293-2.28809-11.04l1.13281-.01953c.03614,2.05664.89258,9.07812,1.99708,10.2998Zm-3.28711-22.35547c-.79688-2.91894,1.55664-11.27832,1.65723-11.63183l1.08984.30859c-.66016,2.33105-2.24609,8.85351-1.65332,11.02441Z"/>
    <path class="cls-2"
          d="M57.11159,431.179l-.05078-.56445,6.53027-.585.05078.56445Zm-1.19043-10.91406-.00977-.56641,5.26368-.09668.00976.56641Zm4.77051-11.40137H53.77175v-.5664h6.91992Zm.83594-10.07324-5.167-2.92383.2793-.49414,5.167,2.92383Z"/>
    <path class="cls-1"
          d="M57.67105,413.00929a1.1499,1.1499,0,1,1-1.15318,1.15028,1.15166,1.15166,0,0,1,1.15318-1.15028Z"/>
    <path class="cls-1"
          d="M60.659,391.56388a1.14993,1.14993,0,1,1-1.15335,1.14956,1.15219,1.15219,0,0,1,1.15335-1.14956Z"/>
    <path class="cls-2"
          d="M235.75319,409.17214l-.74609-.85352c1.96-1.71484,8.34961-11.07519,8.41406-11.16992l.9375.63867C244.09206,398.177,237.82155,407.36257,235.75319,409.17214Zm16.55762-19.77442-1.01367-.50781c1.04492-2.09082,9.51074-8.73437,10.47265-9.48535l.69727.89453C258.77077,383.18386,253.01589,387.98659,252.31081,389.39772Z"/>
    <path class="cls-2"
          d="M237.97585,411.17214l-5.167-3.80078.33593-.457,5.167,3.80079Zm8.59765-11.29-5.84961-3.60742.29688-.48243,5.84961,3.60743Zm6.98145-8.99317-3.50879-3.02148.36914-.42969,3.50879,3.02149Zm9.9248-9.08105-3.41113-3.50879.40625-.39453,3.41113,3.50879Z"/>
    <path class="cls-1"
          d="M248.23,392.55305a1.14954,1.14954,0,1,1-1.15335,1.14952,1.15163,1.15163,0,0,1,1.15335-1.14952Z"/>
    <path class="cls-1"
          d="M232.55753,411.03917a1.14993,1.14993,0,1,1-1.154,1.15029,1.15169,1.15169,0,0,1,1.154-1.15029Z"/>
    <path class="cls-2"
          d="M305.18776,313.5862l-.91211-.67383c.02149-.0293,2.17774-2.94726,3.80762-5.33008a49.97746,49.97746,0,0,0,3.14062-5.52539l1.02149.49024a49.86666,49.86666,0,0,1-3.22656,5.67578C307.37721,310.62233,305.20925,313.5569,305.18776,313.5862Z"/>
    <path class="cls-2"
          d="M306.66139,315.14968l-5.16113-3.21094.29883-.48047,5.16113,3.21094Zm7.59766-11.45118-4.58789-2.17871.24414-.51172,4.58789,2.17872Z"/>
    <path class="cls-1"
          d="M313.43985,297.041a1.14993,1.14993,0,1,1-1.15334,1.14955,1.15219,1.15219,0,0,1,1.15334-1.14955Z"/>
    <path class="cls-1"
          d="M301.56608,315.69273a1.1499,1.1499,0,1,1-1.15335,1.14951,1.15152,1.15152,0,0,1,1.15335-1.14951Z"/>
    <path class="cls-2"
          d="M105.83815,306.48659l-.97656-.57617c1.25781-2.12988,4.56445-8.07031,4.76367-9.95313l1.127.11914C110.48757,298.58815,106.02761,306.1653,105.83815,306.48659Z"/>
    <path class="cls-2"
          d="M107.90358,307.53346l-5.36035-2.33886.22656-.51953,5.36035,2.33886Zm5.5127-10.70214-6.23926-1.36426.12109-.55469,6.23926,1.36426Z"/>
    <path class="cls-1"
          d="M112.09833,290.37312a1.14952,1.14952,0,1,1-1.15318,1.14952,1.15142,1.15142,0,0,1,1.15318-1.14952Z"/>
    <path class="cls-1"
          d="M114.25449,269.09108a1.14955,1.14955,0,1,1-1.154,1.14956,1.15146,1.15146,0,0,1,1.154-1.14956Z"/>
    <path class="cls-2"
          d="M113.64577,286.12136l-1.11914-.18555c.00488-.0293.48828-2.93848.77637-5.61914.28711-2.67676.38574-5.96485.38671-5.998l1.13282.0332c-.001.03321-.10059,3.36622-.39258,6.08594C114.13893,283.15261,113.65065,286.09206,113.64577,286.12136Z"/>
    <path class="cls-2"
          d="M116.09889,286.41042l-5.94628-.19531.01953-.56641,5.94629.19531Zm-5.05078-11.59717-.01757-.56641,6.33593-.19482.01758.56641Z"/>
    <path class="cls-2"
          d="M315.95046,293.99147l-1.04883-.43164c.00879-.02148.89648-2.18847,2.01855-5.93066a19.60468,19.60468,0,0,0,.87012-6.53418l1.12891-.09766a20.31556,20.31556,0,0,1-.91309,6.958C316.8655,291.7571,315.98757,293.90163,315.95046,293.99147Z"/>
    <path class="cls-2"
          d="M318.08815,294.77175l-5.62011-1.60547.15625-.54492,5.62011,1.60546Zm2.70215-13.4043-4.81738-.22949.02734-.56641,4.81738.22949Z"/>
    <path class="cls-2"
          d="M14.15944,22.62038A8.23274,8.23274,0,0,1,12.637,22.18,37.51169,37.51169,0,0,0,8.44509,20.968c-3.61426-.77833-4.08936-.84815-4.10791-.85108l.1333-1.12549c.06054.00635.54785.07862,4.21289.86817a39.05047,39.05047,0,0,1,4.3164,1.24609,11.18457,11.18457,0,0,0,1.25342.38477Z"/>
    <path class="cls-2"
          d="M26.57741,31.701l-1.00879-.51758c.02442-.04785,2.44238-4.835.91162-7.47412-.626-1.07959-1.88525-1.66993-3.74316-1.75586l.05273-1.13282c2.26856.105,3.84033.88575,4.67237,2.32178C29.30153,26.31716,26.68923,31.48268,26.57741,31.701Z"/>
    <path class="cls-2"
          d="M23.23805,41.51686l-.10742-.55664,5.729-1.10058.10742.55664Zm5.49854-9.25537-5.39941-1.3208.13476-.55078,5.39942,1.3208Zm-14.167-7.375-.56641-.00976.11084-6.38916.56641.00976Zm7.79345-.67969-.56054-.084.77148-5.17725.56055.084Z"/>
    <path class="cls-1"
          d="M18.30829,20.44281a1.14961,1.14961,0,1,1-1.154,1.14956,1.15146,1.15146,0,0,1,1.154-1.14956Z"/>
    <path class="cls-1"
          d="M25.16755,35.51871A1.14948,1.14948,0,1,1,24.0142,36.6681a1.15135,1.15135,0,0,1,1.15335-1.14939Z"/>
    <path class="cls-2"
          d="M33.96413,49.43141c-1.70068-.40185-7.313-1.82959-8.13428-3.33545-.81055-1.48486-.81787-4.73632-.81592-5.10253l1.13379.00586A12.99685,12.99685,0,0,0,26.825,45.553c.39746.728,4.15039,2.00732,7.3999,2.7749Z"/>
    <path class="cls-2"
          d="M54.75905,55.29274c-1.16992-.09179-11.47363-.92529-13.19531-1.98388l.59375-.96582c1.12109.689,8.3789,1.48144,12.68945,1.81884Z"/>
    <path class="cls-2"
          d="M53.75905,59.15651l-.54883-.14551,1.873-7.0498.54883.14551ZM41.53054,56.0652l-.55079-.13086,1.43164-6.0581.55079.13086Zm-8.51172-4.00537-.49707-.27246,2.53418-4.62646.49707.27246Z"/>
    <path class="cls-1"
          d="M38.01315,50.75329a1.14993,1.14993,0,1,1-1.154,1.14948,1.15148,1.15148,0,0,1,1.154-1.14948Z"/>
    <rect class="cls-2" x="2.14819" y="18.93634" width="5.23441" height="0.5668"
          transform="translate(-14.94829 21.08471) rotate(-81.479)"/>
    <path class="cls-1" d="M1.57942,17.30975a1.14956,1.14956,0,1,1-1.154,1.14964,1.15153,1.15153,0,0,1,1.154-1.14964Z"/>
    <MetaInfo xmlns="http://www.prognoz.ru">
        <Geo>
            <GeoItem
                    X="-0.12462077289819717" Y="-0.009590000845491886"
                    Latitude="24.206889622398023" Longitude="105.77636718749999"
            />
            <GeoItem
                    X="370.5056587681174" Y="554.4904099991545"
                    Latitude="4.3464112753331925" Longitude="121.77246093750001"
            />
        </Geo>
    </MetaInfo>
</svg>
