<?xml version="1.0" encoding="utf-8"?>
<!-- Generator: Adobe Illustrator 23.0.0, SVG Export Plug-In . SVG Version: 6.00 Build 0)  -->
<svg version="1.1" id="图层_1" xmlns="http://www.w3.org/2000/svg" xmlns:xlink="http://www.w3.org/1999/xlink" x="0px" y="0px"
	 viewBox="0 0 40 24" style="enable-background:new 0 0 40 24;" xml:space="preserve">
<path d="M523.05-213.39l0.38-16.3l-14.92-16.81l-0.01-0.01l2-44c0,0-6-43-14-49s-32-30-32-30l-15-7c0,0-24-58-32-65s-8-7-8-7l-3-54
	c0,0,6-13,6-16s-9-14-9-14l-66,8l-33-52l-23,3l3-11l-15-10l-5,6c0,0-5-6-6-4s-20,18-22,18s-6,9-6,9l-14-2l-2-7l-18-16c0,0,1-31-7-42
	s-17-23-17-23s-17,4-19,2s-15-9-15-9l12-18c0,0-23-9-29-13s-15-10-15-10l-12,8l2,7c0,0-17,13-20,15s-10,0-10,0l2-9l-4-3
	c0,0,5-15,4-18s-11,1-16-2s-8-6-15-7s-9,0-9,0v-7c0,0-15,4-22,0s-24,0-24,0l-3,6l-14-4c0,0-11,21-13,21s-9-7-9-7s-20-2-23-8
	s-2-10-2-10l-13,1v-8l-95,13l-35.92-2.91L-226-718c0,0-34-1-45-6s-19-8-20-5s-16,15-25,16s-15,5-17,8s-2,11-11,12
	c-8.87,0.99-14.82,0.03-14.98,0v0h-0.97l-15.21,15.63l-0.38,16.47l-14.97-0.34l-15.68,15.95l-14.97-0.34l-15.68,16.11l-0.38,16.47
	l-0.38,16.3l-0.38,16.47l-0.38,16.47l15.3,0.35l-0.38,16.3l-0.38,16.47l-0.38,16.47l-0.38,16.3l14.59,16.81l-0.38,16.47l14.92,16.82
	l14.97,0.34l14.93,16.65l-0.38,16.47l-0.38,16.47l-0.38,16.3l-45.95,15.42l-14.97-0.34l0.38-16.47l-15.68,16.11l-14.97-0.34
	l-15.68,16.11l-15.34,15.95l14.97,0.34l-0.38,16.47l15.3,0.35l-0.38,16.47l-15.68,15.95l-15.35,16.12l-0.38,16.47l-0.38,16.3
	l14.21,33.28l15.3,0.35l-0.38,16.3l-0.38,16.47l14.97,0.34l15.3,0.35l30.27,0.7l-0.38,16.47l-0.38,16.3l-15.3-0.35l-14.97-0.34
	l-14.93-16.65l-0.75,32.76l14.92,16.82l14.59,16.64l-0.38,16.47l-0.38,16.47l-14.97-0.34l-0.38,16.3l-15.3-0.35l-15.35,16.12
	l-15.3-0.35l-0.38,16.47l-15.34,15.95l-0.38,16.47l14.97,0.34l14.92,16.82l14.97,0.34l14.93,16.65l-0.38,16.47l14.97,0.34
	l-0.38,16.47l-0.38,16.3l15.3,0.35l0.38-16.3l14.97,0.34l0.38-16.47l15.3,0.35l14.97,0.34l0.75-32.76l105.73,18.74l14.59,16.81
	l15.3,0.35l14.97,0.34l15.68-16.11l14.97,0.34l46.33-31.72l0.38-16.47l0.38-16.3l-14.92-16.82l30.27,0.7l14.92,16.82l-0.38,16.3
	l30.27,0.7l14.97,0.34l-0.38,16.47l15.3,0.35l14.97,0.34l0.38-16.47l0.38-16.3l-14.97-0.34l0.38-16.47l0.38-16.47l0.38-16.3
	l-15.3-0.35l-14.97-0.34l-0.38,16.3l-15.3-0.35l15.68-15.95l0.38-16.47l14.97,0.34l0.38-16.47l15.3,0.35l46.7-48.18l-14.55-33.12
	l0.38-16.47l0.38-16.3l0.38-16.47l15.3,0.35l75.51,1.74l15.68-16.11l14.97,0.34l0.38-16.3l0.76-32.93l15.3,0.35l14.97,0.34
	l0.38-16.3l15.3,0.35l-0.38,16.3l14.97,0.34l15.3,0.35l14.97,0.34l15.3,0.35l14.97,0.34l15.3,0.35l14.97,0.34l15.3,0.35l14.97,0.34
	l-0.38,16.47l15.3,0.35l14.59,16.81l-0.38,16.3l-0.38,16.47l15.3,0.35l15.35-16.12l0.38-16.3l15.3,0.35l15.35-16.12l14.92,16.82
	l0.38-16.47l14.59,16.81l14.93,16.65l14.97,0.34l-0.38,16.47l15.3,0.35l-0.38,16.47l14.59,16.64l-0.38,16.47l15.3,0.35l14.97,0.34
	l0.38-16.47l15.3,0.35l0.38-16.3l14.97,0.34l0.38-16.47l0.38-16.47L523.05-213.39z"/>
<path d="M523.05-213.39l0.38-16.3l-14.92-16.81l-0.01-0.01l2-44c0,0-6-43-14-49s-32-30-32-30l-15-7c0,0-24-58-32-65s-8-7-8-7l-3-54
	c0,0,6-13,6-16s-9-14-9-14l-66,8l-33-52l-23,3l3-11l-15-10l-5,6c0,0-5-6-6-4s-20,18-22,18s-6,9-6,9L227-566v8l3,7l-7,2l-10-5l-3,5
	l-5-2l-10,23l-6-6l-15,3l-8-7l4-9l2-12l-6-1l-8,3l-4,6h-11v17l-2,6l-6,11l2,4l-2,7v8l-5,22l-65,9l13,43l-6-3l-5,19l-3.49,1.94
	l2.99,5.56l-17,25l-7,8l-29-3v8v5l5,8l15,7l11,21l10-3l10-2l4,1l6-4l13,18l7,16l21,23l0.75,0.49l14.43,0.33l14.97,0.34l0.38-16.3
	l15.3,0.35l-0.38,16.3l14.97,0.34l15.3,0.35l14.97,0.34l15.3,0.35l14.97,0.34l15.3,0.35l14.97,0.34l15.3,0.35l14.97,0.34
	l-0.38,16.47l15.3,0.35l14.59,16.81l-0.38,16.3l-0.38,16.47l15.3,0.35l15.35-16.12l0.38-16.3l15.3,0.35l15.35-16.12l14.92,16.82
	l0.38-16.47l14.59,16.81l14.93,16.65l14.97,0.34l-0.38,16.47l15.3,0.35l-0.38,16.47l14.59,16.64l-0.38,16.47l15.3,0.35l14.97,0.34
	l0.38-16.47l15.3,0.35l0.38-16.3l14.97,0.34l0.38-16.47l0.38-16.47L523.05-213.39z"/>
<path d="M94.5-295.5l-7-16l-13-18l-6,4l-4-1l-10,2l-10,3l-11-21l-15-7l-5-8v-5v-8l29,3l7-8l17-25l-2.99-5.56L58-403c0,0-26,4-33,4
	s-6-2-6-2v-9l-9-9l-25-5l-26,3v-8l3-11l-40-17l10-34l-8-8l-16,7l-13,2l-4-6l-18,13l2,5l-18,8v7h-14l-21,9l-11-44h-11l-3-5l2-14
	l-20,5l-17-6l-9,1l-5-14l-17-15h-16l-4-6l-18-7l-4-9l-23,4c0,0-1,13-8,20s-17,17-29,20c-8.47,2.12-36.85-2.74-52.83-5.78
	l-0.36,15.52l-0.38,16.3l14.59,16.81l-0.38,16.47l14.92,16.82l14.97,0.34l14.93,16.65l-0.38,16.47l-0.38,16.47l-0.38,16.3
	l-45.95,15.42l-14.97-0.34l0.38-16.47l-15.68,16.11l-14.97-0.34l-15.68,16.11l-15.34,15.95l14.97,0.34l-0.38,16.47l15.3,0.35
	l-0.38,16.47l-15.68,15.95l-15.35,16.12l-0.38,16.47l-0.38,16.3l14.21,33.28l15.3,0.35l-0.38,16.3l-0.38,16.47l14.97,0.34l15.3,0.35
	l30.27,0.7l-0.38,16.47l-0.38,16.3l-15.3-0.35l-14.97-0.34l-14.93-16.65l-0.75,32.76l14.92,16.82l14.59,16.64l-0.38,16.47
	l-0.38,16.47l-14.97-0.34l-0.38,16.3l-15.3-0.35l-15.35,16.12l-15.3-0.35l-0.38,16.47l-15.34,15.95l-0.38,16.47l14.97,0.34
	l14.92,16.82l14.97,0.34l14.93,16.65l-0.38,16.47l14.97,0.34l-0.38,16.47l-0.38,16.3l15.3,0.35l0.38-16.3l14.97,0.34l0.38-16.47
	l15.3,0.35l14.97,0.34l0.75-32.76l105.73,18.74l14.59,16.81l15.3,0.35l14.97,0.34l15.68-16.11l14.97,0.34l46.33-31.72l0.38-16.47
	l0.38-16.3l-14.92-16.82l9.07,0.21L-167-53l6-15h23l12-16l3-22l2-9l-2-8c0,0,3-18,4-22s6-13,6-13l-6-16h25l-3-9c0,0-1-22,0-25
	s7-14,7-14h16c0,0,11-16,12-18s18-15,18-15s-12-8-15-10s-12-14-12-14l2-4h7l6-3c0,0,0-2,1-4s3-6,3-6l1-7l17,7l15,11l12,16h4l4-54
	l8,1l5-24l10,2l-3,16l-1,7l-2,5l1,5l-10,6c-1,12,22,36,22,36l7,5l3-23l11,11l2,15l-9,7c0,0,31,34,37,39
	c1.24,1.03,3.16,2.45,5.42,4.04l11.86-12.18l14.97,0.34l0.38-16.3l0.76-32.93l0.87,0.02l-0.75-0.49L94.5-295.5z"/>
<path d="M87.42-210.96c-2.26-1.59-4.19-3.01-5.42-4.04c-6-5-37-39-37-39l9-7l-2-15l-11-11l-3,23l-7-5c0,0-23-24-22-36l10-6l-1-5l2-5
	l1-7l3-16l-10-2l-5,24l-8-1l-4,54h-4l-12-16l-15-11l-17-7l-1,7c0,0-2,4-3,6s-1,4-1,4l-6,3h-7l-2,4c0,0,9,12,12,14s15,10,15,10
	s-17,13-18,15s-12,18-12,18h-16c0,0-6,11-7,14s0,25,0,25l3,9h-25l6,16c0,0-5,9-6,13s-4,22-4,22l2,8l-2,9l-3,22l-12,16h-23l-6,15
	l27.95,37.87l-3.47-0.08l0,0l24.66,0.57l14.92,16.82l-0.38,16.3l30.27,0.7l14.97,0.34l-0.38,16.47l15.3,0.35l14.97,0.34l0.38-16.47
	l0.38-16.3l-14.97-0.34l0.38-16.47l0.38-16.47l0.38-16.3l-15.3-0.35l-14.97-0.34l-0.38,16.3l-15.3-0.35l15.68-15.95l0.38-16.47
	l14.97,0.34l0.38-16.47l15.3,0.35l46.7-48.18l-14.55-33.12l0.38-16.47l0.38-16.3l0.38-16.47l15.3,0.35l75.51,1.74l11.77-12.09v0
	L87.42-210.96z"/>
<path d="M227-558v-8l-10.5-1.5l-2-7l-18-16c0,0,1-31-7-42s-17-23-17-23s-17,4-19,2s-15-9-15-9l12-18c0,0-23-9-29-13s-15-10-15-10
	l-12,8l2,7c0,0-17,13-20,15s-10,0-10,0l2-9l-4-3c0,0,5-15,4-18s-11,1-16-2s-8-6-15-7s-9,0-9,0v-7c0,0-15,4-22,0s-24,0-24,0l-3,6
	l-14-4c0,0-11,21-13,21s-9-7-9-7s-20-2-23-8s-2-10-2-10l-13,1v-8l-95,13l-35.92-2.91L-226-718c0,0-34-1-45-6s-19-8-20-5
	s-16,15-25,16s-15,5-17,8s-2,11-11,12c-8.87,0.99-14.82,0.03-14.98,0v0h-0.97l-15.21,15.63l-0.38,16.47l-14.97-0.34l-15.68,15.95
	l-14.97-0.34l-15.68,16.11l-0.38,16.47l-0.38,16.3l-0.38,16.47l-0.38,16.47l15.3,0.35l-0.38,16.3l-0.38,16.47l-0.02,0.94
	c15.98,3.04,44.36,7.89,52.83,5.78c12-3,22-13,29-20s8-20,8-20l23-4l4,9l18,7l4,6h16l17,15l5,14l9-1l17,6l20-5l-2,14l3,5h11l11,44
	l21-9h14v-7l18-8l-2-5l18-13l4,6l13-2l16-7l8,8l-10,34l40,17l-3,11v8l26-3l25,5l9,9v9c0,0-1,2,6,2s33-4,33-4l9-5l5-19l6,3l-13-43
	l65-9l5-22v-8l2-7l-2-4l6-11l2-6v-17h11l4-6l8-3l6,1l-2,12l-4,9l8,7l15-3l6,6l10-23l5,2l3-5l10,5l7-2L227-558z"/>
</svg>
