<?xml version="1.0" encoding="utf-8"?>
<!-- Generator: Adobe Illustrator 23.0.0, SVG Export Plug-In . SVG Version: 6.00 Build 0)  -->
<svg version="1.1" id="图层_1" xmlns="http://www.w3.org/2000/svg" xmlns:xlink="http://www.w3.org/1999/xlink" x="0px" y="0px"
	 viewBox="0 0 8192 8192" style="enable-background:new 0 0 8192 8192;" xml:space="preserve">
<style type="text/css">
	.st0{opacity:0.3;fill:#161616;enable-background:new    ;}
</style>
<g>
	<path class="st0" d="M6668.9,4361.2l4.6-23.6l-37.5-19.1l-19.9,27.6h-26l-39.7-29c0,0,80.2-10,83.4-12.9c3-3-6.9-60.4-6.9-60.4
		l-35.2-55.8h43.7l8.4-26.8l-16.7-17.5l-5.4,17.5l-20.7-16.7l4.6-27.6c0,0-48.9-20.7-59.6-33s-2.2-42.9-2.2-42.9l-74.9-39.1
		c33.6-17.5,39.1-53.6,39.1-53.6l26,12.3l33.6-119.2l-43.7-16.7l-40.5-100.9l24.5-91c-44.3-19.9-67.3-60.4-67.3-60.4l25.8-34.1
		v-60.1l23-104.4l44.3-35.2l0.5-52l49.4-92.8l-63.8-71.4l-44.3-95.3l-1-29l-90.7-126.9l4.1-61.1l-47.5,13.7l-74.9,0.5l-1.6-47.8
		l-47.8,6.1l-25.5-66.3l6.7-76.5l49.4,0.5l-5.6-65.7l-43.8-45c0,0-26-7.2-39.7-6.7s-29,11.3-29,11.3l-19.9-37.8l-20.4-2.6l-0.5-25.5
		l-30.6-42.9l-17.4-53.1l7.7-27.6l-35.2-40.3l-17.4-65.7l70.3-18.3l33.6,33.6l14.8-16.3l-7.2-80l31.6-123.4l-74.4-91.2l-52-15.3
		l-48.5,47.5l-16.3,85.6l-40.8,33.6l-77.5-33.6l-24.5,33.2l-68.2-40.8l-16.7-94.4h-76l-17.9-42.9l-64.7-14.8l-1-16.3l42.4-41.3
		l49.9-16.7v-19.4l-19.4-18.3l-64.7-15.3l-24.9-45.9v-38.3l-31.6-23.9l-45-72.4v-62.6l-57.1-59.1l-17.4-83.1l-31.6-8.1l-42.9-59.1
		l23.4-24.5l-8.1-41.8l15.8-27.1l-26-27.6l-32-87.2l-1-152.9h-146.8l-20.1-19.8l-14.2-62.6l-18.8-12.8c0,0-15.3-72.4-15.3-74.9
		s5.6-26.5,5.6-26.5l-67.3-121.8l-81.1,18.3l-51.5-11.3l-52.4,25.5l-12.3,30.1l-44.3,36.2l5.6,84.6l-31.6,18.8v74l-33.2,40.8
		l7.2,92.3l-41.8,2.6l-38.3,23l3.5,18.3l-80.5,6.1l-1-30.6l-22-7.2l-5.6-19.4l-39.2-16.7l-0.5-16.7l-58.2-18.3l-42.4,18.3
		l-48.9-12.3l-8.8,30.6l-61.1-54l-7.7,135l-23.4-0.5l-8.8,34.6l-19.9,0.5l0.5,66.3h-15.3v32l-107.6,59.6l-24.9,52l-30.1-10.2
		l18.8-22l-24.5-25.5l-33.6,30.6l-43.4-13.7l-3-16.7l-12.3-1.6l-67.3-59.1l-0.5-16.3l-158.5-68.9l-10.7,16.7l-37.8-15.3l29.5-65.2
		l-31.6-17.4l-344,441.9l-75.4-9.1v87.7l-17.9,32.7l-24.5-9.1l-51,33.6l-24.9,41.8l37.1,36.7l-86.1,39.2l-85.1,101.9l-76,7.7
		l-0.5-35.2l-23.9-54.5l-17.4,15.3l-0.5,49.9l-49.9,9.1l-16.7-61.1l30.6-22l-4.6-62.6l14.8-23l-5.6-10.2l23-15.8l-15.8-68.2
		l-34.6-38.3l-1-80l-23.4-23l-1.6-40.3l-57.5,23.4l-66.3-18.8l-1,28.1l-101.5,9.6l-1,31.1l-61.1,13.7l-5.6-14.8l-13.7-0.5
		l-11.3-23.9l-27.6-0.5l-10.2,17.4l-9.7,0.5l-28.1-50.4l-57.1,0.5l-20.4,12.3l-29.5-2.1l-2.6,12.8l-24.5-3v122.3h-13.2l-11.3,32
		l-158-14.8l-34.6,15.8l-21.4-7.2l2.6-77.5l-46.9-46.9l-1.6-50.4l-14.2-10.7l5.6-39.7l-51-28.1l1.6,43.8l-44.3,6.7L1837,1365
		l-13.7-58.7l-33.6,20.9l-0.5,26l-15.8,1.6l-16.7-33.6l-83.7-6.7l-11.3,15.8l-56.1-19.4l-2.1-65.7l-56.6,0.5l3.5-69.3l-47.8,27.1
		l-28.1-10.2l-96.9,37.1l-10.2-26l-57.5,1.6v-11.8l-64.7,18.3l-52.4-36.2l42.9,169.3l-15.3,7.7l-43.8,84.6h-124.8l-17.9,18.8
		l-1,41.3l-32.7-0.5l-0.5-14.2L857,1490v-52h-57.1v25.5h-19.4c0,0-22.5,122.3-22.5,125.5c0,3-27.6,24.9-27.6,24.9l-83.1-16.9
		c0,0-48.5,56.6-65.7,68.2c-17.4,11.6-60.1,24.9-60.1,24.9l-8.1,174.9l33.6,136.6l-9.1,16.3H465l-45.9,59.6L404.9,2338l150.3,133.1
		l42.4,83.1v117.6l23,28.1c0,0-5.1,30.6-6.1,34.1s-51,54.5-51,54.5l-23.9,83.1l-33.6-6.7l-52,168.2l19.4,24.5l80.5-6.7l23.9,12.8
		l0.5,19.3l68.2,27.1L633.7,3234l-54.5-5.6l-24.9,39.2h-47.5l-11.3,25.5l34.1,76l24.9,9.1l32.7,250.8l24.5,26.5l-5.6,69.8
		l41.8,105.5c0,0,2.1,52.4-1,57.1c-3,4.6-18.8,4.6-18.8,4.6l-3.5,79.5l-47.8,58.2c0,0-56.6,34.6-65.7,34.6
		c-9.1,0-38.7-14.8-38.7-14.8l-33.2,23.9l-17.9-17.4l-43.8,38.3l-47.8,2.6l-17.9,43.4c0,0,6.1,2.1,14.8,8.1c8.8,6.1,10,28.1,10,28.1
		l50.4,6.9l35.2,71.9l115.4,29l41.3,35.2l175.8,23l97.9,114l63.4,39.7l48.9-18.3l125.5,8.4l178.9,182.7l65.7-73.3l18.3,63.4
		l24.5,1.6l7.7,78l-13.7,39.7l-58.8,26.8l5.4,39.1l46.5,45.9l162.9,91.8l50.4,54.4l26.8,66.6l24.5-22.2l5.4,8.4l70.3,1.6l6.9,62
		l-14.5,23l217.1,159.1l16.7-25.2l41.3,10l25.2-82.6v-78l63.4-17.5l-3-16.7l85.6-13.7l3.8,53.6l53.6,29.8l6.1,66.6l49.7-23.6v22.2
		l35.2,0.8v15.3l48.9-6.9V5255l36.7-19.9l34.4,68.1h17.5V5275c0,0,46.5-7.7,58.8-11.5s109.4-53.6,109.4-53.6v60.4l48.9,48.9
		l58.8-48.1l5.4,51.2l45.9-9.1l6.1,66.6l35.2-2.2l3.8,16.7l119.2-15.3l12.9,19.1l53.6-11.5l26.8,32l7.7,69.5l24.5-16.7l-32-117
		l23.6-10.7l10.7,16.7l42.1-18.3l19.1,26l48.9-6.9l58.8-52.8l46.5-99.3l19.1,6.1l16.1-23l91,47.5v54.4l28.2,10l16.7-10l-6.9-30.6
		l58.2,3.8l5.4-39.7l42.1,8.4v24.5l43.7,0.8v-29l9.1-12.9h13.7v-15.3l44.3,7.7V5178h57.4v15.3l42.1,0.8v19.1l18.3-0.8v58.2l33.6,0.8
		v30.6l25.2,1.6l16.7,59.6h160.7l65,24.5l52-118.6v-74.9l23-9.1v-83.4l42.9-42.1l107.8,6.9l-9.1,34.4l136.1,58.8l35.9-57.4
		l89.4,25.2l19.9-26.8v21.4l39.1,4.6l-5.4,33.6l54.4,6.9v-29l27.6,5.4l-16.1-160.7h32l-7.7-108.6l117-35.2V4797l206.4-3l10-52.8
		l100.9,49.7l-26.8,24.5l62.6,16.1l87.2,120l74.1,3.8l90.2-73.3l111,0.8l16.7,26.8l6.9-36.7l110.2-14.5l58.2-59.6l25.2-10.7v-12.9
		h80.2v74.9l29.8-10.7l7.7,60.4l18.3-0.8v-16.1l66.6-43.7l5.4-41.3l23-0.8c0,0,0-15.3,0-17.5s12.9-13.7,12.9-13.7v-26l23.6-10
		l19.1,62.6l32-10l20.7,23.6h37.5l0.8,23.6l-13.7,19.9v20.7l12.9,12.9l25.2-42.1h26.8v79.5l25.2-27.6v65l185.1-159.7h16.1l7.7-117.6
		l-14.5-7.7l14.5-68.9l47.5,10l21.4-25.2l30.6,7.7l0.8,25.2l24.5-8.4l-14.5-23l26.8-35.9l58.2,28.2l33.6-104.7l26.8,10.7
		c0,0,2.2-57.4,4.6-65.7c2.2-8.4,33.6-61.1,33.6-61.1L6668.9,4361.2L6668.9,4361.2z M2065.1,4740.3l-19.8,27.6l-96.3,14.8l1,34
		l30.6,37.9l-20.4,12.3l3.8,89.4l-61.7-30.3l-38.4-0.8l-5.6-132.3l-18.8,29.8l-17.4-17.4c0,0,23.6-68.9,23.6-77s-6.7-66.6-6.7-66.6
		l-18.3-6.1c0,0,12.8-6.1,7.7-37.1c-5.1-31.1-23.9-190.2-23.9-190.2l-68.9,9.1l-4.1,90.2l-35.7-135.3l-56.6-458.8l14-1.6
		c0,0-7.7-36.5-7.2-38.4c0.5-2.1,12.8-14.2,19.9,1c7.2,15.3,32,81.1,32,81.1l25.8,228.9l190.7-26.5v-49.9l35.2-0.8V3971l25.2,53.9
		l7.7,92.9l15.3,0.3l25.5,88.3v19.1h-15.6l24.9,204.5l32.5,199.9V4740.3L2065.1,4740.3z"/>
</g>
<path class="st0" d="M6053.7,2416.1l-14.3-43.8l7.7-27.6l-35.2-40.3l-17.4-65.7l70.3-18.3l33.6,33.6l14.8-16.3l-7.2-80l31.6-123.4
	l-74.4-91.2l-52-15.3l-48.5,47.5l-16.3,85.6l-40.8,33.6l-77.5-33.6l-24.5,33.2l-68.2-40.8l-16.7-94.4h-76l-17.9-42.9l-64.7-14.8
	l-1-16.3l42.4-41.3l49.9-16.7v-19.4l-19.4-18.3l-64.7-15.3l-24.9-45.9v-38.3l-31.6-23.9l-45-72.4v-62.6l-57.1-59.1l-17.4-83.1
	l-31.6-8.1l-42.9-59.1l23.4-24.5l-8.1-41.8l15.8-27.1l-26-27.6l-32-87.2l-1-151l-2.4-2.1h-144.4l-19.9-19.4l-0.3-1.4l-28.1,20.6
	l-74.1,26.8l-22.2-6.5l-22.2-3.7l-15.8,10.2h-25l-7.5,62l6.5,10.2l-1.8,15.8l-34.3,38.9c0,0-2.9,13.9-4.6,16.7
	c-1.8,2.9-13.9,14.8-13.9,22.2c0,7.3,1.8,16.7-10.2,22.2c-12,5.6,7.5,21.4,0,24.1c-7.5,2.9-33.3,6.5-22.2,25
	c11.2,18.5-10.2,9.2-11.2,21.4c-1,12.1,10.2,28.7,12.1,32.4c1.8,3.7-5.6,11.2-12.1,11.2c-6.4,0-11-1-14.8,9.2
	c-3.7,10.2,1.8,35.2-12.1,34.3s-6.5-20.4-11.2-23.1c-4.6-2.9-16.7-8.3-16.7-8.3s-37.9,28.7-37.9,41.8c0,13.1-4.6,17.5-4.6,17.5
	s-11.2,5.6-11.2,13.9s-6.5,47.2-3.7,51c2.9,3.7,13.9,25,13.9,35.2s8.3,51,14.8,51s17.5,0,17.5,0s3.7,22.2-1,27.7
	s-10.2,27.7-7.5,30.6s15.8,8.3,14.8,11.2s-8.3,28.7-4.6,33.3c3.7,4.6,30.6,7.5,30.6,10.2c0,2.9,1,50.1-3.7,51.8
	c-4.6,1.8-41.8,0-41.8,0s-1.8,17.5-1.8,20.4s-9.2,13.9-9.2,13.9s-10.2,89-7.5,91.7c2.9,2.9,23.1,16.7,36,16.7s48.1,7.5,48.1,7.5
	l-4.6,35.2c0,0,12.1,2.9,12.9,6.5c1,3.7-39.9,182.5-33.3,185.2c6.5,2.9,14.8,8.3,13.9,12.9c-1,4.6-9.2,32.4-5.6,37.1
	c3.7,4.6,106.5,47.2,110.2,54.7s20.4,59.3,20.4,63s-18.5,11.2-18.5,11.2s17.5,95.3,27.7,96.3s15,19.4,15,19.4s35.1-15.8,44.3-12.9
	c9.2,2.9,28.7,45.3,28.7,45.3h11.2l15.8,29.7c0,0,27.7-10.2,32.4-8.3c4.6,1.8,22.2,14.8,27.7,21.4c5.6,6.5,35.2,27.7,35.2,27.7
	s31.4,8.3,42.6,5.6s19.4-22.2,19.4-26s14.8-1.8,14.8-1.8v-70.3c0,0,70.3-8.3,71.3,1s0,73.2,0,73.2s-30.6,13.1-33.3,24.7
	c-2.9,11.5-6.5,27.3-6.5,27.3l-3.7,15.8c0,0,6.5,19.4-1.8,28.7c-8.3,9.2,4.6,18.5,4.6,18.5l81.5,4.6c0,0,11.2-13.9,10.2-17.5
	c-1-3.7-7.3-74.1,0.2-74.1s20.2-4.6,44.5-4.6s83.4,5.6,83.4,5.6v-16.7c0,0,26-5.6,35.2-1s5.6,41.8,5.6,41.8s62,10.2,65.7,7.5
	c3.7-2.9,20.4-12.9,20.4-12.9s70.3-42.6,76.8-38.9c6.5,3.7,14.8,37.9,14.8,37.9s15.8,1,24.1-1c8.3-1.8,29.7-14.8,29.7-14.8
	s36,3.7,40.7,4.6c4.6,1,16.7,57.4,17.5,63c1,5.6,51.8,68.5,51.8,68.5s17.5,11.2,26,9.2c8.3-1.8,4.6-20.4,5.6-31.4
	c1-11.2,21.4-33.3,21.4-37.9s10.2-42.6,12.9-43.5c2.9-1,29.7-3.7,29.7-3.7l-10.2-29.7l59.3-15.8L6053.7,2416.1z"/>
<path class="st0" d="M6483.1,3723.4l24.5-91c-44.3-19.9-67.3-60.4-67.3-60.4l25.8-34.1v-60.1l23-104.4l44.3-35.2l0.5-52l49.4-92.8
	l-63.8-71.4l-44.3-95.3l-1-29l-90.7-126.9l4.1-61.1l-47.5,13.7l-74.9,0.5l-1.6-47.8l-47.8,6.1l-25.5-66.3l6.7-76.5l49.4,0.5
	l-5.6-65.7l-43.8-45c0,0-26-7.2-39.7-6.7s-29,11.3-29,11.3l-19.9-37.8l-20.4-2.6l-0.5-25.5L6057,2425l-12.1-37.3l0,0l9.2,28.2
	l-43.7,29.5l-59.3,15.8l10.2,29.7c0,0-26.8,2.9-29.7,3.7c-2.9,1-12.9,38.9-12.9,43.5s-20.4,26.8-21.4,37.9
	c-1,11.2,2.9,29.7-5.6,31.4c-8.3,1.8-26-9.2-26-9.2s-51-63-51.8-68.5c-0.8-5.6-12.9-62-17.5-63s-40.7-4.6-40.7-4.6
	s-21.4,12.9-29.7,14.8c-8.3,1.8-24.1,1-24.1,1s-8.3-34.3-14.8-37.9c-6.5-3.7-76.8,38.9-76.8,38.9s-16.7,10.2-20.4,12.9
	c-3.7,2.9-65.7-7.5-65.7-7.5s3.7-37.1-5.6-41.8s-35.2,1-35.2,1v16.7c0,0-59.3-5.6-83.4-5.6s-37.1,4.6-44.5,4.6
	c-7.3,0-1,70.3-0.2,74.1c1,3.7-10.2,17.5-10.2,17.5l-40.5-2.2c0.6,23,1,48.5-0.3,51.2c-2.4,5.1-48.6-15-48.6-15s-3.5,32.4-3.5,33.8
	s14.2,17.1,14.2,17.1l-1,22.6c0,0-9.1-0.3-9.4,6.2c-0.3,6.7-4.9,29.2-10.8,31.9c-5.9,2.9-5.9,20.6-8.3,34s7.3,13.2,9.7,18.3
	c2.4,5.1-2.6,60.4,2.1,70.6c4.6,10.2,121.3,12.9,136.1,11.5c14.8-1.6,69.5,9.9,99.2,15.5s74.6,58.3,74.6,58.3l2.9-15.3l12.6-1
	l4.1-7.8c0,0,10.2-1,11.6-1s5.6-8.8,3.7-13.4c-1.8-4.6,4.6-8.8,11.2-14.8c6.5-6.1,2.4-12.9,6.5-17.5s18.5-3.7,23.1,2.9
	c4.6,6.5,14.8,11.2,18,12.1c3.2,1,5.1,16.7,6.1,20.9c1,4.1,18,5.1,19.9,7c1.8,1.8,6.5,9.7,6.5,19.9s-4.1,22.2-12.9,33.8
	s2.4,58.3,1.8,65.4c-0.6,7-16.7,1.4-13.4,20.9c3.2,19.4-1,47.2-4.1,67.3c-3.2,19.9,40.7,30.1,56.4,39.9s2.4,104.3,5.4,106
	s59.5-6.5,59.5-6.5l9.2,56.9l-14.8,3.2c0,0,1.8,20.9,1.4,27.3c-0.5,6.5-55.3,13.7-55.3,13.7s0,100,0,112.5s19.3,41.9,21,41.9
	c1.8,0,15.8-11.2,15.8-11.2s11.2,16.7,16.3,22.2c5.1,5.6,35.2,55.6,35.2,55.6s-9.7,8.3-11.2,18c-1.4,9.7,24.1,13.9,29.2,19.4
	c5.1,5.6,11.6,34.3,18.5,34.8s11.2-10.7,24.5-10.2c13.4,0.5,8.8,33.3,8.8,33.3s28.2,35.2,42.6,62c14.3,26.8,31.9,36,40.3,39.9
	c8.4,3.8,7.5,12.9,19.4,13.9c12,1,25,15.8,37.9,39.4c12.9,23.6,24.1,27.7,45.9,31.9c21.8,4.1,26-4.6,26-4.6l14.3,12.6
	c0,0-10.7,25.5-11.6,39.4c-1,13.9-7,43.5-7,43.5s40.7,20.9,44.5,20.9c3.7,0,10.2-22.8,10.2-22.8s36,17.2,35.7,18.7
	c-0.5,1.4,0,16.3,0,16.3s35.7,15.3,37.6,19.4s-6.1,19.4-6.1,19.4l36.5,11.6c0,0,23.1-19.4,31.1-24.1c7.8-4.6,7.8-19,7.8-19
	l31.1,14.8c0,0,11.6-6.1,15.8-9.6c4.1-3.5,25.5-17.7,35.2-21.5c9.7-3.7,28.2-23.6,34.8-26c6.5-2.4,31.9,32.4,36,36
	c4.1,3.7,3.2,13.4,8.8,21.4c5.6,7.8,25.8,27.3,25.8,27.3c33.6-17.5,39.1-53.6,39.1-53.6l26,12.3l33.6-119.2l-43.7-16.7
	L6483.1,3723.4z"/>
<path class="st0" d="M6668.9,4361.2l4.6-23.6l-37.5-19.1l-19.9,27.6h-26l-39.7-29c0,0,80.2-10,83.4-12.9c3-3-6.9-60.4-6.9-60.4
	l-35.2-55.8h43.7l8.4-26.8l-16.7-17.5l-5.4,17.5l-20.7-16.7l4.6-27.6c0,0-48.9-20.7-59.6-33s-2.2-42.9-2.2-42.9l-74.9-39.1
	c0,0-20.2-19.4-25.8-27.3c-5.6-7.8-4.6-17.5-8.8-21.4c-4.1-3.7-29.7-38.4-36-36c-6.5,2.4-25,22.2-34.8,26
	c-9.7,3.7-31.1,18-35.2,21.5s-15.8,9.6-15.8,9.6l-31.1-14.8c0,0,0,14.3-7.8,19c-7.8,4.6-31.1,24.1-31.1,24.1L6206,3991
	c0,0,7.8-15.3,6.1-19.4c-1.9-4.1-37.6-19.4-37.6-19.4s-0.5-14.8,0-16.3c0.5-1.4-35.7-18.7-35.7-18.7s-6.5,22.8-10.2,22.8
	s-44.5-20.9-44.5-20.9s6.1-29.7,7-43.5c1-13.9,11.6-39.4,11.6-39.4l-14.3-12.6c0,0-4.1,8.8-26,4.6c-21.8-4.1-33-8.3-45.9-31.9
	c-12.9-23.6-26-38.4-37.9-39.4c-12.1-1-11.2-10.2-19.4-13.9c-8.3-3.7-26-12.9-40.3-39.9c-14.3-26.8-42.6-62-42.6-62s4.6-33-8.8-33.3
	c-13.4-0.5-17.5,10.7-24.5,10.2s-13.4-29.2-18.5-34.8s-30.6-9.7-29.2-19.4s11.2-18,11.2-18s-30.1-50.1-35.2-55.6
	c-5.1-5.6-16.3-22.2-16.3-22.2s-13.9,11.2-15.8,11.2c-1.8,0-17.9-24.4-20.7-38.3l0,0l-35.2,17.2c0,0-7.7-12.1-10.4-13.6
	c-2.9-1.4-13.9,3.8-13.9,3.8s3.5,18.8,3.8,20.9c0.3,2.1-7.7,7.3-10,7.7c-2.4,0.3-5.6-14.7-9.1-18.3c-3.5-3.8-13.2,4.1-13.2,4.1v20.1
	c0,0-3.5,1.4-5.9,0.8c-2.4-0.8-10.5-52-15.1-57.5c-4.6-5.6-32.4,46.4-33.3,51c-1,4.6-18.5,7.5-18.5,7.5l5.6,29.7l-6.5,4.6v14.8
	h-16.7l-17.5,25l-21.4,12.9h-8.3c0,0-21.4,21.4-28.7,24.1c-7.5,2.9-25.5-3.8-25.5-3.8s-3.2,6.7-9.1,18.8s-49.3,45.6-49.3,45.6
	s-11.5,2.9-14.2,1.4c-2.9-1.4-26.5-9.1-26.5-9.1l6.2,36.5h-15.9l7.7,112.2c0,0-50.1,4.9-58.3,5.9c-8.3,1-13.5,28.9-13.5,28.9h-42.7
	c0,0,2.1,15.9-1.8,18c-3.8,2.1-89.3-2.1-91.7,0c-2.4,2.1,0.8,37.6,0.8,37.6h-47.7c0,0,6.2,32.4,7,32.7s40.3-0.3,41.3,0
	c1.1,0.3,7.7,56.9,7.7,58s20.6-2.1,23-1.8s15.3,44.5,18.3,48.6s14.7-1.1,19.4,0c4.9,1,34.8,87.2,34.8,87.2l21.2-9.1l9.4,24.4h18
	c0,0,58.3,144.4,56.3,152.2c-2.1,7.7-27.1,7-27.7,14.7c-0.8,7.7,15.3,70.1,15.3,74.3c0,4.1,7.7,13.2,9.7,15.3c2.1,2.1,23,0,27.1,5.6
	s36.8,195.9,35.4,204.2c-1.4,8.3-52.1,41-56.9,48s0,30.6-3.5,39.7s-60.4,27.1-60.4,27.1l5.6,28.5l-84.8,25.7v24.2h-18l-3.5,37.6
	l-20.7,7l87.2,120l74.1,3.8l90.2-73.3l111,0.8l16.7,26.8l6.9-36.7l110.2-14.5l58.2-59.6l25.2-10.7v-12.9h80.2v74.9l29.8-10.7
	l7.7,60.4l18.3-0.8v-16.1l66.6-43.7l5.4-41.3l23-0.8c0,0,0-15.3,0-17.5s12.9-13.7,12.9-13.7v-26l23.6-10l19.1,62.6l32-10l20.7,23.6
	h37.5l0.8,23.6l-13.7,19.9v20.7l12.9,12.9l25.2-42.1h26.8v79.5l25.2-27.6v65l185.1-159.7h16.1l7.7-117.6l-14.5-7.7l14.5-68.9
	l47.5,10l21.4-25.2l30.6,7.7l0.8,25.2l24.5-8.4l-14.5-23l26.8-35.9l58.2,28.2l33.6-104.7l26.8,10.7c0,0,2.2-57.4,4.6-65.7
	c2.2-8.4,33.6-61.1,33.6-61.1L6668.9,4361.2L6668.9,4361.2z"/>
<path class="st0" d="M5179.9,4786.2h18V4762l84.8-25.7l-5.6-28.5c0,0,56.9-18,60.4-27.1s-1.4-32.7,3.5-39.7s55.6-39.7,56.9-48
	c1.4-8.3-31.2-198.6-35.4-204.2s-25-3.5-27.1-5.6c-1.4-1.4-5.7-6.4-8.1-10.7l-28.7,41.1l-150.3,18l3,45.9c0,0-45.9,3.8-47.2,3
	c-1.4-0.8-1.4-43.5-1.4-43.5s-59,7.3-61.5,6.7c-2.4-0.8-4.1-66-4.1-66s-40.7,1.8-41.9,0c-1.4-1.8-2.9-51-2.9-51l-43.8,1.4V4276
	l-54.2,3.8l-3.8-59c0,0-60.7,57.7-62.5,57.7s0-36,0-36l-72.9,1v-43.4l-63.6-0.3l-23-112.2l-33,5.6c0,0-6.2-29.2-12.9-43.5
	s-21.8-14.7-21.8-14.7l3,21.2c0,0-7.7,4.1-16.3,5.6c-8.8,1.4-4.1,13.9-2.9,21.2c1.4,7.3,2.1,15.9-3,17.1c-5.1,1.1-10.4,2.4-10.4,6.7
	s13.6,18.3,13.6,18.3v18.3c0,0-20.9,9.4-25.3,11.2c-4.5,1.8-39.2,8.3-39.2,8.3l14.2,111.4l16.7-5.6l8.3,115.4l-96.9-2.1v25.3
	l-51,8.8l-97.2-7l6.2,56.3l-50.4-4.9c0,0-1.4,8-2.4,8.3s-61.1-5.1-61.1-5.1l3.5,81.9c0,0,25-0.8,27.1,0s-4.9,95.8-4.9,95.8l69.5,4.9
	l3.5,52.8h25.7v24.2h-109.7l10.4,91c0,0-59,0.8-60.4,5.6c-1.4,4.9,32.7,35.4,37.6,45.1s0,78.6,0,78.6s38.9,7.7,50.7,7.7
	s16.7,6.2,20.1,9.7c2.1,2.1-8.1,58-16.6,102.5l26.5,1.8l-9.1,34.4l136.1,58.8l35.9-57.4l89.4,25.2l19.9-26.8v21.4l39.1,4.6
	l-5.4,33.6l54.4,6.9v-29l27.6,5.4l-16.1-160.7h32l-7.7-108.6l117-35.2V4796l206.4-3l10-52.8l100.9,49.7l-26.8,24.5l62.6,16.1l20.7-7
	L5179.9,4786.2z"/>
<path class="st0" d="M4279.6,4961.3c-3.5-3.5-8.3-9.7-20.1-9.7c-11.8,0-50.7-7.7-50.7-7.7s4.9-68.7,0-78.6
	c-4.9-9.7-38.9-40.3-37.6-45.1c1.4-4.9,60.4-5.6,60.4-5.6l-10.4-91h109.7v-24.2h-25.7l-3.5-52.8l-69.5-4.9c0,0,7-95.2,4.9-95.8
	c-2.1-0.8-27.1,0-27.1,0l-3.5-81.9c0,0,60.1,5.6,61.1,5.1c1-0.3,2.4-8.3,2.4-8.3l50.4,4.9l-6.2-56.3l97.2,7l51-8.8v-25.3l96.9,2.1
	L4551,4269l-16.7,5.6l-14.2-111.4l-15.3-62.2c0,0-73.3,2.4-78.1-1c-4.8-3.3-10.8-104.3-12.6-109c-1.8-4.9-19.1-0.3-29.8-0.3
	s-10.8,0.3-7-23s0-27.1,0-27.1c-48.6,5.1-105.2-8-109.7-8.8s13.9-47.7,13.9-47.7l-28.1-7c0,0-1.4-1.8-1.4-9.4
	c0-7.7,23.9-60.1,23.9-60.1l-4.9-7c0,0,39.7-46.2,48-55.2c8.3-9.1,2.4-9.4,2.4-9.4s-108.7-0.3-111.7-1.4s-0.8-59-4.5-62.8
	c-3.8-3.8-33,3.8-43.5,9.1c-10.4,5.1-32.4,8.8-37.6,8.8c-5.1,0-18-5.1-18-5.1s-7-77.2-6.7-91.3c0.3-14.2-11.5-15.9-15.9-15.3
	c-4.5,0.8-8,10-8,10s-80.2,4.5-83.1,3c-2.9-1.4-9.4-8.8-10.4-13.6c-1-4.9-26.5-2.4-30.9,0c-4.5,2.4-6.7,15-6.7,15s-63.3-1.8-66-1.8
	c-2.9,0-1.4,5.6-4.9,7.3s-10.8-0.3-13.2,0s0.8,15.9-0.3,18c-1,2.1-35.7-3.5-39.2-2.1s-1,42.4-3,44c-2.1,1.8-11.8-0.3-14.7,4.1
	c-2.9,4.5-27.4,5.6-35.7,6.2c-8.3,0.8,0,8.8,3.8,16.3c3.8,7.7,20.9,62.2,20.1,64.9c-0.8,2.9,1.4,13.6-2.9,13.9
	c-4.1,0.3-58.3-11.2-63.3-11.2c-4.9,0-6.7,98.4-6.7,98.4s-49.7,0-52.8,0c-3,0-1,21.5-3.8,24.2c-2.9,2.9-66.6-24.2-69-24.2
	s-10.8,26-10.8,26s28.2,107,28.1,133.4c-0.2,26.5-26.1,134.7-24.9,157c1.4,22.2-18,97.2,24.9,216.8
	c42.9,119.6,137.7,147.3,193.4,152.9s52.8,27.7,74.9,41.8c22.2,13.9,26.5,72.2,27.7,80.7c1.4,8.3,2.9,126.4,8.3,145.9
	c5.6,19.4,63.9,105.5,68.1,118.1c4.1,12.6,63.9,41.8,72.2,48.6c8.3,7,40.3,133.4,56.9,152.9c5.1,6.1,15.3,14.2,26.6,22.8v-46.9
	l42.9-42.1l81.5,5.1C4271.6,5019.1,4281.6,4963.3,4279.6,4961.3z"/>
<path class="st0" d="M4112.2,5124.5c-16.7-19.4-48.6-145.9-56.9-152.9c-8.3-6.9-68.1-36-72.2-48.6c-4.1-12.6-62.5-98.7-68.1-118.1
	s-7-137.6-8.3-145.9c-1.4-8.3-5.6-66.6-27.7-80.7c-22.2-13.9-19.4-36-74.9-41.8c-55.6-5.6-150.5-33.3-193.4-152.9
	c-16.7-46.9-24.1-86.7-26.6-119.6h-100.3c0,0-4.1,19.4-7,22.2c-2.9,2.9-112.5,6.2-112.5,6.2l10.4-28.5c0,0-109,29.2-120.2,29.2
	c-11,0-77.8,5.6-77.8,5.6l-23.6,15.9c0,0-9.1,0.8-11.8,3.5c-2.9,2.9-22.2,183.3-22.2,183.3s-24.2-23-29.8-23s8.1,57.7,8.1,57.7
	s-22.6,12.1-25.5,12.6s-36-17.2-40.7-18s-5.1,36-5.1,36s-22.6-18-28.2-24.5s-76.8-31.1-76.8-31.1l13.9-6.1v-12.1l-99.6-26l13.4-14.8
	l-14.3-14.8l-47.2,46.4l-63-7.5l5.6-52.3l-13.4-0.5c0,0-4.1-33.8-6.5-37.1c-2.4-3.2-97.7,7.8-97.7,7.8s0,26,0,28.7
	c0,2.9-30.1,1-33.8,1s0.5-15.8,0-19.4s-59.3-0.5-60.7-1.4c-1.4-1,0.5-42.6,0-45.9c-0.5-3.2-80.2-5.1-82.9-6.1
	c-2.9-1-1.8-14.8-2.4-18.5c-0.5-3.7-74.9,0-74.9,0v19l-67.3,8.3l29.2,110.8l-69.5-1.8l4.6,70h-16.3c0,0-5.6,28.7,2.4,28.7
	s16.7,5.1,17.5,7c1,1.9,2.9,18,2.4,32.4c-0.5,14.3,19,67.3,19,67.3s-37.6,0-39.9,0c-2.4,0-18,8.3-18,8.3s0,11.6,1,14.3
	c1,2.9,16.3,7,26.8,29.2c10.7,22.2,34.3,52.8,34.3,52.8s16.3-9.7,19-9.7c2.9,0,12.9,52.3,12.9,52.3s-28.7,2.4-34.8,2.4
	s-21.4-2.4-23.6-2.4c-2.2,0-25,35.2-26.5,37.9c-1.4,2.9,64.9,7,64.9,7s1.8,17.2,0,31.4c-1.8,14.3-20.4,70.8-23.6,76.5
	c-3.2,5.6-11.6,12.9-13.4,14.8c-1.8,1.8-3.2,18-3.2,22.6s-79.5,76.5-79.5,76.5s1.8,21.8,0,25s-25,2.9-25,2.9l-6.2,7.2l2.9,41
	l53.6,29.8l6.1,66.6l49.7-23.6v22.2l35.2,0.8v15.3l48.9-6.9V5254l36.7-19.9l34.4,68.1h17.5V5274c0,0,46.5-7.7,58.8-11.5
	s109.4-53.6,109.4-53.6v60.4l48.9,48.9l58.8-48.1l5.4,51.2l45.9-9.1l6.1,66.6l35.2-2.2l3.8,16.7l119.2-15.3l12.9,19.1l53.6-11.5
	l26.8,32l7.7,69.5l24.5-16.7l-32-117l23.6-10.7l10.7,16.7l42.1-18.3l19.1,26l48.9-6.9l58.8-52.8l46.5-99.3l19.1,6.1l16.1-23l91,47.5
	v54.4l28.2,10l16.7-10l-6.9-30.6l58.2,3.8l5.4-39.7l42.1,8.4v24.5l43.7,0.8v-29l9.1-12.9h13.7v-15.3l44.3,7.7v-33.3h57.4v15.3
	l42.1,0.8v19.1l18.3-0.8v58.2l33.6,0.8v30.6l25.2,1.6l16.7,59.6h160.7l65,24.5l52-118.6v-74.9l23-9.1v-36.5
	C4127.3,5138.9,4117.3,5130.6,4112.2,5124.5z"/>
<path class="st0" d="M4960.7,2347.5c0,0-4.8-18.5-15-19.4c-10.2-1-27.7-96.3-27.7-96.3s18.5-7.5,18.5-11.2s-16.7-55.6-20.4-63
	c-3.7-7.5-106.5-50.1-110.2-54.7c-3.7-4.6,4.6-32.4,5.6-37.1c1-4.6-7.5-10.2-13.9-12.9c-6.5-2.9,34.3-181.6,33.3-185.2
	c-1-3.7-12.9-6.5-12.9-6.5l4.6-35.2c0,0-35.2-7.5-48.1-7.5s-33.3-13.9-36-16.7c-2.9-2.9,7.5-91.7,7.5-91.7s9.2-11.2,9.2-13.9
	c0-2.9,1.8-20.4,1.8-20.4s37.1,1.8,41.8,0c4.6-1.8,3.7-49.1,3.7-51.8c0-2.9-26.8-5.6-30.6-10.2c-3.7-4.6,3.7-30.6,4.6-33.3
	s-12.1-8.3-14.8-11.2c-2.9-2.9,2.9-25,7.5-30.6s1-27.7,1-27.7s-11.2,0-17.5,0c-6.4,0-14.8-40.7-14.8-51c0-10.2-11.2-31.4-13.9-35.2
	c-2.9-3.7,3.7-42.6,3.7-51s11.2-13.9,11.2-13.9s4.6-4.6,4.6-17.5s37.9-41.8,37.9-41.8s12.1,5.6,16.7,8.3c4.6,2.9-2.9,22.2,11.2,23.1
	c13.9,1,8.3-24.1,12.1-34.3c3.7-10.2,8.3-9.2,14.8-9.2s14-7.5,12.1-11.2c-1.8-3.7-12.9-20.4-12.1-32.4c1-12.1,22.2-2.9,11.2-21.4
	c-11.2-18.5,14.8-22.2,22.2-25c7.5-2.9-12.1-18.5,0-24.1s10.2-14.8,10.2-22.2c0-7.5,12.1-19.4,13.9-22.2c1.8-2.9,4.6-16.7,4.6-16.7
	l34.3-38.9l1.8-15.8l-6.5-10.2l7.5-62h25l15.8-10.2l22.2,3.7l22.2,6.5l74.1-26.8l28.1-20.6l-14-61.2L5090,865
	c0,0-15.3-72.4-15.3-74.9s5.6-26.5,5.6-26.5L5012.5,642l-81.1,18.3l-51.5-11.3l-52.4,25.5l-12.3,30.1l-44.3,36.2l5.6,84.6
	l-31.6,18.8v74l-33.2,40.8l7.2,92.3l-41.8,2.6l-38.3,23l3.5,18.3l-80.5,6.1l-1-30.6l-22-7.2l-5.6-19.4l-39.2-16.7l-0.5-16.7
	l-58.2-18.3l-42.4,18.3l-48.9-12.3l-8.8,30.6l-61.1-54l-7.7,135l-23.4-0.5l-8.8,34.6l-19.9,0.5l0.5,66.3h-15.3v32l-107.6,59.6
	l-24.9,52l-30.1-10.2l18.8-22l-24.5-25.5l-33.6,30.6l-43.4-13.7l-3-16.7l-12.3-1.6l-67.3-59.1l-0.5-16.3l-158.5-68.9l-10.7,16.7
	l-37.8-15.3l29.5-65.2l-31.6-17.4l-294.3,378c13.6,9.7,30.1,20.7,40,24.4c19,7,15.3,14.8,15.3,14.8l-58.8,82.9l56.9-3.2l-42.6,63
	l49.6,11.2v47.7h22.2v37.6l11.6-4.6v45.3h80.2l-5.1,36l19.4,58.8l17.2,2.4l11.6-19.4l12.6-2.9l12.3-27.3l24.7-2.4l-15.8,43.5
	l7.8,9.2l-7.8,45.3l6.1,5.6l3.2,10.7l13.4-10.7l23.1,37.6h36l31.9-12.9h46.9c0,0,12.1,41.3,15.8,48.1c3.7,6.9,49.6-3.2,49.6-3.2
	l1.8,31.1l9.2,7.5l1.8,48.6l-14.8,5.1l13.9,46.4l3.2,38.9l6.5,31.9l8.8,31.9l-14.3,2.9l-26,15.3l-4.1,31.1c0,0,14.3,1.8,17.5,1.8
	s17.2-10.7,17.2-10.7s7.8,5.6,9.2,5.6s31.1-1.4,31.1-1.4l5.6,25l29.7,5.6l7.5,13.9c0,0,70.3-3.7,74.9-3.7s0-29.7,0-29.7
	s54.7,0,58.3-1.8c3.7-1.8,9.2-53.7,9.2-53.7h68.5c0,0-2.9,27.7,0,31.4s70.6,3.3,70.6,3.3s9.4-14.2,12.9-15.3s11.5,14.2,13.2,14.7
	c1.8,0.3,5.6-14.7,8.3-14.7c2.7,0,17.1,10,21.8,14.2c4.9,4.1,4.9,120.2,4.9,120.2l4.9,7.7v48.6v3.5l14.7,154.9
	c0,0,91.7-8.3,95.2-8.3s18.8,97.9,18.8,97.9l73.6,1.4c0,0-2.1-29.8,0-33.3s74.9-2.1,74.9-2.1v-11.8c0,0,62.5-4.1,66-4.1
	s20.1,11.2,20.1,11.2v15.3l20.9,20.9l20.1-7.7l5.6,77.2l70.8-23v25.7l57.7-7l-4.9-97.9l65.4,2.1l-13.9-145.9h10.4l3.5-24.2l4.1-11.2
	h16.7l-2.9-36.8l34.8-5.6v7.7l36.8-7.7l-5.6-25L4960.7,2347.5z"/>
<path class="st0" d="M4282.8,3649.6v-81.3h22.6l-7-63.9l-56.3,10.4l-25.7-204.2l-34.8,7.7c0,0-20.9-7.7-25-11.2
	s-18.8-48.6-18.8-48.6l-7-23l13.9-50.1h53.6l-6.2-37.6c0,0,35.4-9.7,35.1-9.7s69,7,73.3,7s43-7,43-7s-10.4-59.8-9.7-66
	c0.8-6.2,7-26.5,7-26.5s-27.7-3.5-29.2-10.4c-1.4-7-3.5-53.6-3.5-53.6s-28.5-26.5-31.2-30.6c-2.9-4.1-8.3-21.5-8.3-21.5h-25l-1.4-18
	h-25.7l1.8-42.4c0,0-44.8,8.3-45.9,6.2c-1-2.1-10-64.9-10-64.9H4131v-41.6c-9.7-2.7-18.7-5.1-23-5.9c-11.8-2.1-17.4-61.1-20.9-74.3
	s-95.8-0.8-97.9,2.1c-2.1,2.9-15.3,9.1-25,4.9c-9.7-4.1-15.3-16.7-15.3-16.7s-19.4,4.1-23.6,2.9c-4.1-1.4-7-27.7-7-27.7l-30.6,8.3
	l-11.2-15.9l-89.6,42.4c0,0,20.1,54.2,26.5,74.9s-3.5,19.4-27.1,8.3c-23.6-11.2-45.9-8.3-45.9-8.3v60.4c0,0-63.9,4.9-83.4,4.9
	c-19.4,0-27.7-24.2-27.7-24.2l-43.8,16.7c0,0,0,7-4.9,12.6s-9.7-14.7-9.7-14.7h-31.2c0,0,5.6,31.9-4.1,31.9s-11.2-15.3-11.2-15.3
	l-12.6,2.1v-15.9c0,0-9.7-2.1-10.5,4.9s-21.4,15.3-29,18.8c-7.7,3.5-9.1,20.1-9.1,20.1s-20.9,2.1-33.3,7.7
	c-12.6,5.6-4.1,27.7-4.1,27.7l-21.5,2.9v-7l-39.7-2.1v10.4l-40.3,6.2c0,0-9.7-9.1-18.8-7.7s-17.1,8-17.1,8l-31.2-47.2
	c0,0-4.9,8.3-12.6,12.9s-31.2,1.8-31.2,1.8v35.1l-45.6,3l-1.8-48l-67.4,3.5v44.5c0,0-26.8-10-31.7-18.3s-28.5,0-28.5,0V2865
	l-35.1-2.4l1.1,47.5h-17.5c0,0-15.5,48.9-16.9,66.5c-1.4,17.5,18,53.7,18,53.7s-15.5,55.2-18.2,64.4s-56,136.1-56,136.1
	s4.9,54.2,2.9,63.3c-2.1,9.1-29.8,102.2-29.8,102.2s25.3,15.3,30.4,14.7c5.1-0.8,32,3.5,34.9,12.6s0,38.9,0,38.9l1.3,36
	c0,0,16.9,9.1,17.5,15.9c0.8,7,0,38.9,0,38.9s48-3.5,48.6,0c0.8,3.5,2.9,29.8,9.7,33.3c7,3.5,23.6,23,25,27.1s25.7,18.8,25.7,18.8
	s5.6,16.7,8.3,15.9s19.4,11.8,23,18s14.7,16.7,42.4,15.9s37.6,7,61.1,23c23.6,15.9,288.2,118.8,301.6,121.6
	c8.9,1.9,45.3,28.1,67.4,44.5c2.6-7.7,7.3-20.6,9.1-20.6c2.4,0,66.3,27.1,69,24.2c2.9-2.9,0.8-24.2,3.8-24.2s52.8,0,52.8,0
	s1.8-98.4,6.7-98.4s59,11.5,63.3,11.2c4.1-0.3,2.1-11.2,2.9-13.9c0.8-2.7-16.3-57.4-20.1-64.9c-3.8-7.7-12.1-15.6-3.8-16.3
	c8.3-0.6,33-1.8,35.7-6.2c2.9-4.5,12.6-2.4,14.7-4.1c2.1-1.8-0.3-42.7,3-44c3.5-1.4,38.3,4.1,39.2,2.1c1-2.1-2.1-17.7,0.3-18
	c2.4-0.3,9.7,1.8,13.2,0s2.1-7.3,4.9-7.3c2.9,0,66,1.8,66,1.8s2.1-12.6,6.7-15c4.5-2.4,29.8-4.9,30.9,0c1,4.9,7.7,12.1,10.4,13.6
	c2.9,1.4,83.1-3,83.1-3s3.5-9.4,8-10c4.5-0.8,16.3,1,15.9,15.3c-0.3,14.2,6.7,91.3,6.7,91.3s12.9,5.1,18,5.1s27.1-3.5,37.6-8.8
	c10.4-5.1,39.7-12.9,43.5-9.1c3.8,3.8,1.4,61.9,4.5,62.8c2.4,0.8,63.3,1.1,94.2,1.4v-41.8l19.4-4.9
	C4323.2,3689.2,4292.2,3651.7,4282.8,3649.6z"/>
<path class="st0" d="M2920.6,2489.2c4.1-6.5,1-45.9,22.2-64.9c21.4-19,17.5-38.4,18.5-51.8s5.1-9.2,19.9-48.1
	c14.8-38.9-13.4-88-13.4-88l69-108.4l-60.3-2.4v-70.3c0,0-16.7-2.4-22.6-30.6c-6.1-28.2,22.6-33.8,22.6-33.8l-2.9-58.8h-37.9
	l-21.2-56.9l-0.5-35.2l-23.9-54.5l-17.4,15.3l-0.5,49.9l-49.9,9.1l-16.7-61.1l30.6-22l-4.6-62.6l14.8-23l-5.6-10.2l23-15.8
	l-15.8-68.2l-34.6-38.3l-1-80l-23.4-23l-1.6-40.3l-57.5,23.4l-66.3-18.8l-1,28.1l-101.9,9.6l-1,31.1l-61.1,13.7l-5.6-14.8l-13.7-0.5
	l-11.3-23.9l-27.6-0.5l-10.2,17.4l-9.7,0.5l-28.1-50.4l-57.1,0.5l-20.4,12.3l-29.5-2.1l-2.6,12.8l-24.5-3V1573h-13.2l-11.3,32
	l-80.8-7.5l46.2,64.1c0,0-8.8,58.3-8.8,60.3c0,1.8,21.4,0,24.1,0c2.9,0,14.8,85.8,14.8,89.9s-37.9,6.5-40.3,6.5
	c-2.4,0,5.6,32.4,5.6,36s-41.8,2.4-44,2.4c-2.4,0,14.8,96.3,13.9,100.4c-1,4.1-19.9-4.1-25,0s-0.5,22.6-1,26.5
	c-0.5,3.7-14.8-1.4-19,0c-4.1,1.4-2.9,13.4-5.6,22.6c-2.9,9.2-0.5,106.5,0,116.2s25,7.7,31.4,9.7c6.5,2.1-1.4,23.9,1.4,34.4
	c2.9,10.7,101.4,18,104.3,18.8c2.9,0.8,0,23.6,1,25s27.7-0.5,30.8,0c3,0.5,1.6,16.3,2.6,19c1,2.9,36.5-1.4,38.4,0
	c1.8,1.4,0,26,0,29.2s-17.5-0.5-22.6,0s-4.6,31.9-6.1,34.8c-1.4,2.9-33-2.4-37.6-1.8c-4.6,0.5,0,26,0,26s-21.4-3.2-25-3.2
	s0,144.4,0,144.4s-11.6,10.2-11.6,17.5s-5.1,25.5-13.9,33c-8.8,7.5-0.5,30.6,0,38.4c0.5,7.8-5.1,18.8-5.1,18.8l-18.8,39.9l74.9-0.8
	v-25.7l195.9-9.7v45.9l17.4-0.8v18l68.1,3.5l-2.9,38.9l68.7,2.9l5.7-75.7l-10.8-3.7l-2.6-18.3c0,0-27.7-2.1-28.5-4.1
	c-0.8-2.1,54.8-77.5,54.8-77.5s23,17.9,24.2,17.9c1.4,0,17.9-4.6,17.9-4.6s-1-8.3,0-8.8s10.4,1,13.2,0c2.9-1,0-33.5,1.4-35.4
	s19,17.9,22.2,17.5s-1.8-31.2,9.7-31.2s12.9,13.7,19.3,19.4c6.2,5.7,10.4-1.6,13.4-4.5s18,0,18,0s-1,26.5,8.8,40.7
	c9.7,14.3,96,4.8,96,4.8l2.4,26.3h41.9C2910.4,2535.2,2916.4,2495.8,2920.6,2489.2z"/>
<path class="st0" d="M1703,2665.7l-11.2-157.8l-40.3,3.2l9.7,155.6l-14.8,0.5l-2.4,61.1l-151.9-1l-8.3,42.2H1387l2.9-38.4h-43.5
	l-15.8,16.7l-72.7-6.1c0,0-4.1-28.2-6.5-29.7c-2.4-1.4-22.6,0.5-22.6,0.5s12.1-27.3,12.1-29.2s-63.4-2.9-63.4-2.9s-0.5-16.3,0-21.4
	c0.5-5.1-66.2-0.5-66.2-0.5s6.5-102.3,6.5-106.5c0-4.1-49.1-9.2-85.3-9.7c-36-0.5-118.1-18.5-118.1-18.5s-46.9,38.9-48.1,42.6
	c-1.4,3.7-2.9,30.6-2.9,30.6l-34.3-9.2l-3.7-15.8l-40.3,2.9c0,0,0.5-14.8,0-17.2s-29.2-2.4-29.2-2.4s2.9-25.5,0-29.7
	c-2.9-4.1-42.6,0-42.6,0l-2.4,12.6c0,0-40.3,1-42.2,0.5c-1.8-0.5-11.6-7.5-16.3-5.1c-4.6,2.4-23.6,2.4-23.6,2.4l-9.2,27.7l-22.8-9.1
	v117.6l23,28.1c0,0-5.1,30.6-6.1,34.1s-51,54.5-51,54.5l-23.9,83.1l-33.6-6.7l-52,168.2l19.4,24.5l80.5-6.7l23.9,12.8l0.5,19.3
	l68.2,27.1l-12.7,124l-54.5-5.6l-24.9,39.2h-47.5l-11.3,25.5l34.1,76l24.9,9.1l33,250.9l24.5,26.5l-5.6,69.8l16.7,42.4
	c6.5-3.3,10.8-5.7,11.8-6.7c4.1-4.1,19.1-23,19.1-23s17.7-23.3,34.8-20.6c17.1,2.9,29.5,13.9,29.5,13.9l19.1,15l63.3,3l8.3-3.5
	v-11.8l31.2-25l-4.9-9.7c0,0,37.6-49.3,36-51.5c-1.4-2.1-13.2-11.8-13.2-11.8l31.2-35.1v-18.8l12.6-17.4l-2.9-18.8l-9.4-8v-22.2
	l89.3-9.4c0,0,2.4-12.9,2.9-14.7c0.3-1.8,5.9-5.1,5.9-5.1l18.3-4.9c0,0,40.3,15.3,42.4,23s7.3,35.4,7.3,35.4l56.9-12.1l22.6,78.1
	l33-12.9c0,0,12.6,11.5,4.5,19.8c-8,8.3-17.7,11.8-17.7,11.8l2.4,20.1c0,0,28.9-7.8,30.9-7.8c2.1,0-3,15.6-3,15.6l82.7-15.3v49.3
	c0,0,98.7-18,103.5-15.3c4.9,2.9,6.2,39.7,6.2,39.7l68.7-7.7V3665l42.4-8.3l-3.5-52.8c0,0,184.1-2.1,184.8-4.9
	c0.6-2.9,7.7-61.1,7.7-61.1l126.9,2.6c3.2-73,12.6-193.1,23.9-225.6c13.9-40.3,26.5-207.1,26.5-207.1s-23.8-349.3-28.9-447.6
	L1703,2665.7z"/>
<path class="st0" d="M2206.9,2547.6c-0.5-7.8-8.8-31.1,0-38.4c8.8-7.5,13.9-25.5,13.9-33s11.6-17.5,11.6-17.5s-3.7-144.4,0-144.4
	s25,3.2,25,3.2s-4.6-25.5,0-26s36,4.6,37.6,1.8c1.4-2.9,1-34.3,6.1-34.8s22.6,3.2,22.6,0s1.8-27.7,0-29.2c-1.8-1.4-37.6,2.9-38.4,0
	c-1-2.9,0.5-18.5-2.6-19c-3-0.5-29.8,1.4-30.8,0s1.8-24.2-1-25c-2.9-0.8-101.4-8.1-104.3-18.8c-2.9-10.7,5.1-32.4-1.4-34.4
	c-6.5-2.1-31.1,0-31.4-9.7c-0.5-9.7-2.9-107,0-116.2s1.4-21.4,5.6-22.6c4.1-1.4,18.5,3.7,19,0s-4.1-22.2,1-26.5
	c5.1-4.1,24.1,4.1,25,0c1-4.1-16.3-100.4-13.9-100.4c2.4,0,44,1.4,44-2.4s-7.8-36-5.6-36c2.4,0,40.3-2.4,40.3-6.5
	s-12.1-89.9-14.8-89.9s-24.1,1.8-24.1,0s8.8-60.3,8.8-60.3l-46.2-64.1l49.1,4.6l0,0l-126.1-11.8l-34.6,15.8l-20.6-6.9l-4.3,1.8
	l-34,18.8l-27.1-9.7c0,0-4.9-4.9-11.2-13.9c-6.2-9.1-30.6-4.1-30.6-4.1l-21.5-4.9l-31.2,34.8l-3.5,11.2l-17.4-4.9l-11.2,41.8
	l-59.8-11.8c0,0-6.2,25-9.1,29.2s-13.9,48.6-13.9,48.6l-65.4,0.8l-4.9-18.8l-63.9,12.6v73.6l-116.7-11.8v70.1l-126.4-13.9
	l-22.2,29.8l-4.9-22.2l-43,8.3l0.8,9.7l16.7,13.9c0,0-22.2,25-25.7,25s-17.4-9.1-17.4-9.1l9.1-35.4l-32.7-4.1c0,0,0.8,15.9-7,15.9
	c-7.7,0-14.7-15.9-14.7-15.9h-9.1v13.9c0,0-15.3,9.7-27.7,13.9c-12.6,4.1-37.6-4.1-37.6-4.1v20.1h-14.7c0,0,3.5,49.3,3.5,53.6
	c0,4.3-15.9,16.7-15.9,16.7l-122.9-9.1v72.2l-109.7-2.1V2025l-42.4-18.8c0,0,12.6,101.4-28.5,102.8c-41,1.4-47.2-43.8-47.2-43.8v-37
	l-75.7,7.7l4.1,38.3l-25.7,2.9l-7.7-25l-58.3,6.2l-13.2,15.3l-43.8-2.9l-8.8-68.5l-9.1,16.3h-72.9l-45.9,59.6l-14.2,260.5
	l150.3,133.1l42.4,83.1l22.8,9.1l9.2-27.7c0,0,19,0,23.6-2.4s14.3,4.6,16.3,5.1c1.9,0.5,42.2-0.5,42.2-0.5l2.4-12.6
	c0,0,39.9-4.1,42.6,0c2.9,4.1,0,29.7,0,29.7s28.7,0,29.2,2.4s0,17.2,0,17.2l40.3-2.9l3.7,15.8l34.3,9.2c0,0,1.4-26.8,2.9-30.6
	c1.4-3.7,48.1-42.6,48.1-42.6s81.9,18,118.1,18.5c36,0.5,85.3,5.6,85.3,9.7c0,4.1-6.5,106.5-6.5,106.5s66.6-4.6,66.2,0.5
	c-0.5,5.1,0,21.4,0,21.4s63.4,1,63.4,2.9s-12.1,29.2-12.1,29.2s20.4-1.8,22.6-0.5c2.4,1.4,6.5,29.7,6.5,29.7l72.7,6.1l15.8-16.7
	h43.5l-2.9,38.4h96.8l8.3-42.2l151.9,1l2.4-61.1l14.8-0.5l-9.7-155.6l40.3-3.2l11.2,157.8l122.4-4.9c-0.8-15.6-1.1-24.9-1-25.5
	c2.1-3.5,81.3-2.1,81.3-2.1s-0.8-28.5,0-32.7c0.8-4.1,50.1-13.2,50.1-13.2l-15.3-25c0,0,33.3-35.4,47.2-39.7c13.9-4.1,43-5.6,43-5.6
	l10.4,42.4c0,0,41-11.2,60.4-13.9c19.4-2.9,27.7,13.9,27.7,13.9l72.2,6.7C2201.8,2566.2,2207.3,2555.4,2206.9,2547.6z"/>
<path class="st0" d="M555.3,2070.5l43.8,2.9l13.2-15.3l58.3-6.2l7.7,25l25.7-2.9l-4.1-38.3l75.7-7.7v36.8c0,0,6.2,45.1,47.2,43.8
	s28.5-102.8,28.5-102.8l42.4,18.8v14.7l109.7,2.1v-72.2l122.9,9.1c0,0,15.9-12.6,15.9-16.7s-3.5-53.6-3.5-53.6h14.7v-20.1
	c0,0,25,8.3,37.6,4.1c12.6-4.1,27.7-13.9,27.7-13.9v-13.9h9.1c0,0,7,15.9,14.7,15.9s7-15.9,7-15.9l32.7,4.1l-9.1,35.4
	c0,0,13.9,9.1,17.4,9.1s25.7-25,25.7-25l-16.7-13.9l-0.8-9.7l43-8.3l4.9,22.2l22.2-29.8l126.4,13.9v-70.1l116.7,11.8v-73.6
	l63.9-12.6l4.9,18.8l65.4-0.8c0,0,11.2-44.5,13.9-48.6c2.9-4.1,9.1-29.2,9.1-29.2l59.8,11.8l11.2-41.8l17.4,4.9l3.5-11.2l31.2-34.8
	l21.5,4.9c0,0,24.2-4.9,30.6,4.1c6.2,9.1,11.2,13.9,11.2,13.9l27.1,9.7l34-18.8l4.3-1.8l20.6,6.9l-21.4-7.2l2.6-77.5l-46.9-46.9
	l-1.6-50.4L1960,1413l5.6-39.7l-51-28.1l1.6,43.8l-44.3,6.7l-34.6-30.6l-13.7-58.7l-33.6,20.9l-0.5,26l-15.8,1.6l-16.7-33.6
	l-83.7-6.7l-11.3,15.8l-56.1-19.4l-2.1-65.7l-56.6,0.5l3.5-69.3l-47.8,27.1l-28.1-10.2l-96.9,37.1l-10.2-26l-57.5,1.6v-11.8
	l-64.7,18.3l-52.4-36.2l42.9,169.3l-15.3,7.7l-43.8,84.6h-124.8l-17.9,18.8l-1,41.3l-32.7-0.5l-0.5-14.2l-142.7,6.7v-52H800v25.5
	h-19.4c0,0-22.5,122.3-22.5,125.5c0,3-27.6,24.9-27.6,24.9l-83.1-16.9c0,0-48.5,56.6-65.7,68.2c-17.4,11.6-60.1,24.9-60.1,24.9
	l-8.1,174.9l33.6,136.6L555.3,2070.5z"/>
<path class="st0" d="M5717.6,3437c0-12.6,0-112.5,0-112.5s54.8-7.2,55.3-13.7s-1.4-27.3-1.4-27.3l14.8-3.2l-9.2-56.9
	c0,0-56.4,8.3-59.5,6.5c-3-1.8,10.4-96.3-5.4-106s-59.8-19.9-56.4-39.9c3.2-19.9,7.5-47.7,4.1-67.3c-3.2-19.4,12.9-13.9,13.4-20.9
	s-10.7-53.7-1.8-65.4c8.8-11.6,12.9-23.6,12.9-33.8s-4.6-18-6.5-19.9c-1.8-1.8-19-2.9-19.9-7c-1-4.1-2.9-19.9-6.1-20.9
	s-13.4-5.6-18-12.1s-19-7.5-23.1-2.9s0,11.6-6.5,17.5c-6.5,6.1-12.9,10.2-11.2,14.8c1.8,4.6-2.4,13.4-3.7,13.4c-1.4,0-11.6,1-11.6,1
	l-4.1,7.8l-12.6,1l-2.9,15.3c0,0-45-52.8-74.6-58.3c-29.7-5.6-84.3-16.9-99.2-15.5c-14.8,1.6-131.5-1.3-136.1-11.5
	s0.3-65.4-2.1-70.6c-2.4-5.1-12.1-4.9-9.7-18.3c2.4-13.6,2.4-31.2,8.3-34c5.9-2.7,10.4-25.3,10.8-31.9c0.3-6.7,9.4-6.2,9.4-6.2
	l1.1-22.6c0,0-14.2-15.6-14.2-17.1s3.5-33.8,3.5-33.8s46.2,20.1,48.6,15c1.3-2.9,1-28.2,0.3-51.2l-41.1-2.4c0,0-12.9-9.2-4.6-18.5
	c8.3-9.2,1.8-28.7,1.8-28.7l3.7-15.8c0,0,3.7-15.8,6.5-27.3c2.9-11.5,33.3-24.7,33.3-24.7s1-63.9,0-73.2c-1-9.2-71.3-1-71.3-1v70.3
	c0,0-14.8-1.8-14.8,1.8c0,3.7-8.3,23.1-19.4,26c-11.2,2.9-42.6-5.6-42.6-5.6s-29.7-21.4-35.2-27.7c-5.6-6.5-23.1-19.4-27.7-21.4
	c-4.6-1.8-32.4,8.3-32.4,8.3l-15.8-29.7h-11.2c0,0-19.4-42.6-28.7-45.3c-9.2-2.9-44.3,12.9-44.3,12.9l19.1,55.8l5.6,25l-36.8,7.7
	v-7.7l-34.8,5.6l2.9,36.8h-16.7l-4.1,11.2l-3.5,24.2h-10.4l13.9,145.9l-65.4-2.1l4.9,97.9l-57.7,7v-25.7l-70.8,23l-5.6-77.2
	l-20.1,7.7l-20.9-20.9v-15.3c0,0-16.7-11.2-20.1-11.2c-3.5,0-66,4.1-66,4.1v11.8c0,0-72.9-1.4-74.9,2.1s0,33.3,0,33.3l-73.6-1.4
	c0,0-15.3-97.9-18.8-97.9s-95.2,8.3-95.2,8.3l1.4,12.3l-63.6,18.3c0,0,0,63.9,4.6,69.5s4.6,41.8-5.6,45.3
	c-10.2,3.7-14.8,24.1-14.8,24.1l-102.5-8.3v53.9h31.2c0,0,9.1,62.8,10,64.9c1,2.1,45.9-6.2,45.9-6.2l-1.8,42.4h25.7l1.4,18h25
	c0,0,5.6,17.4,8.3,21.5c2.7,4.1,31.2,30.6,31.2,30.6s2.1,46.5,3.5,53.6c1.4,7,29.2,10.4,29.2,10.4s-6.2,20.1-7,26.5
	c-0.8,6.2,9.7,66,9.7,66s-38.9,7-43,7s-73.6-7-73.3-7c0.3,0-35.1,9.7-35.1,9.7l6.2,37.6h-53.6L4131,3235l7,23
	c0,0,14.7,45.1,18.8,48.6c4.1,3.5,25,11.2,25,11.2l34.8-7.7l25.7,204.2l56.3-10.4l7,63.9H4283v81.3c9.4,2.1,40.7,39.7,40.7,39.7
	l-19.4,4.9v41.9c10.7,0.2,17.7,0.2,17.7,0.2s5.9,0.3-2.4,9.4c-8.3,9.1-48,55.2-48,55.2l4.9,7c0,0-23.9,52.4-23.9,60.1
	c0,7.7,1.4,9.4,1.4,9.4l28.1,7c0,0-18.3,46.9-13.9,47.7c4.5,0.8,61.1,13.9,109.7,8.8c0,0,3.8,3.8,0,27.1s-3.8,23,7,23
	s28.1-4.5,29.8,0.3s7.7,105.5,12.6,109s78.1,1,78.1,1l15.3,62.2c0,0,34.8-6.7,39.2-8.3c4.5-1.8,25.3-11.2,25.3-11.2v-18.3
	c0,0-13.6-14.2-13.6-18.3s5.1-5.6,10.4-6.7c5.1-1,4.5-9.7,3-17.1c-1.4-7.3-5.9-19.8,2.9-21.2s16.3-5.6,16.3-5.6l-3-21.2
	c0,0,15.3,0.3,21.8,14.7c6.5,14.3,12.9,43.5,12.9,43.5l33-5.6l23,112.2l63.6,0.3v43.5l72.9-1c0,0-1.8,36,0,36s62.5-57.7,62.5-57.7
	l3.8,59l54.2-3.8v52.1l43.8-1.4c0,0,1.4,49.3,2.9,51c1.4,1.8,41.9,0,41.9,0s1.8,65.4,4.1,66c2.4,0.8,61.5-6.7,61.5-6.7
	s0,42.7,1.4,43.5s47.2-3,47.2-3l-3-45.9l150.3-18l28.7-41.1l0,0c-1-1.8-1.6-3.5-1.6-4.6c0-4.1-15.9-66.6-15.3-74.3
	c0.8-7.7,25.7-7,27.7-14.7c2.1-7.7-56.3-152.2-56.3-152.2h-18l-9.4-24.4l-21.2,9.1c0,0-29.8-86.1-34.8-87.2c-4.9-1-16.3,4.1-19.4,0
	c-3-4.1-15.9-48.3-18.3-48.6s-23,2.9-23,1.8c0-1.1-6.7-57.7-7.7-58c-1.1-0.3-40.7,0.3-41.3,0c-0.6-0.3-7-32.7-7-32.7h47.7
	c0,0-3-35.4-0.8-37.6c2.4-2.1,87.8,2.1,91.7,0s1.8-18,1.8-18h42.7c0,0,5.1-27.7,13.5-28.9c8.3-1,58.3-5.9,58.3-5.9l-7.7-112.2h15.9
	l-6.2-36.5c0,0,23.6,7.7,26.5,9.1c2.9,1.4,14.2-1.4,14.2-1.4s43.5-33.3,49.3-45.6c5.7-12.3,9.1-18.8,9.1-18.8s18.2,6.7,25.5,3.8
	s28.7-24.1,28.7-24.1h8.3l21.4-12.9l17.5-25h16.7v-14.8l6.5-4.6l-5.6-29.7c0,0,17.5-2.9,18.5-7.5s28.7-56.4,33.3-51
	c4.6,5.6,12.8,56.9,15.1,57.5c2.4,0.8,5.9-0.8,5.9-0.8v-20.1c0,0,9.7-8,13.2-4.1c3.5,3.8,6.7,18.8,9.1,18.3s10.4-5.6,10-7.7
	c-0.3-2.1-3.8-20.9-3.8-20.9s11.2-5.1,13.9-3.8c2.9,1.4,10.4,13.6,10.4,13.6l35.2-17.2l0,0C5717.8,3439.5,5717.6,3438.2,5717.6,3437
	z"/>
<path class="st0" d="M2230.5,4860c1.4-2.9,24.1-37.9,26.5-37.9s17.5,2.4,23.6,2.4s34.8-2.4,34.8-2.4s-10.2-52.3-12.9-52.3
	c-2.9,0-19,9.7-19,9.7s-23.6-30.6-34.3-52.8s-26-26.5-26.8-29.2c-1-2.9-1-14.3-1-14.3s15.8-8.3,18-8.3c2.4,0,39.9,0,39.9,0
	s-19.4-52.8-19-67.3s-1.4-30.6-2.4-32.4s-9.7-7-17.5-7s-2.4-28.7-2.4-28.7l-7-21.5l-6.2-2.1l-9.1-40.3l-9.1-5.6
	c0,0-10.4-41.8-12.6-42.4c-2.1-0.8-13.9-6.1-13.9-6.1s-23.6-93.4-27.1-101.7c-3.5-8.3-17.4-7-24.2-7c-6.9,0-41-0.8-45.9-5.6
	c-4.9-4.9-4.1-27.1-4.1-27.1l-64.4-1.6l18.3,151.6l32.5,199.9v110.2l-19.9,27.6l-96.3,14.8l1,34l30.6,37.9l-20.4,12.3l3.8,89.4
	l-61.7-30.3l-38.4-0.8l-5.6-132.3l-18.8,29.8l-17.4-17.4c0,0,23.6-68.9,23.6-77s-6.7-66.6-6.7-66.6l-18.3-6.1c0,0,12.8-6.1,7.7-37.1
	c-5.1-31.1-23.9-190.2-23.9-190.2l-68.9,9.1l-4.1,90.2l-35.7-135.3l-37.6-305l-83.4-3c0.8,35.4,3.2,178.7-0.2,232.1
	c-3.8,61.1,5.9,246.1,31.4,328.9c0,0,72.5,191.1-65.8,352l37,39.7l26.8,66.6l24.5-22.2l5.4,8.4l70.3,1.6l6.9,62l-14.5,23
	l217.1,159.1l16.7-25.2l41.3,10l25.2-82.6v-78l63.4-17.5l-3-16.7l85.6-13.7l2.9,40.7l-2.1-28.2l6.2-7.2c0,0,23.1,0.5,25-2.9
	c1.8-3.2,0-25,0-25s79.5-71.9,79.5-76.5s1.4-20.9,3.2-22.6c1.8-1.8,10.2-9.2,13.4-14.8c3.2-5.6,21.8-62,23.6-76.5s0-31.4,0-31.4
	S2229,4862.8,2230.5,4860z"/>
<path class="st0" d="M1802.9,3583.6c0-10.2,0.5-25,1.1-42.6l-126.9-2.6c0,0-7,58.3-7.7,61.1c-0.8,2.9-184.8,4.9-184.8,4.9l3.5,52.8
	l-42.4,8.3v38.9l-68.7,7.7c0,0-1.4-36.8-6.2-39.7c-4.8-2.9-103.5,15.3-103.5,15.3v-49.3l-82.7,15.3c0,0,5.1-15.6,3-15.6
	s-30.9,7.8-30.9,7.8l-2.4-20.1c0,0,9.7-3.5,17.7-11.8s-4.5-19.8-4.5-19.8l-33,12.9l-22.5-78.4l-56.9,12.1c0,0-5.1-27.7-7.3-35.4
	c-2.1-7.7-42.4-23-42.4-23l-18.3,4.9c0,0-5.6,3.5-5.9,5.1c-0.3,1.8-2.9,14.7-2.9,14.7l-89.3,9.4v22.2l9.4,8l2.9,18.8l-12.6,17.4
	v18.8l-31.2,35.1c0,0,11.8,9.7,13.2,11.8s-36,51.5-36,51.5l4.9,9.7l-31.4,25v11.8l-8.3,3.5l-63.3-3l-19.1-15
	c0,0-12.6-11.2-29.5-13.9c-17.1-2.9-34.8,20.6-34.8,20.6s-15,18.8-19.1,23c-0.8,0.8-5.3,3.2-11.8,6.7l25,63.1c0,0,2.1,52.4-1,57.1
	c-3,4.6-18.8,4.6-18.8,4.6l-3.5,79.5l-47.8,58.2c0,0-56.6,34.6-65.7,34.6c-9.1,0-38.7-14.8-38.7-14.8l-33.2,23.9l-17.9-17.4
	l-43.8,38.3l-47.8,2.6l-17.9,43.4c0,0,6.1,2.1,14.8,8.1c8.8,6.1,10,28.1,10,28.1l50.4,6.9l35.2,71.9l115.4,29l41.3,35.2l175.8,23
	c0,0-89.9-67.3-100.7-98.7c-10.8-31.4-7.8-130.9-7.8-130.9s209.8-10.8,239.3-12.8c29.5-2.1,139.8-30.6,139.8-30.6
	s-22.6-126.1-12.8-127.1c9.9-1,236.4,14.8,272.8,9.9c36.5-4.9,113.3-35.4,113.3-35.4l14.8,74.8l77.8-1l-21.7,84.6h106.3
	c0,0,0.2,2.9,0.2,8l83.4,3l-19-153.8l14-1.6c0,0-7.7-36.5-7.2-38.4c0.5-2.1,12.8-14.2,19.9,1c7.2,15.3,32,81.1,32,81.1l1.1,9.7
	l132.8-11.5C1832.1,3974,1802.9,3636.4,1802.9,3583.6z"/>
<path class="st0" d="M851.7,4457.5l63.4,39.7l48.9-18.3l125.5,8.4l178.9,182.7l65.7-73.3l18.3,63.4l24.5,1.6l7.7,78l-13.7,39.7
	l-58.8,26.8l5.4,39.1l46.5,45.9l163,91.8l13.6,14.7c138.4-160.8,65.8-351.8,65.8-351.8c-25.5-82.7-35.4-267.8-31.4-328.9
	s0-240.1,0-240.1h-106.3l21.7-84.6l-77.8,1l-14.8-74.8c0,0-76.8,30.6-113.3,35.4c-36.5,4.9-262.9-10.8-272.8-9.9
	c-9.9,1,12.8,127.1,12.8,127.1s-110.3,28.5-139.8,30.6c-29.5,2.1-239.3,12.8-239.3,12.8s-3,99.5,7.8,130.9s100.7,98.8,100.7,98.8
	L851.7,4457.5z"/>
<path class="st0" d="M2377.1,3230L2377.1,3230v-19.6l-70.6-136.1l44.8-26.5l-54.7-8.3h-21.4l-24.1-20.1l-37,52.3
	c-2.6,1.4-4.1,3.2-3.7,5.3c1.8,10.7,11.2,47.7,11.2,47.7l-133.9,78.3c0,0,2.9-37.6-4.1-37.6s-87.5-1.4-87.5-1.4l-1.4,50.1
	c0,0-15.3-4.9-20.1-9.1c-4.9-4.1-13.2-20.9-16.7-24.2s-54.2,3.5-54.2,3.5v-18l-49.3-57.7c0,0-12.6,166.7-26.5,207.1
	c-13.9,40.3-25,215.4-25,268.1s29.2,390.4,29.2,390.4l-132.8,11.5l24.7,219l190.7-26.5v-49.9l35.2-0.8V3971l17.1,36.5l52.9-23
	l21.8,83.9l164.8,3.7l-12.9-51c0,0-6.2-17.4-13.9-22.2s-15.3-31.9-12.6-36.8c2.9-4.9,11.2-13.2,11.2-13.2s4.9-164.7,9.7-172.3
	c4.9-7.7,22.2-13.2,22.2-13.2s3.5-13.7,2.9-13.7s-19.6,0-19.6,0s10-10.7,9.6-12.9c-0.5-2.4-8.3-45.3-8.3-45.3l6.1-3.2
	c0,0-9.2-79.2-7.8-79.5c1.4-0.5,43.5-1.8,45-5.1c1.4-3.2-3.7-107,0-114.3c3.7-7.5,127.8-183.8,127.8-191.3s3.7-26,8.3-32.4
	C2378.1,3259.1,2383.3,3232.9,2377.1,3230z"/>
<path class="st0" d="M2258,2605.5l-74.9,0.8l18.8-39.9l-72.2-6.7c0,0-8.3-16.7-27.7-13.9c-19.4,2.9-60.4,13.9-60.4,13.9l-10.4-42.4
	c0,0-29.2,1.4-43,5.6c-13.9,4.1-47.2,39.7-47.2,39.7l15.3,25c0,0-49.3,9.1-50.1,13.2c-0.8,4.1,0,32.7,0,32.7s-79.2-1.4-81.3,2.1
	c-2.1,3.5,29.8,473.1,29.8,473.1l49.3,57.7v18c0.8-0.2,46.2-6.2,53.4-3.8c0.3,0.2,0.6,0.3,0.8,0.5c3.5,3.5,11.8,20.1,16.7,24.2
	c4.8,4.1,19.8,8.9,20.1,9.1l1.4-50.1c0,0,80.7,1.4,87.5,1.4c0.2,0,0.5,0,0.6,0.2c6.1,2.1,3.7,36.7,3.5,37.3l134-78.2
	c0,0-9.2-37.1-11.2-47.7c-0.3-2.1,1.1-3.8,3.7-5.3l37-52.3l24.1,20.1h12.3l-15.8-48.1L2258,2605.5z"/>
<path class="st0" d="M4249.3,2626.3l63.6-18.3l-1.4-12.3l-14.7-154.9v-3.5v-48.6l-4.9-7.7c0,0,0-116.1-4.9-120.2
	c-4.9-4.1-19.1-14.2-21.8-14.2c-2.7,0-6.7,15-8.3,14.7s-9.7-15.6-13.2-14.7c-3.5,1.1-12.9,15.3-12.9,15.3s-67.9,0.3-70.6-3.3
	s0-31.4,0-31.4h-68.5c0,0-5.6,51.8-9.2,53.7c-3.7,1.8-58.3,1.8-58.3,1.8s4.6,29.7,0,29.7s-74.9,3.7-74.9,3.7l-7.5-13.9l-29.7-5.6
	l-5.6-25c0,0-29.7,1.4-31.1,1.4s-9.2-5.6-9.2-5.6s-13.9,10.7-17.2,10.7c-3.2,0-17.5-1.8-17.5-1.8l4.1-31.1l26-15.3l14.3-2.9
	l-8.8-31.9l-6.5-31.9l-3.2-38.9l-13.9-46.4l14.8-5.1l-1.8-48.6l-9.2-7.5l-1.8-31.1c0,0-45.9,10.2-49.6,3.2
	c-3.7-6.9-15.8-48.1-15.8-48.1h-46.9l-31.9,12.9h-36l-23.1-37.6l-13.4,10.7l-3.2-10.7l-6.1-5.6l7.8-45.3l-7.8-9.2l15.8-43.5
	l-24.7,2.4l-12.3,27.3l-12.6,2.9l-11.6,19.4l-17.2-2.4l-19.4-58.8l5.1-36h-80.2v-45.3l-11.6,4.6v-37.8h-22.2V1641l-49.6-11.2
	l42.6-63l-56.9,3.2l58.8-82.9c0,0,3.7-7.8-15.3-14.8c-9.9-3.7-26.5-14.7-40-24.4l-49.7,63.9l-75.4-9.1v87.7l-17.9,32.7l-24.5-9.1
	l-51,33.6l-24.9,41.8l37.1,36.7l-86.1,39.2l-85.1,101.9l-76,7.7l21.2,56.9h37.9l2.9,58.8c0,0-28.7,5.6-22.6,33.8
	c6.1,28.2,22.6,30.6,22.6,30.6v70.3l60.3,2.4l-69,108.4c0,0,28.2,49.1,13.4,88s-19,34.8-19.9,48.1c-1,13.4,2.9,33-18.5,51.8
	s-18,58.3-22.2,64.9c-1,1.6-2.1,4.9-3.2,9.4c111.4-0.5,232.6,0.6,236.6,7c4.9,7.8,3.2,222.7,1.6,364.7l10.8-0.5l1.8,48l45.6-3v-35.1
	c0,0,23.6,2.9,31.2-1.8c7.7-4.5,12.6-12.9,12.6-12.9l31.2,47.2c0,0,8-6.7,17.1-8c9.1-1.4,18.8,7.7,18.8,7.7l40.3-6.2v-10.7l39.7,2.1
	v7l21.5-2.9c0,0-8.3-22.2,4.1-27.7c12.6-5.6,33.3-7.7,33.3-7.7s1.4-16.7,9.1-20.1c7.7-3.5,28.2-11.8,29-18.8s10.5-4.9,10.5-4.9v15.9
	l12.6-2.1c0,0,1.4,15.3,11.2,15.3s4.1-31.9,4.1-31.9h31.2c0,0,4.9,20.1,9.7,14.7c4.9-5.6,4.9-12.6,4.9-12.6l43.8-16.7
	c0,0,8.3,24.2,27.7,24.2s83.4-4.9,83.4-4.9v-60.4c0,0,22.2-2.9,45.9,8.3c23.6,11.2,33.3,12.6,27.1-8.3
	c-6.2-20.9-26.5-74.9-26.5-74.9l89.6-42.4l11.2,15.9l30.6-8.3c0,0,2.9,26.5,7,27.7c4.1,1.4,23.6-2.9,23.6-2.9s5.6,12.6,15.3,16.7
	c9.7,4.1,23-2.1,25-4.9c2.1-2.9,94.5-15.3,97.9-2.1c3.3,13.2,9.1,72.2,20.9,74.3c4.3,0.8,13.2,3.2,23,5.9v-12.1l102.5,8.3
	c0,0,4.6-20.4,14.8-24.1c10.2-3.7,10.2-39.9,5.6-45.3C4249.3,2690.3,4249.3,2626.3,4249.3,2626.3z"/>
<polygon class="st0" points="3368.2,1448.3 3368.2,1448.3 3420.8,1380.7 "/>
<path class="st0" d="M2641.3,3312.3l23,374.1l8.9,66.5l93.1,22.2l252.5-6.7l34.4-32.4c0,0-11.6-26.1-76.5-47.5
	c-65-21.4-137.6-104.6-140.6-132.2c-3-27.6-9.4-54.7-9.4-54.7s-91-128.5-100.9-149.2C2716.2,3332.5,2645.1,3313.3,2641.3,3312.3z"/>
<path class="st0" d="M2671.9,3743.2l-7.5-56.8l-23-374.1c-0.2,0-0.2,0-0.2,0l-68.9,21.7c0,0-18.7,2.1-44,4.1
	c-8.1,32.8-15.3,67.1-14.7,82.4c1.4,34-8.9,212.7-8.9,212.7l7.3,110.8h152.1L2671.9,3743.2z"/>
<path class="st0" d="M3153.9,2505.7c-4-6.4-125.3-7.3-236.6-7c-3.3,14-6.4,37.8-4.8,42.4h-41.9l0,0h-0.3l-2.4-26.3
	c-3,0.3-30.1,3.2-54.8,3.2c-19.1,0-37-1.8-41.1-7.8c-9.7-14.3-8.8-40.7-8.8-40.7s-4.8-1-9.4-1.1c-3.5-0.2-7,0-8.4,1.1
	c-2.1,1.9-4.8,6.2-8.4,6.5h-0.2c-0.2,0-0.3,0-0.3,0c-1.4,0-3-0.5-4.8-2.1c-6.2-5.7-7.7-19.3-19.1-19.4c-11.5,0.2-6.4,30.9-9.6,31.2
	h-0.2c0,0,0,0-0.2,0c-3,0.3-18.7-16.9-21.7-17.7c0,0-0.2,0-0.2,0.2c-1.4,1.8,1.4,34.4-1.4,35.4c-0.8,0.2-1.9,0.3-3.3,0.3
	c-3.2,0-7.3-0.5-9.2-0.5c-0.3,0-0.6,0-0.8,0.2c-1,0.5,0,8.8,0,8.8s-16.4,4.6-17.9,4.6l0,0c-0.2,0-0.2,0-0.2,0
	c-1.3,0-22.2-16.1-24.1-17.7c-1.3,1.6-14.7,19.9-27.9,38.4h-0.3c-13.7,19-27.1,38.1-26.8,39.1c0.8,2.1,28.5,4.1,28.5,4.1l2.6,18.3
	l10.8,3.7l-1,12.1h0.3l-4.9,63.6h-0.3l0,0l-68.7-2.9l2.9-38.9l-68.1-3.5v-18l-17.1,0.6l0,0h-0.3v-45.8L2258,2580v25.7l13.9,385.9
	l15.8,48.1h8.9l54.7,8.3l-44.8,26.5l70.6,136.1v19.6c6.2,2.9,1,28.9-3.7,35.4c-4.6,6.5-8.3,25-8.3,32.4c0,0,30.8,45.9,83.1,45
	c52.1-1,124-8.9,124-8.9l68.9-21.7c0,0,74.8,19.6,84.6,40.3c9.9,20.7,100.9,149.2,100.9,149.2l60.7-105.9c0,0,0.2-0.5,0.3-1.4
	c0.2-0.2,0.2-0.3,0.2-0.6c0.2-0.3,0.2-0.8,0.3-1.1c0.2-0.3,0.2-0.5,0.3-1c0.2-0.6,0.3-1.4,0.6-2.1c0.2-0.5,0.3-1.1,0.5-1.8
	c0.2-0.6,0.3-1.4,0.6-2.1c0.5-1.4,1-3,1.4-4.6c0.3-0.8,0.5-1.8,0.8-2.6c0.2-0.5,0.3-1.1,0.5-1.8c0.3-1.1,0.8-2.4,1.1-3.8
	c4.8-16.3,11.3-37.9,16.1-54.7c0.2-0.6,0.3-1.4,0.5-2.1c1.1-3.8,2.2-7.5,3-10.7c0.2-0.3,0.2-0.5,0.2-0.8c0.2-0.5,0.3-1,0.5-1.4
	c0.3-1,0.5-1.9,0.8-2.7c0.2-0.5,0.3-0.8,0.3-1.3c0.2-0.6,0.3-1.1,0.5-1.6s0.3-1,0.3-1.4c0.3-1.1,0.5-2.1,0.6-2.6
	c0.5-2.1,0.5-6.1,0.5-11.3c0-0.8,0-1.6-0.2-2.4c0-0.3,0-0.8,0-1.1c0-0.8-0.2-1.6-0.2-2.4c0-0.5,0-1-0.2-1.4
	c-0.3-8.9-1.1-19.4-1.8-28.1c0-0.2,0-0.2,0-0.2c-0.8-9.4-1.4-16.3-1.4-16.3s27.1-64.6,43.7-104.9c0.3-0.6,0.5-1.3,0.8-1.9
	c0.3-0.5,0.5-1.1,0.8-1.6c0.2-0.5,0.3-0.8,0.5-1.3c0.3-0.6,0.5-1.4,0.8-2.1c1.1-2.7,2.2-5.4,3-7.7c0.2-0.5,0.3-1,0.6-1.6
	c0.2-0.5,0.3-1,0.5-1.3c0.3-1,0.6-1.8,1-2.4c1.1-2.6,2.1-4.9,2.6-6.9c0.2-0.3,0.3-0.8,0.3-1.1c0.2-0.3,0.3-0.8,0.3-1.1
	c0.2-0.3,0.3-0.6,0.3-1c0.3-0.8,0.5-1.3,0.5-1.6c0.3-1,0.6-2.2,1.1-3.7c0.2-0.5,0.3-1.1,0.5-1.8c0.2-0.3,0.2-0.6,0.3-1
	c0.3-1.3,0.8-2.6,1.1-4.1c0.2-0.3,0.2-0.8,0.3-1.1c0.3-1.3,0.8-2.6,1.1-3.8c0.2-0.8,0.5-1.4,0.6-2.2c0.2-0.5,0.3-1,0.3-1.3
	c0.3-1.4,0.8-2.6,1.1-4c0.5-1.8,1-3.7,1.6-5.6c0.5-1.9,1.1-3.7,1.6-5.6c0.3-1,0.5-1.9,0.8-2.9c4.1-14.3,7.7-27.3,7.7-27.3
	s-3-5.6-6.5-13.2c-0.3-0.6-0.5-1.3-0.8-1.9c-2.6-5.6-5.1-12.1-7.3-18.7c-0.2-0.5-0.3-1-0.5-1.6c-0.2-0.2-0.2-0.5-0.2-0.6
	c-0.2-0.5-0.3-1.1-0.5-1.6c-0.5-2.1-1.1-4.1-1.4-6.1c-0.3-1.3-0.5-2.4-0.6-3.7c0-0.2,0-0.2,0-0.3c-0.2-0.5-0.2-1.1-0.2-1.8
	c0-0.2,0-0.2,0-0.2c-0.2-1.6-0.2-3,0-4.3c0-0.3,0-0.5,0.2-0.8c0-0.2,0-0.2,0-0.3c0-0.2,0-0.3,0.2-0.5c0-0.2,0-0.2,0-0.3
	c0-0.2,0.2-0.3,0.2-0.6c0-0.2,0-0.2,0-0.3c0-0.3,0.2-0.5,0.2-0.8c0-0.2,0-0.3,0.2-0.3c0-0.2,0.2-0.3,0.2-0.5s0-0.3,0.2-0.5
	c0-0.2,0.2-0.3,0.2-0.5s0.2-0.3,0.2-0.5s0.2-0.3,0.2-0.5c0.2-0.3,0.2-0.8,0.2-1.1c0-0.2,0-0.2,0-0.3c0-0.3,0.2-0.5,0.2-0.8
	c0-0.2,0-0.2,0.2-0.3c0.2-0.3,0.2-0.5,0.2-0.8c0-0.2,0-0.2,0-0.2c4.1-21.4,15.5-56.9,15.5-56.9h17.5l-1.1-47.5l35.1,2.4v34.4
	c0,0,23.6-8.3,28.5,0s31.7,18.3,31.7,18.3V2872l56.6-2.9C3157.1,2728.4,3158.7,2513.5,3153.9,2505.7z"/>
<path class="st0" d="M3018.6,3768.5l-189.5,4.9l0,0l-63,1.6l-93.1-22.2l-2.1-14.8l0.6,5.1l-7.5,1h-152l28.5,157l0,0l38.5,183.2
	h118.5v92l234.9-6.1l2,67.4c0,0,38.8,8.2,73.5-12.3c34.7-20.4,36.8-141,36.8-141L3018.6,3768.5z"/>
<path class="st0" d="M2540.6,3901.5l0.4-0.3l-28.5-157l-7.7-111c0,0,10.4-178.7,8.9-212.7c-0.6-15.5,6.5-49.5,14.6-82.3
	c-24.3,2.1-54.6,4.2-80.2,4.7c-48.5,0.9-78.5-38.6-82.6-44.3c-4.9,14-124.1,183.3-127.7,190.6c-3.7,7.3,1.4,111.1,0,114.3
	c-0.1,0.2-0.4,0.4-0.8,0.6l9,431.2c0,0,68.4,239,119.5,266.6s260.4,26.6,260.4,26.6l-47-244.2L2540.6,3901.5z"/>
<path class="st0" d="M3585.2,4166.8c-1.2-22.3,24.7-130.5,24.9-157c0.1-26.4-28.1-133.4-28.1-133.4s0.7-2.2,1.8-5.4
	c-22-16.4-58-42.3-67-44.2c-13.2-2.9-277.9-105.5-301.6-121.6c-23.6-15.9-33.3-23.6-61.1-23c-27.7,0.8-38.9-9.7-42.4-15.9
	s-20.1-18.8-23-18s-8.3-15.9-8.3-15.9s-24.2-14.7-25.7-18.8c-1.4-4.1-18-23.6-25-27.1s-9.1-29.8-9.7-33.3c-0.8-3.5-48.6,0-48.6,0
	s0.8-31.9,0-38.9s-17.5-15.9-17.5-15.9l-1.3-36c0,0,2.9-29.8,0-38.9s-29.8-13.2-34.9-12.6c-5.1,0.8-30.4-14.7-30.4-14.7l-60.7,105.9
	c0,0,6.4,27.1,9.4,54.7s75.6,110.8,140.6,132.2c65,21.4,76.5,47.5,76.5,47.5l-34.4,32.4l26.2,315.8c0,0-2,120.6-36.8,141
	c-34.7,20.4-73.5,12.3-73.5,12.3l-2-67.4l-234.9,6.1v-92h-118.5l47,244.2c0,0-209.4,1-260.4-26.6
	c-51.1-27.6-119.5-266.6-119.5-266.6l-9-431.2c-6,2.9-42.8,4-44.2,4.5c-1.4,0.3,7.8,79.5,7.8,79.5l-6.1,3.2c0,0,7.8,42.9,8.3,45.3
	c0.5,2.2-9.6,12.9-9.6,12.9c3.6,0,18.3,0,18.8,0c0.4,0,0.7,0,0.8,0c0.6,0-2.9,13.7-2.9,13.7s-17.2,5.6-22.2,13.2
	c-4.8,7.7-9.7,172.3-9.7,172.3s-8.3,8.3-11.2,13.2c-2.7,4.9,4.9,32,12.6,36.8c7.7,4.8,13.9,22.2,13.9,22.2l12.9,51h-0.8l-164.8-3.7
	l-21.8-83.5l-52.2,22.6l-0.1-0.3l-0.7,0.3l8.1,17.4l7.7,92.9l15.3,0.3l25.5,88.3v19.1h-15.6l1.6,13.2l0,0l15,118.9l0.4,0.6
	l-9.6-79.8l64.4,1.6c0,0-0.8,22.2,4.1,27.1c4.9,4.8,39,5.6,45.9,5.6c6.8,0,20.7-1.3,24.2,7c3.5,8.3,27.1,101.7,27.1,101.7
	s11.8,5.3,13.9,6.1c2.2,0.6,12.6,42.4,12.6,42.4l9.1,5.6l9.1,40.3l6.2,2.1l7,21.5c0,0-5.4,28.7,2.4,28.7s16.5,5.2,17.5,7
	c0.8,1.4,2.1,11.6,2.4,22.9l0.4,0c-0.3-11.5-1.6-22.1-2.4-23.6c-0.8-1.9-9.5-7-17.5-7s-2.4-28.7-2.4-28.7h16.3l-4.6-70l69.5,1.8
	l-29.2-110.8l67.3-8.3v-19c0,0,74.4-3.7,74.9,0c0.6,3.7-0.5,17.5,2.4,18.5c2.7,1,82.4,2.9,82.9,6.1c0.5,3.3-1.4,44.9,0,45.9
	c1.4,0.9,60.2-2.2,60.7,1.4s-3.7,19.4,0,19.4s33.8,1.9,33.8-1c0-2.7,0-28.7,0-28.7s95.3-11,97.7-7.8c2.4,3.3,6.5,37.1,6.5,37.1
	l13.4,0.5l-5.6,52.3l63,7.5l47.2-46.4l14.3,14.8l-13.4,14.8l99.6,26v12.1l-13.9,6.1c0,0,71.2,24.6,76.8,31.1s28.2,24.5,28.2,24.5
	s0.4-36.8,5.1-36s37.8,18.5,40.7,18s25.5-12.6,25.5-12.6s-13.7-57.7-8.1-57.7s29.8,23,29.8,23s19.3-180.4,22.2-183.3
	c2.7-2.7,11.8-3.5,11.8-3.5l23.6-15.9c0,0,66.8-5.6,77.8-5.6c11.2,0,120.2-29.2,120.2-29.2l-10.4,28.5c0,0,109.6-3.3,112.5-6.2
	c2.9-2.8,7-22.2,7-22.2h46.1h53.5C3579.2,4213.3,3586.1,4180.3,3585.2,4166.8z"/>
	<MetaInfo xmlns="http://www.prognoz.ru">
    <Geo>
        <GeoItem
				X="311.2000732421875" Y="641.9000854492188"
				Latitude="40.311203" Longitude="116.464754"
		/>
		<GeoItem
				X="6693.2010498046875" Y="5488.101257324219"
				Latitude="40.008269" Longitude="116.986284"
		/>
    </Geo>
</MetaInfo>
</svg>
