<?xml version="1.0" encoding="utf-8"?>
<!-- Generator: Adobe Illustrator 23.0.0, SVG Export Plug-In . SVG Version: 6.00 Build 0)  -->
<svg version="1.1" id="图层_1" xmlns="http://www.w3.org/2000/svg" xmlns:xlink="http://www.w3.org/1999/xlink" x="0px" y="0px"
	 viewBox="0 0 40 24" style="enable-background:new 0 0 40 24;" xml:space="preserve">
<style type="text/css">
	.st0{opacity:0.5;}
</style>
<path d="M441.5,197.5l10.02-16.95c0.1,0.27,0.2,0.55,0.31,0.83v0L455,176v-30l-0.5-0.09v-0.41l-15.5-2.91V133l-0.5-0.2v-0.3
	l-26.44-10.77L417,99l-0.59-0.08l0.09-0.42l-21.32-2.91L402,80v-2.41c-0.16-0.06-0.34-0.13-0.5-0.19V63.5l5-17l-11-3l-18-44l-8-1
	v-17l-62-2c0,0-0.07,0.08-0.17,0.22v0c-3.88,4.81-75.62,93.49-103.83,118.78c0,0-32-73-69-91s-75-33-75-33l7-15l18,6l3-20l-11-11
	l-17,15l-9-9l17-13c0,0-7-24-17-25s-25-9-25-9l-5-10l-8-2l-3,15l9,6l-3,14l-46-30l5-16l-23-8l5-16l-9.5-2.51l-24.5-6.49l-14-14
	l-15-13l8-20l-29-13l5-17l-132.6-54.87l-33.97,17.39l-45.95,15.42l-30.27-0.7l-0.38,16.47l-14.97-0.34l-15.68,16.11l-15.3-0.35
	l-14.97-0.34l-15.3-0.35l-15.34,15.95l14.97,0.34l-0.76,32.93l-0.38,16.3l-0.38,16.47l-0.38,16.47l14.92,16.82l-0.38,16.3
	l14.59,16.81l-0.38,16.47l14.93,16.65l0.38-16.3l15.3,0.35l-15.68,15.95l-15.68,16.11L-416.53-17l-0.38,16.47l-15.34,15.95
	l14.97,0.34l-0.38,16.47l15.3,0.35l15.3,0.35l14.97,0.34l-0.38,16.47l-14.97-0.34l-0.38,16.47l14.97,0.34l-0.38,16.3l15.3,0.35
	l14.97,0.34l-0.38,16.47l14.92,16.82l30.27,0.7l-0.75,32.76l-0.38,16.47l14.97,0.34l-0.38,16.47l29.89,17l15.3,0.35l14.59,16.81
	l15.3,0.35l-15.68,16.11l-14.97-0.34l-0.38,16.3l14.97,0.34l15.3,0.35l14.59,16.81l-0.38,16.47l15.3,0.35l-0.38,16.3l14.97,0.34
	l-0.38,16.47l15.3,0.35l-0.38,16.47l-16.06,32.41l-0.38,16.47l-0.38,16.47l14.93,16.65l14.59,16.81l-0.38,16.47l-0.38,16.47
	l15.3,0.35l-0.38,16.3l14.59,16.81l-0.38,16.47l-0.38,16.3l-0.38,16.47l15.3,0.35l14.97,0.34l-0.38,16.47l-0.38,16.3l15.3,0.35
	l-16.06,32.58l-15.34,15.95l-0.38,16.47l-0.38,16.47l-15.3-0.35l14.92,16.82l-0.38,16.3l-0.47,0.48h0.97v0
	c0.16,0.03,6.11,0.98,14.98,0c9-1,9-9,11-12s8-7,17-8s24-13,25-16s9,0,20,5s45,6,45,6l0.58-0.41l-1.08-0.09l17-12c0,0-2-5-3-11
	s5-7,5-7s9-9,9-10s4-11,4-11v-10c0,0,11,1,17-2s6-14,6-14l-14-8c0,0,16-20,24-33s26-20,26-20s16,10,18,9s1-14,1-14l10-17l-42-7
	l-9-12c0,0,6-14,7-16s6,5,6,5s3-4,3-8s6-21,6-21l18-13c0,0,18-21,17-23s2-7,9-13s19-6,19-6s29-19,29-20s0-9,0-9l12-7c0,0,12,9,16,9
	s2-8,2-8l-5-15l17-3c0,0,9,12,10,12s40-13,40-13l-2-12l27-9l-4-11l28-9l-6-26l53-11l-2,17l13,4l18-4v-12h23l-2.99-14.56L441.5,197.5
	z"/>
<g>
	<path class="st0" d="M203.59,98.42c-0.03,0.03-0.06,0.05-0.09,0.08c0,0-32-73-69-91s-75-33-75-33l7-15l18,6l3-20l-11-11l-17,15
		l-9-9l17-13c0,0-7-24-17-25s-25-9-25-9l-5-10l-8-2l-3,15l9,6l-3,14l-46-30l5-16l-23-8l5-16l-9.5-2.51l-24.5-6.49l-14-14l-15-13
		l8-20l-29-13l5-17l-132.6-54.87l-33.97,17.39l-45.95,15.42l-30.27-0.7l-0.38,16.47l-1.39-0.03L-350-231l2-4l7,8c0,0-1,6,0,11
		s2,8,2,8l10,1l-4,14l129,52l-2,6c0,0,20-4,25-3v13l57,27l-1,12l6-1l8,7c0,0,4-6,8-3s5,8,5,8h5l11,16l-4,3l8,12c0,0-6,3-6,8h4l-3,12
		l21,8l-3,12l7,3l-4,11c0,0,11,3,12,9s-6,35-6,35h10c0,0-1,21,1,25s5,12,4,17s-2,15-2,15s-5,4-4,13s2,23,2,28s-1,15-1,15l-2,6l3,13
		l4,4l11,29l46-30h14v-13l12-9l25-44l32-17l13,7h10l-9-12l14-8l6,22l8-8l9,17l26-13l9,21l23-9L203.59,98.42z"/>
	<path class="st0" d="M351.5,276.5L351.5,276.5L263,295l-40-134l-3.56-9.01L170,167l16,56l-32,9c0,0-13,35-15,44s-11,39-11,39l-8,6
		v9l23,4c0,0,14-5,16-5s28,9,28,9l41.31,23.61l0.19-0.11c0,0,12,9,16,9s2-8,2-8l-5-15l17-3c0,0,9,12,10,12s40-13,40-13l-2-12l27-9
		l-4-11l28-9L351.5,276.5z"/>
	<path class="st0" d="M208,123l-23,9l-9-21l-26,13l-9-17l-8,8l-6-22l-14,8l9,12h-10l-13-7l-32,17l-25,44l-12,9v13H16l-46,30l-5,31
		l3,19l-14,6l-10,18l-13,13l7,10l-16,13c0,0-15,5-20,5s-16,1-16,1s17,28,23,47c0,0,2-1,5,0s53,17,53,17l5-18l12,7l7-9c0,0,9,0,11,1
		s6,11,5,20c0,0,14,0,17-2s6-7,6-9s3-5,6-5s8,0,8,0s8-7,13-8s34-20,34-20v-16l18-11l11,1v-9l8-6c0,0,9-30,11-39s15-44,15-44l32-9
		l-16-56l49.44-15.01L208,123z"/>
	<path class="st0" d="M187,338c0,0-26-9-28-9s-16,5-16,5l-23-4l-11-1l-18,11v16c0,0-29,19-34,20s-13,8-13,8s-5,0-8,0s-6,3-6,5
		s-3,7-6,9s-17,2-17,2c1-9-3-19-5-20s-11-1-11-1l-7,9l-12-7l-5,18c0,0-50-16-53-17s-5,0-5,0c-6-19-23-47-23-47s-24,4-26,4
		c-1.3,0-8.14-1.7-12.73-2.88l-15.03,30.35l-0.38,16.47l-0.38,16.47l14.93,16.65l14.59,16.81l-0.38,16.47l-0.38,16.47l15.3,0.35
		l-0.38,16.3l14.59,16.81l-0.38,16.47l-0.38,16.3l-0.38,16.47l15.3,0.35l14.97,0.34l-0.38,16.47l-0.38,16.3l15.3,0.35l-16.06,32.58
		l-15.34,15.95l-0.38,16.47l-0.38,16.47l-15.3-0.35l14.92,16.82l-0.38,16.3l-0.47,0.48h0.97v0c0.16,0.03,6.11,0.98,14.98,0
		c9-1,9-9,11-12s8-7,17-8s24-13,25-16s9,0,20,5s45,6,45,6l0.58-0.41l-1.08-0.09l17-12c0,0-2-5-3-11s5-7,5-7s9-9,9-10s4-11,4-11v-10
		c0,0,11,1,17-2s6-14,6-14l-14-8c0,0,16-20,24-33s26-20,26-20s16,10,18,9s1-14,1-14l10-17l-42-7l-9-12c0,0,6-14,7-16s6,5,6,5
		s3-4,3-8s6-21,6-21l18-13c0,0,18-21,17-23s2-7,9-13s19-6,19-6s29-19,29-20s0-9,0-9l11.81-6.89L187,338z"/>
	<path class="st0" d="M-41,190l-4-4l-3-13l2-6c0,0,1-10,1-15s-1-19-2-28s4-13,4-13s1-10,2-15s-2-13-4-17s-1-25-1-25h-10
		c0,0,7-29,6-35s-12-9-12-9l4-11l-7-3l3-12l-21-8l3-12h-4c0-5,6-8,6-8l-8-12l4-3l-11-16h-5c0,0-1-5-5-8s-8,3-8,3l-8-7l-6,1l1-12
		l-19.74-9.35L-153-88l6,8l-9,17l-7-3c-1,12-6,21-6,21c-5,0-8,3-8,5s-6,22-6,22v9l-5,9l7,5l3,8l-2,6v7l16,9l-5,10l-2,48l-8,7l-36,1
		v21l-3,5l-3-2l-14,13l5,45l-23,13l-2-8l-6-4l-7.8,8.26l14,7.96l15.3,0.35l14.59,16.81l15.3,0.35l-15.68,16.11l-14.97-0.34
		l-0.38,16.3l14.97,0.34l15.3,0.35l14.59,16.81l-0.38,16.47l15.3,0.35l-0.38,16.3l14.97,0.34l-0.38,16.47l15.3,0.35l-0.38,16.47
		l-1.02,2.06c4.6,1.18,11.43,2.88,12.73,2.88c2,0,26-4,26-4s11-1,16-1s20-5,20-5l16-13l-7-10l13-13l10-18l14-6l-3-19l5-31L-41,190z"
		/>
	<polygon class="st0" points="-261,184 -255,188 -253,196 -230,183 -235,138 -221,125 -218,127 -215,122 -215,101 -179,100 -171,93 
		-169,45 -164,35 -180,26 -180,19 -178,13 -181,5 -188,0 -201,12 -213,13 -209,27 -221,31 -221,27 -228,30 -228,36 -250,39 -259,47 
		-269,47 -274,43 -278,43 -276,73 -283,73 -283,80 -293,88 -295,88 -311,101 -327.91,116.5 -298.15,117.19 -298.9,149.95 
		-299.28,166.42 -284.31,166.76 -284.69,183.23 -254.79,200.22 -268.8,192.26 	"/>
	<path class="st0" d="M-181-125v-13c-5-1-25,3-25,3l2-6l-129-52l4-14l-10-1c0,0-1-3-2-8s0-11,0-11l-7-8l-2,4l-17.06-14.83
		l-13.58-0.31l-15.68,16.11l-15.3-0.35l-14.97-0.34l-15.3-0.35l-15.34,15.95l14.97,0.34l-0.76,32.93l-0.38,16.3l-0.38,16.47
		l-0.38,16.47l14.92,16.82l-0.38,16.3l14.59,16.81l-0.38,16.47l14.93,16.65l0.38-16.3l15.3,0.35l-15.68,15.95l-15.68,16.11
		L-416.53-17l-0.38,16.47l-15.34,15.95l14.97,0.34l-0.38,16.47l15.3,0.35l15.3,0.35l14.97,0.34l-0.38,16.47l-14.97-0.34l-0.38,16.47
		l14.97,0.34l-0.38,16.3l15.3,0.35l14.97,0.34l-0.38,16.47l14.92,16.82l0.5,0.01L-311,101l16-13h2l10-8v-7h7l-2-30h4l5,4h10l9-8
		l22-3v-6l7-3v4l12-4l-4-14l12-1l13-12l5-9v-9c0,0,6-20,6-22s3-5,8-5c0,0,5-9,6-21l7,3l9-17l-6-8l9.26-19.35L-181-125z"/>
	<path class="st0" d="M441.5,197.5l10.02-16.95c0.1,0.27,0.2,0.55,0.31,0.83v0L455,176v-30l-0.5-0.09v-0.41l-15.5-2.91V133l-0.5-0.2
		v-0.3l-26.44-10.77L417,99l-0.59-0.08l0.09-0.42l-21.32-2.91L402,80v-2.41c-0.16-0.06-0.34-0.13-0.5-0.19V63.5l5-17l-11-3l-18-44
		l-8-1v-17l-62-2c0,0-0.07,0.08-0.17,0.22v0c-3.88,4.81-75.62,93.49-103.83,118.78c0.03-0.03,0.06-0.05,0.09-0.08L208,123l15,38
		l40,134l88.5-18.5v0l53-11l-2,17l13,4l18-4v-12h23l-2.99-14.56L441.5,197.5z"/>
</g>
</svg>
